<svg width="683" height="325" viewBox="0 0 683 325" fill="none" xmlns="http://www.w3.org/2000/svg">
<path d="M334.412 82H258.472L215.151 167.905L171.836 82H77V250.235H114.791V115.148L185.563 250.235H294.367V174.445H312.571V250.235H334.412V82Z" fill="black"/>
<rect x="76.4465" y="6.55351" width="317.893" height="75.893" transform="rotate(90 76.4465 6.55351)" stroke="#D9D9D9" stroke-width="1.10703"/>
<rect x="408.446" y="6.55351" width="317.893" height="73.893" transform="rotate(90 408.446 6.55351)" stroke="#D9D9D9" stroke-width="1.10703"/>
<rect x="408.446" y="324.446" width="407.893" height="73.893" transform="rotate(180 408.446 324.446)" stroke="#D9D9D9" stroke-width="1.10703"/>
<rect x="408.446" y="81.4465" width="407.893" height="74.893" transform="rotate(180 408.446 81.4465)" stroke="#D9D9D9" stroke-width="1.10703"/>
<path d="M682.783 295.264H488.944" stroke="#B3B3B3" stroke-width="0.270571"/>
<path d="M682.783 291.975V297.456" stroke="#B3B3B3" stroke-width="0.270571"/>
<path d="M488.944 293.07V298.552" stroke="#B3B3B3" stroke-width="0.270571"/>
<path d="M571.508 312.842H570.417V305.764C569.988 306.335 569.287 306.621 568.339 306.621H568.183V305.556H568.339C569.703 305.556 570.43 304.972 570.43 303.881V303.751H571.508V312.842ZM576.769 312.985C574.652 312.985 573.301 311.141 573.301 308.271C573.301 305.426 574.652 303.608 576.769 303.608C578.886 303.608 580.237 305.426 580.237 308.271C580.237 311.141 578.886 312.985 576.769 312.985ZM576.769 311.985C578.198 311.985 579.12 310.53 579.12 308.271C579.12 306.037 578.198 304.608 576.769 304.608C575.34 304.608 574.418 306.037 574.418 308.271C574.418 310.53 575.34 311.985 576.769 311.985ZM585.076 312.985C582.959 312.985 581.609 311.141 581.609 308.271C581.609 305.426 582.959 303.608 585.076 303.608C587.193 303.608 588.544 305.426 588.544 308.271C588.544 311.141 587.193 312.985 585.076 312.985ZM585.076 311.985C586.505 311.985 587.427 310.53 587.427 308.271C587.427 306.037 586.505 304.608 585.076 304.608C583.648 304.608 582.726 306.037 582.726 308.271C582.726 310.53 583.648 311.985 585.076 311.985ZM594.132 315.44H593.054V305.959H593.911L594.028 307.206C594.522 306.348 595.431 305.803 596.548 305.803C598.366 305.803 599.639 307.258 599.639 309.362C599.639 311.504 598.366 312.985 596.548 312.985C595.496 312.985 594.625 312.504 594.132 311.699V315.44ZM596.379 312.05C597.652 312.05 598.522 310.946 598.522 309.362C598.522 307.816 597.652 306.738 596.366 306.738C595.067 306.738 594.132 307.79 594.132 309.31C594.132 310.92 595.067 312.05 596.379 312.05ZM601.364 312.842H600.143L602.637 309.426L600.169 305.959H601.377L603.247 308.621L605.104 305.959H606.312L603.844 309.413L606.338 312.842H605.117L603.247 310.193L601.364 312.842Z" fill="black" fill-opacity="0.4"/>
<path d="M601.079 109.643H599.988V102.565C599.56 103.136 598.858 103.422 597.91 103.422H597.754V102.357H597.91C599.274 102.357 600.001 101.772 600.001 100.682V100.552H601.079V109.643ZM608.301 109.643H607.21V107.37H602.704V106.396L607.197 100.552H608.301V106.37H609.899V107.37H608.301V109.643ZM607.21 102.071L603.899 106.37H607.21V102.071ZM615.104 109.643H614.026V102.759H614.883L614.987 103.824C615.454 103.084 616.35 102.604 617.337 102.604C618.376 102.604 619.156 103.136 619.506 103.967C619.948 103.162 620.896 102.604 621.948 102.604C623.402 102.604 624.338 103.63 624.338 105.032V109.643H623.26V105.071C623.26 104.149 622.688 103.552 621.766 103.552C620.48 103.552 619.727 104.409 619.714 105.461V109.643H618.649V105.071C618.649 104.149 618.078 103.552 617.156 103.552C615.87 103.552 615.116 104.409 615.104 105.461V109.643ZM627.102 109.643H626.024V102.759H626.881L626.985 103.824C627.452 103.084 628.348 102.604 629.335 102.604C630.374 102.604 631.154 103.136 631.504 103.967C631.946 103.162 632.894 102.604 633.946 102.604C635.401 102.604 636.336 103.63 636.336 105.032V109.643H635.258V105.071C635.258 104.149 634.686 103.552 633.764 103.552C632.478 103.552 631.725 104.409 631.712 105.461V109.643H630.647V105.071C630.647 104.149 630.076 103.552 629.154 103.552C627.868 103.552 627.115 104.409 627.102 105.461V109.643Z" fill="black" fill-opacity="0.4"/>
<path d="M680.196 0.637939H642.181L620.495 43.6411L598.812 0.637939H551.338V84.8547H570.256V17.2313L605.683 84.8547H660.15V46.9148H669.262V84.8547H680.196V0.637939Z" fill="black"/>
<path d="M682.775 158.953H625.592L592.972 223.64L560.355 158.953H488.944V285.634H517.401V183.914L570.692 285.634H652.621V228.564H666.329V285.634H682.775V158.953Z" fill="black"/>
<path d="M680.263 91.7759H551.438" stroke="#B3B3B3" stroke-width="0.270803"/>
<path d="M680.263 88.5249V93.9434" stroke="#B3B3B3" stroke-width="0.267466"/>
<path d="M551.438 89.5889V95.0703" stroke="#B3B3B3" stroke-width="0.270571"/>
<path d="M1 174H36.0806V98.5H54.0806V174H75.9946V82H1V174Z" fill="#D9D9D9" fill-opacity="0.62"/>
<path d="M169 80.9946V45.9141H93.5V27.9141H169V6H77V80.9946H169Z" fill="#D9D9D9" fill-opacity="0.62"/>
</svg>
