<?xml version="1.0" encoding="UTF-8"?>
<svg id="Camada_2" data-name="Camada 2" xmlns="http://www.w3.org/2000/svg" viewBox="0 0 53.14 28.33">
  <g id="Camada_1-2" data-name="Camada 1">
    <g>
      <path d="M12.6,3.47c.2-.46.49-.82.87-1.07s.82-.38,1.33-.38c.32,0,.58.03.79.1s.4.16.59.28c.09.06.17.1.23.13.07.03.13.04.2.04.1,0,.18-.03.24-.1s.08-.16.08-.28h.79v5.89c0,.84-.24,1.5-.71,1.97-.47.47-1.13.71-1.98.71-.5,0-.94-.08-1.31-.23-.37-.16-.66-.37-.85-.65-.2-.28-.29-.6-.29-.96h.79c0,.21.07.4.19.58.12.18.3.32.55.43s.56.17.94.17c.59,0,1.06-.18,1.39-.53s.5-.84.5-1.48c0-.2-.06-.34-.19-.41-.12-.07-.28-.05-.46.07-.07.04-.13.07-.16.1-.04.02-.09.06-.16.1-.16.07-.33.13-.52.18-.19.05-.4.07-.64.07-.51,0-.96-.13-1.33-.38s-.67-.61-.87-1.07-.31-1.01-.31-1.63.1-1.17.31-1.63ZM13.65,6.86c.34.44.81.65,1.39.65s1.05-.22,1.39-.65.51-1.02.51-1.76-.17-1.32-.51-1.76-.8-.65-1.39-.65-1.05.22-1.39.65-.52,1.02-.52,1.76.17,1.32.52,1.76Z" style="fill: #1d1d1b;"/>
      <path d="M19.82,2.85c.49-.56,1.2-.83,2.12-.83.55,0,1.02.12,1.4.37.38.25.67.61.87,1.09.2.48.29,1.06.29,1.75v.13h-3.92c-.17,0-.3.05-.4.14-.1.1-.14.23-.14.4,0,.34.07.66.22.95.14.29.36.52.65.69.29.17.63.26,1.03.26.47,0,.83-.1,1.07-.29.24-.2.41-.42.5-.68.05-.12.08-.23.08-.34h.79c0,.3-.09.61-.26.91s-.45.56-.82.76c-.37.2-.82.31-1.37.31-.92,0-1.63-.28-2.12-.84s-.74-1.36-.74-2.4.25-1.83.74-2.38ZM20.27,4.56c.1.09.23.13.4.13h2.33c.17,0,.3-.04.4-.13.1-.09.14-.21.14-.37,0-.24-.06-.48-.19-.71-.13-.23-.31-.42-.56-.57s-.53-.22-.85-.22c-.36,0-.68.07-.95.22s-.49.34-.64.57c-.15.23-.22.47-.22.71,0,.16.05.28.14.37Z" style="fill: #1d1d1b;"/>
      <path d="M26.91,7.9c-.27-.27-.41-.71-.41-1.31v-3.19c0-.17-.05-.3-.14-.4-.1-.1-.23-.14-.4-.14h-.8v-.67h.8c.17,0,.3-.05.4-.14.1-.1.14-.23.14-.4V.28h.79v1.37c0,.17.05.3.14.4.1.1.23.14.4.14h1.16v.67h-1.16c-.17,0-.3.05-.4.14-.1.1-.14.23-.14.4v3.19c0,.37.07.63.22.8.15.16.39.25.71.25h.77v.67h-.77c-.61,0-1.05-.14-1.32-.41Z" style="fill: #1d1d1b;"/>
      <path d="M33.94,0v1.14h-.86V0h.86ZM33.89,2.18v6.12h-.79V2.18h.79Z" style="fill: #1d1d1b;"/>
      <path d="M36.48,2.18c0,.12.03.21.08.28.05.07.12.1.21.1.05,0,.1-.01.16-.04.06-.03.12-.06.18-.09.2-.1.39-.19.58-.25.19-.06.44-.09.76-.09.67,0,1.2.2,1.57.61.38.4.56.97.56,1.7v3.9h-.79v-3.66c0-.59-.14-1.05-.42-1.38s-.67-.49-1.16-.49c-.54,0-.97.16-1.27.49-.3.33-.46.79-.46,1.38v3.66h-.79V2.18h.79Z" style="fill: #1d1d1b;"/>
    </g>
    <g>
      <path d="M14.17,27.75c-.27-.27-.41-.71-.41-1.31v-3.19c0-.17-.05-.3-.14-.4-.1-.1-.23-.14-.4-.14h-.8v-.67h.8c.17,0,.3-.05.4-.14.1-.1.14-.23.14-.4v-1.37h.79v1.37c0,.17.05.3.14.4.1.1.23.14.4.14h1.16v.67h-1.16c-.17,0-.3.05-.4.14-.1.1-.14.23-.14.4v3.19c0,.37.07.63.22.8.15.16.39.25.71.25h.77v.67h-.77c-.61,0-1.05-.14-1.32-.41Z" style="fill: #1d1d1b;"/>
      <path d="M17.71,27.49c-.51-.56-.76-1.36-.76-2.39s.25-1.83.76-2.39c.51-.56,1.23-.84,2.18-.84s1.67.28,2.19.85c.52.56.77,1.36.77,2.38s-.26,1.82-.77,2.38c-.52.56-1.25.85-2.19.85s-1.67-.28-2.18-.84ZM21.45,26.97c.38-.46.56-1.08.56-1.87s-.19-1.43-.56-1.88c-.38-.45-.9-.68-1.56-.68s-1.17.23-1.54.68c-.37.45-.56,1.08-.56,1.88s.19,1.42.56,1.87.89.68,1.54.68,1.18-.23,1.56-.68Z" style="fill: #1d1d1b;"/>
      <path d="M28.3,28.16c0-.12-.03-.21-.08-.28-.05-.07-.12-.1-.21-.1-.05,0-.1.01-.16.04l-.18.09c-.2.1-.39.19-.58.25-.19.06-.44.09-.76.09-.67,0-1.2-.2-1.57-.61s-.56-.97-.56-1.7v-3.9h.79v3.66c0,.59.14,1.05.42,1.38.28.33.67.49,1.16.49.54,0,.97-.16,1.27-.49.3-.33.46-.79.46-1.38v-3.66h.79v6.12h-.79Z" style="fill: #1d1d1b;"/>
      <path d="M31.28,22.73c.5-.57,1.2-.85,2.1-.85.59,0,1.07.11,1.42.32.36.22.61.48.76.79.15.31.22.63.22.96h-.79c0-.09-.01-.18-.04-.29-.06-.29-.22-.55-.46-.77s-.61-.34-1.12-.34c-.63,0-1.13.22-1.48.67-.36.45-.53,1.07-.53,1.87s.18,1.44.53,1.89c.36.45.85.68,1.48.68.5,0,.87-.13,1.12-.38s.41-.54.49-.87c.04-.13.06-.25.06-.36h.79c0,.34-.07.68-.22,1.02-.15.34-.41.64-.77.89-.37.25-.86.37-1.46.37-.9,0-1.6-.28-2.1-.85-.5-.57-.76-1.36-.76-2.39s.25-1.8.76-2.36Z" style="fill: #1d1d1b;"/>
      <path d="M38.01,19.76v2.28c0,.12.03.21.08.28s.12.1.21.1c.05,0,.1-.01.16-.04.06-.03.12-.06.18-.09.2-.1.39-.19.58-.25.19-.06.44-.09.76-.09.67,0,1.2.2,1.57.61.38.4.56.97.56,1.7v3.9h-.79v-3.66c0-.59-.14-1.05-.42-1.38-.28-.33-.67-.49-1.16-.49-.54,0-.97.16-1.27.49s-.46.79-.46,1.38v3.66h-.79v-8.4h.79Z" style="fill: #1d1d1b;"/>
    </g>
    <line y1="15.11" x2="53.14" y2="15.11" style="fill: #1d1d1b; stroke: #1d1d1b; stroke-miterlimit: 10; stroke-width: .71px;"/>
  </g>
</svg>