<?xml version="1.0" encoding="UTF-8"?>
<svg xmlns="http://www.w3.org/2000/svg" xmlns:xlink="http://www.w3.org/1999/xlink" viewBox="0 0 700 450">
  <defs>
    <style>
      .cls-1 {
        fill: none;
      }

      .cls-2 {
        fill: #383635;
      }

      .cls-3, .cls-4, .cls-5 {
        font-size: 16px;
      }

      .cls-3, .cls-6 {
        letter-spacing: 0em;
      }

      .cls-3, .cls-5 {
        font-family: PPMori-Regular, 'PP Mori';
      }

      .cls-7, .cls-4, .cls-8 {
        fill: #010101;
      }

      .cls-9 {
        fill: #a6a3a3;
      }

      .cls-10, .cls-11, .cls-4, .cls-8 {
        font-family: PPMori-SemiBold, 'PP Mori';
        font-weight: 600;
      }

      .cls-10, .cls-11, .cls-8 {
        font-size: 34px;
      }

      .cls-12 {
        fill: #6a6766;
      }

      .cls-11, .cls-13 {
        letter-spacing: 0em;
      }

      .cls-14 {
        clip-path: url(#clippath-1);
      }

      .cls-15 {
        fill: #6a6867;
      }

      .cls-16 {
        letter-spacing: -.09em;
      }

      .cls-17 {
        letter-spacing: -.09em;
      }

      .cls-18 {
        letter-spacing: -.07em;
      }

      .cls-19 {
        letter-spacing: -.13em;
      }

      .cls-20 {
        letter-spacing: -.1em;
      }

      .cls-21 {
        letter-spacing: -.02em;
      }

      .cls-22 {
        letter-spacing: -.01em;
      }

      .cls-23 {
        letter-spacing: -.04em;
      }

      .cls-24 {
        letter-spacing: -.03em;
      }

      .cls-25 {
        letter-spacing: -.04em;
      }

      .cls-26 {
        fill: #17a252;
      }

      .cls-27 {
        letter-spacing: 0em;
      }

      .cls-28 {
        letter-spacing: 0em;
      }

      .cls-29 {
        letter-spacing: 0em;
      }

      .cls-30 {
        fill: #ef69a2;
      }

      .cls-31 {
        clip-path: url(#clippath);
      }

      .cls-32 {
        letter-spacing: .01em;
      }
    </style>
    <clipPath id="clippath">
      <rect class="cls-1" x="51.86" y="51.86" width="596.28" height="346.28"/>
    </clipPath>
    <clipPath id="clippath-1">
      <rect class="cls-1" x="563.21" y="405.73" width="84.99" height="20.11"/>
    </clipPath>
  </defs>
  <g id="Layer_1" data-name="Layer 1">
    <rect class="cls-26" x="-1" width="701" height="450"/>
  </g>
  <g id="Layer_2" data-name="Layer 2">
    <g class="cls-31">
      <polygon class="cls-30" points="648.14 51.86 472.23 51.86 371.88 228.68 271.54 51.86 51.86 51.86 51.86 398.14 139.4 398.14 139.4 120.09 303.34 398.14 555.38 398.14 555.38 242.14 597.55 242.14 597.55 398.14 648.14 398.14 648.14 51.86"/>
    </g>
  </g>
  <g id="Layer_3" data-name="Layer 3">
    <text class="cls-7" transform="translate(41.3 42.38)"><tspan class="cls-5"><tspan class="cls-20" x="0" y="0">P</tspan><tspan class="cls-29" x="9.2" y="0">ALE</tspan><tspan class="cls-24" x="39.63" y="0">S</tspan><tspan class="cls-6" x="49.44" y="0">TRA</tspan></tspan><tspan class="cls-11"><tspan x="0" y="38">MODUS</tspan></tspan><tspan class="cls-10"><tspan class="cls-18" x="0" y="76">F</tspan><tspan class="cls-32" x="18.02" y="76">AZENDI</tspan></tspan><tspan class="cls-5"><tspan class="cls-6" x="0" y="102">SUSANA S</tspan><tspan class="cls-23" x="80.13" y="102">O</tspan><tspan class="cls-29" x="91.94" y="102">ARES</tspan></tspan></text>
    <text class="cls-8" transform="translate(160.62 323.46)"><tspan class="cls-13"><tspan x="0" y="0">O DESIGN FUNCIONAL </tspan></tspan><tspan class="cls-13" x="0" y="38">E HUMANI</tspan><tspan class="cls-22" x="170.37" y="38">S</tspan><tspan class="cls-17" x="192.13" y="38">T</tspan><tspan class="cls-13" x="210.87" y="38">A</tspan></text>
    <text class="cls-4" transform="translate(52.29 425.95)"><tspan class="cls-32" x="0" y="0">27 DE ABRIL 2</tspan><tspan class="cls-27" x="107.95" y="0">0</tspan><tspan class="cls-32" x="118.06" y="0">26</tspan></text>
    <text class="cls-7" transform="translate(480.64 42.06)"><tspan class="cls-5"><tspan class="cls-21" x="0" y="0">W</tspan><tspan class="cls-29" x="14.86" y="0">OR</tspan><tspan class="cls-25" x="38.22" y="0">K</tspan><tspan class="cls-6" x="48.53" y="0">SHOP</tspan></tspan><tspan class="cls-11"><tspan x="0" y="38">MODUS</tspan></tspan><tspan class="cls-11"><tspan x="0" y="76">OPERANDI</tspan></tspan><tspan class="cls-3"><tspan x="0" y="102">ANDRÉ GOUVEIA</tspan></tspan></text>
    <text class="cls-7" transform="translate(224.6 144.72)"><tspan class="cls-5"><tspan class="cls-20" x="0" y="0">P</tspan><tspan class="cls-29" x="9.2" y="0">ALE</tspan><tspan class="cls-24" x="39.63" y="0">S</tspan><tspan class="cls-6" x="49.44" y="0">TRA</tspan></tspan><tspan class="cls-11"><tspan x="0" y="38">MODUS</tspan></tspan><tspan class="cls-10"><tspan class="cls-13" x="0" y="76">COGI</tspan><tspan class="cls-16" x="89.93" y="76">T</tspan><tspan class="cls-13" x="108.66" y="76">ANDI</tspan></tspan><tspan class="cls-5"><tspan class="cls-6" x="0" y="102">INÊS </tspan><tspan class="cls-19" x="39.33" y="102">A</tspan><tspan class="cls-28" x="48.67" y="102">YER</tspan></tspan></text>
    <g class="cls-14">
      <g>
        <path d="M579.15,416.38h-15.94v1.12h15.94v-1.12Z"/>
        <path d="M608.51,425.83l-.8-.23c-.55-.27-.96-.76-1.06-1.38l1.11-.32c.04.73.85,1.1,1.49.83.31-.13.45-.52.26-.81-.2-.31-1.06-.38-1.42-.48-2.21-.64-1.39-3.33.76-3.25.73.02,1.44.36,1.77,1.04.05.1.2.43.08.48-.25.13-.74.17-1.03.28-.06-.61-.67-.91-1.23-.75-.45.13-.66.71-.22,1,.24.15.93.22,1.25.3,2.08.6,1.6,3.15-.44,3.25-.15,0-.31.02-.47.03h-.06Z"/>
        <path class="cls-12" d="M609.05,425.8v.03h-.47c.13-.06.32-.02.47-.03Z"/>
        <path class="cls-12" d="M620.97,425.8v.03h-.47c.13-.06.32-.02.47-.03Z"/>
        <path class="cls-15" d="M626.34,425.8v.03h-.44c.11-.07.29-.02.44-.03Z"/>
        <path class="cls-2" d="M576.55,425.83h-.37c.08-.06.29-.06.37,0Z"/>
        <path class="cls-9" d="M597.26,425.8v.03h-.27v-.03c.06-.1.21-.1.27,0Z"/>
        <path d="M596.99,425.8c-.94-.05-1.86-.83-1.86-1.82v-3.63h1.28v3.46s.1.29.13.34c.39.75,1.59.67,1.89-.11.02-.06.1-.32.1-.37v-3.32h1.25l.06,5.31h-1.22l-.05-.55c-.31.46-.8.65-1.34.68h-.27.02Z"/>
        <path d="M619.75,409.64l-1.03.3c-.1-.23-.16-.45-.37-.61-.68-.51-1.77.1-1.25.75.21.26,1.26.34,1.66.51,1.57.64,1.31,2.67-.25,3.1-.85.22-1.92.03-2.49-.67-.12-.14-.45-.69-.34-.85.04-.06.92-.25,1.07-.3.1.67.62.96,1.26.88.39-.05.73-.44.52-.83-.21-.38-1.15-.43-1.57-.57-.95-.3-1.46-1.22-1.02-2.17.72-1.54,3.56-1.32,3.8.47Z"/>
        <path d="M648.16,409.64l-1.08.3c-.06-.61-.66-.92-1.22-.77-.6.17-.67.89-.03,1.09.87.28,2.19.26,2.35,1.51.31,2.29-3.16,2.65-3.99.89-.05-.1-.14-.35-.14-.47,0-.04,0-.06.05-.07l1.06-.28c.06.67.64.96,1.26.88.38-.05.68-.4.52-.79-.16-.39-1.06-.45-1.44-.56-2.24-.64-1.43-3.38.85-3.24.88.06,1.65.59,1.8,1.5h0Z"/>
        <path d="M636.31,406.68v1.58l.05.05h1.03v1.12h-1.08v2.57c0,.06.08.26.12.32.21.29.69.2.99.17v1.06c-.84.25-1.92.14-2.26-.81-.03-.08-.11-.37-.11-.43v-2.88h-.98v-1.12c.3,0,.73,0,.93-.27.03-.04.15-.3.15-.32v-1.03h1.15Z"/>
        <path d="M602.66,417.77h-1.25v7.89h1.25v-7.89Z"/>
        <path d="M608.81,405.73h-1.25v7.86h1.25v-7.86Z"/>
        <path d="M633.34,408.28v1.29c-.7-.12-1.45.02-1.73.76-.02.06-.1.34-.1.38v2.88h-1.28v-5.28h1.25v.75l.29-.38c.42-.38,1.02-.53,1.57-.41h0Z"/>
        <path d="M605.53,420.36h-1.25v5.31h1.25v-5.31Z"/>
        <path d="M623.64,410.35h-3.08v1.12h3.08v-1.12Z"/>
        <path d="M604.82,417.68c1.09-.09,1.21,1.57.16,1.66-1.13.09-1.19-1.57-.16-1.66Z"/>
        <path class="cls-7" d="M567.85,408.89c-.84-.95-2.56-1.03-3.39-.03v-3.13h-1.25v7.86h1.22v-.65c.68.92,2.04.99,2.97.38,1.34-.87,1.48-3.27.46-4.44ZM566.07,412.56c-2.15.22-2.14-3.26-.26-3.29,1.92-.03,1.84,3.13.26,3.29Z"/>
        <path class="cls-7" d="M621.19,420.22c-3.5-.52-4.42,4.51-1.23,5.5l.48.11h.06c.16,0,.32-.02.47-.03h0c3.17-.16,3.37-5.11.21-5.58ZM620.85,424.68c-1.97.16-2.16-3.18-.22-3.32,1.98-.15,2.1,3.18.22,3.32Z"/>
        <path class="cls-7" d="M628.89,424.83c-.04-.95.07-2,0-2.93-.11-1.39-1.48-1.87-2.68-1.68-.87.14-1.72.79-1.75,1.72l1.14.24c.06-.77.79-1.11,1.48-.9.33.1.62.43.56.79-.04.26-.25.28-.45.33-.95.21-2.33.13-2.75,1.18-.42,1.05.32,2.1,1.39,2.24h.02s.04,0,.06,0c.15,0,.29-.02.44-.03.54-.04,1.09-.29,1.35-.79.06-.02.03.04.03.08,0,.18,0,.38.03.56h1.18c0-.27-.06-.57-.07-.83ZM627.66,423.25c0,.48-.06,1.06-.49,1.36-.43.3-1.44.35-1.56-.33-.07-.43.17-.71.56-.82.45-.13,1.03-.14,1.49-.22h0Z"/>
        <path class="cls-7" d="M579.14,424.9c-.04-.98.09-2.08,0-3.03-.17-2.01-3.34-2.2-4.21-.64-.06.11-.29.63-.21.72.04.05,1,.21,1.14.24.06-.83.99-1.17,1.67-.81.42.22.6.91,0,1.04-1.02.22-2.61.08-2.9,1.43-.22,1,.47,1.78,1.41,1.98h.13c.13-.03.25-.03.37,0h.1l.49-.14c.32-.14.68-.34.83-.68.06,0,.03.05.03.09,0,.18,0,.38.03.56h1.18c0-.25-.06-.52-.07-.76ZM577.36,424.66c-.45.25-1.38.27-1.48-.38-.17-1.04,1.41-.88,2.05-1.03,0,0,0,0,0,0h0s0,0,0,0c0,.52-.08,1.13-.57,1.41Z"/>
        <path class="cls-7" d="M599.85,408.96c-.84-1.01-2.6-1.09-3.47-.06v-3.17h-1.24v7.87h1.25v-.65c.08.06.13.18.2.26.76.79,2.23.64,3.02-.06,1.07-.95,1.13-3.1.24-4.19ZM597.69,412.6c-1.69-.11-1.76-3.07-.13-3.29,2.16-.3,2.15,3.43.13,3.29Z"/>
        <path class="cls-7" d="M615.53,420.32c-.85-.23-1.84-.06-2.39.66v-3.19h-1.22v7.89h1.22v-.68c.07.06.1.15.17.22.74.81,2.16.73,2.97.06,1.48-1.22,1.26-4.42-.75-4.96ZM614.33,424.65c-1.56-.16-1.66-3.12.08-3.29,2.04-.2,2.1,3.51-.08,3.29Z"/>
        <path class="cls-7" d="M641.38,408.21c-2.32-.43-3.75,1.92-2.97,3.94.79,2.01,3.87,2.25,4.75.24.02-.06.12-.27.07-.3-.06-.04-.98-.34-1.03-.32-.2.43-.43.74-.91.86-.93.23-1.76-.34-1.85-1.31h3.86c.18-1.38-.45-2.83-1.92-3.1ZM639.48,410.35c.18-1.51,2.46-1.56,2.57,0h-2.57Z"/>
        <path class="cls-7" d="M604.43,408.21c-2.32-.43-3.75,1.92-2.97,3.94.79,2.01,3.87,2.25,4.75.24.02-.06.12-.27.07-.3-.06-.04-.98-.34-1.03-.32-.2.43-.43.74-.91.86-.93.23-1.76-.34-1.85-1.31h3.86c.18-1.38-.45-2.83-1.92-3.1ZM602.53,410.35c.18-1.51,2.46-1.56,2.57,0h-2.57Z"/>
        <g>
          <polygon class="cls-7" points="629.04 413.59 629.03 413.59 629.03 413.6 629.04 413.59"/>
          <path class="cls-7" d="M629,410.17c-.05-.92-.41-1.64-1.34-1.91-1.14-.32-2.69,0-3.05,1.29-.04.12-.14.31.02.36.35.1.72.13,1.07.24.06-.82.91-1.17,1.61-.86.43.18.69.9.12,1.05-.8.21-1.75.08-2.45.63-.7.55-.72,1.66-.11,2.28.77.79,2.33.67,2.94-.27l.05.61h1.18c-.11-1.13.03-2.3-.03-3.42ZM627.76,411.18s0,0,0,0c0,.4-.03.88-.3,1.2-.41.47-1.62.6-1.75-.18-.18-1.03,1.44-.85,2.05-1.03,0,0,0,0,0,0h0Z"/>
        </g>
        <path class="cls-7" d="M614.63,412.98c-.05-1,.07-2.1,0-3.1-.06-.83-.6-1.45-1.39-1.66-1.3-.34-2.85.17-3.07,1.64l1.14.26c.11-.26.15-.52.39-.72.46-.38,1.56-.32,1.68.38.05.3-.02.47-.33.55-.73.19-1.64.09-2.3.54-1.07.72-.82,2.29.34,2.74.84.33,1.84.09,2.39-.65v.5s.05.08.03.12h1.19c-.02-.2-.06-.42-.07-.6ZM613.37,411.73c0,.1-.14.44-.21.54-.48.71-2,.71-1.81-.36.12-.7,1.5-.58,2.02-.74v.56Z"/>
      </g>
    </g>
  </g>
</svg>