<svg width="479" height="406" viewBox="0 0 479 406" fill="none" xmlns="http://www.w3.org/2000/svg">
<path d="M4.22592 92.2588H1.7522L9.94108 72.3553H12.3579L20.5753 92.2588H18.1015L15.77 86.5721H6.55748L4.22592 92.2588ZM11.1637 75.3976L7.46736 84.4111H14.8601L11.1637 75.3976ZM33.1365 92.2588H23.7818V72.3553H32.909C36.3779 72.3553 38.7948 74.4025 38.7948 77.3596C38.7948 79.4921 37.2878 81.255 34.9562 81.9942C37.5437 82.5061 39.2497 84.3827 39.2497 86.828C39.2497 90.041 36.7475 92.2588 33.1365 92.2588ZM26.1418 74.5446V81.0559H32.7668C34.8994 81.0559 36.3779 79.6343 36.3779 77.6155C36.3779 75.7957 35.0415 74.5446 33.1365 74.5446H26.1418ZM26.1418 83.1885V90.0694H33.3924C35.3827 90.0694 36.776 88.6477 36.776 86.5721C36.776 84.3542 35.0415 83.1885 32.909 83.1885H26.1418ZM51.95 92.5716C45.8368 92.5716 42.2257 88.2781 42.2257 82.2502C42.2257 76.336 45.8368 72.0425 51.95 72.0425C57.0112 72.0425 60.4801 74.9996 61.3331 80.0039H58.8594C58.1201 76.3644 55.5611 74.2319 51.95 74.2319C47.4859 74.2319 44.7278 77.3311 44.7278 82.2502C44.7278 87.3398 47.4859 90.3822 51.95 90.3822C55.6748 90.3822 58.0916 88.3634 58.8594 84.6101H61.3331C60.4516 89.7851 57.1533 92.5716 51.95 92.5716ZM72.2891 92.2588H65.266V72.3553H72.2891C78.0043 72.3553 81.985 76.3928 81.985 82.1933C81.985 88.1359 78.0043 92.2588 72.2891 92.2588ZM67.6544 74.5446V90.0694H72.4313C76.5542 90.0694 79.4544 86.828 79.4544 82.1933C79.4544 77.8998 76.5542 74.5446 72.4313 74.5446H67.6544ZM99.7442 92.2588H85.8971V72.3553H99.4883V74.5446H88.2571V80.8285H98.351V82.961H88.2571V90.0694H99.7442V92.2588ZM105.945 92.2588H103.557V72.3553H117.12V74.5446H105.945V80.9991H116.267V83.1885H105.945V92.2588ZM129.219 92.5716C123.731 92.5716 119.807 88.534 119.807 82.2502C119.807 76.336 123.418 72.0425 129.475 72.0425C134.536 72.0425 138.033 75.1133 138.858 80.0039H136.384C135.645 76.3644 133.114 74.2319 129.475 74.2319C125.067 74.2319 122.309 77.2743 122.309 82.2502C122.309 87.2829 125.124 90.3822 129.219 90.3822C132.944 90.3822 135.304 87.8516 135.304 84.2405H128.593V82.1933H135.588C137.664 82.1933 138.773 83.2453 138.773 85.1788V92.2588H136.64V85.4632H136.583C136.213 89.8419 133.626 92.5716 129.219 92.5716ZM145.458 92.2588H143.07V72.3553H145.458V80.9138H157.685V72.3553H160.073V92.2588H157.685V83.1032H145.458V92.2588ZM167.283 92.2588H164.895V72.3553H167.283V92.2588ZM177.517 92.5716C173.65 92.5716 170.948 90.2684 170.948 86.9417V84.0983H173.308V86.9133C173.308 88.9605 175.043 90.3822 177.517 90.3822C179.905 90.3822 181.554 88.8468 181.554 86.6289V72.3553H183.943V86.6858C183.943 90.1547 181.327 92.5716 177.517 92.5716ZM190.996 92.2588H188.608V72.3553H190.996V83.2453L201.261 72.3553H204.36L196.427 80.6579L204.9 92.2588H201.943L194.778 82.3923L190.996 86.3446V92.2588ZM220.957 92.2588H207.906V72.3553H210.295V90.0694H220.957V92.2588ZM226.899 92.2588H224.511V72.3553H227.497L234.52 89.4154L241.514 72.3553H244.528V92.2588H242.14V76.5066L235.657 92.2588H233.354L226.899 76.5634V92.2588ZM251.751 92.2588H249.363V72.3553H252.092L263.352 88.8468V72.3553H265.74V92.2588H263.011L251.751 75.7673V92.2588ZM279.249 92.5716C273.562 92.5716 269.667 88.534 269.667 82.2502C269.667 76.336 273.278 72.0425 279.249 72.0425C284.993 72.0425 288.888 76.0801 288.888 82.2502C288.888 88.2212 285.277 92.5716 279.249 92.5716ZM279.249 90.3822C283.685 90.3822 286.443 87.226 286.443 82.2502C286.443 77.3311 283.656 74.2319 279.249 74.2319C274.87 74.2319 272.112 77.3311 272.112 82.2502C272.112 87.226 274.87 90.3822 279.249 90.3822ZM295.207 92.2588H292.818V72.3553H302.23C306.381 72.3553 308.599 74.9996 308.599 78.1841C308.599 82.2217 305.756 84.3827 302.23 84.3827H295.207V92.2588ZM295.207 74.5446V82.1933H302.344C304.817 82.1933 306.154 80.402 306.154 78.1841C306.154 75.8242 304.448 74.5446 302.344 74.5446H295.207ZM328.295 95.0737L326.475 96.012L324.2 92.0598C323.177 92.401 322.039 92.5716 320.817 92.5716C315.13 92.5716 311.234 88.534 311.234 82.2502C311.234 76.336 314.846 72.0425 320.817 72.0425C326.56 72.0425 330.456 76.0801 330.456 82.2502C330.456 86.2024 328.892 89.4439 326.077 91.1783L328.295 95.0737ZM320.817 90.3822C321.613 90.3822 322.38 90.2684 323.063 90.0694L320.077 84.866L321.925 83.9277L324.939 89.188C326.901 87.8516 328.01 85.4063 328.01 82.2502C328.01 77.3311 325.224 74.2319 320.817 74.2319C316.438 74.2319 313.68 77.3311 313.68 82.2502C313.68 87.226 316.438 90.3822 320.817 90.3822ZM336.774 92.2588H334.386V72.3553H343.456C347.209 72.3553 349.797 74.6015 349.797 77.8429C349.797 80.2029 348.205 82.1933 345.788 82.961C346.84 83.2453 347.579 83.9277 347.949 84.9229L350.707 92.2588H348.148L345.589 85.3494C345.276 84.4964 344.594 84.0415 343.655 84.0415H336.774V92.2588ZM336.774 74.5446V81.9089H343.57C346.044 81.9089 347.38 80.2029 347.38 78.0704C347.38 75.7389 345.731 74.5446 343.57 74.5446H336.774ZM361.778 92.5716C356.774 92.5716 353.334 89.9841 353.078 86.2309H355.58C355.864 88.7899 358.281 90.4106 361.778 90.4106C364.821 90.4106 366.413 89.1595 366.413 87.0839C366.413 85.0651 364.65 84.2974 362.745 83.7003L359.305 82.6198C357.712 82.108 353.703 81.255 353.703 77.3596C353.703 74.1466 356.347 72.0425 360.47 72.0425C365.02 72.0425 367.835 74.3456 368.147 78.5822H365.674C365.475 75.7673 363.513 74.2034 360.357 74.2034C357.854 74.2034 356.092 75.3408 356.092 77.2458C356.092 79.4352 358.366 79.8902 360.072 80.4304L363.285 81.4256C365.816 82.2217 368.858 83.2169 368.858 86.9701C368.858 90.4675 366.186 92.5716 361.778 92.5716ZM379.553 92.2588H377.164V74.5446H370.283V72.3553H386.434V74.5446H379.553V92.2588ZM397.599 92.5716C392.453 92.5716 389.666 89.3586 389.666 85.5769V72.3553H392.055V85.52C392.055 88.6762 394.557 90.3537 397.599 90.3537C400.642 90.3537 403.144 88.6762 403.144 85.52V72.3553H405.532V85.5769C405.532 89.3586 402.717 92.6 397.599 92.5716ZM418.635 92.2588H416.076L408.342 72.3553H410.901L417.356 88.9605L423.611 72.3553H426.142L418.635 92.2588ZM435.582 92.2588H432.909L427.279 72.3553H429.753L434.359 88.6762L438.966 72.3553H441.297L445.96 88.733L450.567 72.3553H453.04L447.41 92.2588H444.738L440.131 76.0516L435.582 92.2588ZM4.70929 122.259H1.80906L9.37241 112.25L2.03653 102.355H4.93676L10.851 110.374L16.7367 102.355H19.6369L12.3579 112.193L19.836 122.259H16.9358L10.8794 114.07L4.70929 122.259ZM31.1337 122.259H28.7453V113.473L21.1819 102.355H23.9968L29.9679 111.198L35.9105 102.355H38.7255L31.1337 113.473V122.259ZM55.2558 122.259H40.6978V120.069L52.1566 104.545H41.2096V102.355H54.9715V104.545L43.5127 120.069H55.2558V122.259ZM69.9225 122.486C66.5104 122.486 64.3211 120.723 64.3211 117.965C64.3211 114.496 67.6762 113.842 70.6902 113.53C72.9933 113.302 74.9837 113.331 75.0121 112.108C74.9837 110.203 73.4198 108.867 71.1451 108.867C68.9557 108.867 67.2497 110.089 66.9938 111.881H64.6623C64.9466 108.923 67.6194 106.848 71.202 106.848C74.9268 106.848 77.3152 109.066 77.3152 112.25V119.586C77.3152 120.069 77.5711 120.325 78.0829 120.325H78.9359V122.259H77.5996C75.9788 122.259 75.1258 121.52 75.1258 120.126V119.671C74.2444 121.406 72.5384 122.486 69.9225 122.486ZM70.2637 120.467C73.0786 120.467 75.0121 118.676 75.0121 116.174V114.212C74.3581 115.094 72.6805 115.264 70.8324 115.463C68.7567 115.691 66.681 115.975 66.681 117.908C66.681 119.472 68.1027 120.467 70.2637 120.467ZM89.3158 122.572C86.842 122.572 84.8233 121.349 83.7996 119.387L83.5437 122.259H81.6671V100.934H84.0271V109.549C85.136 107.9 87.0411 106.848 89.3158 106.848C93.2965 106.848 96.083 110.032 96.083 114.639C96.083 119.33 93.2965 122.572 89.3158 122.572ZM88.9461 120.524C91.7326 120.524 93.6377 118.107 93.6377 114.639C93.6377 111.255 91.7326 108.895 88.9177 108.895C86.0743 108.895 84.0271 111.198 84.0271 114.525C84.0271 118.051 86.0743 120.524 88.9461 120.524ZM105.925 122.572C101.034 122.572 98.4185 118.989 98.4185 114.639C98.4185 109.577 101.745 106.848 105.84 106.848C109.621 106.848 112.323 109.122 112.749 112.989H110.446C110.048 110.487 108.313 108.895 105.783 108.895C102.797 108.895 100.807 111.084 100.807 114.639C100.807 118.477 103.138 120.524 105.953 120.524C108.37 120.524 110.019 118.989 110.446 116.373H112.749C112.323 120.268 109.82 122.572 105.925 122.572ZM121.931 122.572C117.894 122.572 115.079 119.33 115.079 114.639C115.079 110.032 117.865 106.848 121.903 106.848C124.178 106.848 126.083 107.843 127.163 109.435V100.934H129.523V122.259H127.647L127.391 119.359C126.395 121.32 124.405 122.572 121.931 122.572ZM122.301 120.524C125.173 120.524 127.163 118.079 127.163 114.582C127.163 111.198 125.23 108.867 122.443 108.867C119.543 108.867 117.524 111.227 117.524 114.639C117.524 118.107 119.486 120.524 122.301 120.524ZM140.132 122.572C135.668 122.572 132.711 119.302 132.711 114.781C132.711 109.634 136.038 106.848 139.848 106.848C143.999 106.848 146.672 109.634 146.757 114.468V115.122H135.071C135.213 118.335 137.09 120.524 140.132 120.524C142.236 120.524 143.772 119.472 144.397 117.51H146.7C146.018 120.61 143.573 122.572 140.132 122.572ZM135.213 113.16H144.284C143.857 110.516 142.265 108.895 139.848 108.895C137.459 108.895 135.697 110.459 135.213 113.16ZM153.51 122.259H151.15V109.179H148.364V107.189H151.15V105.085C151.15 102.384 152.657 100.934 155.444 100.934H158.799V102.924H155.444C154.193 102.924 153.51 103.692 153.51 105.085V107.189H158.401V109.179H153.51V122.259ZM167.064 128.287C162.998 128.287 160.24 126.325 160.24 123.14H162.6C162.6 124.932 164.42 126.296 167.064 126.296C170.164 126.296 171.784 124.448 171.784 121.861V119.415C170.732 120.979 168.913 122.003 166.609 122.003C162.6 122.003 159.729 118.932 159.729 114.496C159.729 109.975 162.629 106.848 166.609 106.848C169.026 106.848 170.988 107.985 172.012 109.805L172.268 107.189H174.116V121.861C174.116 125.671 171.557 128.287 167.064 128.287ZM166.951 119.956C169.794 119.956 171.784 117.681 171.784 114.411C171.784 111.17 169.794 108.895 166.951 108.895C164.136 108.895 162.174 111.17 162.174 114.468C162.174 117.709 164.136 119.956 166.951 119.956ZM180.435 122.259H178.075V100.934H180.435V109.122C181.515 107.758 183.364 106.848 185.411 106.848C188.652 106.848 190.813 108.952 190.813 112.279V122.259H188.453V112.364C188.453 110.26 187.088 108.923 184.956 108.923C182.112 108.923 180.463 110.8 180.435 113.103V122.259ZM195.705 104.658C194.71 104.658 193.942 103.891 193.942 102.895C193.942 101.9 194.71 101.161 195.705 101.161C196.7 101.161 197.44 101.9 197.44 102.895C197.44 103.891 196.7 104.658 195.705 104.658ZM196.871 122.259H194.511V107.189H196.871V122.259ZM201.925 104.658C200.902 104.658 200.162 103.919 200.162 102.895C200.162 101.9 200.902 101.161 201.925 101.161C202.92 101.161 203.66 101.9 203.66 102.895C203.66 103.919 202.92 104.658 201.925 104.658ZM198.598 127.946H196.494V125.955H198.598C199.992 125.955 200.731 125.159 200.731 123.652V107.189H203.091V123.652C203.091 126.439 201.527 127.946 198.598 127.946ZM209.396 122.259H207.036V100.934H209.396V114.61L216.732 107.189H219.575L214.144 112.677L220.4 122.259H217.642L212.524 114.326L209.396 117.482V122.259ZM224.835 122.259H222.475V100.934H224.835V122.259ZM231.136 122.259H228.776V107.189H230.652L230.88 109.521C231.904 107.9 233.865 106.848 236.026 106.848C238.301 106.848 240.007 108.014 240.775 109.833C241.742 108.07 243.817 106.848 246.12 106.848C249.305 106.848 251.352 109.094 251.352 112.165V122.259H248.992V112.25C248.992 110.231 247.741 108.923 245.722 108.923C242.907 108.923 241.258 110.8 241.23 113.103V122.259H238.898V112.25C238.898 110.231 237.647 108.923 235.628 108.923C232.813 108.923 231.164 110.8 231.136 113.103V122.259ZM257.404 122.259H255.044V107.189H256.92L257.148 109.492C258.171 107.9 260.133 106.848 262.379 106.848C265.621 106.848 267.782 108.952 267.782 112.279V122.259H265.422V112.364C265.422 110.26 264.057 108.923 261.782 108.923C259.081 108.923 257.432 110.8 257.404 113.103V122.259ZM278.107 122.572C273.273 122.572 270.714 119.131 270.714 114.582C270.714 109.549 274.012 106.848 278.107 106.848C282.912 106.848 285.5 110.317 285.5 114.582C285.5 119.785 282.343 122.572 278.107 122.572ZM278.107 120.524C281.32 120.524 283.083 117.852 283.083 114.582C283.083 111.198 281.121 108.895 278.107 108.895C275.093 108.895 273.131 111.198 273.131 114.582C273.131 118.449 275.377 120.524 278.107 120.524ZM291.003 127.946H288.643V107.189H290.52L290.776 109.919C291.856 108.042 293.847 106.848 296.292 106.848C300.273 106.848 303.059 110.032 303.059 114.639C303.059 119.33 300.273 122.572 296.292 122.572C293.989 122.572 292.084 121.52 291.003 119.757V127.946ZM295.922 120.524C298.709 120.524 300.614 118.107 300.614 114.639C300.614 111.255 298.709 108.895 295.894 108.895C293.05 108.895 291.003 111.198 291.003 114.525C291.003 118.051 293.05 120.524 295.922 120.524ZM319.84 127.946H317.48V119.757C316.428 121.491 314.551 122.572 312.248 122.572C308.21 122.572 305.395 119.33 305.395 114.639C305.395 110.032 308.182 106.848 312.219 106.848C314.665 106.848 316.683 107.985 317.707 109.805L317.963 107.189H319.84V127.946ZM312.617 120.524C315.489 120.524 317.48 118.079 317.48 114.582C317.48 111.198 315.546 108.867 312.76 108.867C309.859 108.867 307.841 111.227 307.841 114.639C307.841 118.107 309.803 120.524 312.617 120.524ZM326.127 122.259H323.767V107.189H325.644L325.928 110.061C326.895 108.127 328.658 107.104 331.16 107.104H331.672V109.435H331.16C327.976 109.435 326.127 111.255 326.127 114.354V122.259ZM339.671 122.572C336.089 122.572 333.444 120.695 333.245 117.51H335.548C335.719 119.472 337.51 120.553 339.785 120.553C341.917 120.553 342.941 119.728 342.941 118.221C342.941 116.8 341.832 116.487 340.268 115.947L338.079 115.207C335.861 114.468 333.643 113.786 333.643 111.056C333.643 108.497 335.634 106.848 338.932 106.848C342.259 106.848 344.562 108.639 344.931 111.994H342.628C342.372 109.89 340.894 108.867 338.847 108.867C336.998 108.867 335.918 109.691 335.918 110.999C335.918 112.563 337.567 112.876 338.818 113.302L340.865 113.985C343.623 114.894 345.273 115.833 345.273 118.335C345.273 120.979 343.339 122.572 339.671 122.572ZM355.634 122.259H353.956C351.027 122.259 349.464 120.752 349.464 117.965V109.179H346.677V107.189H349.464V102.042H351.824V107.189H355.89V109.179H351.824V117.965C351.824 119.472 352.563 120.268 353.956 120.268H355.634V122.259ZM364.159 122.572C360.491 122.572 358.386 120.325 358.386 117.254V107.189H360.746V117.169C360.746 119.33 362.253 120.496 364.386 120.496C367.201 120.496 368.736 118.619 368.765 116.345V107.189H371.125V122.259H369.248L369.049 119.984C368.054 121.69 366.234 122.572 364.159 122.572ZM382.391 122.259H379.917L373.633 107.189H376.192L381.168 119.501L386.115 107.189H388.675L382.391 122.259ZM396.901 122.259H394.285L389.821 107.189H392.238L395.707 119.33L399.062 107.189H401.11L404.465 119.273L407.905 107.189H410.322L405.858 122.259H403.271L400.086 110.772L396.901 122.259ZM414.295 122.259H411.623L417.082 114.781L411.68 107.189H414.324L418.418 113.018L422.484 107.189H425.129L419.726 114.752L425.186 122.259H422.513L418.418 116.458L414.295 122.259ZM429.686 127.946H427.27V125.955H429.686C431.222 125.955 431.876 125.415 432.217 124.505L433.042 122.259H432.473L426.502 107.189H429.032L433.923 119.899L438.643 107.189H441.06L434.293 125.415C433.667 127.064 432.274 127.946 429.686 127.946ZM454.644 122.259H442.958V120.126L451.829 109.321H443.214V107.189H454.531V109.321L445.659 120.126H454.644V122.259ZM10.0548 152.572C5.42013 152.572 2.46304 148.534 2.46304 142.25C2.46304 136.023 5.42013 132.042 10.0548 132.042C14.6895 132.042 17.6466 136.023 17.6466 142.25C17.6466 148.534 14.6895 152.572 10.0548 152.572ZM10.0548 150.382C13.1825 150.382 15.2013 147.198 15.2013 142.25C15.2013 137.36 13.1825 134.232 10.0548 134.232C6.92712 134.232 4.90833 137.36 4.90833 142.25C4.90833 147.198 6.92712 150.382 10.0548 150.382ZM27.2756 152.259H24.8872V136.762C23.9489 138.014 22.4134 138.639 20.3378 138.639H19.9966V136.308H20.3378C23.3233 136.308 24.9156 135.028 24.9156 132.64V132.355H27.2756V152.259ZM44.509 137.758C44.509 144.582 34.0739 144.297 34.0739 150.069H44.2247V152.259H31.5433V150.382C31.5433 143.075 42.0353 143.16 42.0353 137.758C42.0353 135.654 40.5568 134.232 38.1683 134.232C35.6662 134.232 33.6758 135.796 33.619 139.009H31.1168C31.3443 134.459 34.3298 132.042 38.1968 132.042C42.0069 132.042 44.509 134.346 44.509 137.758ZM54.756 152.572C50.2635 152.572 47.2211 149.984 46.9652 145.918H49.4389C49.6095 148.648 51.6852 150.382 54.7845 150.382C57.6278 150.382 59.476 148.875 59.476 146.6C59.476 144.383 57.7131 143.018 54.6992 143.018H52.0264V141.056H54.6992C57.0591 141.056 58.7083 139.691 58.7083 137.672C58.7083 135.682 57.0876 134.232 54.6707 134.232C52.197 134.232 50.3488 135.796 49.9792 138.241H47.5054C48.0173 134.459 50.8606 132.042 54.8129 132.042C58.5093 132.042 61.0967 134.175 61.0967 137.189C61.0967 139.492 59.5897 141.255 57.3719 141.852C60.2153 142.506 61.836 144.297 61.836 146.856C61.836 150.24 59.0211 152.572 54.756 152.572ZM76.4635 152.259H74.0751V147.283H64.2086V145.15L74.0467 132.355H76.4635V145.094H79.9609V147.283H76.4635V152.259ZM74.0751 135.682L66.8245 145.094H74.0751V135.682ZM89.4048 152.572C85.4241 152.572 82.4955 150.126 82.069 146.259H84.5427C84.8555 148.79 86.7889 150.382 89.4048 150.382C92.2198 150.382 94.0964 148.506 94.0964 145.776C94.0964 143.075 92.2198 141.198 89.5186 141.198C88.0116 141.198 86.6752 141.795 85.3957 143.16H82.7514L84.3721 132.355H95.6602V134.545H86.3624L85.3388 141.255C86.5615 139.919 88.1822 139.151 90.1441 139.151C93.8689 139.151 96.5133 141.881 96.5133 145.747C96.5133 149.785 93.6415 152.572 89.4048 152.572ZM107.533 152.572C102.102 152.572 99.2873 148.136 99.2873 142.165C99.2873 135.739 102.529 132.042 107.505 132.042C111.286 132.042 114.187 134.573 114.556 138.241H112.082C111.798 135.881 109.921 134.232 107.505 134.232C103.581 134.232 101.477 137.587 101.477 142.307C101.477 142.734 101.505 143.075 101.534 143.444C102.216 141.084 104.633 139.094 107.903 139.094C111.684 139.094 114.414 141.824 114.414 145.776C114.414 149.785 111.599 152.572 107.533 152.572ZM107.362 150.411C109.666 150.411 111.969 148.875 111.969 145.776C111.969 142.648 109.722 141.141 107.419 141.141C105.088 141.141 102.699 142.734 102.699 145.804C102.699 148.847 105.031 150.411 107.362 150.411ZM120.444 152.259H117.714L127.012 134.545H116.293V132.355H129.656V134.545L120.444 152.259ZM138.862 152.572C134.369 152.572 131.27 150.297 131.27 146.743C131.27 144.44 132.777 142.648 135.194 141.767C133.317 140.914 132.18 139.321 132.18 137.36C132.18 134.232 134.909 132.042 138.862 132.042C142.757 132.042 145.487 134.232 145.487 137.36C145.487 139.321 144.349 140.885 142.501 141.767C144.89 142.648 146.396 144.44 146.396 146.743C146.396 150.183 143.468 152.572 138.862 152.572ZM138.862 140.942C141.364 140.942 143.098 139.521 143.098 137.473C143.098 135.54 141.364 134.175 138.862 134.175C136.331 134.175 134.568 135.54 134.568 137.473C134.568 139.521 136.331 140.942 138.862 140.942ZM138.862 150.382C141.847 150.382 143.923 148.818 143.923 146.6C143.923 144.354 141.847 142.79 138.862 142.79C135.848 142.79 133.744 144.354 133.744 146.6C133.744 148.818 135.848 150.382 138.862 150.382ZM156.18 152.572C152.284 152.572 149.555 150.354 149.014 146.6H151.488C151.858 149.046 153.535 150.382 156.18 150.382C159.592 150.382 161.497 147.425 161.497 142.392C161.497 142.08 161.468 141.795 161.44 141.511C160.928 143.729 158.909 145.378 156.037 145.378C151.971 145.378 149.1 142.62 149.1 138.696C149.1 134.772 151.971 132.042 156.009 132.042C161.042 132.042 163.686 136.108 163.686 142.392C163.686 148.705 161.042 152.572 156.18 152.572ZM156.009 143.302C158.255 143.302 160.502 141.824 160.502 138.781C160.502 135.682 158.284 134.203 156.066 134.203C153.791 134.203 151.488 135.739 151.46 138.753C151.431 141.767 153.734 143.302 156.009 143.302ZM174.799 152.543C173.775 152.543 173.007 151.775 173.007 150.752C173.007 149.757 173.775 148.989 174.799 148.989C175.822 148.989 176.59 149.757 176.59 150.752C176.59 151.775 175.822 152.543 174.799 152.543ZM183.772 147.965L180.673 157.462L178.767 156.865L181.753 147.34L183.772 147.965ZM188.377 140.402C187.353 140.402 186.585 139.634 186.585 138.611C186.585 137.615 187.353 136.848 188.377 136.848C189.4 136.848 190.168 137.615 190.168 138.611C190.168 139.634 189.4 140.402 188.377 140.402ZM188.377 152.543C187.353 152.543 186.585 151.775 186.585 150.752C186.585 149.757 187.353 148.989 188.377 148.989C189.4 148.989 190.168 149.757 190.168 150.752C190.168 151.775 189.4 152.543 188.377 152.543ZM195.644 140.402C194.62 140.402 193.853 139.634 193.853 138.611C193.853 137.615 194.62 136.848 195.644 136.848C196.668 136.848 197.435 137.615 197.435 138.611C197.435 139.634 196.668 140.402 195.644 140.402ZM197.577 147.965L194.478 157.462L192.573 156.865L195.559 147.34L197.577 147.965ZM203.56 140.374H201.427V130.934H203.56V140.374ZM209.724 140.345H207.591V130.934H209.724V140.345ZM214.245 140.345H212.112V130.934H214.245V140.345ZM221.04 147.141H218.68V130.934H221.04V147.141ZM219.846 152.543C218.822 152.543 218.054 151.775 218.054 150.752C218.054 149.757 218.822 148.989 219.846 148.989C220.869 148.989 221.637 149.757 221.637 150.752C221.637 151.775 220.869 152.543 219.846 152.543ZM232.583 147.34H230.251V146.259C230.251 141.625 235.625 141.198 235.625 137.502C235.625 135.654 234.09 134.232 231.701 134.232C229.199 134.232 227.209 135.796 227.152 139.009H224.65C224.877 134.459 227.863 132.042 231.73 132.042C235.54 132.042 238.042 134.346 238.042 137.473C238.042 142.222 232.583 142.478 232.583 146.259V147.34ZM231.417 152.543C230.393 152.543 229.625 151.775 229.625 150.752C229.625 149.757 230.393 148.989 231.417 148.989C232.44 148.989 233.208 149.757 233.208 150.752C233.208 151.775 232.44 152.543 231.417 152.543ZM248.547 149.813H246.386V144.411H240.728V142.421H246.386V137.018H248.547V142.421H254.206V144.411H248.547V149.813ZM268.947 144.411H256.778V142.421H268.947V144.411ZM278.148 143.786H276.385V139.151L272.148 141.625L271.267 140.089L275.532 137.587L271.267 135.113L272.148 133.578L276.385 136.052V131.417H278.148V136.08L282.413 133.578L283.237 135.142L279.029 137.587L283.237 140.061L282.384 141.596L278.148 139.122V143.786ZM294.33 130.45L286.766 155.472L284.662 154.818L292.197 129.853L294.33 130.45ZM309.353 141.909H295.933V139.919H309.353V141.909ZM309.353 147.937H295.933V145.947H309.353V147.937ZM319.284 155.301L317.351 155.955C314.422 152.685 312.972 148.307 312.972 143.615C312.972 138.838 314.451 134.26 317.351 130.735L319.227 131.474C316.441 134.744 315.105 139.037 315.133 143.615C315.161 148.079 316.555 152.23 319.284 155.301ZM322.308 155.955L320.375 155.301C323.105 152.23 324.498 148.079 324.526 143.615C324.555 139.037 323.218 134.744 320.432 131.474L322.308 130.735C325.209 134.26 326.687 138.838 326.687 143.615C326.687 148.307 325.237 152.685 322.308 155.955ZM338.384 155.898H331.73V130.535H338.384V132.355H333.834V154.079H338.384V155.898ZM346.469 130.535V155.898H339.816V154.079H344.365V132.355H339.816V130.535H346.469ZM358.934 155.898H357.001C354.271 155.898 352.792 154.42 352.792 151.889V146.003C352.792 144.866 351.911 144.155 350.404 144.155V142.279C351.854 142.279 352.792 141.511 352.792 140.174V134.573C352.792 132.014 354.271 130.535 357.001 130.535H358.934V132.355H357.001C355.664 132.355 354.896 133.123 354.896 134.573V140.174C354.896 141.738 354.1 142.904 352.764 143.217C354.043 143.501 354.896 144.553 354.896 146.003V151.889C354.896 153.311 355.664 154.079 357.001 154.079H358.934V155.898ZM362.297 155.898H360.364V154.079H362.297C363.634 154.079 364.401 153.311 364.401 151.889V146.003C364.401 144.553 365.254 143.501 366.534 143.217C365.197 142.904 364.401 141.738 364.401 140.174V134.573C364.401 133.123 363.634 132.355 362.297 132.355H360.364V130.535H362.297C365.027 130.535 366.505 132.014 366.505 134.573V140.174C366.505 141.511 367.444 142.279 368.894 142.279V144.155C367.387 144.155 366.505 144.866 366.505 146.003V151.889C366.505 154.42 365.027 155.898 362.297 155.898ZM383.403 155.159C376.295 155.159 371.66 151.121 371.66 144.525C371.66 137.758 376.437 132.895 383.261 132.895C389.488 132.895 393.81 137.047 393.81 142.989C393.81 147.027 391.848 149.813 388.976 149.813C387.242 149.813 386.133 148.79 386.133 147.283C385.223 148.847 383.687 149.813 381.754 149.813C378.91 149.813 377.034 147.681 377.034 144.61C377.034 140.828 379.564 137.957 382.721 137.957C384.569 137.957 386.047 138.952 386.758 140.43L387.242 138.355H388.379L387.526 146.458C387.412 147.624 387.952 148.392 389.033 148.392C390.881 148.392 392.161 146.174 392.161 143.103C392.161 137.985 388.521 134.545 383.289 134.545C377.489 134.545 373.451 138.753 373.451 144.496C373.451 150.126 377.375 153.538 383.517 153.538C385.763 153.538 387.725 153.083 389.488 152.202V153.993C387.753 154.733 385.735 155.159 383.403 155.159ZM382.095 148.25C384.228 148.25 385.82 146.401 386.076 143.871C386.36 141.312 384.995 139.521 382.863 139.521C380.56 139.521 378.797 141.653 378.797 144.468C378.797 146.686 380.105 148.25 382.095 148.25ZM403.296 147.027L401.903 152.827L399.941 152.259L401.192 147.027H396.415V145.207H401.618L403.04 139.293H398.263V137.473H403.466L404.831 131.787L406.793 132.355L405.571 137.473H410.518L411.883 131.787L413.845 132.355L412.622 137.473H417.399V139.293H412.196L410.774 145.207H415.551V147.027H410.347L408.954 152.827L406.992 152.259L408.243 147.027H403.296ZM405.144 139.293L403.722 145.207H408.67L410.091 139.293H405.144ZM439.589 132.213L425.315 152.827L423.524 151.946L437.769 131.36L439.589 132.213ZM424.206 142.449C421.533 142.449 419.657 140.317 419.657 137.274C419.657 134.175 421.533 132.042 424.206 132.042C426.879 132.042 428.755 134.147 428.755 137.189C428.755 140.288 426.879 142.449 424.206 142.449ZM424.206 140.772C425.798 140.772 426.907 139.321 426.907 137.217C426.907 135.142 425.798 133.72 424.206 133.72C422.614 133.72 421.505 135.17 421.505 137.246C421.505 139.321 422.614 140.772 424.206 140.772ZM438.594 152.572C435.921 152.572 434.044 150.439 434.044 147.397C434.044 144.297 435.921 142.165 438.594 142.165C441.266 142.165 443.143 144.269 443.143 147.311C443.143 150.411 441.266 152.572 438.594 152.572ZM438.594 150.894C440.186 150.894 441.295 149.444 441.295 147.34C441.295 145.264 440.186 143.842 438.594 143.842C437.001 143.842 435.892 145.293 435.892 147.368C435.892 149.444 437.001 150.894 438.594 150.894ZM453.102 152.572C448.751 152.572 445.709 150.155 445.709 146.686C445.709 143.473 448.069 141.881 450.486 140.658C449.15 139.151 448.353 137.928 448.353 136.364C448.353 133.891 450.429 132.042 453.187 132.042C455.945 132.042 458.021 133.862 458.021 136.336C458.021 138.724 456.116 139.975 453.983 141.056L459.13 146.345C459.727 144.923 460.04 143.188 460.04 141.17H462.456C462.456 143.928 461.888 146.259 460.864 148.107L463.679 151.008L461.888 152.572L459.442 150.013C457.85 151.662 455.689 152.572 453.102 152.572ZM452.59 139.663C454.268 138.81 455.576 137.871 455.576 136.393C455.576 135.085 454.552 134.118 453.216 134.118C451.851 134.118 450.799 135.113 450.799 136.45C450.799 137.53 451.509 138.525 452.59 139.663ZM453.102 150.382C455.121 150.382 456.713 149.671 457.879 148.392L451.851 142.108C449.86 143.16 448.154 144.354 448.154 146.544C448.154 148.818 450.003 150.382 453.102 150.382Z" fill="black"/>
<path d="M4.99363 338.684H1.46786L9.59988 318.78H13.0119L21.1724 338.684H17.6466L15.6278 333.765H7.01242L4.99363 338.684ZM11.3343 323.187L8.23506 330.751H14.4052L11.3343 323.187ZM33.3566 338.684H23.746V318.78H33.186C36.7971 318.78 39.3277 320.827 39.3277 323.813C39.3277 326.087 37.6785 327.85 35.2332 328.447C37.9913 328.874 39.7542 330.751 39.7542 333.281C39.7542 336.466 37.1383 338.684 33.3566 338.684ZM27.1297 321.822V327.083H33.0723C34.7783 327.083 35.9441 325.945 35.9441 324.353C35.9441 322.874 34.8636 321.822 33.3282 321.822H27.1297ZM27.1297 330.04V335.613H33.5272C35.2332 335.613 36.2853 334.39 36.2853 332.798C36.2853 331.177 35.0342 330.04 33.2144 330.04H27.1297ZM52.0597 339.11C45.9465 339.11 42.0511 334.902 42.0511 328.675C42.0511 322.647 45.8612 318.354 52.0597 318.354C57.2346 318.354 60.7888 321.368 61.6419 326.457H58.1445C57.519 323.329 55.2159 321.424 52.0597 321.424C48.0506 321.424 45.5484 324.239 45.5484 328.675C45.5484 333.224 48.0506 336.011 52.0597 336.011C55.2727 336.011 57.519 334.163 58.1445 331.007H61.6419C60.732 336.181 57.2631 339.11 52.0597 339.11ZM72.0623 338.684H64.8971V318.78H72.0623C77.9765 318.78 82.0994 322.818 82.0994 328.618C82.0994 334.561 77.9765 338.684 72.0623 338.684ZM68.3091 321.851V335.613H72.2898C75.9862 335.613 78.5736 332.741 78.5736 328.618C78.5736 324.723 75.9862 321.851 72.2898 321.851H68.3091ZM99.5221 338.684H85.3337V318.78H99.2662V321.851H88.7173V326.969H98.271V329.954H88.7173V335.613H99.5221V338.684ZM106.128 338.684H102.716V318.78H116.819V321.851H106.128V327.339H116.051V330.409H106.128V338.684ZM128.435 339.11C122.862 339.11 118.938 335.016 118.938 328.675C118.938 322.647 122.749 318.354 128.919 318.354C134.094 318.354 137.648 321.424 138.501 326.457H135.003C134.378 323.329 132.075 321.424 128.919 321.424C124.938 321.424 122.436 324.211 122.436 328.675C122.436 333.196 124.966 336.011 128.777 336.011C131.876 336.011 133.895 333.992 133.895 331.149H127.895V328.277H134.691C137.25 328.277 138.643 329.556 138.643 331.973V338.684H135.629V332.599H135.572C135.174 336.58 132.558 339.11 128.435 339.11ZM145.669 338.684H142.257V318.78H145.669V326.969H156.587V318.78H159.999V338.684H156.587V330.04H145.669V338.684ZM167.521 338.684H164.109V318.78H167.521V338.684ZM177.577 339.11C173.454 339.11 170.582 336.693 170.582 333.253V330.438H173.966V333.224C173.966 334.873 175.416 336.011 177.52 336.011C179.567 336.011 180.989 334.76 180.989 332.968V318.78H184.401V333.025C184.401 336.608 181.614 339.11 177.577 339.11ZM191.79 338.684H188.378V318.78H191.79V328.533L200.832 318.78H205.154L197.363 326.941L205.722 338.684H201.543L195.003 329.414L191.79 332.769V338.684ZM221.739 338.684H208.176V318.78H211.588V335.613H221.739V338.684ZM228.165 338.684H224.753V318.78H228.961L235.188 334.589L241.387 318.78H245.595V338.684H242.183V324.666L236.667 338.684H233.681L228.165 324.694V338.684ZM253.155 338.684H249.743V318.78H253.44L263.306 333.765V318.78H266.718V338.684H263.022L253.155 323.699V338.684ZM279.888 339.11C274.002 339.11 269.964 335.016 269.964 328.675C269.964 322.647 273.774 318.354 279.888 318.354C285.802 318.354 289.868 322.42 289.868 328.675C289.868 334.76 286.029 339.11 279.888 339.11ZM279.888 336.011C283.868 336.011 286.399 333.167 286.399 328.675C286.399 324.239 283.868 321.424 279.888 321.424C275.935 321.424 273.433 324.239 273.433 328.675C273.433 333.167 275.935 336.011 279.888 336.011ZM296.5 338.684H293.088V318.78H303.182C307.248 318.78 309.722 321.481 309.722 325.035C309.722 329.045 306.935 331.49 303.182 331.49H296.5V338.684ZM296.5 321.851V328.419H303.011C305.144 328.419 306.253 326.827 306.253 325.035C306.253 323.159 304.973 321.851 303.011 321.851H296.5ZM329.948 341.328L327.446 342.607L325.086 338.627C324.091 338.939 322.982 339.11 321.816 339.11C315.93 339.11 311.893 335.016 311.893 328.675C311.893 322.647 315.703 318.354 321.816 318.354C327.73 318.354 331.796 322.42 331.796 328.675C331.796 332.485 330.289 335.613 327.645 337.404L329.948 341.328ZM321.816 336.011C322.385 336.011 322.925 335.954 323.408 335.84L320.707 331.262L323.238 330.011L325.939 334.589C327.474 333.338 328.327 331.291 328.327 328.675C328.327 324.239 325.797 321.424 321.816 321.424C317.864 321.424 315.362 324.239 315.362 328.675C315.362 333.167 317.864 336.011 321.816 336.011ZM338.429 338.684H335.016V318.78H344.741C348.522 318.78 351.138 321.083 351.138 324.41C351.138 326.855 349.404 328.874 346.76 329.556C348.068 329.812 349.006 330.608 349.489 331.831L352.048 338.684H348.409L346.106 332.4C345.821 331.604 345.167 331.177 344.257 331.177H338.429V338.684ZM338.429 321.851V328.163H344.57C346.674 328.163 347.755 326.656 347.755 324.922C347.755 323.102 346.504 321.851 344.57 321.851H338.429ZM362.919 339.11C357.687 339.11 354.19 336.494 353.934 332.542H357.431C357.744 334.703 359.734 336.068 362.919 336.068C365.506 336.068 366.871 335.073 366.871 333.395C366.871 331.831 365.648 331.206 363.715 330.608L360.473 329.642C358.142 328.931 354.502 327.907 354.502 324.012C354.502 320.742 357.204 318.354 361.611 318.354C366.416 318.354 369.487 320.941 369.743 325.149H366.274C366.132 322.903 364.483 321.396 361.497 321.396C359.308 321.396 357.886 322.306 357.886 323.841C357.886 325.576 359.62 326.002 361.554 326.628L364.568 327.566C367.383 328.447 370.34 329.471 370.34 333.224C370.34 336.835 367.468 339.11 362.919 339.11ZM381.511 338.684H378.099V321.851H371.446V318.78H388.136V321.851H381.511V338.684ZM399.155 339.11C394.037 339.11 390.852 336.096 390.852 332.059V318.78H394.264V331.973C394.264 334.532 396.34 335.982 399.127 335.982C401.941 335.982 404.017 334.532 404.017 331.973V318.78H407.429V332.059C407.429 336.039 404.33 339.11 399.155 339.11ZM421.015 338.684H417.432L409.698 318.78H413.366L419.223 334.02L424.882 318.78H428.521L421.015 338.684ZM438.629 338.684H434.904L429.274 318.78H432.828L436.979 333.708L441.045 318.78H444.23L448.324 333.736L452.476 318.78H456.03L450.4 338.684H446.675L442.638 323.813L438.629 338.684ZM5.7329 368.684H1.61003L9.08807 358.703L1.80906 348.78H5.93194L11.1637 355.974L16.3671 348.78H20.4615L13.2109 358.675L20.6606 368.684H16.5377L11.1637 361.376L5.7329 368.684ZM32.5129 368.684H29.1009V360.182L21.566 348.78H25.5183L30.8354 356.941L36.1524 348.78H40.1047L32.5129 360.182V368.684ZM56.5358 368.684H41.5228V365.527L52.2423 351.851H42.0346V348.78H56.2515V351.936L45.532 365.613H56.5358V368.684ZM70.5585 368.996C67.0896 368.996 64.8149 367.319 64.8433 364.504C64.8717 360.978 68.3691 360.239 71.2977 359.898C73.5724 359.642 75.25 359.556 75.2784 358.362C75.25 356.884 74.1127 355.917 72.1792 355.917C70.1888 355.917 68.7671 356.997 68.5681 358.561H65.1845C65.4973 355.377 68.3406 353.159 72.236 353.159C76.3021 353.159 78.5483 355.377 78.5483 358.59V365.414C78.5483 365.84 78.7758 366.068 79.2876 366.068H80.1122V368.684H78.5199C76.9845 368.684 76.0461 368.058 75.7902 366.921C75.7334 366.779 75.6765 366.58 75.6481 366.409C74.7666 368.03 73.1175 368.996 70.5585 368.996ZM71.2409 366.352C73.544 366.352 75.2784 365.044 75.2784 363.025V360.921C74.7098 361.803 73.2597 362.002 71.6674 362.201C69.7908 362.428 68.2269 362.684 68.2269 364.276C68.2269 365.584 69.2789 366.352 71.2409 366.352ZM90.7141 369.11C88.3257 369.11 86.3353 367.916 85.397 366.011L85.0843 368.684H82.3831V347.358H85.7382V355.576C86.8187 354.097 88.61 353.159 90.7426 353.159C94.7233 353.159 97.5382 356.4 97.5382 361.063C97.5382 365.812 94.7233 369.11 90.7141 369.11ZM89.9748 366.267C92.4201 366.267 94.0977 364.134 94.0977 361.063C94.0977 358.078 92.4201 356.002 89.9748 356.002C87.5011 356.002 85.7382 358.049 85.7382 360.978C85.7382 364.077 87.5011 366.267 89.9748 366.267ZM107.147 369.11C102.228 369.11 99.3566 365.584 99.3566 361.035C99.3566 356.087 102.683 353.159 107.062 353.159C111.185 353.159 113.971 355.689 114.256 359.443H110.958C110.645 357.367 109.166 356.031 107.034 356.031C104.475 356.031 102.769 357.964 102.769 361.035C102.769 364.333 104.645 366.238 107.147 366.238C109.195 366.238 110.616 364.93 110.958 362.769H114.256C113.858 366.665 111.157 369.11 107.147 369.11ZM123.067 369.11C119.001 369.11 116.072 365.812 116.072 361.063C116.072 356.4 118.944 353.159 122.953 353.159C125.086 353.159 126.849 354.04 127.901 355.462V347.358H131.256V368.684H128.555L128.242 366.011C127.389 367.916 125.512 369.11 123.067 369.11ZM123.693 366.267C126.166 366.267 127.901 364.106 127.901 361.035C127.901 358.049 126.195 355.974 123.75 355.974C121.247 355.974 119.513 358.078 119.513 361.092C119.513 364.134 121.219 366.267 123.693 366.267ZM141.689 369.11C137.083 369.11 133.927 365.812 133.927 361.206C133.927 356.23 137.197 353.159 141.405 353.159C145.67 353.159 148.513 356.144 148.599 361.035V361.831H137.282C137.509 364.475 139.159 366.267 141.718 366.267C143.452 366.267 144.76 365.414 145.272 363.907H148.542C147.774 367.148 145.243 369.11 141.689 369.11ZM137.424 359.471H145.13C144.703 357.31 143.367 356.002 141.405 356.002C139.414 356.002 137.936 357.31 137.424 359.471ZM155.888 368.684H152.533V356.457H149.889V353.614H152.533V351.737C152.533 348.894 154.211 347.358 157.339 347.358H160.608V350.202H157.566C156.486 350.202 155.888 350.827 155.888 351.965V353.614H160.267V356.457H155.888V368.684ZM168.982 374.825C164.774 374.825 161.874 372.778 161.874 369.537H165.229C165.229 370.958 166.736 372.096 168.982 372.096C171.655 372.096 173.048 370.503 173.048 368.229V366.096C172.082 367.546 170.404 368.456 168.243 368.456C164.205 368.456 161.305 365.328 161.305 360.836C161.305 356.315 164.205 353.159 168.215 353.159C170.575 353.159 172.48 354.268 173.418 355.945L173.702 353.614H176.375V368.229C176.375 372.209 173.56 374.825 168.982 374.825ZM168.897 365.641C171.342 365.641 173.048 363.651 173.048 360.807C173.048 357.964 171.342 356.002 168.897 356.002C166.452 356.002 164.774 357.964 164.774 360.836C164.774 363.679 166.452 365.641 168.897 365.641ZM183.173 368.684H179.818V347.358H183.173V355.234C184.197 353.983 185.931 353.159 187.893 353.159C191.106 353.159 193.21 355.32 193.21 358.703V368.684H189.855V358.874C189.855 357.196 188.746 356.087 186.955 356.087C184.68 356.087 183.202 357.594 183.173 359.556V368.684ZM198.099 351.595C196.877 351.595 195.938 350.628 195.938 349.406C195.938 348.183 196.877 347.245 198.099 347.245C199.35 347.245 200.26 348.183 200.26 349.406C200.26 350.628 199.35 351.595 198.099 351.595ZM199.777 368.684H196.422V353.614H199.777V368.684ZM204.874 351.595C203.652 351.595 202.713 350.657 202.713 349.406C202.713 348.183 203.652 347.245 204.874 347.245C206.126 347.245 207.035 348.183 207.035 349.406C207.035 350.657 206.126 351.595 204.874 351.595ZM201.519 374.37H199.131V371.527H201.292C202.543 371.527 203.197 370.845 203.197 369.537V353.614H206.552V369.793C206.552 372.778 204.789 374.37 201.519 374.37ZM213.384 368.684H210.029V347.358H213.384V360.154L219.81 353.614H223.905L218.445 359.045L224.644 368.684H220.748L216.114 361.376L213.384 364.106V368.684ZM229.656 368.684H226.301V347.358H229.656V368.684ZM236.485 368.684H233.13V353.614H235.831L236.087 355.718C237.025 354.239 238.874 353.159 241.12 353.159C243.281 353.159 244.93 354.239 245.726 355.974C246.579 354.381 248.513 353.159 250.901 353.159C254.057 353.159 256.076 355.405 256.076 358.647V368.684H252.692V358.817C252.692 357.14 251.669 356.059 250.048 356.059C247.745 356.059 246.295 357.566 246.266 359.556V368.684H242.911V358.817C242.911 357.14 241.887 356.059 240.267 356.059C237.964 356.059 236.514 357.566 236.485 359.556V368.684ZM262.642 368.684H259.287V353.614H261.988L262.272 355.832C263.21 354.268 265.116 353.159 267.362 353.159C270.575 353.159 272.679 355.32 272.679 358.703V368.684H269.324V358.874C269.324 357.196 268.215 356.087 266.338 356.087C264.149 356.087 262.67 357.594 262.642 359.556V368.684ZM282.829 369.11C277.939 369.11 275.095 365.67 275.095 361.007C275.095 356.087 278.422 353.159 282.829 353.159C287.691 353.159 290.535 356.571 290.535 361.007C290.535 366.096 287.322 369.11 282.829 369.11ZM282.829 366.238C285.53 366.238 287.123 364.02 287.123 361.007C287.123 358.021 285.445 356.031 282.829 356.031C280.213 356.031 278.507 358.021 278.507 361.007C278.507 364.305 280.356 366.238 282.829 366.238ZM296.575 374.37H293.191V353.614H295.892L296.233 356.087C297.229 354.325 299.191 353.159 301.579 353.159C305.56 353.159 308.375 356.4 308.375 361.063C308.375 365.812 305.56 369.11 301.551 369.11C299.39 369.11 297.598 368.143 296.575 366.58V374.37ZM300.811 366.267C303.257 366.267 304.934 364.134 304.934 361.063C304.934 358.078 303.257 356.002 300.783 356.002C298.309 356.002 296.575 358.049 296.575 360.978C296.575 364.077 298.309 366.267 300.811 366.267ZM325.377 374.37H322.021V366.636C321.055 368.172 319.349 369.11 317.188 369.11C313.122 369.11 310.193 365.812 310.193 361.063C310.193 356.4 313.065 353.159 317.074 353.159C319.462 353.159 321.424 354.268 322.363 356.002L322.675 353.614H325.377V374.37ZM317.813 366.267C320.287 366.267 322.021 364.106 322.021 361.035C322.021 358.049 320.315 355.974 317.87 355.974C315.368 355.974 313.634 358.078 313.634 361.092C313.634 364.134 315.34 366.267 317.813 366.267ZM332.171 368.684H328.816V353.614H331.517L331.915 356.571C332.882 354.524 334.645 353.443 337.147 353.443H337.715V356.713H337.147C334.019 356.713 332.171 358.391 332.171 361.234V368.684ZM345.756 369.11C341.633 369.11 339.187 367.177 338.988 363.878H342.23C342.343 365.499 343.737 366.352 345.585 366.352C347.291 366.352 348.201 365.698 348.201 364.532C348.201 363.367 347.234 363.139 345.926 362.713L343.936 362.059C341.434 361.234 339.273 360.381 339.273 357.594C339.273 354.922 341.32 353.159 344.931 353.159C348.428 353.159 350.817 355.007 351.215 358.419H348.03C347.86 356.713 346.637 355.917 344.902 355.917C343.424 355.917 342.571 356.542 342.571 357.566C342.571 358.732 343.879 359.045 344.959 359.414L346.779 360.011C349.765 361.007 351.556 361.916 351.556 364.618C351.556 367.404 349.452 369.11 345.756 369.11ZM362.172 368.684H360.239C356.969 368.684 355.206 367.063 355.206 364.077V356.457H352.562V353.614H355.206V348.467H358.561V353.614H362.457V356.457H358.561V363.85C358.561 365.129 359.215 365.84 360.466 365.84H362.172V368.684ZM370.315 369.11C366.733 369.11 364.657 366.864 364.657 363.594V353.614H368.012V363.452C368.012 365.158 369.207 366.153 370.998 366.153C373.301 366.153 374.666 364.646 374.694 362.713V353.614H378.049V368.684H375.348L375.092 366.494C374.211 368.115 372.42 369.11 370.315 369.11ZM389.907 368.684H386.41L380.126 353.614H383.765L388.173 364.731L392.551 353.614H396.191L389.907 368.684ZM404.915 368.684H401.389L396.925 353.614H400.366L403.408 364.532L406.394 353.614H409.18L412.194 364.419L415.18 353.614H418.62L414.156 368.684H410.687L407.787 358.391L404.915 368.684ZM423.256 368.684H419.475L424.906 361.149L419.56 353.614H423.313L426.811 358.647L430.28 353.614H434.033L428.687 361.149L434.118 368.684H430.336L426.811 363.48L423.256 368.684ZM438.748 374.37H436.018V371.527H438.748C439.999 371.527 440.681 371.072 440.966 370.276L441.563 368.684H440.937L434.966 353.614H438.577L442.899 365.044L447.136 353.614H450.633L444.065 371.271C443.297 373.29 441.705 374.37 438.748 374.37ZM464.086 368.684H452.144V365.613L460.22 356.571H452.4V353.614H463.973V356.685L455.869 365.698H464.086V368.684ZM10.0264 399.11C5.27797 399.11 2.12183 395.016 2.12183 388.675C2.12183 382.476 5.19266 378.354 10.0264 378.354C14.7464 378.354 17.9025 382.391 17.9025 388.675C17.9025 394.902 14.8317 399.11 10.0264 399.11ZM10.0264 395.954C12.7276 395.954 14.462 393.111 14.462 388.675C14.462 384.296 12.7276 381.481 10.0264 381.481C7.29675 381.481 5.5623 384.296 5.5623 388.675C5.5623 393.111 7.29675 395.954 10.0264 395.954ZM27.8463 398.684H24.4342V383.87C23.4959 385.178 21.9889 385.86 19.9417 385.86H19.7142V382.59H19.9417C22.8988 382.59 24.4627 381.368 24.4627 379.064V378.78H27.8463V398.684ZM45.1008 384.41C45.1008 390.978 36.2011 390.978 35.3765 395.613H44.7312V398.684H31.5095V396.807C31.5095 389.187 41.6319 389.556 41.6319 384.524C41.6319 382.675 40.3524 381.424 38.3905 381.424C36.3148 381.424 34.6941 382.818 34.6372 385.377H31.0546C31.3674 380.884 34.4382 378.354 38.4473 378.354C42.4281 378.354 45.1008 380.799 45.1008 384.41ZM55.2016 399.139C50.5101 399.139 47.2971 396.551 47.0696 392.343H50.567C50.766 394.646 52.5573 396.039 55.2016 396.039C57.6469 396.039 59.1823 394.817 59.1823 392.94C59.1823 391.092 57.6754 389.954 55.1732 389.954H52.0739V387.14H55.1732C57.192 387.14 58.4146 385.86 58.4146 384.296C58.4146 382.647 57.0783 381.424 55.0879 381.424C53.0691 381.424 51.5337 382.704 51.2778 384.666H47.752C48.1501 380.856 51.1072 378.354 55.2016 378.354C59.0686 378.354 61.8267 380.571 61.8267 383.671C61.8267 386.031 60.2059 387.85 57.8175 388.362C60.7462 388.902 62.5091 390.779 62.5091 393.423C62.5091 396.807 59.6088 399.139 55.2016 399.139ZM77.5605 398.684H74.1484V394.248H64.481V391.234L74.12 378.78H77.5605V391.177H81.0009V394.248H77.5605V398.684ZM74.1484 383.443L68.1774 391.177H74.1484V383.443ZM90.4647 399.139C86.3133 399.139 83.2425 396.636 82.7307 392.599H86.3418C86.6546 394.674 88.3321 396.011 90.4931 396.011C92.9099 396.011 94.3601 394.305 94.3601 392.144C94.3601 390.04 92.9384 388.305 90.55 388.305C89.242 388.305 88.1331 388.817 87.1095 389.898H83.2994L85.0623 378.78H96.8907V381.879H87.8772L86.9958 387.538C88.0762 386.343 89.6401 385.519 91.602 385.519C95.2415 385.519 97.8005 388.248 97.8005 392.115C97.8005 396.267 94.815 399.139 90.4647 399.139ZM108.672 399.11C103.298 399.11 100.057 394.817 100.057 388.675C100.057 382.334 103.44 378.354 108.729 378.354C112.767 378.354 115.695 380.884 116.036 384.694H112.539C112.34 382.761 110.748 381.424 108.672 381.424C105.374 381.424 103.412 384.154 103.241 388.192V389.158C104.094 386.969 106.341 385.291 109.326 385.291C113.165 385.291 115.894 388.049 115.894 392.059C115.894 396.21 112.937 399.11 108.672 399.11ZM108.502 396.039C110.463 396.039 112.425 394.731 112.425 392.059C112.425 389.386 110.492 388.106 108.53 388.106C106.54 388.106 104.492 389.471 104.492 392.087C104.492 394.703 106.483 396.039 108.502 396.039ZM122.658 398.684H118.734L127.805 381.851H117.426V378.78H131.558V381.851L122.658 398.684ZM140.696 399.11C135.692 399.11 132.735 396.466 132.735 393.224C132.735 390.921 134.327 389.158 136.915 388.305C134.81 387.395 133.645 385.661 133.645 383.728C133.645 380.827 136.261 378.354 140.696 378.354C145.103 378.354 147.691 380.799 147.691 383.728C147.691 385.633 146.525 387.367 144.449 388.305C147.037 389.13 148.601 390.921 148.601 393.224C148.601 396.409 145.757 399.11 140.696 399.11ZM140.696 387.196C142.857 387.196 144.336 385.974 144.336 384.211C144.336 382.505 142.857 381.311 140.696 381.311C138.535 381.311 137.057 382.505 137.057 384.211C137.057 385.974 138.535 387.196 140.696 387.196ZM140.696 396.011C143.426 396.011 145.075 394.589 145.075 392.826C145.075 391.092 143.426 389.642 140.696 389.642C137.967 389.642 136.289 391.092 136.289 392.826C136.289 394.589 137.967 396.011 140.696 396.011ZM158.181 399.11C154.001 399.11 151.072 396.665 150.646 392.912H154.115C154.428 394.873 155.963 396.039 158.209 396.039C161.053 396.039 162.702 393.651 162.844 389.471C162.872 389.13 162.872 388.789 162.844 388.447C162.361 390.495 160.456 392.002 157.669 392.002C153.546 392.002 150.646 389.187 150.646 385.206C150.646 381.168 153.66 378.354 157.868 378.354C163.043 378.354 166 382.505 166 388.846C166 395.158 163.1 399.11 158.181 399.11ZM158.01 389.13C160.114 389.13 161.934 387.737 161.934 385.263C161.934 382.761 160.143 381.368 158.039 381.368C155.906 381.368 154.058 382.789 154.03 385.234C154.03 387.708 155.878 389.13 158.01 389.13ZM176.576 399.053C175.354 399.053 174.415 398.115 174.415 396.864C174.415 395.641 175.354 394.703 176.576 394.703C177.827 394.703 178.766 395.641 178.766 396.864C178.766 398.115 177.827 399.053 176.576 399.053ZM185.803 394.475L182.562 404.342L179.975 403.546L183.102 393.651L185.803 394.475ZM190.099 387.509C188.876 387.509 187.938 386.571 187.938 385.32C187.938 384.097 188.876 383.159 190.099 383.159C191.35 383.159 192.288 384.097 192.288 385.32C192.288 386.571 191.35 387.509 190.099 387.509ZM190.099 399.053C188.876 399.053 187.938 398.115 187.938 396.864C187.938 395.641 188.876 394.703 190.099 394.703C191.35 394.703 192.288 395.641 192.288 396.864C192.288 398.115 191.35 399.053 190.099 399.053ZM197.222 387.509C195.999 387.509 195.061 386.571 195.061 385.32C195.061 384.097 195.999 383.159 197.222 383.159C198.473 383.159 199.411 384.097 199.411 385.32C199.411 386.571 198.473 387.509 197.222 387.509ZM199.355 394.475L196.085 404.342L193.526 403.546L196.653 393.651L199.355 394.475ZM205.293 386.798H202.421V377.358H205.293V386.798ZM211.877 386.741H208.863V377.358H211.877V386.741ZM216.939 386.741H213.925V377.358H216.939V386.741ZM224.194 392.997H220.81V377.358H224.194V392.997ZM222.488 399.053C221.236 399.053 220.298 398.115 220.298 396.864C220.298 395.641 221.236 394.703 222.488 394.703C223.739 394.703 224.677 395.641 224.677 396.864C224.677 398.115 223.739 399.053 222.488 399.053ZM235.814 393.31H232.487V392.172C232.487 387.594 237.832 387.339 237.832 384.126C237.832 382.59 236.581 381.424 234.591 381.424C232.458 381.424 230.809 382.818 230.781 385.377H227.198C227.511 380.884 230.553 378.354 234.619 378.354C238.685 378.354 241.244 380.856 241.244 384.012C241.244 388.703 235.814 388.902 235.814 392.172V393.31ZM234.164 399.053C232.913 399.053 231.975 398.115 231.975 396.864C231.975 395.641 232.913 394.703 234.164 394.703C235.416 394.703 236.354 395.641 236.354 396.864C236.354 398.115 235.416 399.053 234.164 399.053ZM252.115 396.693H249.044V391.348H243.5V388.59H249.044V383.187H252.115V388.59H257.631V391.348H252.115V396.693ZM272.453 391.348H259.743V388.59H272.453V391.348ZM281.793 390.21H279.405V386.031L275.538 388.277L274.4 386.201L278.267 383.927L274.4 381.709L275.538 379.633L279.405 381.879V377.7H281.793V381.879L285.689 379.633L286.798 381.709L282.959 383.927L286.798 386.173L285.66 388.248L281.793 386.002V390.21ZM298.343 376.96L290.808 402.039L287.794 401.129L295.272 376.107L298.343 376.96ZM313.613 388.647H299.51V385.832H313.613V388.647ZM313.613 394.845H299.51V392.059H313.613V394.845ZM323.794 401.726L321.15 402.636C318.306 399.48 316.629 394.703 316.629 389.983C316.629 385.291 318.278 380.315 321.15 376.903L323.737 377.899C321.15 380.969 319.643 385.519 319.671 389.983C319.671 394.305 321.178 398.769 323.794 401.726ZM327.012 402.636L324.367 401.726C326.983 398.769 328.49 394.305 328.49 389.983C328.519 385.519 327.012 380.969 324.424 377.899L327.012 376.903C329.884 380.315 331.533 385.291 331.533 389.983C331.533 394.703 329.855 399.48 327.012 402.636ZM342.74 402.323H335.803V376.96H342.74V379.548H338.731V399.736H342.74V402.323ZM350.636 376.96V402.323H343.698V399.736H347.707V379.548H343.698V376.96H350.636ZM362.796 402.323H360.607C357.963 402.323 356.285 400.788 356.285 398.314V392.684C356.285 391.518 355.432 390.836 353.897 390.836V388.476C355.404 388.476 356.285 387.822 356.285 386.656V381.282C356.285 378.496 357.877 376.96 360.863 376.96H362.796V379.548H360.977C359.839 379.548 359.214 380.173 359.214 381.368V386.912C359.214 388.248 358.588 389.272 357.081 389.699C358.389 390.068 359.214 391.035 359.214 392.513V398.03C359.214 399.139 359.839 399.736 360.948 399.736H362.796V402.323ZM365.992 402.323H363.774V399.736H365.622C366.731 399.736 367.356 399.139 367.356 398.03V392.513C367.356 391.035 368.181 390.068 369.489 389.699C368.01 389.272 367.356 388.248 367.356 386.912V381.368C367.356 380.173 366.731 379.548 365.622 379.548H363.774V376.96H365.707C368.693 376.96 370.314 378.496 370.314 381.282V386.656C370.314 387.822 371.195 388.476 372.702 388.476V390.836C371.167 390.836 370.314 391.518 370.314 392.684V398.314C370.314 400.788 368.607 402.323 365.992 402.323ZM386.986 401.897C379.65 401.897 374.817 397.745 374.817 390.978C374.817 384.097 379.793 379.121 386.901 379.121C393.242 379.121 397.649 383.329 397.649 389.329C397.649 393.48 395.516 396.324 392.531 396.324C390.74 396.324 389.574 395.328 389.488 393.992C388.579 395.442 387.1 396.324 385.252 396.324C382.352 396.324 380.39 394.163 380.39 391.063C380.39 387.253 382.92 384.381 386.162 384.381C387.925 384.381 389.318 385.234 390.057 386.514L390.54 384.78H392.104L391.308 392.713C391.223 393.622 391.706 394.22 392.559 394.22C394.18 394.22 395.317 392.229 395.317 389.471C395.317 384.694 391.848 381.481 386.816 381.481C381.243 381.481 377.347 385.49 377.347 390.95C377.347 396.352 381.186 399.593 387.1 399.593C389.289 399.593 391.223 399.167 393.043 398.286V400.788C391.393 401.47 389.432 401.897 386.986 401.897ZM385.764 394.305C387.612 394.305 389.033 392.684 389.261 390.409C389.517 388.049 388.351 386.4 386.446 386.4C384.427 386.4 382.863 388.334 382.863 390.864C382.863 392.883 384.029 394.305 385.764 394.305ZM407.221 393.907L405.913 399.338L403.07 398.684L404.207 393.907H399.715V391.319H404.833L406.055 386.343H401.534V383.756H406.681L408.074 377.955L410.917 378.609L409.695 383.756H413.903L415.296 377.955L418.168 378.609L416.917 383.756H421.409V386.343H416.291L415.097 391.319H419.59V393.907H414.443L413.135 399.338L410.292 398.684L411.458 393.907H407.221ZM409.041 386.343L407.847 391.319H412.083L413.277 386.343H409.041ZM443.791 378.752L429.432 399.508L426.958 398.314L441.289 377.586L443.791 378.752ZM427.925 388.931C425.138 388.931 423.176 386.798 423.176 383.728C423.176 380.543 425.138 378.354 427.925 378.354C430.74 378.354 432.702 380.486 432.702 383.557C432.702 386.713 430.74 388.931 427.925 388.931ZM427.925 386.628C429.261 386.628 430.2 385.405 430.2 383.614C430.2 381.851 429.29 380.628 427.953 380.628C426.617 380.628 425.679 381.851 425.679 383.642C425.679 385.405 426.617 386.628 427.925 386.628ZM442.568 399.11C439.753 399.11 437.791 396.949 437.791 393.878C437.791 390.694 439.753 388.504 442.568 388.533C445.355 388.561 447.317 390.694 447.317 393.736C447.317 396.892 445.355 399.11 442.568 399.11ZM442.568 396.807C443.905 396.807 444.843 395.584 444.843 393.793C444.843 392.03 443.905 390.807 442.597 390.807C441.232 390.807 440.294 392.03 440.294 393.821C440.294 395.584 441.232 396.807 442.568 396.807ZM456.932 399.11C452.411 399.11 449.341 396.75 449.341 393.253C449.341 390.154 451.672 388.447 454.004 387.225C452.781 385.832 452.013 384.524 452.013 382.931C452.013 380.287 454.203 378.354 457.188 378.354C460.202 378.354 462.448 380.287 462.477 382.96C462.477 385.348 460.714 386.685 458.667 387.765L462.875 392.059C463.358 390.779 463.614 389.272 463.643 387.538H466.742C466.742 390.239 466.202 392.542 465.206 394.39L467.965 397.205L465.633 399.281L463.273 396.807C461.652 398.286 459.491 399.11 456.932 399.11ZM456.762 385.888C458.183 385.178 459.235 384.41 459.235 383.102C459.235 381.965 458.411 381.14 457.245 381.14C456.079 381.14 455.226 381.965 455.226 383.102C455.226 384.04 455.795 384.865 456.762 385.888ZM457.103 396.153C458.78 396.153 460.145 395.641 461.169 394.646L455.88 389.187C454.174 390.097 452.781 391.149 452.781 392.94C452.781 394.873 454.43 396.153 457.103 396.153Z" fill="black"/>
<path d="M5.76134 23.5439H3.37291V3.64041H12.7844C16.9358 3.64041 19.1536 6.28473 19.1536 9.4693C19.1536 13.5069 16.3102 15.6678 12.7844 15.6678H5.76134V23.5439ZM5.76134 5.8298V13.4784H12.8982C15.3719 13.4784 16.7083 11.6871 16.7083 9.4693C16.7083 7.10931 15.0023 5.8298 12.8982 5.8298H5.76134ZM25.0873 23.5439H22.6989V3.64041H32.1104C36.2617 3.64041 38.4796 6.28473 38.4796 9.4693C38.4796 13.5069 35.6362 15.6678 32.1104 15.6678H25.0873V23.5439ZM25.0873 5.8298V13.4784H32.2242C34.6979 13.4784 36.0343 11.6871 36.0343 9.4693C36.0343 7.10931 34.3282 5.8298 32.2242 5.8298H25.0873ZM50.7998 23.5439H48.4113V3.64041H51.3969L58.42 20.7006L65.4146 3.64041H68.4286V23.5439H66.0402V7.79172L59.5573 23.5439H57.2542L50.7998 7.84858V23.5439ZM79.4046 23.8567C74.5709 23.8567 72.0119 20.4162 72.0119 15.8669C72.0119 10.8341 75.3102 8.13292 79.4046 8.13292C84.2099 8.13292 86.7974 11.6018 86.7974 15.8669C86.7974 21.0702 83.6413 23.8567 79.4046 23.8567ZM79.4046 21.8095C82.6176 21.8095 84.3805 19.1367 84.3805 15.8669C84.3805 12.4833 82.4186 10.1801 79.4046 10.1801C76.3907 10.1801 74.4288 12.4833 74.4288 15.8669C74.4288 19.7338 76.675 21.8095 79.4046 21.8095ZM92.2442 23.5439H89.8842V8.47412H91.7608L92.0452 11.3459C93.0119 9.41243 94.7748 8.38882 97.277 8.38882H97.7888V10.7204H97.277C94.0924 10.7204 92.2442 12.5401 92.2442 15.6394V23.5439ZM101.685 5.94353C100.69 5.94353 99.9226 5.17582 99.9226 4.18065C99.9226 3.18547 100.69 2.44619 101.685 2.44619C102.681 2.44619 103.42 3.18547 103.42 4.18065C103.42 5.17582 102.681 5.94353 101.685 5.94353ZM102.851 23.5439H100.491V8.47412H102.851V23.5439ZM115.969 23.5439H113.581V3.64041H122.651C126.405 3.64041 128.992 5.88666 128.992 9.1281C128.992 11.4881 127.4 13.4784 124.983 14.2461C126.035 14.5305 126.774 15.2129 127.144 16.2081L129.902 23.5439H127.343L124.784 16.6346C124.471 15.7816 123.789 15.3266 122.85 15.3266H115.969V23.5439ZM115.969 5.8298V13.1941H122.765C125.239 13.1941 126.575 11.4881 126.575 9.35557C126.575 7.02401 124.926 5.8298 122.765 5.8298H115.969ZM138.91 23.8567C134.446 23.8567 131.489 20.5868 131.489 16.0659C131.489 10.9194 134.816 8.13292 138.626 8.13292C142.777 8.13292 145.45 10.9194 145.535 15.7531V16.4071H133.849C133.991 19.6201 135.868 21.8095 138.91 21.8095C141.015 21.8095 142.55 20.7574 143.175 18.7955H145.479C144.796 21.8948 142.351 23.8567 138.91 23.8567ZM133.991 14.4452H143.062C142.635 11.8009 141.043 10.1801 138.626 10.1801C136.238 10.1801 134.475 11.744 133.991 14.4452ZM155.208 29.5719C151.142 29.5719 148.384 27.61 148.384 24.4254H150.744C150.744 26.2167 152.563 27.5815 155.208 27.5815C158.307 27.5815 159.928 25.7333 159.928 23.1459V20.7006C158.876 22.2644 157.056 23.288 154.753 23.288C150.744 23.288 147.872 20.2172 147.872 15.7816C147.872 11.2606 150.772 8.13292 154.753 8.13292C157.17 8.13292 159.132 9.27026 160.155 11.09L160.411 8.47412H162.259V23.1459C162.259 26.956 159.7 29.5719 155.208 29.5719ZM155.094 21.2408C157.937 21.2408 159.928 18.9661 159.928 15.6963C159.928 12.4548 157.937 10.1801 155.094 10.1801C152.279 10.1801 150.317 12.4548 150.317 15.7531C150.317 18.9946 152.279 21.2408 155.094 21.2408ZM171.621 23.8567C167.953 23.8567 165.849 21.6105 165.849 18.5396V8.47412H168.209V18.4543C168.209 20.6153 169.716 21.7811 171.848 21.7811C174.663 21.7811 176.198 19.9044 176.227 17.6298V8.47412H178.587V23.5439H176.71L176.511 21.2693C175.516 22.9753 173.696 23.8567 171.621 23.8567ZM184.905 23.5439H182.545V2.21873H184.905V23.5439ZM193.709 23.7714C190.297 23.7714 188.107 22.0085 188.107 19.2505C188.107 15.7816 191.462 15.1276 194.476 14.8148C196.78 14.5874 198.77 14.6158 198.798 13.3931C198.77 11.4881 197.206 10.1517 194.931 10.1517C192.742 10.1517 191.036 11.3744 190.78 13.1657H188.448C188.733 10.2086 191.406 8.13292 194.988 8.13292C198.713 8.13292 201.101 10.3507 201.101 13.5353V20.8712C201.101 21.3546 201.357 21.6105 201.869 21.6105H202.722V23.5439H201.386C199.765 23.5439 198.912 22.8047 198.912 21.4114V20.9565C198.031 22.6909 196.325 23.7714 193.709 23.7714ZM194.05 21.7526C196.865 21.7526 198.798 19.9613 198.798 17.4591V15.4972C198.144 16.3787 196.467 16.5493 194.619 16.7483C192.543 16.9758 190.467 17.2601 190.467 19.1936C190.467 20.7574 191.889 21.7526 194.05 21.7526ZM207.728 23.5439H205.368V8.47412H207.245L207.529 11.3459C208.496 9.41243 210.259 8.38882 212.761 8.38882H213.273V10.7204H212.761C209.576 10.7204 207.728 12.5401 207.728 15.6394V23.5439Z" fill="black"/>
<path d="M6.44374 269.969H3.03171V250.065H13.1256C17.1917 250.065 19.6654 252.766 19.6654 256.321C19.6654 260.33 16.8789 262.775 13.1256 262.775H6.44374V269.969ZM6.44374 253.136V259.704H12.955C15.0876 259.704 16.1965 258.112 16.1965 256.321C16.1965 254.444 14.917 253.136 12.955 253.136H6.44374ZM26.1585 269.969H22.7464V250.065H32.8404C36.9064 250.065 39.3801 252.766 39.3801 256.321C39.3801 260.33 36.5936 262.775 32.8404 262.775H26.1585V269.969ZM26.1585 253.136V259.704H32.6698C34.8023 259.704 35.9112 258.112 35.9112 256.321C35.9112 254.444 34.6317 253.136 32.6698 253.136H26.1585ZM52.0653 269.969H48.6532V250.065H52.8614L59.0884 265.874L65.2869 250.065H69.4951V269.969H66.0831V255.951L60.5669 269.969H57.5814L52.0653 255.979V269.969ZM80.2119 270.395C75.3213 270.395 72.4779 266.955 72.4779 262.292C72.4779 257.373 75.8047 254.444 80.2119 254.444C85.074 254.444 87.9174 257.856 87.9174 262.292C87.9174 267.381 84.7044 270.395 80.2119 270.395ZM80.2119 267.523C82.9131 267.523 84.5054 265.306 84.5054 262.292C84.5054 259.306 82.8278 257.316 80.2119 257.316C77.596 257.316 75.89 259.306 75.89 262.292C75.89 265.59 77.7382 267.523 80.2119 267.523ZM93.9005 269.969H90.5453V254.899H93.2465L93.6446 257.856C94.6113 255.809 96.3742 254.728 98.8763 254.728H99.445V257.998H98.8763C95.7487 257.998 93.9005 259.676 93.9005 262.519V269.969ZM103.33 252.88C102.107 252.88 101.169 251.913 101.169 250.691C101.169 249.468 102.107 248.53 103.33 248.53C104.581 248.53 105.491 249.468 105.491 250.691C105.491 251.913 104.581 252.88 103.33 252.88ZM105.007 269.969H101.652V254.899H105.007V269.969ZM123.121 270.395C117.889 270.395 114.392 267.779 114.136 263.827H117.633C117.946 265.988 119.937 267.353 123.121 267.353C125.709 267.353 127.073 266.358 127.073 264.68C127.073 263.116 125.851 262.491 123.917 261.894L120.676 260.927C118.344 260.216 114.705 259.192 114.705 255.297C114.705 252.027 117.406 249.639 121.813 249.639C126.618 249.639 129.689 252.226 129.945 256.434H126.476C126.334 254.188 124.685 252.681 121.699 252.681C119.51 252.681 118.088 253.591 118.088 255.126C118.088 256.861 119.823 257.287 121.756 257.913L124.77 258.851C127.585 259.733 130.542 260.756 130.542 264.509C130.542 268.121 127.671 270.395 123.121 270.395ZM140.19 270.395C135.583 270.395 132.427 267.097 132.427 262.491C132.427 257.515 135.697 254.444 139.905 254.444C144.17 254.444 147.014 257.43 147.099 262.32V263.116H135.783C136.01 265.761 137.659 267.552 140.218 267.552C141.953 267.552 143.261 266.699 143.772 265.192H147.042C146.275 268.433 143.744 270.395 140.19 270.395ZM135.925 260.756H143.63C143.204 258.595 141.867 257.287 139.905 257.287C137.915 257.287 136.437 258.595 135.925 260.756ZM153.072 269.969H149.717V254.899H152.418L152.674 257.003C153.613 255.524 155.461 254.444 157.707 254.444C159.868 254.444 161.517 255.524 162.313 257.259C163.166 255.667 165.1 254.444 167.488 254.444C170.644 254.444 172.663 256.69 172.663 259.932V269.969H169.28V260.102C169.28 258.425 168.256 257.344 166.635 257.344C164.332 257.344 162.882 258.851 162.854 260.842V269.969H159.498V260.102C159.498 258.425 158.475 257.344 156.854 257.344C154.551 257.344 153.101 258.851 153.072 260.842V269.969ZM177.552 252.88C176.329 252.88 175.391 251.913 175.391 250.691C175.391 249.468 176.329 248.53 177.552 248.53C178.803 248.53 179.712 249.468 179.712 250.691C179.712 251.913 178.803 252.88 177.552 252.88ZM179.229 269.969H175.874V254.899H179.229V269.969ZM192.629 269.969H183.019V250.065H192.459C196.07 250.065 198.6 252.112 198.6 255.098C198.6 257.373 196.951 259.136 194.506 259.733C197.264 260.159 199.027 262.036 199.027 264.566C199.027 267.751 196.411 269.969 192.629 269.969ZM186.402 253.108V258.368H192.345C194.051 258.368 195.217 257.23 195.217 255.638C195.217 254.16 194.136 253.108 192.601 253.108H186.402ZM186.402 261.325V266.898H192.8C194.506 266.898 195.558 265.675 195.558 264.083C195.558 262.462 194.307 261.325 192.487 261.325H186.402ZM208.802 270.395C203.911 270.395 201.068 266.955 201.068 262.292C201.068 257.373 204.395 254.444 208.802 254.444C213.664 254.444 216.507 257.856 216.507 262.292C216.507 267.381 213.294 270.395 208.802 270.395ZM208.802 267.523C211.503 267.523 213.095 265.306 213.095 262.292C213.095 259.306 211.418 257.316 208.802 257.316C206.186 257.316 204.48 259.306 204.48 262.292C204.48 265.59 206.328 267.523 208.802 267.523ZM222.547 269.969H219.192V248.644H222.547V269.969ZM232.22 270.395C228.154 270.395 225.225 267.097 225.225 262.349C225.225 257.685 228.097 254.444 232.106 254.444C234.239 254.444 236.002 255.325 237.054 256.747V248.644H240.409V269.969H237.708L237.395 267.296C236.542 269.201 234.665 270.395 232.22 270.395ZM232.846 267.552C235.319 267.552 237.054 265.391 237.054 262.32C237.054 259.335 235.348 257.259 232.902 257.259C230.4 257.259 228.666 259.363 228.666 262.377C228.666 265.419 230.372 267.552 232.846 267.552Z" fill="black"/>
</svg>
