<svg width="450" height="283" viewBox="0 0 450 283" fill="none" xmlns="http://www.w3.org/2000/svg">
<path d="M8.75283 39.2139H4.65423V5.05886H9.77748L21.8293 34.3346L33.8324 5.05886H39.0044V39.2139H34.9058V12.1826L23.781 39.2139H19.8288L8.75283 12.2802V39.2139ZM62.1822 39.7506C52.4236 39.7506 45.739 32.822 45.739 22.0388C45.739 11.8899 51.9357 4.52214 62.1822 4.52214C72.0383 4.52214 78.7229 11.4507 78.7229 22.0388C78.7229 32.2853 72.5262 39.7506 62.1822 39.7506ZM62.1822 35.9935C69.7938 35.9935 74.5268 30.5775 74.5268 22.0388C74.5268 13.5976 69.7451 8.27919 62.1822 8.27919C54.6681 8.27919 49.9352 13.5976 49.9352 22.0388C49.9352 30.5775 54.6681 35.9935 62.1822 35.9935ZM97.5192 39.2139H85.4674V5.05886H97.5192C107.327 5.05886 114.158 11.9874 114.158 21.9412C114.158 32.1389 107.327 39.2139 97.5192 39.2139ZM89.566 8.81591V35.4568H97.7632C104.838 35.4568 109.815 29.8944 109.815 21.9412C109.815 14.5735 104.838 8.81591 97.7632 8.81591H89.566ZM134.191 39.7506C125.36 39.7506 120.578 34.237 120.578 27.7475V5.05886H124.677V27.65C124.677 33.066 128.97 35.9447 134.191 35.9447C139.412 35.9447 143.706 33.066 143.706 27.65V5.05886H147.804V27.7475C147.804 34.237 142.974 39.7994 134.191 39.7506ZM169.021 39.7506C160.433 39.7506 154.529 35.3104 154.09 28.8698H158.384C158.872 33.2611 163.019 36.0423 169.021 36.0423C174.241 36.0423 176.974 33.8954 176.974 30.3336C176.974 26.8693 173.949 25.5519 170.68 24.5272L164.776 22.6731C162.043 21.7948 155.163 20.331 155.163 13.6464C155.163 8.13281 159.701 4.52214 166.776 4.52214C174.583 4.52214 179.413 8.47436 179.95 15.7445H175.705C175.364 10.914 171.997 8.2304 166.581 8.2304C162.287 8.2304 159.262 10.1821 159.262 13.4512C159.262 17.2083 163.165 17.989 166.093 18.916L171.607 20.6238C175.949 21.99 181.17 23.6977 181.17 30.1384C181.17 36.1399 176.584 39.7506 169.021 39.7506ZM213.23 39.7506C203.472 39.7506 196.787 32.822 196.787 22.0388C196.787 11.8899 202.984 4.52214 213.23 4.52214C223.087 4.52214 229.771 11.4507 229.771 22.0388C229.771 32.2853 223.574 39.7506 213.23 39.7506ZM213.23 35.9935C220.842 35.9935 225.575 30.5775 225.575 22.0388C225.575 13.5976 220.793 8.27919 213.23 8.27919C205.716 8.27919 200.983 13.5976 200.983 22.0388C200.983 30.5775 205.716 35.9935 213.23 35.9935ZM240.614 39.2139H236.516V5.05886H252.666C259.79 5.05886 263.596 9.5966 263.596 15.0614C263.596 21.99 258.716 25.6982 252.666 25.6982H240.614V39.2139ZM240.614 8.81591V21.9412H252.861C257.106 21.9412 259.399 18.8672 259.399 15.0614C259.399 11.0116 256.472 8.81591 252.861 8.81591H240.614ZM293.442 39.2139H269.68V5.05886H293.003V8.81591H273.729V19.5991H291.051V23.2586H273.729V35.4568H293.442V39.2139ZM304.083 39.2139H299.984V5.05886H315.549C321.99 5.05886 326.43 8.9135 326.43 14.4759C326.43 18.5257 323.698 21.9412 319.55 23.2586C321.356 23.7465 322.624 24.9176 323.259 26.6253L327.992 39.2139H323.6L319.209 27.3572C318.672 25.8934 317.501 25.1127 315.891 25.1127H304.083V39.2139ZM304.083 8.81591V21.4533H315.745C319.99 21.4533 322.283 18.5257 322.283 14.8662C322.283 10.8652 319.453 8.81591 315.745 8.81591H304.083ZM335.232 39.2139H330.987L345.039 5.05886H349.186L363.287 39.2139H359.043L355.042 29.4553H339.233L335.232 39.2139ZM347.137 10.2797L340.794 25.747H353.48L347.137 10.2797ZM372.889 39.2139H368.79V5.05886H373.474L392.796 33.3587V5.05886H396.895V39.2139H392.211L372.889 10.914V39.2139ZM417.246 39.2139H405.194V5.05886H417.246C427.053 5.05886 433.884 11.9874 433.884 21.9412C433.884 32.1389 427.053 39.2139 417.246 39.2139ZM409.293 8.81591V35.4568H417.49C424.565 35.4568 429.542 29.8944 429.542 21.9412C429.542 14.5735 424.565 8.81591 417.49 8.81591H409.293ZM444.696 39.2139H440.597V5.05886H444.696V39.2139Z" fill="black"/>
<path d="M9.92386 270.237H4.06872V236.082H11.2901L21.9757 263.211L32.6125 236.082H39.8339V270.237H33.9787V246.182L24.5129 270.237H19.3897L9.92386 246.231V270.237ZM62.4204 270.969C52.3203 270.969 45.3917 263.943 45.3917 253.062C45.3917 242.718 51.9299 235.35 62.4204 235.35C72.5693 235.35 79.5467 242.328 79.5467 253.062C79.5467 263.504 72.9597 270.969 62.4204 270.969ZM62.4204 265.651C69.2514 265.651 73.594 260.771 73.594 253.062C73.594 245.451 69.2514 240.62 62.4204 240.62C55.6382 240.62 51.3444 245.451 51.3444 253.062C51.3444 260.771 55.6382 265.651 62.4204 265.651ZM97.3683 270.237H85.0725V236.082H97.3683C107.517 236.082 114.592 243.011 114.592 252.965C114.592 263.162 107.517 270.237 97.3683 270.237ZM90.9276 241.352V264.968H97.7586C104.102 264.968 108.542 260.04 108.542 252.965C108.542 246.28 104.102 241.352 97.7586 241.352H90.9276ZM134.097 270.969C125.314 270.969 119.85 265.797 119.85 258.869V236.082H125.705V258.722C125.705 263.114 129.267 265.602 134.048 265.602C138.879 265.602 142.441 263.114 142.441 258.722V236.082H148.296V258.869C148.296 265.7 142.977 270.969 134.097 270.969ZM169.072 270.969C160.094 270.969 154.092 266.48 153.653 259.698H159.655C160.191 263.406 163.607 265.748 169.072 265.748C173.512 265.748 175.854 264.041 175.854 261.162C175.854 258.478 173.756 257.405 170.438 256.38L164.876 254.721C160.874 253.501 154.629 251.745 154.629 245.06C154.629 239.449 159.264 235.35 166.827 235.35C175.073 235.35 180.343 239.791 180.782 247.012H174.829C174.585 243.157 171.755 240.571 166.632 240.571C162.875 240.571 160.435 242.133 160.435 244.767C160.435 247.744 163.412 248.476 166.73 249.549L171.902 251.159C176.732 252.672 181.807 254.428 181.807 260.869C181.807 267.066 176.879 270.969 169.072 270.969ZM213.135 270.969C203.035 270.969 196.106 263.943 196.106 253.062C196.106 242.718 202.645 235.35 213.135 235.35C223.284 235.35 230.261 242.328 230.261 253.062C230.261 263.504 223.674 270.969 213.135 270.969ZM213.135 265.651C219.966 265.651 224.309 260.771 224.309 253.062C224.309 245.451 219.966 240.62 213.135 240.62C206.353 240.62 202.059 245.451 202.059 253.062C202.059 260.771 206.353 265.651 213.135 265.651ZM241.642 270.237H235.787V236.082H253.109C260.086 236.082 264.331 240.718 264.331 246.817C264.331 253.697 259.549 257.893 253.109 257.893H241.642V270.237ZM241.642 241.352V252.623H252.816C256.475 252.623 258.378 249.891 258.378 246.817C258.378 243.596 256.183 241.352 252.816 241.352H241.642ZM293.966 270.237H269.618V236.082H293.527V241.352H275.425V250.135H291.819V255.258H275.425V264.968H293.966V270.237ZM305.302 270.237H299.447V236.082H316.134C322.623 236.082 327.112 240.035 327.112 245.743C327.112 249.939 324.136 253.404 319.598 254.575C321.843 255.014 323.453 256.38 324.282 258.478L328.674 270.237H322.428L318.476 259.454C317.988 258.088 316.866 257.356 315.304 257.356H305.302V270.237ZM305.302 241.352V252.184H315.841C319.452 252.184 321.306 249.598 321.306 246.622C321.306 243.499 319.159 241.352 315.841 241.352H305.302ZM357.721 270.237H333.373V236.082H357.281V241.352H339.179V250.135H355.574V255.258H339.179V264.968H357.721V270.237ZM369.056 270.237H363.201V236.082H369.544L386.476 261.796V236.082H392.331V270.237H385.988L369.056 244.523V270.237ZM411.758 270.237H399.462V236.082H411.758C421.907 236.082 428.982 243.011 428.982 252.965C428.982 263.162 421.907 270.237 411.758 270.237ZM405.318 241.352V264.968H412.149C418.492 264.968 422.932 260.04 422.932 252.965C422.932 246.28 418.492 241.352 412.149 241.352H405.318ZM440.387 270.237H434.532V236.082H440.387V270.237Z" fill="black"/>
</svg>
