<svg width="467" height="376" viewBox="0 0 467 376" fill="none" xmlns="http://www.w3.org/2000/svg">
<path d="M156.667 0H110.448L84.0821 69.9047L57.7191 0H0V136.9H23.0006V26.9736L66.0739 136.9H132.295V75.2262H143.374V136.9H156.667V0Z" fill="#EF438B"/>
<path d="M35.874 144.221V212.47L97.5546 251.402L35.874 290.33V375.561H156.668V341.597H59.6743L156.668 277.993V180.21H102.25V163.85H156.668V144.221H35.874Z" fill="#01A245"/>
<path d="M375.562 0.000198364V40.3877L267.901 63.4268L375.562 86.4636V136.9H164.721V116.802H334.019L164.721 79.1629V21.2972H259.705V11.6161H164.721V0.000198364H375.562Z" fill="#F1411A"/>
<path d="M466.34 144.222H377.358L326.598 217.117L275.844 144.222H164.721V286.979H209.002V172.349L291.928 286.979H419.419V222.666H440.748V286.979H466.34V144.222Z" fill="#5D68FE"/>
</svg>
