<svg width="376" height="467" viewBox="0 0 376 467" fill="none" xmlns="http://www.w3.org/2000/svg">
<path d="M376 156.667V110.448L306.095 84.0821L376 57.7191V0H239.1V23.0006H349.026L239.1 66.0739V132.295H300.774V143.374H239.1V156.667H376Z" fill="#EF438B"/>
<path d="M231.779 35.874H163.53L124.598 97.5546L85.6696 35.874H0.439453V156.668H34.4029V59.6743L98.0066 156.668H195.79V102.25H212.15V156.668H231.779V35.874Z" fill="#01A245"/>
<path d="M376 375.562H335.612L312.573 267.901L289.536 375.562H239.1V164.721H259.198V334.019L296.837 164.721H354.703V259.705H364.384V164.721H376V375.562Z" fill="#F1411A"/>
<path d="M231.778 466.34V377.358L158.883 326.598L231.778 275.844V164.721H89.0214V209.002H203.651L89.0214 291.928V419.419H153.334V440.748H89.0214V466.34H231.778Z" fill="#5D68FE"/>
</svg>
