<svg width="467" height="376" viewBox="0 0 467 376" fill="none" xmlns="http://www.w3.org/2000/svg">
<path d="M309.674 375.561H355.893L382.259 305.656L408.622 375.561H466.341V238.66H443.34V348.587L400.267 238.66H334.046V300.334H322.967V238.66H309.674V375.561Z" fill="#EF438B"/>
<path d="M430.467 231.339V163.091L368.786 124.159L430.467 85.2302V0H309.673V33.9634H406.667L309.673 97.5671V195.351H364.091V211.71H309.673V231.339H430.467Z" fill="#01A245"/>
<path d="M90.7793 375.56V335.173L198.44 312.134L90.7793 289.097V238.66H301.62V258.759H132.322L301.62 296.398V354.263H206.636V363.944H301.62V375.56H90.7793Z" fill="#F1411A"/>
<path d="M0.000457764 231.339H88.9826L139.742 158.444L190.497 231.339H301.62V88.582H257.339V203.211L174.412 88.582H46.9222V152.894H25.5926V88.582H0.000457764V231.339Z" fill="#5D68FE"/>
</svg>
