<svg width="376" height="467" viewBox="0 0 376 467" fill="none" xmlns="http://www.w3.org/2000/svg">
<path d="M0.439453 309.674V355.893L70.3441 382.259L0.439453 408.622V466.341H137.34V443.34H27.4131L137.34 400.267V334.046H75.6656V322.967H137.34V309.674H0.439453Z" fill="#EF438B"/>
<path d="M144.661 430.467H212.909L251.841 368.786L290.77 430.467H376V309.673H342.037V406.667L278.433 309.673H180.649V364.091H164.29V309.673H144.661V430.467Z" fill="#01A245"/>
<path d="M0.439651 90.7793H40.8272L63.8663 198.44L86.903 90.7793H137.34V301.62H117.241V132.322L79.6023 301.62H21.7367V206.636H12.0555V301.62H0.439651V90.7793Z" fill="#F1411A"/>
<path d="M144.661 0.000457764V88.9826L217.556 139.742L144.661 190.497V301.62H287.418V257.339H172.789L287.418 174.412V46.9222H223.106V25.5926H287.418V0.000457764H144.661Z" fill="#5D68FE"/>
</svg>
