<svg width="1066" height="415" viewBox="0 0 1066 415" fill="none" xmlns="http://www.w3.org/2000/svg">
<path d="M334.343 98.7139H235.707L179.44 210.293L123.179 98.7139H0V317.228H49.0856V141.768L141.009 317.228H282.33V218.787H305.974V317.228H334.343V98.7139Z" fill="black"/>
<path d="M969.119 98.7139H870.483L814.216 210.293L757.955 98.7139H634.776V317.228H683.862V141.768L775.785 317.228H917.107V218.787H940.75V317.228H969.119V98.7139Z" fill="black"/>
<rect x="634.057" y="0.718938" width="412.9" height="98.5746" transform="rotate(90 634.057 0.718938)" stroke="#D9D9D9" stroke-width="1.43788"/>
<rect x="1065.28" y="0.718938" width="412.9" height="95.9769" transform="rotate(90 1065.28 0.718938)" stroke="#D9D9D9" stroke-width="1.43788"/>
<rect x="1065.28" y="413.619" width="529.797" height="95.9769" transform="rotate(180 1065.28 413.619)" stroke="#D9D9D9" stroke-width="1.43788"/>
<rect x="1065.28" y="97.9949" width="529.797" height="97.2758" transform="rotate(180 1065.28 97.9949)" stroke="#D9D9D9" stroke-width="1.43788"/>
<path d="M536.063 218.209H581.628V120.145H605.008V218.209H633.471V98.7139H536.063V218.209Z" fill="#D9D9D9" fill-opacity="0.62"/>
<path d="M754.272 97.4082V51.8433H656.208V28.4638H754.272V0.000404358H634.776V97.4082H754.272Z" fill="#D9D9D9" fill-opacity="0.62"/>
</svg>
