<svg width="1071" height="385" viewBox="0 0 1071 385" fill="none" xmlns="http://www.w3.org/2000/svg">
<path d="M396.189 97.04H306.22L254.897 198.815L203.58 97.04H91.2246V296.354H135.997V136.311L219.843 296.354H348.747V206.562H370.313V296.354H396.189V97.04Z" fill="black"/>
<rect x="90.5688" y="7.65577" width="376.619" height="89.913" transform="rotate(90 90.5688 7.65577)" stroke="#D9D9D9" stroke-width="1.31153"/>
<rect x="483.901" y="7.65577" width="376.619" height="87.5435" transform="rotate(90 483.901 7.65577)" stroke="#D9D9D9" stroke-width="1.31153"/>
<rect x="483.901" y="384.275" width="483.245" height="87.5435" transform="rotate(180 483.901 384.275)" stroke="#D9D9D9" stroke-width="1.31153"/>
<rect x="483.901" y="96.3843" width="483.245" height="88.7283" transform="rotate(180 483.901 96.3843)" stroke="#D9D9D9" stroke-width="1.31153"/>
<path d="M712.119 128.757H710.827V120.371C710.319 121.048 709.488 121.387 708.365 121.387H708.18V120.125H708.365C709.981 120.125 710.842 119.433 710.842 118.14V117.986H712.119V128.757ZM720.676 128.757H719.383V126.064H714.044V124.91L719.368 117.986H720.676V124.879H722.568V126.064H720.676V128.757ZM719.383 119.786L715.46 124.879H719.383V119.786ZM728.734 128.757H727.457V120.602H728.473L728.596 121.864C729.15 120.987 730.212 120.417 731.381 120.417C732.612 120.417 733.535 121.048 733.951 122.033C734.474 121.079 735.597 120.417 736.843 120.417C738.567 120.417 739.674 121.633 739.674 123.295V128.757H738.397V123.341C738.397 122.248 737.72 121.541 736.628 121.541C735.105 121.541 734.212 122.556 734.197 123.802V128.757H732.935V123.341C732.935 122.248 732.258 121.541 731.166 121.541C729.642 121.541 728.75 122.556 728.734 123.802V128.757ZM742.949 128.757H741.672V120.602H742.687L742.811 121.864C743.365 120.987 744.426 120.417 745.596 120.417C746.827 120.417 747.75 121.048 748.165 122.033C748.688 121.079 749.812 120.417 751.058 120.417C752.781 120.417 753.889 121.633 753.889 123.295V128.757H752.612V123.341C752.612 122.248 751.935 121.541 750.842 121.541C749.319 121.541 748.427 122.556 748.411 123.802V128.757H747.15V123.341C747.15 122.248 746.473 121.541 745.38 121.541C743.857 121.541 742.964 122.556 742.949 123.802V128.757Z" fill="black" fill-opacity="0.4"/>
<path d="M934.747 57.8265C932.808 57.8265 931.377 56.811 931.27 55.0877H932.516C932.608 56.1493 933.578 56.734 934.809 56.734C935.963 56.734 936.517 56.2878 936.517 55.4723C936.517 54.703 935.917 54.5337 935.07 54.2414L933.885 53.8413C932.685 53.4413 931.485 53.072 931.485 51.5949C931.485 50.2101 932.562 49.3177 934.347 49.3177C936.147 49.3177 937.394 50.287 937.594 52.1027H936.347C936.209 50.964 935.409 50.4101 934.301 50.4101C933.301 50.4101 932.716 50.8563 932.716 51.5641C932.716 52.4104 933.609 52.5796 934.286 52.8104L935.393 53.1797C936.886 53.6721 937.778 54.1798 937.778 55.5339C937.778 56.9648 936.732 57.8265 934.747 57.8265ZM942.318 57.8265C940.334 57.8265 939.195 56.6109 939.195 54.9492V49.5023H940.472V54.903C940.472 56.0724 941.288 56.7033 942.442 56.7033C943.965 56.7033 944.796 55.6877 944.811 54.4568V49.5023H946.088V57.6572H945.073L944.965 56.4263C944.426 57.3495 943.442 57.8265 942.318 57.8265ZM949.492 60.7346H948.215V49.5023H949.23L949.369 50.9794C949.954 49.9639 951.031 49.3177 952.354 49.3177C954.508 49.3177 956.016 51.041 956.016 53.5336C956.016 56.0724 954.508 57.8265 952.354 57.8265C951.108 57.8265 950.077 57.2572 949.492 56.3032V60.7346ZM952.154 56.7186C953.662 56.7186 954.693 55.4108 954.693 53.5336C954.693 51.7026 953.662 50.4255 952.138 50.4255C950.6 50.4255 949.492 51.6718 949.492 53.4721C949.492 55.38 950.6 56.7186 952.154 56.7186ZM961.281 57.8265C958.665 57.8265 957.28 55.9647 957.28 53.5028C957.28 50.7794 959.065 49.3177 961.281 49.3177C963.881 49.3177 965.281 51.1948 965.281 53.5028C965.281 56.3186 963.573 57.8265 961.281 57.8265ZM961.281 56.7186C963.019 56.7186 963.973 55.2723 963.973 53.5028C963.973 51.6718 962.912 50.4255 961.281 50.4255C959.65 50.4255 958.588 51.6718 958.588 53.5028C958.588 55.5954 959.804 56.7186 961.281 56.7186ZM968.229 57.6572H966.952V49.5023H967.967L968.121 51.0564C968.644 50.0101 969.598 49.4562 970.952 49.4562H971.229V50.7179H970.952C969.229 50.7179 968.229 51.7026 968.229 53.3797V57.6572ZM976.938 57.6572H976.03C974.446 57.6572 973.599 56.8417 973.599 55.3338V50.5794H972.091V49.5023H973.599V46.7173H974.876V49.5023H977.077V50.5794H974.876V55.3338C974.876 56.1493 975.276 56.5802 976.03 56.5802H976.938V57.6572ZM981.987 57.8265C979.571 57.8265 977.971 56.057 977.971 53.6105C977.971 50.8256 979.771 49.3177 981.833 49.3177C984.079 49.3177 985.526 50.8256 985.572 53.4413V53.7952H979.248C979.325 55.5339 980.34 56.7186 981.987 56.7186C983.125 56.7186 983.956 56.1493 984.295 55.0877H985.541C985.172 56.7648 983.849 57.8265 981.987 57.8265ZM979.325 52.7335H984.233C984.002 51.3026 983.141 50.4255 981.833 50.4255C980.54 50.4255 979.587 51.2718 979.325 52.7335ZM991.354 48.1329C990.815 48.1329 990.4 47.7175 990.4 47.1789C990.4 46.6404 990.815 46.2404 991.354 46.2404C991.892 46.2404 992.293 46.6404 992.293 47.1789C992.293 47.7175 991.892 48.1329 991.354 48.1329ZM991.985 57.6572H990.708V49.5023H991.985V57.6572ZM995.351 57.6572H994.074V49.5023H995.089L995.212 50.764C995.766 49.887 996.828 49.3177 997.997 49.3177C999.228 49.3177 1000.15 49.9485 1000.57 50.9333C1001.09 49.9793 1002.21 49.3177 1003.46 49.3177C1005.18 49.3177 1006.29 50.5332 1006.29 52.195V57.6572H1005.01V52.2411C1005.01 51.1487 1004.34 50.4409 1003.24 50.4409C1001.72 50.4409 1000.83 51.4564 1000.81 52.7027V57.6572H999.551V52.2411C999.551 51.1487 998.874 50.4409 997.782 50.4409C996.258 50.4409 995.366 51.4564 995.351 52.7027V57.6572ZM1009.6 60.7346H1008.32V49.5023H1009.33L1009.47 50.9794C1010.06 49.9639 1011.13 49.3177 1012.46 49.3177C1014.61 49.3177 1016.12 51.041 1016.12 53.5336C1016.12 56.0724 1014.61 57.8265 1012.46 57.8265C1011.21 57.8265 1010.18 57.2572 1009.6 56.3032V60.7346ZM1012.26 56.7186C1013.77 56.7186 1014.8 55.4108 1014.8 53.5336C1014.8 51.7026 1013.77 50.4255 1012.24 50.4255C1010.7 50.4255 1009.6 51.6718 1009.6 53.4721C1009.6 55.38 1010.7 56.7186 1012.26 56.7186ZM1019.08 57.6572H1017.8V49.5023H1018.82L1018.97 51.0564C1019.49 50.0101 1020.45 49.4562 1021.8 49.4562H1022.08V50.7179H1021.8C1020.08 50.7179 1019.08 51.7026 1019.08 53.3797V57.6572ZM1026.76 57.8265C1024.35 57.8265 1022.75 56.057 1022.75 53.6105C1022.75 50.8256 1024.55 49.3177 1026.61 49.3177C1028.86 49.3177 1030.3 50.8256 1030.35 53.4413V53.7952H1024.03C1024.1 55.5339 1025.12 56.7186 1026.76 56.7186C1027.9 56.7186 1028.73 56.1493 1029.07 55.0877H1030.32C1029.95 56.7648 1028.63 57.8265 1026.76 57.8265ZM1024.1 52.7335H1029.01C1028.78 51.3026 1027.92 50.4255 1026.61 50.4255C1025.32 50.4255 1024.36 51.2718 1024.1 52.7335ZM1035.08 57.8265C1033.14 57.8265 1031.71 56.811 1031.6 55.0877H1032.84C1032.94 56.1493 1033.91 56.734 1035.14 56.734C1036.29 56.734 1036.85 56.2878 1036.85 55.4723C1036.85 54.703 1036.25 54.5337 1035.4 54.2414L1034.21 53.8413C1033.01 53.4413 1031.81 53.072 1031.81 51.5949C1031.81 50.2101 1032.89 49.3177 1034.68 49.3177C1036.48 49.3177 1037.72 50.287 1037.92 52.1027H1036.68C1036.54 50.964 1035.74 50.4101 1034.63 50.4101C1033.63 50.4101 1033.04 50.8563 1033.04 51.5641C1033.04 52.4104 1033.94 52.5796 1034.61 52.8104L1035.72 53.1797C1037.21 53.6721 1038.11 54.1798 1038.11 55.5339C1038.11 56.9648 1037.06 57.8265 1035.08 57.8265ZM1042.72 57.8265C1040.79 57.8265 1039.35 56.811 1039.25 55.0877H1040.49C1040.59 56.1493 1041.55 56.734 1042.79 56.734C1043.94 56.734 1044.49 56.2878 1044.49 55.4723C1044.49 54.703 1043.89 54.5337 1043.05 54.2414L1041.86 53.8413C1040.66 53.4413 1039.46 53.072 1039.46 51.5949C1039.46 50.2101 1040.54 49.3177 1042.32 49.3177C1044.12 49.3177 1045.37 50.287 1045.57 52.1027H1044.32C1044.19 50.964 1043.39 50.4101 1042.28 50.4101C1041.28 50.4101 1040.69 50.8563 1040.69 51.5641C1040.69 52.4104 1041.59 52.5796 1042.26 52.8104L1043.37 53.1797C1044.86 53.6721 1045.76 54.1798 1045.76 55.5339C1045.76 56.9648 1044.71 57.8265 1042.72 57.8265ZM1050.91 57.8265C1048.3 57.8265 1046.91 55.9647 1046.91 53.5028C1046.91 50.7794 1048.7 49.3177 1050.91 49.3177C1053.51 49.3177 1054.91 51.1948 1054.91 53.5028C1054.91 56.3186 1053.2 57.8265 1050.91 57.8265ZM1050.91 56.7186C1052.65 56.7186 1053.6 55.2723 1053.6 53.5028C1053.6 51.6718 1052.54 50.4255 1050.91 50.4255C1049.28 50.4255 1048.22 51.6718 1048.22 53.5028C1048.22 55.5954 1049.43 56.7186 1050.91 56.7186ZM935.255 75.3036L934.209 75.6575C932.624 73.888 931.839 71.5185 931.839 68.9797C931.839 66.3947 932.639 63.9175 934.209 62.0096L935.224 62.4096C933.716 64.1791 932.993 66.5024 933.008 68.9797C933.024 71.3954 933.778 73.6418 935.255 75.3036ZM937.876 73.6572H936.599V65.5023H937.615L937.738 66.764C938.292 65.887 939.353 65.3177 940.523 65.3177C941.754 65.3177 942.677 65.9485 943.092 66.9333C943.615 65.9793 944.739 65.3177 945.985 65.3177C947.708 65.3177 948.816 66.5332 948.816 68.195V73.6572H947.539V68.2411C947.539 67.1487 946.862 66.4409 945.769 66.4409C944.246 66.4409 943.354 67.4564 943.338 68.7027V73.6572H942.077V68.2411C942.077 67.1487 941.4 66.4409 940.307 66.4409C938.784 66.4409 937.892 67.4564 937.876 68.7027V73.6572ZM951.46 64.1329C950.921 64.1329 950.506 63.7175 950.506 63.1789C950.506 62.6404 950.921 62.2404 951.46 62.2404C951.998 62.2404 952.398 62.6404 952.398 63.1789C952.398 63.7175 951.998 64.1329 951.46 64.1329ZM952.091 73.6572H950.814V65.5023H952.091V73.6572ZM955.503 73.6572H954.226V62.1173H955.503V73.6572ZM962.313 61.0864L957.989 64.5791L957.266 63.779L961.59 60.2862L962.313 61.0864ZM958.913 73.6572H957.635L957.651 65.5023H958.928L958.913 73.6572ZM962.293 73.6572H961.016V65.5023H962.032L962.155 66.764C962.709 65.887 963.771 65.3177 964.94 65.3177C966.171 65.3177 967.094 65.9485 967.509 66.9333C968.033 65.9793 969.156 65.3177 970.402 65.3177C972.125 65.3177 973.233 66.5332 973.233 68.195V73.6572H971.956V68.2411C971.956 67.1487 971.279 66.4409 970.187 66.4409C968.663 66.4409 967.771 67.4564 967.756 68.7027V73.6572H966.494V68.2411C966.494 67.1487 965.817 66.4409 964.724 66.4409C963.201 66.4409 962.309 67.4564 962.293 68.7027V73.6572ZM978.831 73.8265C976.416 73.8265 974.815 72.057 974.815 69.6105C974.815 66.8256 976.616 65.3177 978.678 65.3177C980.924 65.3177 982.37 66.8256 982.416 69.4413V69.7952H976.093C976.169 71.5339 977.185 72.7186 978.831 72.7186C979.97 72.7186 980.801 72.1493 981.139 71.0877H982.386C982.016 72.7648 980.693 73.8265 978.831 73.8265ZM976.169 68.7335H981.078C980.847 67.3026 979.985 66.4255 978.678 66.4255C977.385 66.4255 976.431 67.2718 976.169 68.7335ZM988.133 73.6572H987.225C985.64 73.6572 984.794 72.8417 984.794 71.3338V66.5794H983.286V65.5023H984.794V62.7173H986.071V65.5023H988.271V66.5794H986.071V71.3338C986.071 72.1493 986.471 72.5802 987.225 72.5802H988.133V73.6572ZM991.053 73.6572H989.776V65.5023H990.792L990.945 67.0564C991.469 66.0101 992.423 65.4562 993.777 65.4562H994.054V66.7179H993.777C992.053 66.7179 991.053 67.7026 991.053 69.3797V73.6572ZM998.725 73.8265C996.11 73.8265 994.725 71.9647 994.725 69.5028C994.725 66.7794 996.51 65.3177 998.725 65.3177C1001.33 65.3177 1002.73 67.1948 1002.73 69.5028C1002.73 72.3186 1001.02 73.8265 998.725 73.8265ZM998.725 72.7186C1000.46 72.7186 1001.42 71.2723 1001.42 69.5028C1001.42 67.6718 1000.36 66.4255 998.725 66.4255C997.094 66.4255 996.033 67.6718 996.033 69.5028C996.033 71.5954 997.248 72.7186 998.725 72.7186ZM1007.44 73.8265C1005.5 73.8265 1004.07 72.811 1003.97 71.0877H1005.21C1005.3 72.1493 1006.27 72.734 1007.5 72.734C1008.66 72.734 1009.21 72.2878 1009.21 71.4723C1009.21 70.703 1008.61 70.5337 1007.77 70.2414L1006.58 69.8413C1005.38 69.4413 1004.18 69.072 1004.18 67.5949C1004.18 66.2101 1005.26 65.3177 1007.04 65.3177C1008.84 65.3177 1010.09 66.287 1010.29 68.1027H1009.04C1008.9 66.964 1008.1 66.4101 1007 66.4101C1006 66.4101 1005.41 66.8563 1005.41 67.5641C1005.41 68.4104 1006.3 68.5796 1006.98 68.8104L1008.09 69.1797C1009.58 69.6721 1010.47 70.1798 1010.47 71.5339C1010.47 72.9648 1009.43 73.8265 1007.44 73.8265ZM1011.83 75.6575L1010.78 75.3036C1012.26 73.6418 1013.01 71.3954 1013.03 68.9797C1013.04 66.5024 1012.32 64.1791 1010.81 62.4096L1011.83 62.0096C1013.4 63.9175 1014.2 66.3947 1014.2 68.9797C1014.2 71.5185 1013.41 73.888 1011.83 75.6575Z" fill="black"/>
<path d="M934.747 263.017C932.808 263.017 931.377 262.001 931.27 260.278H932.516C932.608 261.34 933.578 261.924 934.809 261.924C935.963 261.924 936.517 261.478 936.517 260.663C936.517 259.893 935.917 259.724 935.07 259.432L933.885 259.032C932.685 258.632 931.485 258.262 931.485 256.785C931.485 255.401 932.562 254.508 934.347 254.508C936.147 254.508 937.394 255.477 937.594 257.293H936.347C936.209 256.154 935.409 255.601 934.301 255.601C933.301 255.601 932.716 256.047 932.716 256.755C932.716 257.601 933.609 257.77 934.286 258.001L935.393 258.37C936.886 258.863 937.778 259.37 937.778 260.724C937.778 262.155 936.732 263.017 934.747 263.017ZM942.318 263.017C940.334 263.017 939.195 261.801 939.195 260.14V254.693H940.472V260.093C940.472 261.263 941.288 261.894 942.442 261.894C943.965 261.894 944.796 260.878 944.811 259.647V254.693H946.088V262.848H945.073L944.965 261.617C944.426 262.54 943.442 263.017 942.318 263.017ZM949.492 265.925H948.215V254.693H949.23L949.369 256.17C949.954 255.154 951.031 254.508 952.354 254.508C954.508 254.508 956.016 256.231 956.016 258.724C956.016 261.263 954.508 263.017 952.354 263.017C951.108 263.017 950.077 262.448 949.492 261.494V265.925ZM952.154 261.909C953.662 261.909 954.693 260.601 954.693 258.724C954.693 256.893 953.662 255.616 952.138 255.616C950.6 255.616 949.492 256.862 949.492 258.662C949.492 260.57 950.6 261.909 952.154 261.909ZM961.281 263.017C958.665 263.017 957.28 261.155 957.28 258.693C957.28 255.97 959.065 254.508 961.281 254.508C963.881 254.508 965.281 256.385 965.281 258.693C965.281 261.509 963.573 263.017 961.281 263.017ZM961.281 261.909C963.019 261.909 963.973 260.463 963.973 258.693C963.973 256.862 962.912 255.616 961.281 255.616C959.65 255.616 958.588 256.862 958.588 258.693C958.588 260.786 959.804 261.909 961.281 261.909ZM968.229 262.848H966.952V254.693H967.967L968.121 256.247C968.644 255.201 969.598 254.647 970.952 254.647H971.229V255.908H970.952C969.229 255.908 968.229 256.893 968.229 258.57V262.848ZM976.938 262.848H976.03C974.446 262.848 973.599 262.032 973.599 260.524V255.77H972.091V254.693H973.599V251.908H974.876V254.693H977.077V255.77H974.876V260.524C974.876 261.34 975.276 261.771 976.03 261.771H976.938V262.848ZM981.987 263.017C979.571 263.017 977.971 261.247 977.971 258.801C977.971 256.016 979.771 254.508 981.833 254.508C984.079 254.508 985.526 256.016 985.572 258.632V258.986H979.248C979.325 260.724 980.34 261.909 981.987 261.909C983.125 261.909 983.956 261.34 984.295 260.278H985.541C985.172 261.955 983.849 263.017 981.987 263.017ZM979.325 257.924H984.233C984.002 256.493 983.141 255.616 981.833 255.616C980.54 255.616 979.587 256.462 979.325 257.924ZM994 263.017C991.816 263.017 990.292 261.263 990.292 258.724C990.292 256.231 991.8 254.508 993.985 254.508C995.216 254.508 996.247 255.047 996.832 255.908V251.308H998.109V262.848H997.093L996.955 261.278C996.416 262.34 995.339 263.017 994 263.017ZM994.2 261.909C995.755 261.909 996.832 260.586 996.832 258.693C996.832 256.862 995.785 255.601 994.277 255.601C992.708 255.601 991.616 256.878 991.616 258.724C991.616 260.601 992.677 261.909 994.2 261.909ZM1000.9 253.323C1000.36 253.323 999.941 252.908 999.941 252.369C999.941 251.831 1000.36 251.431 1000.9 251.431C1001.43 251.431 1001.83 251.831 1001.83 252.369C1001.83 252.908 1001.43 253.323 1000.9 253.323ZM1001.53 262.848H1000.25V254.693H1001.53V262.848ZM1007.17 266.11C1004.97 266.11 1003.48 265.048 1003.48 263.325H1004.75C1004.75 264.294 1005.74 265.033 1007.17 265.033C1008.85 265.033 1009.72 264.032 1009.72 262.632V261.309C1009.15 262.155 1008.17 262.709 1006.92 262.709C1004.75 262.709 1003.2 261.047 1003.2 258.647C1003.2 256.201 1004.77 254.508 1006.92 254.508C1008.23 254.508 1009.29 255.124 1009.85 256.108L1009.99 254.693H1010.99V262.632C1010.99 264.694 1009.6 266.11 1007.17 266.11ZM1007.11 261.601C1008.65 261.601 1009.72 260.37 1009.72 258.601C1009.72 256.847 1008.65 255.616 1007.11 255.616C1005.58 255.616 1004.52 256.847 1004.52 258.632C1004.52 260.386 1005.58 261.601 1007.11 261.601ZM1013.73 253.323C1013.19 253.323 1012.77 252.908 1012.77 252.369C1012.77 251.831 1013.19 251.431 1013.73 251.431C1014.27 251.431 1014.67 251.831 1014.67 252.369C1014.67 252.908 1014.27 253.323 1013.73 253.323ZM1014.36 262.848H1013.08V254.693H1014.36V262.848ZM1020.69 262.848H1019.79C1018.2 262.848 1017.36 262.032 1017.36 260.524V255.77H1015.85V254.693H1017.36V251.908H1018.63V254.693H1020.83V255.77H1018.63V260.524C1018.63 261.34 1019.03 261.771 1019.79 261.771H1020.69V262.848ZM1024.97 262.971C1023.12 262.971 1021.94 262.017 1021.94 260.524C1021.94 258.647 1023.75 258.293 1025.38 258.124C1026.63 258.001 1027.71 258.016 1027.72 257.355C1027.71 256.324 1026.86 255.601 1025.63 255.601C1024.45 255.601 1023.52 256.262 1023.38 257.232H1022.12C1022.28 255.631 1023.72 254.508 1025.66 254.508C1027.68 254.508 1028.97 255.708 1028.97 257.432V261.401C1028.97 261.663 1029.11 261.801 1029.38 261.801H1029.85V262.848H1029.12C1028.25 262.848 1027.78 262.448 1027.78 261.694V261.447C1027.31 262.386 1026.38 262.971 1024.97 262.971ZM1025.15 261.878C1026.68 261.878 1027.72 260.909 1027.72 259.555V258.493C1027.37 258.97 1026.46 259.063 1025.46 259.17C1024.34 259.293 1023.21 259.447 1023.21 260.494C1023.21 261.34 1023.98 261.878 1025.15 261.878ZM1032.6 262.848H1031.32V251.308H1032.6V262.848ZM935.255 280.494L934.209 280.848C932.624 279.078 931.839 276.709 931.839 274.17C931.839 271.585 932.639 269.108 934.209 267.2L935.224 267.6C933.716 269.369 932.993 271.693 933.008 274.17C933.024 276.586 933.778 278.832 935.255 280.494ZM937.907 281.925H936.63V270.693H937.645L937.784 272.17C938.369 271.154 939.446 270.508 940.769 270.508C942.923 270.508 944.431 272.231 944.431 274.724C944.431 277.263 942.923 279.017 940.769 279.017C939.523 279.017 938.492 278.448 937.907 277.494V281.925ZM940.569 277.909C942.077 277.909 943.108 276.601 943.108 274.724C943.108 272.893 942.077 271.616 940.553 271.616C939.015 271.616 937.907 272.862 937.907 274.662C937.907 276.57 939.015 277.909 940.569 277.909ZM946.757 269.323C946.218 269.323 945.803 268.908 945.803 268.369C945.803 267.831 946.218 267.431 946.757 267.431C947.295 267.431 947.695 267.831 947.695 268.369C947.695 268.908 947.295 269.323 946.757 269.323ZM947.388 278.848H946.111V270.693H947.388V278.848ZM950.276 278.848H948.83L951.784 274.801L948.861 270.693H950.292L952.508 273.847L954.708 270.693H956.139L953.215 274.786L956.17 278.848H954.723L952.508 275.709L950.276 278.848ZM960.785 279.017C958.369 279.017 956.769 277.247 956.769 274.801C956.769 272.016 958.569 270.508 960.631 270.508C962.878 270.508 964.324 272.016 964.37 274.632V274.986H958.046C958.123 276.724 959.139 277.909 960.785 277.909C961.924 277.909 962.755 277.34 963.093 276.278H964.339C963.97 277.955 962.647 279.017 960.785 279.017ZM958.123 273.924H963.032C962.801 272.493 961.939 271.616 960.631 271.616C959.339 271.616 958.385 272.462 958.123 273.924ZM967.373 278.848H966.096V267.308H967.373V278.848ZM972.553 279.017C970.614 279.017 969.183 278.001 969.075 276.278H970.321C970.414 277.34 971.383 277.924 972.614 277.924C973.768 277.924 974.322 277.478 974.322 276.663C974.322 275.893 973.722 275.724 972.876 275.432L971.691 275.032C970.491 274.632 969.291 274.262 969.291 272.785C969.291 271.401 970.368 270.508 972.153 270.508C973.953 270.508 975.199 271.477 975.399 273.293H974.153C974.014 272.154 973.214 271.601 972.106 271.601C971.106 271.601 970.522 272.047 970.522 272.755C970.522 273.601 971.414 273.77 972.091 274.001L973.199 274.37C974.691 274.863 975.584 275.37 975.584 276.724C975.584 278.155 974.537 279.017 972.553 279.017ZM976.936 280.848L975.889 280.494C977.367 278.832 978.12 276.586 978.136 274.17C978.151 271.693 977.428 269.369 975.92 267.6L976.936 267.2C978.505 269.108 979.305 271.585 979.305 274.17C979.305 276.709 978.521 279.078 976.936 280.848Z" fill="black"/>
<path d="M805.852 0.646484H760.814L735.122 51.5939L709.433 0.646484H653.189V100.421H675.602V20.3052L717.575 100.421H782.102V55.4722H792.898V100.421H805.852V0.646484Z" fill="black"/>
<path d="M808.907 188.209H741.161L702.515 264.845L663.873 188.209H579.27V338.292H612.983V217.78L676.119 338.292H773.183V270.679H789.423V338.292H808.907V188.209Z" fill="black"/>
<path d="M805.932 108.621H653.308" stroke="#B3B3B3" stroke-width="0.32083"/>
<path d="M805.932 104.77V111.189" stroke="#B3B3B3" stroke-width="0.316876"/>
<path d="M653.307 106.03V112.524" stroke="#B3B3B3" stroke-width="0.320555"/>
<path d="M808.916 349.702H579.269" stroke="#B3B3B3" stroke-width="0.320555"/>
<path d="M808.916 345.804V352.298" stroke="#B3B3B3" stroke-width="0.320555"/>
<path d="M579.269 347.103V353.597" stroke="#B3B3B3" stroke-width="0.320555"/>
<path d="M677.084 369.493H675.792V361.107C675.284 361.784 674.453 362.123 673.33 362.123H673.145V360.861H673.33C674.945 360.861 675.807 360.169 675.807 358.876V358.723H677.084V369.493ZM683.317 369.662C680.809 369.662 679.209 367.478 679.209 364.077C679.209 360.707 680.809 358.553 683.317 358.553C685.825 358.553 687.425 360.707 687.425 364.077C687.425 367.478 685.825 369.662 683.317 369.662ZM683.317 368.478C685.01 368.478 686.102 366.754 686.102 364.077C686.102 361.431 685.01 359.738 683.317 359.738C681.625 359.738 680.532 361.431 680.532 364.077C680.532 366.754 681.625 368.478 683.317 368.478ZM693.159 369.662C690.651 369.662 689.051 367.478 689.051 364.077C689.051 360.707 690.651 358.553 693.159 358.553C695.667 358.553 697.267 360.707 697.267 364.077C697.267 367.478 695.667 369.662 693.159 369.662ZM693.159 368.478C694.852 368.478 695.944 366.754 695.944 364.077C695.944 361.431 694.852 359.738 693.159 359.738C691.467 359.738 690.374 361.431 690.374 364.077C690.374 366.754 691.467 368.478 693.159 368.478ZM703.888 372.57H702.611V361.338H703.626L703.765 362.815C704.349 361.8 705.426 361.154 706.75 361.154C708.904 361.154 710.412 362.877 710.412 365.37C710.412 367.908 708.904 369.662 706.75 369.662C705.503 369.662 704.472 369.093 703.888 368.139V372.57ZM706.55 368.555C708.057 368.555 709.088 367.247 709.088 365.37C709.088 363.539 708.057 362.261 706.534 362.261C704.996 362.261 703.888 363.508 703.888 365.308C703.888 367.216 704.996 368.555 706.55 368.555ZM712.456 369.493H711.009L713.964 365.446L711.04 361.338H712.471L714.687 364.493L716.887 361.338H718.318L715.394 365.431L718.349 369.493H716.902L714.687 366.354L712.456 369.493Z" fill="black" fill-opacity="0.4"/>
<path d="M1.18457 206.036H42.7457V116.588H64.0709V206.036H90.0333V97.04H1.18457V206.036Z" fill="#D9D9D9" fill-opacity="0.62"/>
<path d="M200.22 95.8486V54.2875H110.773V32.9623H200.22V6.99992H91.2246V95.8486H200.22Z" fill="#D9D9D9" fill-opacity="0.62"/>
</svg>
