<svg width="1066" height="376" viewBox="0 0 1066 376" fill="none" xmlns="http://www.w3.org/2000/svg">
<rect x="210.108" y="45" width="106.153" height="286.978" fill="#5D68FE"/>
<rect y="45" width="106.153" height="286.978" fill="#F1411A"/>
<rect x="316.262" y="45" width="103.956" height="286.978" fill="#01A245"/>
<rect x="106.152" y="45" width="103.956" height="286.978" fill="#EF438B"/>
<rect x="420.29" y="45.0732" width="106.006" height="286.832" fill="white" stroke="black" stroke-width="0.146417"/>
<path d="M23.9012 300.161L23.4353 302.1L22.7793 301.91L23.1976 300.161H21.6003V299.552H23.3402L23.8156 297.575H22.2183V296.966H23.9583L24.4146 295.064L25.0707 295.255L24.6618 296.966H26.3162L26.7726 295.064L27.4286 295.255L27.0198 296.966H28.6171V297.575H26.8772L26.4018 299.552H27.9991V300.161H26.2592L25.7933 302.1L25.1372 301.91L25.5556 300.161H23.9012ZM24.5192 297.575L24.0438 299.552H25.6982L26.1736 297.575H24.5192ZM30.5986 301.91H29.8V295.255H34.3352V295.987H30.5986V298.145H34.05V298.877H30.5986V301.91ZM37.4492 301.91H36.6506V296.728C36.3368 297.147 35.8234 297.356 35.1293 297.356H35.0152V296.576H35.1293C36.1276 296.576 36.6601 296.148 36.6601 295.35V295.255H37.4492V301.91ZM42.7365 301.91H41.9379V300.246H38.6386V299.533L41.9284 295.255H42.7365V299.514H43.906V300.246H42.7365V301.91ZM41.9379 296.367L39.5133 299.514H41.9379V296.367ZM46.53 301.91H45.7314V296.728C45.4176 297.147 44.9042 297.356 44.2101 297.356H44.096V296.576H44.2101C45.2084 296.576 45.7409 296.148 45.7409 295.35V295.255H46.53V301.91ZM50.0584 301.91H49.2597V296.728C48.9459 297.147 48.4325 297.356 47.7384 297.356H47.6243V296.576H47.7384C48.7368 296.576 49.2692 296.148 49.2692 295.35V295.255H50.0584V301.91ZM51.9608 301.91H51.1336L53.8719 295.255H54.6801L57.4279 301.91H56.6007L55.821 300.009H52.7405L51.9608 301.91ZM54.2808 296.272L53.0447 299.286H55.5168L54.2808 296.272ZM22.8363 311.91H22.0377V305.255H25.0707C26.3257 305.255 27.1909 306.006 27.1909 307.09C27.1909 307.879 26.6585 308.544 25.8503 308.801C26.2021 308.896 26.4493 309.124 26.5729 309.457L27.4952 311.91H26.6395L25.7838 309.6C25.6792 309.314 25.451 309.162 25.1372 309.162H22.8363V311.91ZM22.8363 305.987V308.449H25.1087C25.9359 308.449 26.3828 307.879 26.3828 307.166C26.3828 306.386 25.8313 305.987 25.1087 305.987H22.8363ZM31.3708 312.015C29.5358 312.015 28.2237 310.665 28.2237 308.563C28.2237 306.586 29.4312 305.15 31.4564 305.15C33.1488 305.15 34.3182 306.177 34.594 307.812H33.7668C33.5196 306.595 32.6734 305.882 31.4564 305.882C29.9826 305.882 29.0604 306.899 29.0604 308.563C29.0604 310.246 30.0016 311.283 31.3708 311.283C32.6163 311.283 33.4055 310.436 33.4055 309.229H31.1616V308.544H33.5006C34.1946 308.544 34.5654 308.896 34.5654 309.543V311.91H33.8524V309.638H33.8333C33.7097 311.102 32.8445 312.015 31.3708 312.015ZM39.1305 311.91H36.0024V305.255H39.0544C40.2144 305.255 41.0226 305.939 41.0226 306.928C41.0226 307.641 40.5187 308.231 39.739 308.478C40.6042 308.649 41.1747 309.276 41.1747 310.094C41.1747 311.169 40.338 311.91 39.1305 311.91ZM36.7916 305.987V308.164H39.0069C39.72 308.164 40.2144 307.689 40.2144 307.014C40.2144 306.405 39.7675 305.987 39.1305 305.987H36.7916ZM36.7916 308.877V311.178H39.2161C39.8816 311.178 40.3475 310.703 40.3475 310.009C40.3475 309.267 39.7675 308.877 39.0544 308.877H36.7916ZM48.7551 307.061C48.7551 309.343 45.2657 309.248 45.2657 311.178H48.66V311.91H44.4195V311.283C44.4195 308.839 47.9279 308.868 47.9279 307.061C47.9279 306.358 47.4335 305.882 46.6348 305.882C45.7981 305.882 45.1326 306.405 45.1136 307.479H44.2769C44.3529 305.958 45.3513 305.15 46.6443 305.15C47.9184 305.15 48.7551 305.92 48.7551 307.061ZM53.2008 311.91H52.4021V310.246H49.1029V309.533L52.3926 305.255H53.2008V309.514H54.3703V310.246H53.2008V311.91ZM52.4021 306.367L49.9776 309.514H52.4021V306.367ZM56.9943 311.91H56.1956V306.728C55.8819 307.147 55.3684 307.356 54.6744 307.356H54.5603V306.576H54.6744C55.6727 306.576 56.2051 306.148 56.2051 305.35V305.255H56.9943V311.91ZM63.2001 312.015C61.3841 312.015 60.4428 310.532 60.4428 308.535C60.4428 306.386 61.5267 305.15 63.1906 305.15C64.4552 305.15 65.425 305.996 65.5486 307.223H64.7214C64.6263 306.434 63.9988 305.882 63.1906 305.882C61.8785 305.882 61.175 307.004 61.175 308.582C61.175 308.725 61.1845 308.839 61.194 308.963C61.4222 308.174 62.2303 307.508 63.3237 307.508C64.5883 307.508 65.501 308.421 65.501 309.742C65.501 311.083 64.5598 312.015 63.2001 312.015ZM63.1431 311.292C63.9132 311.292 64.6834 310.779 64.6834 309.742C64.6834 308.696 63.9322 308.193 63.1621 308.193C62.3825 308.193 61.5838 308.725 61.5838 309.752C61.5838 310.769 62.3634 311.292 63.1431 311.292ZM68.9117 312.015C67.5806 312.015 66.6013 311.197 66.4587 309.904H67.2859C67.3904 310.75 68.037 311.283 68.9117 311.283C69.853 311.283 70.4805 310.655 70.4805 309.742C70.4805 308.839 69.853 308.212 68.9497 308.212C68.4458 308.212 67.999 308.411 67.5711 308.868H66.6869L67.2288 305.255H71.0034V305.987H67.8944L67.5521 308.231C67.9609 307.784 68.5029 307.527 69.1589 307.527C70.4045 307.527 71.2887 308.44 71.2887 309.733C71.2887 311.083 70.3284 312.015 68.9117 312.015ZM78.8016 307.061C78.8016 309.343 75.3122 309.248 75.3122 311.178H78.7065V311.91H74.466V311.283C74.466 308.839 77.9744 308.868 77.9744 307.061C77.9744 306.358 77.48 305.882 76.6813 305.882C75.8446 305.882 75.1791 306.405 75.16 307.479H74.3233C74.3994 305.958 75.3977 305.15 76.6908 305.15C77.9649 305.15 78.8016 305.92 78.8016 307.061ZM82.5038 312.015C80.6878 312.015 79.7465 310.532 79.7465 308.535C79.7465 306.386 80.8304 305.15 82.4943 305.15C83.7588 305.15 84.7286 305.996 84.8522 307.223H84.025C83.93 306.434 83.3024 305.882 82.4943 305.882C81.1822 305.882 80.4786 307.004 80.4786 308.582C80.4786 308.725 80.4881 308.839 80.4976 308.963C80.7258 308.174 81.534 307.508 82.6274 307.508C83.8919 307.508 84.8047 308.421 84.8047 309.742C84.8047 311.083 83.8634 312.015 82.5038 312.015ZM82.4467 311.292C83.2169 311.292 83.987 310.779 83.987 309.742C83.987 308.696 83.2359 308.193 82.4657 308.193C81.6861 308.193 80.8874 308.725 80.8874 309.752C80.8874 310.769 81.6671 311.292 82.4467 311.292Z" fill="white"/>
<path d="M125.662 300.161L125.196 302.1L124.54 301.91L124.958 300.161H123.361V299.552H125.101L125.576 297.575H123.979V296.966H125.719L126.175 295.064L126.831 295.255L126.423 296.966H128.077L128.533 295.064L129.189 295.255L128.781 296.966H130.378V297.575H128.638L128.163 299.552H129.76V300.161H128.02L127.554 302.1L126.898 301.91L127.316 300.161H125.662ZM126.28 297.575L125.805 299.552H127.459L127.934 297.575H126.28ZM136.191 301.91H131.561V295.255H136.105V295.987H132.35V298.088H135.725V298.801H132.35V301.178H136.191V301.91ZM138.265 301.91H137.466V295.255H142.001V295.987H138.265V298.145H141.716V298.877H138.265V301.91ZM146.874 301.91H146.076V300.246H142.776V299.533L146.066 295.255H146.874V299.514H148.044V300.246H146.874V301.91ZM146.076 296.367L143.651 299.514H146.076V296.367ZM151.268 302.015C149.766 302.015 148.749 301.15 148.663 299.79H149.49C149.547 300.703 150.241 301.283 151.278 301.283C152.229 301.283 152.847 300.779 152.847 300.018C152.847 299.276 152.257 298.82 151.249 298.82H150.355V298.164H151.249C152.038 298.164 152.59 297.708 152.59 297.033C152.59 296.367 152.048 295.882 151.24 295.882C150.413 295.882 149.795 296.405 149.671 297.223H148.844C149.015 295.958 149.966 295.15 151.287 295.15C152.523 295.15 153.388 295.863 153.388 296.871C153.388 297.641 152.885 298.231 152.143 298.43C153.094 298.649 153.636 299.248 153.636 300.104C153.636 301.235 152.694 302.015 151.268 302.015ZM157.015 302.015C155.513 302.015 154.477 301.254 154.477 300.066C154.477 299.295 154.981 298.696 155.789 298.402C155.161 298.117 154.781 297.584 154.781 296.928C154.781 295.882 155.694 295.15 157.015 295.15C158.318 295.15 159.231 295.882 159.231 296.928C159.231 297.584 158.85 298.107 158.232 298.402C159.031 298.696 159.535 299.295 159.535 300.066C159.535 301.216 158.556 302.015 157.015 302.015ZM157.015 298.126C157.852 298.126 158.432 297.651 158.432 296.966C158.432 296.32 157.852 295.863 157.015 295.863C156.169 295.863 155.58 296.32 155.58 296.966C155.58 297.651 156.169 298.126 157.015 298.126ZM157.015 301.283C158.014 301.283 158.708 300.76 158.708 300.018C158.708 299.267 158.014 298.744 157.015 298.744C156.007 298.744 155.304 299.267 155.304 300.018C155.304 300.76 156.007 301.283 157.015 301.283ZM163.9 301.91H160.772V295.255H163.824C164.984 295.255 165.792 295.939 165.792 296.928C165.792 297.641 165.288 298.231 164.508 298.478C165.373 298.649 165.944 299.276 165.944 300.094C165.944 301.169 165.107 301.91 163.9 301.91ZM161.561 295.987V298.164H163.776C164.489 298.164 164.984 297.689 164.984 297.014C164.984 296.405 164.537 295.987 163.9 295.987H161.561ZM161.561 298.877V301.178H163.985C164.651 301.178 165.117 300.703 165.117 300.009C165.117 299.267 164.537 298.877 163.824 298.877H161.561ZM124.597 311.91H123.798V305.255H126.831C128.086 305.255 128.952 306.006 128.952 307.09C128.952 307.879 128.419 308.544 127.611 308.801C127.963 308.896 128.21 309.124 128.334 309.457L129.256 311.91H128.4L127.545 309.6C127.44 309.314 127.212 309.162 126.898 309.162H124.597V311.91ZM124.597 305.987V308.449H126.869C127.697 308.449 128.144 307.879 128.144 307.166C128.144 306.386 127.592 305.987 126.869 305.987H124.597ZM133.132 312.015C131.297 312.015 129.984 310.665 129.984 308.563C129.984 306.586 131.192 305.15 133.217 305.15C134.91 305.15 136.079 306.177 136.355 307.812H135.528C135.28 306.595 134.434 305.882 133.217 305.882C131.743 305.882 130.821 306.899 130.821 308.563C130.821 310.246 131.762 311.283 133.132 311.283C134.377 311.283 135.166 310.436 135.166 309.229H132.922V308.544H135.261C135.955 308.544 136.326 308.896 136.326 309.543V311.91H135.613V309.638H135.594C135.47 311.102 134.605 312.015 133.132 312.015ZM140.891 311.91H137.763V305.255H140.815C141.975 305.255 142.783 305.939 142.783 306.928C142.783 307.641 142.279 308.231 141.5 308.478C142.365 308.649 142.935 309.276 142.935 310.094C142.935 311.169 142.099 311.91 140.891 311.91ZM138.552 305.987V308.164H140.768C141.481 308.164 141.975 307.689 141.975 307.014C141.975 306.405 141.528 305.987 140.891 305.987H138.552ZM138.552 308.877V311.178H140.977C141.642 311.178 142.108 310.703 142.108 310.009C142.108 309.267 141.528 308.877 140.815 308.877H138.552ZM150.516 307.061C150.516 309.343 147.026 309.248 147.026 311.178H150.421V311.91H146.18V311.283C146.18 308.839 149.689 308.868 149.689 307.061C149.689 306.358 149.194 305.882 148.396 305.882C147.559 305.882 146.893 306.405 146.874 307.479H146.038C146.114 305.958 147.112 305.15 148.405 305.15C149.679 305.15 150.516 305.92 150.516 307.061ZM153.942 312.015C152.44 312.015 151.423 311.15 151.337 309.79H152.164C152.221 310.703 152.915 311.283 153.952 311.283C154.903 311.283 155.521 310.779 155.521 310.018C155.521 309.276 154.931 308.82 153.923 308.82H153.03V308.164H153.923C154.712 308.164 155.264 307.708 155.264 307.033C155.264 306.367 154.722 305.882 153.914 305.882C153.087 305.882 152.469 306.405 152.345 307.223H151.518C151.689 305.958 152.64 305.15 153.961 305.15C155.197 305.15 156.063 305.863 156.063 306.871C156.063 307.641 155.559 308.231 154.817 308.43C155.768 308.649 156.31 309.248 156.31 310.104C156.31 311.235 155.369 312.015 153.942 312.015ZM159.566 312.015C158.263 312.015 157.35 311.273 157.17 310.018H157.997C158.121 310.836 158.681 311.283 159.566 311.283C160.707 311.283 161.344 310.294 161.344 308.611C161.344 308.506 161.334 308.411 161.325 308.316C161.154 309.058 160.478 309.609 159.518 309.609C158.159 309.609 157.198 308.687 157.198 307.375C157.198 306.063 158.159 305.15 159.509 305.15C161.192 305.15 162.076 306.51 162.076 308.611C162.076 310.722 161.192 312.015 159.566 312.015ZM159.509 308.915C160.26 308.915 161.011 308.421 161.011 307.403C161.011 306.367 160.269 305.873 159.528 305.873C158.767 305.873 157.997 306.386 157.987 307.394C157.978 308.402 158.748 308.915 159.509 308.915ZM167.979 312.015C166.163 312.015 165.221 310.532 165.221 308.535C165.221 306.386 166.305 305.15 167.969 305.15C169.234 305.15 170.203 305.996 170.327 307.223H169.5C169.405 306.434 168.777 305.882 167.969 305.882C166.657 305.882 165.953 307.004 165.953 308.582C165.953 308.725 165.963 308.839 165.972 308.963C166.201 308.174 167.009 307.508 168.102 307.508C169.367 307.508 170.279 308.421 170.279 309.742C170.279 311.083 169.338 312.015 167.979 312.015ZM167.921 311.292C168.692 311.292 169.462 310.779 169.462 309.742C169.462 308.696 168.711 308.193 167.94 308.193C167.161 308.193 166.362 308.725 166.362 309.752C166.362 310.769 167.142 311.292 167.921 311.292ZM172.296 311.91H171.383L174.492 305.987H170.908V305.255H175.376V305.987L172.296 311.91ZM180.501 311.91H179.702V306.728C179.388 307.147 178.875 307.356 178.181 307.356H178.067V306.576H178.181C179.179 306.576 179.711 306.148 179.711 305.35V305.255H180.501V311.91ZM184.295 312.015C182.793 312.015 181.776 311.15 181.69 309.79H182.517C182.574 310.703 183.268 311.283 184.305 311.283C185.255 311.283 185.874 310.779 185.874 310.018C185.874 309.276 185.284 308.82 184.276 308.82H183.382V308.164H184.276C185.065 308.164 185.617 307.708 185.617 307.033C185.617 306.367 185.075 305.882 184.267 305.882C183.439 305.882 182.821 306.405 182.698 307.223H181.871C182.042 305.958 182.993 305.15 184.314 305.15C185.55 305.15 186.415 305.863 186.415 306.871C186.415 307.641 185.912 308.231 185.17 308.43C186.121 308.649 186.663 309.248 186.663 310.104C186.663 311.235 185.721 312.015 184.295 312.015ZM189.919 312.015C188.616 312.015 187.703 311.273 187.523 310.018H188.35C188.473 310.836 189.034 311.283 189.919 311.283C191.06 311.283 191.697 310.294 191.697 308.611C191.697 308.506 191.687 308.411 191.678 308.316C191.506 309.058 190.831 309.609 189.871 309.609C188.511 309.609 187.551 308.687 187.551 307.375C187.551 306.063 188.511 305.15 189.862 305.15C191.544 305.15 192.429 306.51 192.429 308.611C192.429 310.722 191.544 312.015 189.919 312.015ZM189.862 308.915C190.613 308.915 191.364 308.421 191.364 307.403C191.364 306.367 190.622 305.873 189.881 305.873C189.12 305.873 188.35 306.386 188.34 307.394C188.331 308.402 189.101 308.915 189.862 308.915Z" fill="white"/>
<path d="M230.349 300.161L229.884 302.1L229.228 301.91L229.646 300.161H228.049V299.552H229.788L230.264 297.575H228.667V296.966H230.407L230.863 295.064L231.519 295.255L231.11 296.966H232.764L233.221 295.064L233.877 295.255L233.468 296.966H235.065V297.575H233.325L232.85 299.552H234.447V300.161H232.707L232.242 302.1L231.585 301.91L232.004 300.161H230.349ZM230.967 297.575L230.492 299.552H232.146L232.622 297.575H230.967ZM238.359 302.015C237.028 302.015 236.049 301.197 235.906 299.904H236.733C236.838 300.75 237.484 301.283 238.359 301.283C239.3 301.283 239.928 300.655 239.928 299.742C239.928 298.839 239.3 298.212 238.397 298.212C237.893 298.212 237.446 298.411 237.018 298.868H236.134L236.676 295.255H240.451V295.987H237.342L236.999 298.231C237.408 297.784 237.95 297.527 238.606 297.527C239.852 297.527 240.736 298.44 240.736 299.733C240.736 301.083 239.776 302.015 238.359 302.015ZM244.316 301.91H241.968V295.255H244.316C246.227 295.255 247.558 296.605 247.558 298.544C247.558 300.532 246.227 301.91 244.316 301.91ZM242.766 295.987V301.178H244.364C245.742 301.178 246.712 300.094 246.712 298.544C246.712 297.109 245.742 295.987 244.364 295.987H242.766ZM251.32 302.015C249.504 302.015 248.562 300.532 248.562 298.535C248.562 296.386 249.646 295.15 251.31 295.15C252.575 295.15 253.545 295.996 253.668 297.223H252.841C252.746 296.434 252.118 295.882 251.31 295.882C249.998 295.882 249.294 297.004 249.294 298.582C249.294 298.725 249.304 298.839 249.313 298.963C249.542 298.174 250.35 297.508 251.443 297.508C252.708 297.508 253.621 298.421 253.621 299.742C253.621 301.083 252.679 302.015 251.32 302.015ZM251.263 301.292C252.033 301.292 252.803 300.779 252.803 299.742C252.803 298.696 252.052 298.193 251.282 298.193C250.502 298.193 249.703 298.725 249.703 299.752C249.703 300.769 250.483 301.292 251.263 301.292ZM257.079 302.015C255.577 302.015 254.54 301.254 254.54 300.066C254.54 299.295 255.044 298.696 255.852 298.402C255.225 298.117 254.844 297.584 254.844 296.928C254.844 295.882 255.757 295.15 257.079 295.15C258.381 295.15 259.294 295.882 259.294 296.928C259.294 297.584 258.914 298.107 258.296 298.402C259.094 298.696 259.598 299.295 259.598 300.066C259.598 301.216 258.619 302.015 257.079 302.015ZM257.079 298.126C257.915 298.126 258.495 297.651 258.495 296.966C258.495 296.32 257.915 295.863 257.079 295.863C256.233 295.863 255.643 296.32 255.643 296.966C255.643 297.651 256.233 298.126 257.079 298.126ZM257.079 301.283C258.077 301.283 258.771 300.76 258.771 300.018C258.771 299.267 258.077 298.744 257.079 298.744C256.071 298.744 255.367 299.267 255.367 300.018C255.367 300.76 256.071 301.283 257.079 301.283ZM261.634 301.91H260.835V295.255H265.37V295.987H261.634V298.145H265.085V298.877H261.634V301.91ZM271.204 301.91H266.573V295.255H271.118V295.987H267.362V298.088H270.738V298.801H267.362V301.178H271.204V301.91ZM229.285 311.91H228.486V305.255H231.519C232.774 305.255 233.639 306.006 233.639 307.09C233.639 307.879 233.107 308.544 232.299 308.801C232.65 308.896 232.898 309.124 233.021 309.457L233.943 311.91H233.088L232.232 309.6C232.127 309.314 231.899 309.162 231.585 309.162H229.285V311.91ZM229.285 305.987V308.449H231.557C232.384 308.449 232.831 307.879 232.831 307.166C232.831 306.386 232.28 305.987 231.557 305.987H229.285ZM237.819 312.015C235.984 312.015 234.672 310.665 234.672 308.563C234.672 306.586 235.879 305.15 237.905 305.15C239.597 305.15 240.766 306.177 241.042 307.812H240.215C239.968 306.595 239.122 305.882 237.905 305.882C236.431 305.882 235.509 306.899 235.509 308.563C235.509 310.246 236.45 311.283 237.819 311.283C239.065 311.283 239.854 310.436 239.854 309.229H237.61V308.544H239.949C240.643 308.544 241.014 308.896 241.014 309.543V311.91H240.301V309.638H240.282C240.158 311.102 239.293 312.015 237.819 312.015ZM245.579 311.91H242.451V305.255H245.503C246.663 305.255 247.471 305.939 247.471 306.928C247.471 307.641 246.967 308.231 246.187 308.478C247.052 308.649 247.623 309.276 247.623 310.094C247.623 311.169 246.786 311.91 245.579 311.91ZM243.24 305.987V308.164H245.455C246.168 308.164 246.663 307.689 246.663 307.014C246.663 306.405 246.216 305.987 245.579 305.987H243.24ZM243.24 308.877V311.178H245.664C246.33 311.178 246.796 310.703 246.796 310.009C246.796 309.267 246.216 308.877 245.503 308.877H243.24ZM253.093 312.015C251.79 312.015 250.877 311.273 250.697 310.018H251.524C251.647 310.836 252.208 311.283 253.093 311.283C254.234 311.283 254.871 310.294 254.871 308.611C254.871 308.506 254.861 308.411 254.852 308.316C254.68 309.058 254.005 309.609 253.045 309.609C251.685 309.609 250.725 308.687 250.725 307.375C250.725 306.063 251.685 305.15 253.036 305.15C254.718 305.15 255.603 306.51 255.603 308.611C255.603 310.722 254.718 312.015 253.093 312.015ZM253.036 308.915C253.787 308.915 254.538 308.421 254.538 307.403C254.538 306.367 253.796 305.873 253.055 305.873C252.294 305.873 251.524 306.386 251.514 307.394C251.505 308.402 252.275 308.915 253.036 308.915ZM259.094 312.015C257.592 312.015 256.574 311.15 256.489 309.79H257.316C257.373 310.703 258.067 311.283 259.104 311.283C260.054 311.283 260.672 310.779 260.672 310.018C260.672 309.276 260.083 308.82 259.075 308.82H258.181V308.164H259.075C259.864 308.164 260.416 307.708 260.416 307.033C260.416 306.367 259.874 305.882 259.066 305.882C258.238 305.882 257.62 306.405 257.497 307.223H256.67C256.841 305.958 257.791 305.15 259.113 305.15C260.349 305.15 261.214 305.863 261.214 306.871C261.214 307.641 260.71 308.231 259.969 308.43C260.92 308.649 261.462 309.248 261.462 310.104C261.462 311.235 260.52 312.015 259.094 312.015ZM266.729 311.91H265.931V306.728C265.617 307.147 265.104 307.356 264.41 307.356H264.295V306.576H264.41C265.408 306.576 265.94 306.148 265.94 305.35V305.255H266.729V311.91ZM270.581 312.015C269.031 312.015 268.042 310.665 268.042 308.563C268.042 306.481 269.031 305.15 270.581 305.15C272.131 305.15 273.12 306.481 273.12 308.563C273.12 310.665 272.131 312.015 270.581 312.015ZM270.581 311.283C271.627 311.283 272.302 310.218 272.302 308.563C272.302 306.928 271.627 305.882 270.581 305.882C269.535 305.882 268.86 306.928 268.86 308.563C268.86 310.218 269.535 311.283 270.581 311.283ZM278.098 311.91H277.3V310.246H274.001V309.533L277.29 305.255H278.098V309.514H279.268V310.246H278.098V311.91ZM277.3 306.367L274.875 309.514H277.3V306.367ZM286.596 307.061C286.596 309.343 283.107 309.248 283.107 311.178H286.501V311.91H282.261V311.283C282.261 308.839 285.769 308.868 285.769 307.061C285.769 306.358 285.275 305.882 284.476 305.882C283.639 305.882 282.974 306.405 282.955 307.479H282.118C282.194 305.958 283.192 305.15 284.485 305.15C285.759 305.15 286.596 305.92 286.596 307.061ZM289.956 312.015C288.625 312.015 287.646 311.197 287.503 309.904H288.33C288.435 310.75 289.081 311.283 289.956 311.283C290.897 311.283 291.525 310.655 291.525 309.742C291.525 308.839 290.897 308.212 289.994 308.212C289.49 308.212 289.043 308.411 288.615 308.868H287.731L288.273 305.255H292.048V305.987H288.939L288.596 308.231C289.005 307.784 289.547 307.527 290.203 307.527C291.449 307.527 292.333 308.44 292.333 309.733C292.333 311.083 291.373 312.015 289.956 312.015ZM297.235 311.91H296.436V310.246H293.137V309.533L296.427 305.255H297.235V309.514H298.404V310.246H297.235V311.91ZM296.436 306.367L294.012 309.514H296.436V306.367Z" fill="white"/>
<path d="M338.699 300.161L338.233 302.1L337.577 301.91L337.995 300.161H336.398V299.552H338.138L338.613 297.575H337.016V296.966H338.756L339.212 295.064L339.869 295.255L339.46 296.966H341.114L341.57 295.064L342.226 295.255L341.818 296.966H343.415V297.575H341.675L341.2 299.552H342.797V300.161H341.057L340.591 302.1L339.935 301.91L340.353 300.161H338.699ZM339.317 297.575L338.842 299.552H340.496L340.971 297.575H339.317ZM346.832 302.015C345.282 302.015 344.294 300.665 344.294 298.563C344.294 296.481 345.282 295.15 346.832 295.15C348.382 295.15 349.371 296.481 349.371 298.563C349.371 300.665 348.382 302.015 346.832 302.015ZM346.832 301.283C347.878 301.283 348.553 300.218 348.553 298.563C348.553 296.928 347.878 295.882 346.832 295.882C345.786 295.882 345.111 296.928 345.111 298.563C345.111 300.218 345.786 301.283 346.832 301.283ZM352.591 301.91H351.792V296.728C351.478 297.147 350.965 297.356 350.271 297.356H350.157V296.576H350.271C351.269 296.576 351.801 296.148 351.801 295.35V295.255H352.591V301.91ZM354.493 301.91H353.666L356.404 295.255H357.212L359.96 301.91H359.133L358.353 300.009H355.273L354.493 301.91ZM356.813 296.272L355.577 299.286H358.049L356.813 296.272ZM365.178 297.061C365.178 299.343 361.688 299.248 361.688 301.178H365.083V301.91H360.842V301.283C360.842 298.839 364.351 298.868 364.351 297.061C364.351 296.358 363.856 295.882 363.058 295.882C362.221 295.882 361.555 296.405 361.536 297.479H360.7C360.776 295.958 361.774 295.15 363.067 295.15C364.341 295.15 365.178 295.92 365.178 297.061ZM369.624 301.91H368.825V300.246H365.526V299.533L368.815 295.255H369.624V299.514H370.793V300.246H369.624V301.91ZM368.825 296.367L366.4 299.514H368.825V296.367ZM373.951 302.015C372.62 302.015 371.641 301.197 371.498 299.904H372.325C372.43 300.75 373.076 301.283 373.951 301.283C374.892 301.283 375.52 300.655 375.52 299.742C375.52 298.839 374.892 298.212 373.989 298.212C373.485 298.212 373.038 298.411 372.61 298.868H371.726L372.268 295.255H376.043V295.987H372.934L372.591 298.231C373 297.784 373.542 297.527 374.198 297.527C375.444 297.527 376.328 298.44 376.328 299.733C376.328 301.083 375.368 302.015 373.951 302.015ZM337.634 311.91H336.836V305.255H339.869C341.124 305.255 341.989 306.006 341.989 307.09C341.989 307.879 341.456 308.544 340.648 308.801C341 308.896 341.247 309.124 341.371 309.457L342.293 311.91H341.437L340.582 309.6C340.477 309.314 340.249 309.162 339.935 309.162H337.634V311.91ZM337.634 305.987V308.449H339.907C340.734 308.449 341.181 307.879 341.181 307.166C341.181 306.386 340.629 305.987 339.907 305.987H337.634ZM346.169 312.015C344.334 312.015 343.022 310.665 343.022 308.563C343.022 306.586 344.229 305.15 346.254 305.15C347.947 305.15 349.116 306.177 349.392 307.812H348.565C348.317 306.595 347.471 305.882 346.254 305.882C344.78 305.882 343.858 306.899 343.858 308.563C343.858 310.246 344.8 311.283 346.169 311.283C347.414 311.283 348.203 310.436 348.203 309.229H345.959V308.544H348.298C348.992 308.544 349.363 308.896 349.363 309.543V311.91H348.65V309.638H348.631C348.508 311.102 347.642 312.015 346.169 312.015ZM353.928 311.91H350.8V305.255H353.852C355.012 305.255 355.82 305.939 355.82 306.928C355.82 307.641 355.317 308.231 354.537 308.478C355.402 308.649 355.973 309.276 355.973 310.094C355.973 311.169 355.136 311.91 353.928 311.91ZM351.589 305.987V308.164H353.805C354.518 308.164 355.012 307.689 355.012 307.014C355.012 306.405 354.565 305.987 353.928 305.987H351.589ZM351.589 308.877V311.178H354.014C354.679 311.178 355.145 310.703 355.145 310.009C355.145 309.267 354.565 308.877 353.852 308.877H351.589ZM361.319 311.91H360.52V306.728C360.206 307.147 359.693 307.356 358.999 307.356H358.885V306.576H358.999C359.997 306.576 360.529 306.148 360.529 305.35V305.255H361.319V311.91ZM366.982 311.91H366.184V306.728C365.87 307.147 365.357 307.356 364.663 307.356H364.548V306.576H364.663C365.661 306.576 366.193 306.148 366.193 305.35V305.255H366.982V311.91ZM371.053 312.015C369.237 312.015 368.295 310.532 368.295 308.535C368.295 306.386 369.379 305.15 371.043 305.15C372.308 305.15 373.278 305.996 373.401 307.223H372.574C372.479 306.434 371.851 305.882 371.043 305.882C369.731 305.882 369.028 307.004 369.028 308.582C369.028 308.725 369.037 308.839 369.047 308.963C369.275 308.174 370.083 307.508 371.176 307.508C372.441 307.508 373.354 308.421 373.354 309.742C373.354 311.083 372.412 312.015 371.053 312.015ZM370.996 311.292C371.766 311.292 372.536 310.779 372.536 309.742C372.536 308.696 371.785 308.193 371.015 308.193C370.235 308.193 369.436 308.725 369.436 309.752C369.436 310.769 370.216 311.292 370.996 311.292ZM378.799 307.061C378.799 309.343 375.31 309.248 375.31 311.178H378.704V311.91H374.463V311.283C374.463 308.839 377.972 308.868 377.972 307.061C377.972 306.358 377.477 305.882 376.679 305.882C375.842 305.882 375.177 306.405 375.157 307.479H374.321C374.397 305.958 375.395 305.15 376.688 305.15C377.962 305.15 378.799 305.92 378.799 307.061ZM384.637 312.015C382.821 312.015 381.88 310.532 381.88 308.535C381.88 306.386 382.963 305.15 384.627 305.15C385.892 305.15 386.862 305.996 386.985 307.223H386.158C386.063 306.434 385.435 305.882 384.627 305.882C383.315 305.882 382.612 307.004 382.612 308.582C382.612 308.725 382.621 308.839 382.631 308.963C382.859 308.174 383.667 307.508 384.76 307.508C386.025 307.508 386.938 308.421 386.938 309.742C386.938 311.083 385.996 312.015 384.637 312.015ZM384.58 311.292C385.35 311.292 386.12 310.779 386.12 309.742C386.12 308.696 385.369 308.193 384.599 308.193C383.819 308.193 383.02 308.725 383.02 309.752C383.02 310.769 383.8 311.292 384.58 311.292ZM390.272 312.015C388.97 312.015 388.057 311.273 387.876 310.018H388.704C388.827 310.836 389.388 311.283 390.272 311.283C391.413 311.283 392.05 310.294 392.05 308.611C392.05 308.506 392.041 308.411 392.031 308.316C391.86 309.058 391.185 309.609 390.225 309.609C388.865 309.609 387.905 308.687 387.905 307.375C387.905 306.063 388.865 305.15 390.215 305.15C391.898 305.15 392.782 306.51 392.782 308.611C392.782 310.722 391.898 312.015 390.272 312.015ZM390.215 308.915C390.966 308.915 391.718 308.421 391.718 307.403C391.718 306.367 390.976 305.873 390.234 305.873C389.474 305.873 388.704 306.386 388.694 307.394C388.684 308.402 389.455 308.915 390.215 308.915Z" fill="white"/>
<path d="M437.531 300.161L437.065 302.1L436.409 301.91L436.828 300.161H435.23V299.552H436.97L437.446 297.575H435.848V296.966H437.588L438.045 295.064L438.701 295.255L438.292 296.966H439.946L440.402 295.064L441.059 295.255L440.65 296.966H442.247V297.575H440.507L440.032 299.552H441.629V300.161H439.889L439.423 302.1L438.767 301.91L439.185 300.161H437.531ZM438.149 297.575L437.674 299.552H439.328L439.803 297.575H438.149ZM444.229 301.91H443.43V295.255H447.965V295.987H444.229V298.145H447.68V298.877H444.229V301.91ZM449.967 301.91H449.168V295.255H453.703V295.987H449.967V298.145H453.418V298.877H449.967V301.91ZM455.705 301.91H454.906V295.255H459.441V295.987H455.705V298.145H459.156V298.877H455.705V301.91ZM461.443 301.91H460.644V295.255H465.18V295.987H461.443V298.145H464.894V298.877H461.443V301.91ZM467.181 301.91H466.383V295.255H470.918V295.987H467.181V298.145H470.633V298.877H467.181V301.91ZM472.919 301.91H472.121V295.255H476.656V295.987H472.919V298.145H476.371V298.877H472.919V301.91ZM436.466 311.91H435.668V305.255H438.701C439.956 305.255 440.821 306.006 440.821 307.09C440.821 307.879 440.288 308.544 439.48 308.801C439.832 308.896 440.079 309.124 440.203 309.457L441.125 311.91H440.269L439.414 309.6C439.309 309.314 439.081 309.162 438.767 309.162H436.466V311.91ZM436.466 305.987V308.449H438.739C439.566 308.449 440.013 307.879 440.013 307.166C440.013 306.386 439.461 305.987 438.739 305.987H436.466ZM445.001 312.015C443.166 312.015 441.854 310.665 441.854 308.563C441.854 306.586 443.061 305.15 445.086 305.15C446.779 305.15 447.948 306.177 448.224 307.812H447.397C447.149 306.595 446.303 305.882 445.086 305.882C443.613 305.882 442.69 306.899 442.69 308.563C442.69 310.246 443.632 311.283 445.001 311.283C446.246 311.283 447.035 310.436 447.035 309.229H444.791V308.544H447.13C447.825 308.544 448.195 308.896 448.195 309.543V311.91H447.482V309.638H447.463C447.34 311.102 446.474 312.015 445.001 312.015ZM452.76 311.91H449.632V305.255H452.684C453.844 305.255 454.652 305.939 454.652 306.928C454.652 307.641 454.149 308.231 453.369 308.478C454.234 308.649 454.805 309.276 454.805 310.094C454.805 311.169 453.968 311.91 452.76 311.91ZM450.421 305.987V308.164H452.637C453.35 308.164 453.844 307.689 453.844 307.014C453.844 306.405 453.397 305.987 452.76 305.987H450.421ZM450.421 308.877V311.178H452.846C453.512 311.178 453.977 310.703 453.977 310.009C453.977 309.267 453.397 308.877 452.684 308.877H450.421ZM462.385 307.061C462.385 309.343 458.896 309.248 458.896 311.178H462.29V311.91H458.049V311.283C458.049 308.839 461.558 308.868 461.558 307.061C461.558 306.358 461.063 305.882 460.265 305.882C459.428 305.882 458.762 306.405 458.743 307.479H457.907C457.983 305.958 458.981 305.15 460.274 305.15C461.548 305.15 462.385 305.92 462.385 307.061ZM465.745 312.015C464.414 312.015 463.434 311.197 463.292 309.904H464.119C464.224 310.75 464.87 311.283 465.745 311.283C466.686 311.283 467.314 310.655 467.314 309.742C467.314 308.839 466.686 308.212 465.783 308.212C465.279 308.212 464.832 308.411 464.404 308.868H463.52L464.062 305.255H467.837V305.987H464.728L464.385 308.231C464.794 307.784 465.336 307.527 465.992 307.527C467.238 307.527 468.122 308.44 468.122 309.733C468.122 311.083 467.162 312.015 465.745 312.015ZM471.465 312.015C470.133 312.015 469.154 311.197 469.011 309.904H469.839C469.943 310.75 470.59 311.283 471.465 311.283C472.406 311.283 473.033 310.655 473.033 309.742C473.033 308.839 472.406 308.212 471.503 308.212C470.999 308.212 470.552 308.411 470.124 308.868H469.24L469.782 305.255H473.556V305.987H470.447L470.105 308.231C470.514 307.784 471.056 307.527 471.712 307.527C472.957 307.527 473.841 308.44 473.841 309.733C473.841 311.083 472.881 312.015 471.465 312.015ZM481.354 307.061C481.354 309.343 477.865 309.248 477.865 311.178H481.259V311.91H477.019V311.283C477.019 308.839 480.527 308.868 480.527 307.061C480.527 306.358 480.033 305.882 479.234 305.882C478.397 305.882 477.732 306.405 477.713 307.479H476.876C476.952 305.958 477.951 305.15 479.244 305.15C480.518 305.15 481.354 305.92 481.354 307.061ZM484.714 312.015C483.383 312.015 482.404 311.197 482.261 309.904H483.088C483.193 310.75 483.84 311.283 484.714 311.283C485.656 311.283 486.283 310.655 486.283 309.742C486.283 308.839 485.656 308.212 484.752 308.212C484.248 308.212 483.802 308.411 483.374 308.868H482.489L483.031 305.255H486.806V305.987H483.697L483.355 308.231C483.764 307.784 484.305 307.527 484.962 307.527C486.207 307.527 487.091 308.44 487.091 309.733C487.091 311.083 486.131 312.015 484.714 312.015ZM490.434 312.015C489.103 312.015 488.123 311.197 487.981 309.904H488.808C488.913 310.75 489.559 311.283 490.434 311.283C491.375 311.283 492.003 310.655 492.003 309.742C492.003 308.839 491.375 308.212 490.472 308.212C489.968 308.212 489.521 308.411 489.093 308.868H488.209L488.751 305.255H492.526V305.987H489.417L489.074 308.231C489.483 307.784 490.025 307.527 490.681 307.527C491.927 307.527 492.811 308.44 492.811 309.733C492.811 311.083 491.851 312.015 490.434 312.015ZM500.324 307.061C500.324 309.343 496.834 309.248 496.834 311.178H500.229V311.91H495.988V311.283C495.988 308.839 499.497 308.868 499.497 307.061C499.497 306.358 499.002 305.882 498.203 305.882C497.367 305.882 496.701 306.405 496.682 307.479H495.846C495.922 305.958 496.92 305.15 498.213 305.15C499.487 305.15 500.324 305.92 500.324 307.061ZM503.684 312.015C502.353 312.015 501.373 311.197 501.231 309.904H502.058C502.162 310.75 502.809 311.283 503.684 311.283C504.625 311.283 505.252 310.655 505.252 309.742C505.252 308.839 504.625 308.212 503.722 308.212C503.218 308.212 502.771 308.411 502.343 308.868H501.459L502.001 305.255H505.775V305.987H502.666L502.324 308.231C502.733 307.784 503.275 307.527 503.931 307.527C505.176 307.527 506.061 308.44 506.061 309.733C506.061 311.083 505.1 312.015 503.684 312.015ZM509.403 312.015C508.072 312.015 507.093 311.197 506.95 309.904H507.777C507.882 310.75 508.529 311.283 509.403 311.283C510.345 311.283 510.972 310.655 510.972 309.742C510.972 308.839 510.345 308.212 509.441 308.212C508.937 308.212 508.491 308.411 508.063 308.868H507.178L507.72 305.255H511.495V305.987H508.386L508.044 308.231C508.452 307.784 508.994 307.527 509.65 307.527C510.896 307.527 511.78 308.44 511.78 309.733C511.78 311.083 510.82 312.015 509.403 312.015Z" fill="#161111"/>
<path d="M755.667 0H709.448L683.082 69.9047L656.719 0H599V136.9H622.001V26.9736L665.074 136.9H731.295V75.2262H742.374V136.9H755.667V0Z" fill="#EF438B"/>
<path d="M634.874 144.221V212.47L696.555 251.402L634.874 290.33V375.561H755.668V341.597H658.674L755.668 277.993V180.21H701.25V163.85H755.668V144.221H634.874Z" fill="#01A245"/>
<path d="M974.562 0.000193931V40.3877L866.901 63.4268L974.562 86.4636V136.9H763.721V116.802H933.019L763.721 79.1629V21.2972H858.705V11.616H763.721V0.000193931H974.562Z" fill="#F1411A"/>
<path d="M1065.34 144.222H976.358L925.598 217.117L874.844 144.222H763.721V286.979H808.002V172.349L890.928 286.979H1018.42V222.666H1039.75V286.979H1065.34V144.222Z" fill="#5D68FE"/>
</svg>
