<?xml version="1.0" encoding="UTF-8"?>
<svg id="Camada_1" data-name="Camada 1" xmlns="http://www.w3.org/2000/svg" viewBox="0 0 973.61 598.82">
  <rect x="-40.71" y="-37.88" width="1048.24" height="677.41" style="fill: #046497;"/>
  <g>
    <path d="M743.24,246.39c0,13.75.15,27.49-.08,41.24-.08,5.02,1.74,6.85,6.77,6.62,31.76-1.45,57.41-22.72,64.55-54.14,11.28-49.6-21.2-80.83-64.03-83.39-9.76-.58-19.63.76-29.46.81-3.76.02-7.99-.28-11.13-2.02-2.42-1.34-4.38-5.06-4.68-7.92-.14-1.31,4-4.02,6.52-4.53,32.62-6.52,65.33-6.13,97.27,2.91,30.21,8.55,46.05,31.54,51.36,60.94,9.56,52.93-21.04,102.49-78.51,113.18-4.31.8-8.67,1.7-13.04,1.85-13.16.46-13.57-.88-13.76,15.16-.36,31.53.24,63.06.48,94.59.08,10.44-3.63,19.38-13.78,22.65-9.76,3.15-21.41,3.32-28.8-4.05-5.14-5.12-8.24-14.68-8.15-22.2.38-29.88,2.64-59.72,3.66-89.6.53-15.64-.29-31.33-.12-46.99.3-28.31.79-56.62,1.38-84.93.32-15.28,9.56-21.91,24.36-16.78,3.12,1.08,6.51,6.17,6.82,9.67,1.25,14.21,1.36,28.53,1.88,42.81.05,1.37,0,2.75,0,4.12.16,0,.32,0,.48,0Z" style="fill: #fff;"/>
    <path d="M160.42,297.95c-.11,2.37-.37,5.87-.42,9.37-.64,44.15-.73,88.31-2.14,132.44-.55,17.26-6.98,23.61-22.19,22.74-17.52-1.01-23.91-6.65-23.94-25.27-.1-50.88-.04-101.75-.04-152.63,0-30.53-.4-61.06.17-91.57.29-15.6,2.76-31.15,3.43-46.75.38-8.85,5.96-11.31,12.73-12.23,5.95-.8,12.17-.78,18.12.01,2.69.36,6.11,2.96,7.26,5.44,2.05,4.43,4.73,4.7,9.03,4.61,30.8-.68,61.61-1.14,92.42-1.35,11.63-.08,16.81,3.41,17.09,10.1.29,6.8-7.95,15.12-16.83,15.15-30.01.08-60.03-.14-90.02-1.08-6.69-.21-8.4,1.53-8.18,7.44,1.07,29.07,2.38,58.13,2.88,87.21.14,8.08,2.68,10.38,10.49,10.06,16.51-.68,33.05-.79,49.57-.49,3.54.06,8.82,1.99,10.08,4.61,1.54,3.2.74,8.52-.92,12.04-4.1,8.69-11.54,10.93-21.15,10.39-15.29-.87-30.67-.23-47.43-.23Z" style="fill: #fff;"/>
    <path d="M553.93,415.57c-.04,7.38,2.64,9.62,9.71,9.13,11.51-.78,23.07-1.3,34.59-1.13,6.51.1,13.11,1.37,19.47,2.89,6.32,1.52,8.1,8.11,4.56,13.58-5.73,8.85-13.39,13.16-24.21,12.43-14.52-.98-29.09-1.44-43.64-1.75-2.28-.05-5.8,1.27-6.7,3.02-3.48,6.72-7.08,12.44-16.01,11.53-9.79-1-16.18-6.99-20.17-15.01-2.58-5.19-3.86-11.5-3.98-17.34-.45-21.98-.43-43.97-.12-65.95.52-37.6.97-75.21,2.24-112.79,1.09-32.31,3.08-64.59,5.17-96.85.42-6.54-.66-14.39,9.24-17.01,14.11-3.73,20.64-.72,22.1,13.65,2.16,21.26,3.69,42.61,4.53,63.96.74,18.91.15,37.88.15,56.82" style="fill: #fff;"/>
    <path d="M367.04,317.26c5.21,0,9.51-.02,13.8,0,8.78.04,17.57-.12,26.34.25,5.02.21,11.41,1.39,10.95,7.42-.36,4.71-3.66,11.26-7.54,13.15-5.45,2.67-12.66,2.36-19.1,2.27-7.66-.12-15.35-1.04-22.92-2.22-5.5-.86-7.29,1.69-8.38,6.35-6.79,29.13-13.63,58.25-20.61,87.34-2.5,10.4-5.05,20.76-16.42,25.81-7.71,3.42-14.78,3.74-21.51-1.81-6.91-5.69-8.79-14.19-6.68-22.63,9.32-37.26,18.1-74.66,27.37-111.94,11.31-45.53,22.81-91.02,34.45-136.47,2.86-11.16,6.33-22.18,10.03-33.1,4.87-14.4,21.59-21.98,35.13-15.27,2.9,1.44,5.48,8.04,4.75,11.54-5.5,26.28-11.69,52.43-18.03,78.53-6.41,26.39-13.28,52.68-19.85,79.04-.85,3.4-1.08,6.95-1.79,11.75Z" style="fill: #fff;"/>
  </g>
</svg>