<?xml version="1.0" encoding="UTF-8"?>
<svg id="Camada_1" data-name="Camada 1" xmlns="http://www.w3.org/2000/svg" viewBox="0 0 973.61 598.82">
  <rect x="-40.71" y="-37.88" width="1048.24" height="677.41" style="fill: #046497;"/>
  <g>
    <path d="M704.71,210.6c0,11.68.12,23.36-.07,35.04-.07,4.27,1.48,5.82,5.75,5.63,26.99-1.23,48.78-19.31,54.85-46.01,9.58-42.15-18.02-68.69-54.41-70.87-8.3-.5-16.68.65-25.03.69-3.19.01-6.79-.24-9.46-1.72-2.05-1.14-3.72-4.3-3.98-6.73-.12-1.12,3.4-3.42,5.54-3.85,27.72-5.54,55.52-5.21,82.65,2.47,25.67,7.26,39.13,26.81,43.64,51.79,8.13,44.98-17.88,87.09-66.72,96.17-3.67.68-7.37,1.44-11.08,1.57-11.18.39-11.53-.75-11.69,12.88-.31,26.79.2,53.59.41,80.38.07,8.87-3.09,16.47-11.71,19.25-8.29,2.67-18.19,2.82-24.47-3.44-4.37-4.35-7-12.47-6.92-18.87.32-25.39,2.25-50.75,3.11-76.14.45-13.29-.24-26.62-.1-39.93.25-24.06.67-48.11,1.17-72.17.27-12.99,8.12-18.62,20.7-14.25,2.65.92,5.53,5.24,5.79,8.22,1.07,12.08,1.16,24.24,1.6,36.38.04,1.17,0,2.33,0,3.5.14,0,.27,0,.41,0Z" style="fill: #fff;"/>
    <path d="M209.46,254.41c-.09,2.02-.31,4.99-.36,7.96-.55,37.51-.62,75.04-1.82,112.54-.47,14.67-5.93,20.06-18.86,19.32-14.89-.86-20.31-5.65-20.35-21.47-.09-43.23-.03-86.46-.03-129.7,0-25.94-.34-51.88.14-77.81.25-13.25,2.35-26.47,2.91-39.73.32-7.52,5.06-9.61,10.82-10.39,5.06-.68,10.34-.66,15.4.01,2.29.3,5.19,2.51,6.17,4.62,1.74,3.77,4.02,4,7.67,3.92,26.17-.57,52.35-.97,78.54-1.14,9.88-.06,14.28,2.9,14.53,8.58.25,5.78-6.75,12.85-14.3,12.87-25.5.07-51.01-.12-76.49-.92-5.68-.18-7.14,1.3-6.95,6.33.91,24.7,2.03,49.4,2.44,74.11.12,6.87,2.28,8.82,8.92,8.55,14.03-.57,28.09-.67,42.12-.42,3.01.05,7.5,1.69,8.57,3.92,1.31,2.72.63,7.24-.78,10.23-3.48,7.38-9.8,9.29-17.98,8.83-13-.74-26.06-.2-40.3-.2Z" style="fill: #fff;"/>
    <path d="M543.84,354.36c-.03,6.27,2.24,8.17,8.25,7.76,9.78-.67,19.6-1.11,29.4-.96,5.53.08,11.14,1.16,16.55,2.46,5.37,1.29,6.88,6.89,3.88,11.54-4.87,7.52-11.37,11.18-20.58,10.56-12.34-.84-24.72-1.22-37.09-1.48-1.94-.04-4.93,1.08-5.69,2.56-2.96,5.71-6.01,10.57-13.61,9.79-8.32-.85-13.75-5.94-17.14-12.75-2.19-4.41-3.28-9.77-3.38-14.74-.38-18.68-.36-37.37-.1-56.04.44-31.95.82-63.91,1.9-95.84.93-27.45,2.62-54.88,4.39-82.3.36-5.56-.56-12.23,7.85-14.45,11.99-3.17,17.54-.61,18.78,11.6,1.83,18.06,3.14,36.21,3.85,54.35.63,16.07.13,32.19.13,48.28" style="fill: #fff;"/>
    <path d="M385.03,270.82c4.42,0,8.08-.02,11.73,0,7.46.04,14.93-.1,22.38.21,4.27.18,9.7,1.18,9.31,6.3-.31,4-3.11,9.57-6.41,11.18-4.63,2.27-10.76,2.01-16.23,1.93-6.51-.1-13.04-.88-19.48-1.89-4.67-.73-6.19,1.44-7.12,5.39-5.77,24.76-11.58,49.5-17.52,74.22-2.12,8.83-4.29,17.64-13.95,21.93-6.55,2.91-12.56,3.17-18.28-1.54-5.87-4.84-7.47-12.05-5.67-19.23,7.92-31.67,15.38-63.44,23.25-95.12,9.61-38.69,19.38-77.34,29.28-115.96,2.43-9.48,5.38-18.85,8.52-28.13,4.14-12.23,18.34-18.67,29.85-12.97,2.47,1.22,4.66,6.83,4.04,9.81-4.68,22.33-9.93,44.55-15.32,66.73-5.45,22.43-11.29,44.76-16.86,67.16-.72,2.89-.92,5.9-1.52,9.99Z" style="fill: #fff;"/>
  </g>
  <g id="Juntos_vamos_mais_longe_" data-name="Juntos vamos mais longe!">
    <g style="isolation: isolate;">
      <path d="M167.31,457.84h3.86v26.04c0,4-.31,6.79-.93,8.35s-1.66,2.81-3.11,3.75-3.21,1.4-5.27,1.4c-1.56,0-3.09-.3-4.6-.9-1.51-.6-3.19-1.67-5.02-3.19l2.05-3.07c2.01,1.42,3.69,2.41,5.02,2.99.88.38,1.73.58,2.58.58,1.1,0,2.11-.33,3.01-1,.9-.66,1.53-1.55,1.89-2.65.36-1.1.54-3.23.54-6.4v-25.91Z" style="fill: #fff;"/>
      <path d="M179.47,467.89h3.67v13.32c0,3.25.18,5.49.53,6.71.52,1.75,1.53,3.13,3.01,4.14,1.48,1.01,3.24,1.52,5.29,1.52s3.79-.49,5.21-1.48c1.43-.99,2.41-2.29,2.96-3.89.37-1.1.55-3.43.55-7v-13.32h3.75v14c0,3.93-.46,6.9-1.38,8.89-.92,1.99-2.3,3.55-4.14,4.68-1.84,1.13-4.16,1.69-6.94,1.69s-5.1-.56-6.96-1.69-3.25-2.7-4.17-4.72c-.92-2.02-1.38-5.06-1.38-9.11v-13.74Z" style="fill: #fff;"/>
      <path d="M212.59,467.89h3.67v5.11c1.47-1.96,3.09-3.42,4.88-4.39s3.72-1.46,5.82-1.46,4.03.54,5.68,1.63c1.65,1.08,2.87,2.54,3.66,4.38s1.18,4.69,1.18,8.58v14.68h-3.67v-13.61c0-3.29-.14-5.48-.41-6.58-.43-1.89-1.24-3.31-2.45-4.26-1.21-.95-2.78-1.43-4.72-1.43-2.22,0-4.21.73-5.97,2.2-1.76,1.47-2.92,3.29-3.48,5.45-.35,1.42-.52,4-.52,7.76v10.46h-3.67v-28.53Z" style="fill: #fff;"/>
      <path d="M248.55,457.29h3.67v10.59h5.82v3.17h-5.82v25.36h-3.67v-25.36h-5.01v-3.17h5.01v-10.59Z" style="fill: #fff;"/>
      <path d="M277.05,467.15c4.4,0,8.04,1.59,10.93,4.77,2.63,2.9,3.94,6.34,3.94,10.31s-1.39,7.47-4.16,10.45-6.34,4.47-10.7,4.47-7.96-1.49-10.73-4.47c-2.78-2.98-4.16-6.46-4.16-10.45s1.31-7.38,3.94-10.28c2.89-3.2,6.54-4.8,10.95-4.8ZM277.04,470.75c-3.05,0-5.68,1.13-7.87,3.38-2.19,2.26-3.29,4.98-3.29,8.18,0,2.06.5,3.99,1.5,5.77,1,1.78,2.35,3.16,4.05,4.13,1.7.97,3.57,1.46,5.6,1.46s3.9-.49,5.61-1.46c1.7-.97,3.05-2.35,4.05-4.13s1.5-3.71,1.5-5.77c0-3.2-1.1-5.93-3.3-8.18-2.2-2.25-4.82-3.38-7.85-3.38Z" style="fill: #fff;"/>
      <path d="M313.05,471.01l-2.36,2.44c-1.96-1.91-3.88-2.86-5.76-2.86-1.19,0-2.21.39-3.06,1.18-.85.79-1.28,1.7-1.28,2.75,0,.93.35,1.81,1.05,2.65.7.86,2.17,1.86,4.42,3.02,2.73,1.42,4.59,2.78,5.57,4.09.96,1.33,1.44,2.82,1.44,4.48,0,2.34-.82,4.33-2.47,5.95-1.65,1.63-3.7,2.44-6.17,2.44-1.65,0-3.22-.36-4.71-1.08-1.5-.72-2.74-1.7-3.72-2.96l2.31-2.62c1.88,2.12,3.86,3.17,5.97,3.17,1.47,0,2.72-.47,3.76-1.42,1.03-.94,1.55-2.05,1.55-3.33,0-1.05-.34-1.98-1.02-2.81-.68-.8-2.23-1.82-4.62-3.04-2.58-1.33-4.33-2.64-5.26-3.93s-1.39-2.77-1.39-4.43c0-2.17.74-3.97,2.22-5.4,1.48-1.43,3.35-2.15,5.61-2.15,2.63,0,5.27,1.29,7.93,3.86Z" style="fill: #fff;"/>
      <path d="M331.73,467.89h3.91l9.58,20.8,9.46-20.8h3.93l-13.06,28.53h-.68l-13.14-28.53Z" style="fill: #fff;"/>
      <path d="M392.61,467.89v28.53h-3.62v-4.9c-1.54,1.87-3.27,3.28-5.18,4.22-1.91.94-4.01,1.42-6.28,1.42-4.04,0-7.49-1.46-10.34-4.39-2.86-2.93-4.29-6.49-4.29-10.69s1.44-7.62,4.33-10.54c2.88-2.92,6.35-4.38,10.41-4.38,2.34,0,4.46.5,6.36,1.49,1.9,1,3.56,2.49,5,4.48v-5.24h3.62ZM377.94,470.69c-2.04,0-3.93.5-5.66,1.51-1.73,1-3.1,2.41-4.13,4.23-1.02,1.82-1.53,3.74-1.53,5.76s.52,3.93,1.55,5.76c1.03,1.83,2.41,3.26,4.15,4.28,1.74,1.02,3.6,1.53,5.59,1.53s3.91-.51,5.71-1.52c1.8-1.01,3.18-2.38,4.15-4.11.97-1.73,1.45-3.68,1.45-5.84,0-3.3-1.09-6.06-3.26-8.28-2.17-2.22-4.85-3.33-8.03-3.33Z" style="fill: #fff;"/>
      <path d="M400.85,467.89h3.67v4.93c1.28-1.82,2.59-3.15,3.94-3.99,1.86-1.12,3.81-1.68,5.86-1.68,1.38,0,2.69.27,3.94.81,1.24.54,2.26,1.26,3.05,2.16.79.9,1.47,2.19,2.05,3.87,1.22-2.24,2.75-3.94,4.58-5.1,1.83-1.16,3.8-1.74,5.91-1.74,1.97,0,3.71.5,5.22,1.49s2.63,2.39,3.36,4.17c.73,1.78,1.1,4.46,1.1,8.02v15.58h-3.75v-15.58c0-3.06-.22-5.16-.65-6.31-.43-1.14-1.18-2.07-2.23-2.77s-2.31-1.05-3.78-1.05c-1.78,0-3.4.52-4.87,1.57-1.47,1.05-2.55,2.45-3.23,4.2-.68,1.75-1.02,4.67-1.02,8.76v11.17h-3.67v-14.61c0-3.44-.21-5.78-.64-7.01-.43-1.23-1.18-2.22-2.24-2.96-1.07-.74-2.33-1.11-3.8-1.11-1.7,0-3.28.51-4.76,1.53-1.48,1.02-2.57,2.4-3.28,4.13s-1.06,4.38-1.06,7.95v12.09h-3.67v-28.53Z" style="fill: #fff;"/>
      <path d="M464.75,467.15c4.4,0,8.04,1.59,10.93,4.77,2.63,2.9,3.94,6.34,3.94,10.31s-1.39,7.47-4.16,10.45-6.34,4.47-10.7,4.47-7.96-1.49-10.73-4.47c-2.78-2.98-4.16-6.46-4.16-10.45s1.31-7.38,3.94-10.28c2.89-3.2,6.54-4.8,10.95-4.8ZM464.74,470.75c-3.05,0-5.68,1.13-7.87,3.38-2.19,2.26-3.29,4.98-3.29,8.18,0,2.06.5,3.99,1.5,5.77s2.35,3.16,4.05,4.13c1.7.97,3.57,1.46,5.61,1.46s3.9-.49,5.61-1.46c1.7-.97,3.05-2.35,4.05-4.13,1-1.78,1.5-3.71,1.5-5.77,0-3.2-1.1-5.93-3.3-8.18-2.2-2.25-4.82-3.38-7.85-3.38Z" style="fill: #fff;"/>
      <path d="M500.76,471.01l-2.36,2.44c-1.96-1.91-3.88-2.86-5.76-2.86-1.19,0-2.21.39-3.06,1.18-.85.79-1.28,1.7-1.28,2.75,0,.93.35,1.81,1.05,2.65.7.86,2.17,1.86,4.42,3.02,2.73,1.42,4.59,2.78,5.57,4.09.96,1.33,1.44,2.82,1.44,4.48,0,2.34-.82,4.33-2.47,5.95-1.65,1.63-3.7,2.44-6.17,2.44-1.65,0-3.22-.36-4.71-1.08-1.5-.72-2.74-1.7-3.72-2.96l2.31-2.62c1.88,2.12,3.86,3.17,5.97,3.17,1.47,0,2.72-.47,3.76-1.42s1.55-2.05,1.55-3.33c0-1.05-.34-1.98-1.03-2.81-.68-.8-2.23-1.82-4.62-3.04-2.58-1.33-4.33-2.64-5.26-3.93s-1.39-2.77-1.39-4.43c0-2.17.74-3.97,2.22-5.4,1.48-1.43,3.35-2.15,5.61-2.15,2.63,0,5.27,1.29,7.93,3.86Z" style="fill: #fff;"/>
      <path d="M522.1,467.89h3.67v4.93c1.28-1.82,2.59-3.15,3.94-3.99,1.86-1.12,3.81-1.68,5.85-1.68,1.38,0,2.69.27,3.94.81,1.24.54,2.26,1.26,3.05,2.16.79.9,1.47,2.19,2.05,3.87,1.22-2.24,2.75-3.94,4.58-5.1,1.83-1.16,3.8-1.74,5.91-1.74,1.97,0,3.71.5,5.22,1.49s2.63,2.39,3.36,4.17,1.1,4.46,1.1,8.02v15.58h-3.75v-15.58c0-3.06-.22-5.16-.65-6.31-.44-1.14-1.18-2.07-2.23-2.77s-2.31-1.05-3.78-1.05c-1.78,0-3.4.52-4.87,1.57-1.47,1.05-2.55,2.45-3.23,4.2-.68,1.75-1.02,4.67-1.02,8.76v11.17h-3.67v-14.61c0-3.44-.21-5.78-.64-7.01-.43-1.23-1.18-2.22-2.24-2.96s-2.33-1.11-3.8-1.11c-1.7,0-3.28.51-4.76,1.53-1.48,1.02-2.57,2.4-3.28,4.13-.71,1.73-1.06,4.38-1.06,7.95v12.09h-3.67v-28.53Z" style="fill: #fff;"/>
      <path d="M600.93,467.89v28.53h-3.62v-4.9c-1.54,1.87-3.26,3.28-5.18,4.22-1.91.94-4.01,1.42-6.28,1.42-4.04,0-7.49-1.46-10.34-4.39-2.86-2.93-4.29-6.49-4.29-10.69s1.44-7.62,4.33-10.54c2.88-2.92,6.35-4.38,10.41-4.38,2.34,0,4.46.5,6.36,1.49,1.9,1,3.56,2.49,5,4.48v-5.24h3.62ZM586.26,470.69c-2.04,0-3.93.5-5.66,1.51-1.73,1-3.1,2.41-4.13,4.23s-1.53,3.74-1.53,5.76.51,3.93,1.54,5.76c1.03,1.83,2.41,3.26,4.15,4.28,1.74,1.02,3.6,1.53,5.59,1.53s3.91-.51,5.71-1.52,3.18-2.38,4.15-4.11c.97-1.73,1.45-3.68,1.45-5.84,0-3.3-1.09-6.06-3.26-8.28-2.17-2.22-4.85-3.33-8.03-3.33Z" style="fill: #fff;"/>
      <path d="M610.46,456.14c.84,0,1.55.3,2.14.89.59.6.89,1.31.89,2.15s-.3,1.53-.89,2.12c-.59.6-1.31.89-2.14.89s-1.52-.3-2.12-.89c-.59-.59-.89-1.3-.89-2.12s.3-1.56.89-2.15c.59-.59,1.3-.89,2.12-.89ZM608.64,467.89h3.67v28.53h-3.67v-28.53Z" style="fill: #fff;"/>
      <path d="M634.29,471.01l-2.36,2.44c-1.96-1.91-3.88-2.86-5.76-2.86-1.19,0-2.21.39-3.06,1.18-.85.79-1.28,1.7-1.28,2.75,0,.93.35,1.81,1.05,2.65.7.86,2.17,1.86,4.42,3.02,2.73,1.42,4.59,2.78,5.57,4.09.96,1.33,1.44,2.82,1.44,4.48,0,2.34-.82,4.33-2.47,5.95-1.65,1.63-3.7,2.44-6.17,2.44-1.65,0-3.22-.36-4.71-1.08-1.5-.72-2.74-1.7-3.72-2.96l2.31-2.62c1.88,2.12,3.86,3.17,5.97,3.17,1.47,0,2.72-.47,3.76-1.42s1.55-2.05,1.55-3.33c0-1.05-.34-1.98-1.03-2.81-.68-.8-2.23-1.82-4.62-3.04-2.58-1.33-4.33-2.64-5.26-3.93s-1.39-2.77-1.39-4.43c0-2.17.74-3.97,2.22-5.4,1.48-1.43,3.35-2.15,5.61-2.15,2.63,0,5.27,1.29,7.93,3.86Z" style="fill: #fff;"/>
      <path d="M655.11,456.87h3.67v39.54h-3.67v-39.54Z" style="fill: #fff;"/>
      <path d="M679.91,467.15c4.4,0,8.04,1.59,10.93,4.77,2.63,2.9,3.94,6.34,3.94,10.31s-1.39,7.47-4.16,10.45c-2.78,2.98-6.34,4.47-10.7,4.47s-7.96-1.49-10.73-4.47c-2.78-2.98-4.16-6.46-4.16-10.45s1.31-7.38,3.94-10.28c2.89-3.2,6.54-4.8,10.95-4.8ZM679.9,470.75c-3.05,0-5.68,1.13-7.87,3.38-2.19,2.26-3.29,4.98-3.29,8.18,0,2.06.5,3.99,1.5,5.77s2.35,3.16,4.05,4.13c1.7.97,3.57,1.46,5.61,1.46s3.9-.49,5.61-1.46c1.7-.97,3.05-2.35,4.05-4.13,1-1.78,1.5-3.71,1.5-5.77,0-3.2-1.1-5.93-3.3-8.18-2.2-2.25-4.82-3.38-7.85-3.38Z" style="fill: #fff;"/>
      <path d="M701.57,467.89h3.67v5.11c1.47-1.96,3.09-3.42,4.88-4.39,1.78-.97,3.72-1.46,5.82-1.46s4.03.54,5.68,1.63c1.65,1.08,2.87,2.54,3.66,4.38.79,1.84,1.18,4.69,1.18,8.58v14.68h-3.67v-13.61c0-3.29-.14-5.48-.41-6.58-.43-1.89-1.24-3.31-2.45-4.26-1.21-.95-2.78-1.43-4.72-1.43-2.22,0-4.21.73-5.97,2.2-1.76,1.47-2.92,3.29-3.48,5.45-.35,1.42-.52,4-.52,7.76v10.46h-3.67v-28.53Z" style="fill: #fff;"/>
      <path d="M758.92,467.89h3.67v22.74c0,4-.35,6.93-1.05,8.78-.96,2.62-2.63,4.64-5.01,6.06-2.38,1.42-5.24,2.12-8.58,2.12-2.45,0-4.65-.35-6.59-1.04-1.95-.69-3.54-1.62-4.76-2.79-1.22-1.17-2.35-2.87-3.38-5.12h3.99c1.09,1.89,2.49,3.29,4.2,4.2,1.72.91,3.84,1.36,6.38,1.36s4.62-.47,6.34-1.4c1.72-.93,2.95-2.1,3.69-3.52.74-1.41,1.1-3.69,1.1-6.83v-1.47c-1.38,1.75-3.07,3.09-5.07,4.03-1.99.94-4.11,1.4-6.35,1.4-2.63,0-5.09-.65-7.4-1.95-2.31-1.3-4.09-3.06-5.35-5.26-1.26-2.2-1.89-4.62-1.89-7.26s.66-5.1,1.97-7.38c1.31-2.28,3.13-4.09,5.45-5.42,2.32-1.33,4.76-1.99,7.34-1.99,2.13,0,4.13.44,5.97,1.32s3.63,2.34,5.34,4.37v-4.96ZM748.09,470.69c-2.08,0-4.01.5-5.8,1.51s-3.18,2.39-4.2,4.17-1.52,3.69-1.52,5.76c0,3.13,1.05,5.72,3.15,7.76,2.1,2.05,4.82,3.07,8.16,3.07s6.09-1.01,8.14-3.04c2.05-2.03,3.08-4.69,3.08-8,0-2.15-.47-4.07-1.42-5.76-.94-1.69-2.28-3.02-4.01-4s-3.59-1.47-5.59-1.47Z" style="fill: #fff;"/>
      <path d="M794.48,486.95l3.09,1.63c-1.01,1.99-2.19,3.6-3.52,4.82-1.33,1.22-2.83,2.15-4.49,2.79-1.66.64-3.54.96-5.64.96-4.65,0-8.29-1.53-10.92-4.58-2.63-3.05-3.94-6.5-3.94-10.34,0-3.62,1.11-6.84,3.33-9.68,2.82-3.6,6.59-5.4,11.31-5.4s8.75,1.84,11.65,5.53c2.06,2.6,3.11,5.86,3.15,9.75h-25.67c.07,3.31,1.13,6.03,3.18,8.15s4.58,3.18,7.59,3.18c1.45,0,2.87-.25,4.24-.76,1.37-.5,2.54-1.18,3.5-2.01s2-2.19,3.12-4.05ZM794.48,479.27c-.49-1.96-1.2-3.52-2.14-4.69-.94-1.17-2.17-2.11-3.72-2.83-1.54-.72-3.16-1.08-4.86-1.08-2.8,0-5.21.9-7.22,2.7-1.47,1.31-2.58,3.28-3.33,5.9h21.27Z" style="fill: #fff;"/>
      <path d="M809.19,490.65c.89,0,1.65.31,2.28.94.63.63.94,1.4.94,2.31s-.31,1.66-.94,2.29c-.63.64-1.39.96-2.28.96s-1.65-.32-2.28-.96c-.63-.64-.94-1.4-.94-2.29s.31-1.68.94-2.31,1.39-.94,2.28-.94ZM811.06,456.87v29.89h-3.8v-29.89h3.8Z" style="fill: #fff;"/>
    </g>
  </g>
</svg>