<svg width="560" height="300" viewBox="0 0 560 300" fill="none" xmlns="http://www.w3.org/2000/svg">
<g clip-path="url(#clip0_513_634)">
<rect width="560" height="300" fill="white"/>
<rect width="245" height="300" fill="black"/>
<path d="M29.8185 276.834L32.8077 277.552L32.5146 278.563L29.8185 277.918V280.38H28.8807V277.698L25.8329 276.966V279.427H24.8951V276.746L21.9645 276.042L22.2575 275.031L24.8951 275.661V273.112L21.9645 272.408L22.2575 271.397L24.8951 272.027V269.566H25.8329V272.247L28.8807 272.98V270.518H29.8185V273.2L32.8077 273.918L32.5146 274.929L29.8185 274.284V276.834ZM25.8329 275.881L28.8807 276.614V274.064L25.8329 273.332V275.881ZM32.6758 264.299C32.6758 266.688 30.5951 268.212 27.3568 268.212C24.1478 268.212 22.0963 266.688 22.0963 264.299C22.0963 261.911 24.1478 260.387 27.3568 260.387C30.5951 260.387 32.6758 261.911 32.6758 264.299ZM31.5475 264.299C31.5475 262.688 29.9064 261.647 27.3568 261.647C24.8364 261.647 23.2246 262.688 23.2246 264.299C23.2246 265.911 24.8364 266.952 27.3568 266.952C29.9064 266.952 31.5475 265.911 31.5475 264.299ZM32.6758 254.927C32.6758 257.315 30.5951 258.839 27.3568 258.839C24.1478 258.839 22.0963 257.315 22.0963 254.927C22.0963 252.538 24.1478 251.014 27.3568 251.014C30.5951 251.014 32.6758 252.538 32.6758 254.927ZM31.5475 254.927C31.5475 253.315 29.9064 252.274 27.3568 252.274C24.8364 252.274 23.2246 253.315 23.2246 254.927C23.2246 256.538 24.8364 257.579 27.3568 257.579C29.9064 257.579 31.5475 256.538 31.5475 254.927ZM32.6758 245.554C32.6758 247.942 30.5951 249.466 27.3568 249.466C24.1478 249.466 22.0963 247.942 22.0963 245.554C22.0963 243.165 24.1478 241.641 27.3568 241.641C30.5951 241.641 32.6758 243.165 32.6758 245.554ZM31.5475 245.554C31.5475 243.942 29.9064 242.902 27.3568 242.902C24.8364 242.902 23.2246 243.942 23.2246 245.554C23.2246 247.166 24.8364 248.206 27.3568 248.206C29.9064 248.206 31.5475 247.166 31.5475 245.554ZM32.6758 236.181C32.6758 238.569 30.5951 240.093 27.3568 240.093C24.1478 240.093 22.0963 238.569 22.0963 236.181C22.0963 233.792 24.1478 232.269 27.3568 232.269C30.5951 232.269 32.6758 233.792 32.6758 236.181ZM31.5475 236.181C31.5475 234.569 29.9064 233.529 27.3568 233.529C24.8364 233.529 23.2246 234.569 23.2246 236.181C23.2246 237.793 24.8364 238.833 27.3568 238.833C29.9064 238.833 31.5475 237.793 31.5475 236.181ZM32.6758 226.808C32.6758 229.197 30.5951 230.721 27.3568 230.721C24.1478 230.721 22.0963 229.197 22.0963 226.808C22.0963 224.42 24.1478 222.896 27.3568 222.896C30.5951 222.896 32.6758 224.42 32.6758 226.808ZM31.5475 226.808C31.5475 225.196 29.9064 224.156 27.3568 224.156C24.8364 224.156 23.2246 225.196 23.2246 226.808C23.2246 228.42 24.8364 229.46 27.3568 229.46C29.9064 229.46 31.5475 228.42 31.5475 226.808Z" fill="white"/>
<rect width="246" height="300" transform="translate(174)" fill="white"/>
<path d="M203.818 276.834L206.808 277.552L206.515 278.563L203.818 277.918V280.38H202.881V277.698L199.833 276.966V279.427H198.895V276.746L195.964 276.042L196.258 275.031L198.895 275.661V273.112L195.964 272.408L196.258 271.397L198.895 272.027V269.566H199.833V272.247L202.881 272.98V270.518H203.818V273.2L206.808 273.918L206.515 274.929L203.818 274.284V276.834ZM199.833 275.881L202.881 276.614V274.064L199.833 273.332V275.881ZM206.515 266.512V267.743H196.258V260.753H197.386V266.512H200.712V261.193H201.84V266.512H206.515ZM206.515 257.669V258.899H196.258V251.91H197.386V257.669H200.712V252.35H201.84V257.669H206.515ZM206.515 248.825V250.056H196.258V243.067H197.386V248.825H200.712V243.506H201.84V248.825H206.515ZM206.515 239.982V241.213H196.258V234.223H197.386V239.982H200.712V234.663H201.84V239.982H206.515ZM206.515 231.139V232.369H196.258V225.38H197.386V231.139H200.712V225.82H201.84V231.139H206.515Z" fill="black"/>
<rect width="245" height="300" transform="translate(365)" fill="#046497"/>
<path d="M394.818 276.834L397.808 277.552L397.515 278.563L394.818 277.918V280.38H393.881V277.698L390.833 276.966V279.427H389.895V276.746L386.964 276.042L387.258 275.031L389.895 275.661V273.112L386.964 272.408L387.258 271.397L389.895 272.027V269.566H390.833V272.247L393.881 272.98V270.518H394.818V273.2L397.808 273.918L397.515 274.929L394.818 274.284V276.834ZM390.833 275.881L393.881 276.614V274.064L390.833 273.332V275.881ZM397.515 266.512V267.743H387.258V260.753H388.386V266.512H391.712V261.193H392.84V266.512H397.515ZM397.676 254.357C397.676 257.507 395.463 259.368 392.357 259.368C389.309 259.368 387.096 257.507 387.096 254.357C387.096 251.749 388.62 249.961 391.199 249.522V250.796C389.324 251.177 388.225 252.496 388.225 254.357C388.225 256.658 389.822 258.079 392.357 258.079C394.98 258.079 396.548 256.658 396.548 254.357C396.548 252.437 395.507 251.192 393.573 250.796V249.522C396.24 249.976 397.676 251.676 397.676 254.357ZM397.676 244.168C397.676 246.484 396.504 248.081 394.672 248.081C393.485 248.081 392.562 247.304 392.108 246.059C391.668 247.026 390.848 247.612 389.836 247.612C388.225 247.612 387.096 246.205 387.096 244.168C387.096 242.161 388.225 240.754 389.836 240.754C390.848 240.754 391.653 241.34 392.108 242.293C392.562 241.062 393.485 240.285 394.672 240.285C396.445 240.285 397.676 241.795 397.676 244.168ZM391.683 244.168C391.683 242.879 390.95 241.985 389.895 241.985C388.899 241.985 388.195 242.879 388.195 244.168C388.195 245.473 388.899 246.381 389.895 246.381C390.95 246.381 391.683 245.473 391.683 244.168ZM396.548 244.168C396.548 242.63 395.742 241.56 394.599 241.56C393.441 241.56 392.635 242.63 392.635 244.168C392.635 245.722 393.441 246.806 394.599 246.806C395.742 246.806 396.548 245.722 396.548 244.168ZM397.515 233.559V238.379H387.258V233.676C387.258 231.888 388.313 230.643 389.836 230.643C390.935 230.643 391.844 231.419 392.225 232.621C392.489 231.287 393.456 230.408 394.716 230.408C396.372 230.408 397.515 231.698 397.515 233.559ZM388.386 237.163H391.741V233.749C391.741 232.65 391.009 231.888 389.968 231.888C389.031 231.888 388.386 232.577 388.386 233.559V237.163ZM392.84 237.163H396.386V233.427C396.386 232.401 395.654 231.683 394.584 231.683C393.441 231.683 392.84 232.577 392.84 233.676V237.163ZM397.676 225.153C397.676 227.204 396.416 228.713 394.423 228.933V227.658C395.727 227.497 396.548 226.501 396.548 225.153C396.548 223.702 395.58 222.735 394.174 222.735C392.782 222.735 391.815 223.702 391.815 225.094C391.815 225.871 392.122 226.559 392.826 227.219V228.582L387.258 227.746V221.929H388.386V226.721L391.844 227.248C391.155 226.618 390.76 225.783 390.76 224.772C390.76 222.852 392.166 221.489 394.159 221.489C396.24 221.489 397.676 222.969 397.676 225.153ZM397.676 215.81C397.676 218.609 395.39 220.06 392.313 220.06C389.001 220.06 387.096 218.389 387.096 215.825C387.096 213.876 388.4 212.382 390.291 212.191V213.466C389.074 213.613 388.225 214.58 388.225 215.825C388.225 217.847 389.954 218.932 392.386 218.932C392.606 218.932 392.782 218.917 392.972 218.902C391.756 218.551 390.73 217.305 390.73 215.62C390.73 213.671 392.137 212.264 394.174 212.264C396.24 212.264 397.676 213.715 397.676 215.81ZM396.562 215.898C396.562 214.711 395.771 213.525 394.174 213.525C392.562 213.525 391.785 214.682 391.785 215.869C391.785 217.071 392.606 218.301 394.188 218.301C395.756 218.301 396.562 217.1 396.562 215.898Z" fill="white"/>
</g>
<defs>
<clipPath id="clip0_513_634">
<rect width="560" height="300" fill="white"/>
</clipPath>
</defs>
</svg>
