<svg width="333" height="185" viewBox="0 0 333 185" fill="none" xmlns="http://www.w3.org/2000/svg">
<rect width="111" height="185" fill="#D1FAC3"/>
<path d="M29.818 161.834L32.8072 162.552L32.5142 163.563L29.818 162.918V165.38H28.8802V162.698L25.8324 161.966V164.427H24.8946V161.746L21.964 161.042L22.257 160.031L24.8946 160.661V158.112L21.964 157.408L22.257 156.397L24.8946 157.027V154.566H25.8324V157.247L28.8802 157.98V155.518H29.818V158.2L32.8072 158.918L32.5142 159.929L29.818 159.284V161.834ZM25.8324 160.881L28.8802 161.614V159.064L25.8324 158.332V160.881ZM32.5142 149.124V152.743H22.257V149.124C22.257 146.178 24.3378 144.127 27.327 144.127C30.3895 144.127 32.5142 146.178 32.5142 149.124ZM23.3853 151.512H31.3859V149.05C31.3859 146.926 29.7154 145.431 27.327 145.431C25.1144 145.431 23.3853 146.926 23.3853 149.05V151.512ZM32.5142 139.166V140.396H24.5282C25.173 140.88 25.4953 141.671 25.4953 142.741V142.917H24.2938V142.741C24.2938 141.202 23.6344 140.382 22.4036 140.382H22.257V139.166H32.5142ZM32.5142 135.442V136.673H22.257V129.684H23.3853V135.442H26.7116V130.123H27.8398V135.442H32.5142ZM32.5142 128.735V130.01L22.257 125.79V124.545L32.5142 120.31V121.585L29.5835 122.786V127.534L32.5142 128.735ZM23.8249 125.16L28.4699 127.065V123.255L23.8249 125.16ZM32.6753 114.659C32.6753 117.809 30.4627 119.67 27.3563 119.67C24.3085 119.67 22.0958 117.809 22.0958 114.659C22.0958 112.05 23.6198 110.263 26.1987 109.823V111.098C24.3231 111.479 23.2241 112.798 23.2241 114.659C23.2241 116.959 24.8213 118.38 27.3563 118.38C29.9792 118.38 31.5471 116.959 31.5471 114.659C31.5471 112.739 30.5067 111.494 28.5725 111.098V109.823C31.2393 110.277 32.6753 111.977 32.6753 114.659ZM32.6753 104.441C32.6753 106.756 31.3419 108.324 29.2465 108.456V107.181C30.6532 107.093 31.5471 106.023 31.5471 104.426C31.5471 102.961 30.7704 102.008 29.5982 102.008C28.4553 102.008 27.7519 102.917 27.7519 104.47V105.847H26.7409V104.47C26.7409 103.254 26.0375 102.404 24.9971 102.404C23.9714 102.404 23.2241 103.239 23.2241 104.485C23.2241 105.76 24.03 106.712 25.2902 106.902V108.177C23.3413 107.914 22.0958 106.448 22.0958 104.411C22.0958 102.507 23.1948 101.173 24.748 101.173C25.9349 101.173 26.8434 101.95 27.1511 103.093C27.4882 101.627 28.4113 100.792 29.7301 100.792C31.4738 100.792 32.6753 102.243 32.6753 104.441Z" fill="#FC8B56"/>
<rect width="111" height="185" transform="translate(111)" fill="#2C4C8A"/>
<path d="M140.818 161.834L143.807 162.552L143.514 163.563L140.818 162.918V165.38H139.88V162.698L136.832 161.966V164.427H135.895V161.746L132.964 161.042L133.257 160.031L135.895 160.661V158.112L132.964 157.408L133.257 156.397L135.895 157.027V154.566H136.832V157.247L139.88 157.98V155.518H140.818V158.2L143.807 158.918L143.514 159.929L140.818 159.284V161.834ZM136.832 160.881L139.88 161.614V159.064L136.832 158.332V160.881ZM136.041 146.354C139.558 146.354 139.411 151.732 142.386 151.732V146.501H143.514V153.036H142.547C138.781 153.036 138.825 147.629 136.041 147.629C134.957 147.629 134.224 148.391 134.224 149.622C134.224 150.911 135.03 151.937 136.686 151.966V153.256C134.341 153.138 133.096 151.6 133.096 149.607C133.096 147.644 134.283 146.354 136.041 146.354ZM143.675 139.886C143.675 143.037 141.463 144.898 138.356 144.898C135.308 144.898 133.096 143.037 133.096 139.886C133.096 137.278 134.62 135.491 137.199 135.051V136.326C135.323 136.707 134.224 138.026 134.224 139.886C134.224 142.187 135.821 143.608 138.356 143.608C140.979 143.608 142.547 142.187 142.547 139.886C142.547 137.967 141.507 136.721 139.572 136.326V135.051C142.239 135.505 143.675 137.205 143.675 139.886ZM143.514 127.368V128.599H140.95V133.684H139.851L133.257 128.614V127.368H139.822V125.566H140.95V127.368H143.514ZM134.971 128.599L139.822 132.335V128.599H134.971ZM143.675 119.409C143.675 122.56 141.463 124.421 138.356 124.421C135.308 124.421 133.096 122.56 133.096 119.409C133.096 116.801 134.62 115.014 137.199 114.574V115.849C135.323 116.23 134.224 117.548 134.224 119.409C134.224 121.71 135.821 123.131 138.356 123.131C140.979 123.131 142.547 121.71 142.547 119.409C142.547 117.49 141.507 116.244 139.572 115.849V114.574C142.239 115.028 143.675 116.728 143.675 119.409ZM143.675 109.221C143.675 111.536 142.503 113.133 140.671 113.133C139.485 113.133 138.561 112.357 138.107 111.111C137.668 112.078 136.847 112.664 135.836 112.664C134.224 112.664 133.096 111.258 133.096 109.221C133.096 107.213 134.224 105.807 135.836 105.807C136.847 105.807 137.653 106.393 138.107 107.345C138.561 106.114 139.485 105.338 140.671 105.338C142.444 105.338 143.675 106.847 143.675 109.221ZM137.682 109.221C137.682 107.931 136.95 107.038 135.895 107.038C134.898 107.038 134.195 107.931 134.195 109.221C134.195 110.525 134.898 111.433 135.895 111.433C136.95 111.433 137.682 110.525 137.682 109.221ZM142.547 109.221C142.547 107.682 141.741 106.613 140.598 106.613C139.441 106.613 138.635 107.682 138.635 109.221C138.635 110.774 139.441 111.858 140.598 111.858C141.741 111.858 142.547 110.774 142.547 109.221ZM143.514 102.992V104.267L133.257 100.047V98.8015L143.514 94.5668V95.8416L140.584 97.0431V101.791L143.514 102.992ZM134.825 99.4169L139.47 101.322V97.512L134.825 99.4169Z" fill="white"/>
<rect width="111" height="185" transform="translate(222)" fill="#FC8B56"/>
<path d="M251.818 161.834L254.807 162.552L254.514 163.563L251.818 162.918V165.38H250.88V162.698L247.832 161.966V164.427H246.895V161.746L243.964 161.042L244.257 160.031L246.895 160.661V158.112L243.964 157.408L244.257 156.397L246.895 157.027V154.566H247.832V157.247L250.88 157.98V155.518H251.818V158.2L254.807 158.918L254.514 159.929L251.818 159.284V161.834ZM247.832 160.881L250.88 161.614V159.064L247.832 158.332V160.881ZM254.514 151.512V152.743H244.257V145.753H245.385V151.512H248.712V146.193H249.84V151.512H254.514ZM254.675 139.357C254.675 142.507 252.463 144.368 249.356 144.368C246.308 144.368 244.096 142.507 244.096 139.357C244.096 136.749 245.62 134.961 248.199 134.522V135.796C246.323 136.177 245.224 137.496 245.224 139.357C245.224 141.658 246.821 143.079 249.356 143.079C251.979 143.079 253.547 141.658 253.547 139.357C253.547 137.437 252.507 136.192 250.572 135.796V134.522C253.239 134.976 254.675 136.676 254.675 139.357ZM254.675 129.168C254.675 131.484 253.503 133.081 251.671 133.081C250.485 133.081 249.561 132.304 249.107 131.059C248.668 132.026 247.847 132.612 246.836 132.612C245.224 132.612 244.096 131.205 244.096 129.168C244.096 127.161 245.224 125.754 246.836 125.754C247.847 125.754 248.653 126.34 249.107 127.293C249.561 126.062 250.485 125.285 251.671 125.285C253.444 125.285 254.675 126.795 254.675 129.168ZM248.682 129.168C248.682 127.879 247.95 126.985 246.895 126.985C245.898 126.985 245.195 127.879 245.195 129.168C245.195 130.473 245.898 131.381 246.895 131.381C247.95 131.381 248.682 130.473 248.682 129.168ZM253.547 129.168C253.547 127.63 252.741 126.56 251.598 126.56C250.441 126.56 249.635 127.63 249.635 129.168C249.635 130.722 250.441 131.806 251.598 131.806C252.741 131.806 253.547 130.722 253.547 129.168ZM254.514 118.559V123.379H244.257V118.676C244.257 116.888 245.312 115.643 246.836 115.643C247.935 115.643 248.843 116.419 249.224 117.621C249.488 116.287 250.455 115.408 251.715 115.408C253.371 115.408 254.514 116.698 254.514 118.559ZM245.385 122.163H248.741V118.749C248.741 117.65 248.008 116.888 246.968 116.888C246.03 116.888 245.385 117.577 245.385 118.559V122.163ZM249.84 122.163H253.386V118.427C253.386 117.401 252.653 116.683 251.584 116.683C250.441 116.683 249.84 117.577 249.84 118.676V122.163ZM254.675 110.153C254.675 112.204 253.415 113.713 251.422 113.933V112.658C252.726 112.497 253.547 111.501 253.547 110.153C253.547 108.702 252.58 107.735 251.173 107.735C249.781 107.735 248.814 108.702 248.814 110.094C248.814 110.871 249.122 111.559 249.825 112.219V113.582L244.257 112.746V106.929H245.385V111.721L248.843 112.248C248.155 111.618 247.759 110.783 247.759 109.772C247.759 107.852 249.166 106.489 251.159 106.489C253.239 106.489 254.675 107.969 254.675 110.153ZM254.675 100.81C254.675 103.609 252.389 105.06 249.312 105.06C246.001 105.06 244.096 103.389 244.096 100.825C244.096 98.8763 245.4 97.3816 247.29 97.1912V98.466C246.074 98.6125 245.224 99.5796 245.224 100.825C245.224 102.847 246.953 103.932 249.386 103.932C249.605 103.932 249.781 103.917 249.972 103.902C248.756 103.551 247.73 102.305 247.73 100.62C247.73 98.6711 249.136 97.2644 251.173 97.2644C253.239 97.2644 254.675 98.7151 254.675 100.81ZM253.562 100.898C253.562 99.7115 252.77 98.5246 251.173 98.5246C249.561 98.5246 248.785 99.6822 248.785 100.869C248.785 102.071 249.605 103.301 251.188 103.301C252.756 103.301 253.562 102.1 253.562 100.898Z" fill="white"/>
</svg>
