<svg width="627" height="186" viewBox="0 0 627 186" fill="none" xmlns="http://www.w3.org/2000/svg">
<rect y="0.5" width="627" height="185" rx="20" fill="white"/>
<g clip-path="url(#clip0_214_553)">
<path d="M281.942 113.599C281.942 119.094 282.398 124.636 281.737 130.052C281.438 132.493 278.904 134.682 277.392 136.98C275.771 135.075 272.67 133.107 272.749 131.265C273.3 116.212 273.08 100.908 276.039 86.2803C277.235 80.36 285.168 75.0381 291.15 71.149C295.258 68.4723 300.216 71.8575 301.428 76.6756C302.593 81.3205 302.593 86.422 302.263 91.2558C301.57 101.16 299.98 111.001 299.508 120.889C299.398 123.093 302.404 125.439 303.978 127.722C305.757 125.392 309.062 123.062 309.094 120.715C309.267 103.348 314.446 87.7918 325.338 74.4398C327.432 71.8733 332.17 70.4404 335.664 70.4562C337.883 70.4562 341.425 73.7627 342.055 76.1717C343.377 81.3677 343.408 86.9573 343.581 92.4053C343.786 99.1915 343.629 105.994 343.581 112.78C343.534 118.684 346.006 121.298 352.27 120.652C355.025 120.369 357.953 121.881 360.802 122.573C359.039 125.156 357.764 128.352 355.418 130.194C347.737 136.272 337.6 133.076 335.396 122.983C333.24 113.126 333.397 102.766 332.296 92.6572C332.012 90.0277 330.863 87.4927 330.108 84.9104C328.376 87.0203 325.747 88.8783 325.071 91.2873C322.505 100.294 320.301 109.426 318.57 118.637C317.909 122.164 318.916 125.722 323.67 121.518C324.598 120.7 326.204 120.637 327.495 120.227C327.715 121.471 328.455 122.888 328.093 123.912C326.597 128.069 325.244 132.414 322.883 136.083C320.773 139.358 317.153 141.169 313.785 137.232C311.266 134.288 309.377 134.146 305.977 136.335C298.768 140.964 291.48 138.146 290.457 129.407C289.292 119.424 290.221 109.158 290.662 99.0341C290.851 94.6254 292.252 90.2796 292.771 85.8709C292.928 84.5326 291.984 83.0682 291.543 81.6669C289.953 82.2495 287.388 82.4227 286.947 83.4776C284.759 88.6578 282.54 93.964 281.485 99.4592C280.604 103.994 281.312 108.859 281.312 113.567C281.532 113.567 281.768 113.567 281.989 113.567L281.942 113.599Z" fill="#2C4C8A"/>
<path d="M150.65 101.049C152.224 93.4602 153.751 85.8552 155.372 78.2816C156.49 73.0227 160.031 72.1567 162.943 75.9356C166.201 80.1553 168.5 78.943 172.057 76.9905C173.71 76.0773 176.275 76.8488 178.416 76.8646C177.314 78.3761 176.512 80.36 175.048 81.352C166.926 86.8156 163.148 94.2947 163.777 104.041C164.36 113.173 165.178 122.29 165.383 131.438C165.446 133.816 164.076 137.862 162.581 138.256C160.456 138.823 156.49 137.484 155.309 135.658C152.46 131.296 149.989 131.375 145.77 133.579C139.6 136.776 133.949 134.288 129.337 129.895C125.591 126.321 123.859 126.762 121.451 131.407C117.311 139.405 109.52 139.547 105.49 131.359C102.924 126.163 100.941 119.629 101.697 114.087C103.271 102.309 105.427 90.2009 110.071 79.4153C112.699 73.3376 118.303 66.3939 127.936 66.9922C134.531 67.4016 135.775 70.5349 135.429 76.093C134.736 87.0203 134.232 97.9791 133.776 108.922C133.681 111.252 133.54 113.882 134.469 115.897C135.932 119.046 138.215 124.179 140.277 124.242C145.455 124.4 150.76 122.054 151.201 115.394C151.516 110.717 151.264 105.994 151.264 101.286C151.059 101.207 150.854 101.128 150.65 101.049ZM122.301 96.7825C121.86 96.6565 121.42 96.5463 120.963 96.4203C121.121 93.8066 121.42 91.2086 121.388 88.5949C121.372 87.5242 120.617 86.4692 120.192 85.3986C119.515 86.1386 118.445 86.7842 118.24 87.6344C116.162 96.4518 114.147 105.301 112.385 114.181C112.148 115.378 113.471 116.889 114.084 118.259C115.123 117.283 116.713 116.464 117.091 115.283C118.996 109.174 120.601 102.955 122.301 96.7825Z" fill="#2C4C8A"/>
<path d="M75.4413 71.2437C74.5126 78.6755 73.946 86.1704 72.4664 93.492C71.821 96.6568 69.3025 99.4437 67.634 102.404C64.297 99.428 60.9285 96.4836 57.6703 93.3975C57.2295 92.9724 57.623 91.76 57.261 91.1302C56.2064 89.2879 54.9629 87.5402 53.7981 85.761C53.1527 87.6504 52.0037 89.5241 51.9722 91.4293C51.7675 103.459 52.0351 115.504 51.5787 127.518C51.4842 130.006 49.013 132.399 47.6435 134.839C46.0222 132.304 42.9843 129.738 43.0001 127.203C43.1417 107.6 43.9288 87.9968 44.401 68.3781C44.5269 63.1821 44.8889 57.8286 43.913 52.7901C43.0473 48.3499 44.4797 45.5157 48.2417 45.5C50.6657 45.5 54.4592 48.0508 55.2934 50.3338C58.3156 58.6631 60.2989 67.3546 62.7859 75.8886C63.1952 77.2585 64.2183 78.4551 64.9424 79.7305C65.7609 78.3134 67.0831 76.9593 67.2877 75.4477C68.3109 67.9214 68.7516 60.3322 69.9951 52.8531C70.4044 50.3653 72.5766 48.161 73.9617 45.8307C76.4802 47.7044 80.5885 49.1529 81.2024 51.5147C83.5005 60.3322 85.5782 69.4173 86.0032 78.4709C86.7903 95.4129 86.4912 112.418 86.2708 129.391C86.2393 131.36 83.894 133.312 82.619 135.28C81.407 133.265 79.1561 131.281 79.1404 129.25C78.9515 115.142 79.3922 101.018 79.282 86.9104C79.2348 81.7616 78.2589 76.6129 77.6922 71.4642C76.9367 71.4012 76.1811 71.3224 75.4256 71.2595L75.4413 71.2437Z" fill="#2C4C8A"/>
<path d="M251.279 92.6418C250.87 97.9795 250.035 104.766 249.894 111.552C249.768 118.118 250.602 124.432 259.464 124.936C260.566 124.999 261.904 126.542 262.47 127.707C262.691 128.179 261.274 129.754 260.33 130.415C253.986 134.792 247.989 133.344 242.858 126.4C241.504 124.573 239.961 122.889 238.497 121.125C237.348 123.062 236.136 124.951 235.05 126.919C232.5 131.596 231.257 138.366 224.221 137.485C217.578 136.666 216.665 130.462 215.532 124.951C211.833 107.128 216.539 90.7366 223.796 74.7393C224.331 73.5741 225.039 71.9681 226.047 71.6217C228.408 70.7872 231.005 70.5982 233.492 70.1416C233.649 72.3932 234.358 74.7865 233.87 76.8806C230.848 89.5084 227.416 102.026 224.473 114.685C224.032 116.559 225.543 118.874 226.157 120.983C227.652 119.614 229.478 118.48 230.58 116.858C236.876 107.395 239.505 96.9245 238.56 85.5721C238.183 81.0059 236.262 74.9912 242.795 74.1409C249.831 73.2434 250.681 79.5259 251.247 84.895C251.468 86.9734 251.279 89.0833 251.279 92.6103V92.6418Z" fill="#2C4C8A"/>
<path d="M425.574 71.8738C435.79 71.7479 440.402 78.3767 436.624 87.8712C432.279 98.767 425.999 107.647 413.422 109.946C412.352 110.135 411.455 111.222 410.479 111.899C411.313 112.78 412.037 114.276 412.997 114.449C418.869 115.52 424.818 116.103 430.674 117.236C432.988 117.693 435.097 119.157 437.301 120.165C435.947 122.275 435.003 124.873 433.161 126.4C426.455 131.943 411.203 130.762 404.702 124.511C398.815 118.858 394.235 102.483 396.785 96.2162C402.923 81.0691 413.643 72.0155 425.605 71.8738H425.574ZM413.989 98.6253C419.183 95.0983 424.535 91.776 429.446 87.8869C430.579 86.9894 430.942 83.7301 430.202 82.2973C429.478 80.8959 426.943 79.8253 425.133 79.715C418.727 79.3214 410.589 84.9583 408.48 90.7841C406.969 94.9881 407.85 97.4758 413.973 98.6095L413.989 98.6253Z" fill="#2C4C8A"/>
<path d="M573 80.7543C570.906 86.9423 569.537 92.8625 566.956 98.1845C562.296 107.805 557.133 117.221 551.656 126.384C550.428 128.447 546.981 129.187 544.573 130.526C544.179 127.959 543.77 125.393 543.392 122.81C543.361 122.574 543.486 122.275 543.628 122.07C552.71 108.372 547.736 94.5945 543.896 80.8016C543.549 79.5419 542.888 78.2508 542.983 77.0227C543.093 75.3694 543.786 73.7634 544.226 72.1416C545.611 73.0076 547.453 73.5744 548.319 74.8026C550.097 77.3533 551.372 80.2505 552.805 83.0374C555.182 87.6981 557.826 86.8006 560.408 83.3208C561.478 81.8723 561.903 79.8568 563.146 78.6287C564.831 76.9597 567.003 75.8103 568.97 74.4404C570.277 76.4716 571.583 78.5185 573.016 80.7386L573 80.7543Z" fill="#2C4C8A"/>
<path d="M190.646 95.7436C191.245 92.0907 191.685 85.5248 193.496 79.3684C195.101 73.9362 199.933 73.5268 202.342 78.6126C204.372 82.9111 205.364 88.0283 205.458 92.8149C205.647 102.955 204.986 113.095 204.593 123.235C204.514 125.298 204.577 127.691 203.569 129.313C202.232 131.47 199.902 133.013 197.997 134.808C196.219 132.619 193.149 130.572 192.882 128.195C191.748 118.385 191.449 108.466 190.662 95.7278L190.646 95.7436Z" fill="#2C4C8A"/>
<path d="M531.319 81.7141C530.768 92.0273 526.487 96.5935 519.813 97.8217C512.777 99.1128 511.911 103.018 512.493 108.922C512.871 112.78 512.824 116.811 512.131 120.605C511.801 122.369 509.487 123.77 508.054 125.345C506.654 123.723 504.072 122.133 504.041 120.495C503.789 109.536 503.946 98.5617 504.292 87.6029C504.387 84.5168 504.765 81.7614 509.298 85.4458C511.313 87.0833 516.46 84.8317 520.175 84.3436C519.167 82.3124 518.333 80.1868 517.121 78.2974C515.862 76.3292 514.225 74.6129 512.761 72.7865C515.342 72.2669 518.868 70.4247 520.332 71.4639C524.881 74.7389 528.627 79.1004 531.319 81.7141Z" fill="#2C4C8A"/>
<path d="M480.776 99.9788C482.13 92.7674 479.58 56.2066 481.422 47.8458C481.768 46.2398 489.67 46.7909 490.819 45.5312C491.716 47.2003 490.913 75.2113 491.338 77.1008C491.873 79.5098 491.826 82.218 491.842 84.8003C491.842 96.5936 491.984 108.403 491.622 120.18C491.543 122.888 489.701 125.471 488.662 128.116C486.978 126.226 484.302 124.762 483.798 122.385C482.398 115.724 481.878 108.702 480.792 99.9788H480.776Z" fill="#2C4C8A"/>
<path d="M195.809 72.2042C195.872 71.8106 194.33 71.1808 194.361 70.4408C194.408 69.2284 194.267 68.3466 194.282 68.0632C194.298 67.0555 194.503 65.6699 195.29 63.0247C196.344 59.4505 196.219 58.6002 198.06 58.7419C199.335 58.8521 200.311 57.7342 201.082 58.6317C205.38 63.6387 200.012 70.6297 198.706 72.0783C195.557 72.2672 197.95 72.157 195.825 72.22L195.809 72.2042Z" fill="#2C4C8A"/>
</g>
<defs>
<clipPath id="clip0_214_553">
<rect width="530" height="94" fill="white" transform="translate(43 45.5)"/>
</clipPath>
</defs>
</svg>
