<svg width="177" height="186" viewBox="0 0 177 186" fill="none" xmlns="http://www.w3.org/2000/svg">
<rect width="177" height="185" transform="translate(0 0.5)" fill="#FC8B56"/>
<path d="M95.1601 80.2104C93.3558 81.1826 92.4441 82.6095 91.7727 83.6599C91.1873 84.5755 90.7144 85.3135 90.4918 86.4306C90.3742 87.0237 90.0569 89.0867 91.1696 90.9304C92.0863 92.4417 93.4013 92.8737 93.3532 94.1545C93.3316 94.4985 93.2285 94.8326 93.0523 95.1293C91.5287 98.0322 90.7662 99.4843 90.5677 99.9289C89.2742 102.814 90.0278 105.679 90.1884 106.303C90.3856 107.052 90.6537 108.027 91.4692 109.002C91.7095 109.29 92.893 110.648 94.8567 111.027C96.852 111.412 98.4388 110.552 100.051 109.677C100.051 109.677 100.81 109.236 104.042 106.377L104.279 106.084C104.976 107.075 105.509 108.171 105.857 109.33C105.96 109.68 106.028 109.993 106.297 110.338C106.86 111.054 108.047 111.581 109.168 111.219C110.465 110.794 110.944 109.408 110.978 108.514C111.016 107.556 110.551 106.905 109.919 105.912C108.96 104.405 108.079 102.85 107.28 101.252C107.448 100.185 107.82 99.1588 108.375 98.2299C109.17 96.9151 109.863 96.6469 110.264 95.3446C110.428 94.8094 110.753 93.7515 110.185 92.846C109.657 92.0009 108.677 91.8082 108.453 91.7641C108.327 91.7377 107.266 91.545 106.358 92.1508C106.129 92.3032 105.86 92.6382 105.324 93.3094C104.751 94.0248 104.899 93.9278 104.367 94.5978C103.771 95.3471 103.473 95.6053 103.435 96.1179C103.412 96.4214 103.502 96.5549 103.435 96.6066C103.277 96.7325 102.5 96.1872 100.021 93.5928C101.022 91.6785 102.063 89.6357 103.182 87.3713C103.537 86.6547 103.983 85.7341 104.079 84.452C104.136 83.7052 104.244 82.272 103.376 81.0668C102.134 79.3401 99.7564 79.2935 98.8839 79.2771C97.5837 79.2718 96.303 79.5928 95.1601 80.2104Z" fill="white"/>
<path d="M96.9694 85.1917C96.1564 85.8214 95.8934 86.703 95.7973 87.0216C95.625 87.4966 95.5843 88.0091 95.6797 88.5052C95.71 88.6399 95.882 89.4951 96.1854 89.5555C97.0137 89.7192 98.3792 84.8882 98.6372 84.5418C98.6372 84.5355 98.6549 84.5192 98.6486 84.5078C98.6119 84.426 97.6724 84.6476 96.9694 85.1917Z" fill="#FC8B56"/>
<path d="M97.248 98.0772C96.6114 98.9276 96.1005 99.8645 95.7306 100.859C95.3632 101.886 95.1626 102.964 95.1363 104.053C95.0984 105.51 95.412 105.732 95.5018 105.786C95.8545 105.995 96.3464 105.756 97.1961 105.33C98.8405 104.575 100.18 103.288 100.997 101.678L97.248 98.0772Z" fill="#FC8B56"/>
<path d="M32.6045 66.5037C33.9954 54.6263 34.2356 48.3683 33.7943 45.5221C33.7943 45.5221 33.0041 43.0549 34.2192 40.1318C34.6238 39.1583 35.433 38.6331 35.8023 38.4115C36.2246 38.1596 36.8138 38.0563 37.4132 37.953C38.0517 37.8435 38.2426 37.773 38.5929 37.982C38.78 38.0928 38.8306 38.1483 39.2377 38.6331C39.8105 39.3182 39.607 38.9895 39.9888 39.5689C40.8739 40.9126 40.8094 41.1267 41.0674 41.1809C41.5947 41.2905 42.2661 40.4832 43.117 39.4618C43.4546 39.0563 43.8441 38.6155 44.2108 38.5122C45.1528 38.2553 45.1035 38.2729 45.5448 38.1772C46.4387 37.9845 50.9818 36.8574 53.5284 38.016C54.889 38.6331 55.6577 39.584 56.3873 40.487C59.7318 44.6304 59.341 49.8418 60.2704 49.8418C60.4601 49.8418 60.5473 49.6227 61.0796 48.6064C61.0796 48.6064 62.3024 46.2689 63.3455 44.5763C64.1371 43.2904 64.6921 42.3912 65.772 41.4592C66.7317 40.6545 67.8238 40.0209 69.0001 39.5865C69.7115 39.303 70.4586 39.1183 71.2204 39.0374C72.0665 38.9491 72.9215 39.0036 73.7493 39.1986C74.4904 39.4026 75.1988 39.71 75.8533 40.1117C80.2789 42.8912 81.8948 49.9967 81.8948 49.9967C83.5854 57.4272 80.9617 61.2747 81.6786 67.243C81.9669 69.6447 81.5092 72.1169 81.9479 74.4959C82.0087 74.7822 81.9903 75.0794 81.8948 75.3561C81.3258 76.9115 77.8701 77.9089 75.6371 76.5916C73.5748 75.3737 73.3409 72.6459 73.2638 71.7555C73.1855 70.7979 73.2766 69.8341 73.5331 68.908C74.508 65.165 74.3866 61.4561 74.1805 55.2081C74.0401 50.9362 73.9036 47.7059 72.4002 47.2034C71.3772 46.8608 70.1558 47.9313 69.65 48.3847C63.2595 54.12 60.436 68.6183 59.6609 75.7919C59.6243 76.1269 58.6911 77.8535 57.6657 78.4568C55.3669 79.8106 52.5384 78.5248 51.3157 76.1609C50.6758 74.9279 50.9287 73.5161 51.2069 71.9708C51.4952 70.3701 52.1616 69.2757 52.178 68.908C52.3411 65.1965 52.6066 62.718 52.6092 52.4098C52.5913 50.8265 52.2805 49.2601 51.6925 47.789C51.2271 46.6228 50.71 45.3722 49.7503 45.1568C49.2104 45.0309 48.1735 45.1644 46.3527 47.5207C42.6492 52.314 41.998 58.1753 41.9272 58.8554C41.381 64.3187 42.1801 71.4897 40.578 74.7579C40.3234 75.2967 39.9571 75.7757 39.5033 76.1634C38.4032 77.0853 36.5951 77.5865 34.9728 76.9694C32.3933 75.9833 31.9609 72.8171 32.0026 72.2932C32.1518 70.5301 32.4477 70.7026 32.4338 68.4722" fill="white"/>
<path d="M133.373 87.6642C133.602 87.3796 135.584 86.2914 137.021 86.1101C138.76 85.8897 140.706 86.9816 141.038 88.5105C141.351 89.9601 140.113 91.319 139.546 91.9411C139.141 92.3838 138.678 92.7686 138.167 93.0847C135.081 95.0682 134.432 102.77 134.265 104.747C133.909 108.975 134.15 113.55 134.15 113.55C134.144 113.721 134.195 113.889 134.296 114.029C134.638 114.468 135.501 114.321 135.832 114.267C137.843 113.943 140.264 113.871 141.672 113.995C142.98 114.11 143.99 114.199 144.581 114.982C145.322 115.971 144.947 117.484 144.478 118.35C143.846 119.527 142.747 120.02 142.224 120.255C140.808 120.892 139.341 120.851 138.706 120.833C137.736 120.805 136.773 121.085 135.798 121.037C135.663 121.02 135.527 121.057 135.419 121.139C135.009 121.502 135.641 122.697 135.692 123.045C135.969 124.916 136.234 126.79 136.45 128.867C136.725 131.498 136.807 131.5 136.888 137.401C136.949 141.864 137.33 146.267 137.33 146.267C137.251 146.497 137.255 146.855 137.026 147.286C136.674 147.948 136.569 147.864 136.34 148.014C135.57 148.517 133.379 148.762 132.168 148.087C131.596 147.769 130.424 146.865 130.232 145.258C130.232 143.955 130.319 142.062 130.232 139.781C129.864 130.145 129.701 129.139 129.509 128.274C129.369 127.644 129.167 125.417 128.661 122.193C128.631 122.006 128.608 121.851 128.593 121.751C128.052 121.625 127.525 121.442 127.021 121.207C125.811 120.642 123.897 119.749 123.777 118.112C123.68 116.779 124.802 115.385 126.134 114.982C126.543 114.86 126.974 114.825 127.398 114.88C127.315 110.67 127.467 107.174 127.637 104.64C127.912 100.572 128.063 98.4888 128.799 96.067C129.747 92.9902 131.303 90.1332 133.375 87.6642" fill="white"/>
</svg>
