<?xml version="1.0" encoding="UTF-8"?>
<svg id="Camada_2" data-name="Camada 2" xmlns="http://www.w3.org/2000/svg" viewBox="0 0 58.86 28.52">
  <g id="Camada_1-2" data-name="Camada 1">
    <path d="M1.18,2.35c0,.12.03.21.08.28.05.07.12.1.21.1.08,0,.2-.05.35-.14.18-.1.36-.18.53-.24.17-.06.39-.08.66-.08s.51.03.68.1c.18.07.35.16.52.28.13.07.22.12.29.16.06.03.14.05.23.05.08,0,.16-.02.23-.05.07-.03.16-.08.28-.14.21-.12.42-.22.63-.29.21-.07.49-.11.83-.11.65,0,1.16.21,1.54.62.38.41.56.97.56,1.69v3.9h-.79v-3.66c0-.58-.13-1.03-.38-1.37-.26-.34-.6-.5-1.04-.5-.49,0-.87.17-1.16.5-.28.34-.43.79-.43,1.37v3.66h-.79v-3.66c0-.58-.13-1.03-.38-1.37-.26-.34-.6-.5-1.04-.5-.49,0-.87.17-1.16.5-.28.34-.43.79-.43,1.37v3.66H.38V2.35h.79Z" style="fill: #1d1d1b; stroke: #1d1d1b; stroke-miterlimit: 10; stroke-width: .14px;"/>
    <path d="M10.67,5.43c.36-.33.85-.53,1.48-.61l1.66-.2c.14-.02.24-.07.32-.16.08-.09.12-.21.12-.34v-.08c0-.37-.14-.66-.41-.86-.27-.21-.65-.31-1.14-.31-.35,0-.64.05-.87.14-.23.1-.39.22-.5.38-.1.16-.16.33-.17.51h-.79c0-.3.08-.57.24-.83.16-.26.41-.47.76-.63.35-.16.79-.24,1.33-.24.74,0,1.31.16,1.72.48.41.32.62.77.62,1.34v4.46h-.79c0-.12-.03-.21-.08-.28-.06-.07-.14-.1-.24-.1-.06,0-.12.01-.19.04-.07.03-.13.06-.2.1-.19.1-.39.19-.59.25-.2.06-.46.1-.79.1-.63,0-1.13-.17-1.49-.5s-.54-.8-.54-1.39c0-.5.18-.92.53-1.25ZM11.3,7.58c.25.22.6.32,1.04.32.57,0,1.03-.17,1.38-.52s.53-.81.53-1.37v-.26c0-.18-.05-.31-.14-.39-.1-.08-.24-.11-.42-.09l-1.4.19c-.42.06-.76.19-1,.41-.24.22-.36.49-.36.82,0,.38.12.68.37.9Z" style="fill: #1d1d1b; stroke: #1d1d1b; stroke-miterlimit: 10; stroke-width: .14px;"/>
    <path d="M17.63,2.35v.12c0,.13.02.23.07.29.05.07.12.1.2.1.05,0,.1-.01.15-.04.05-.03.11-.06.17-.09.18-.11.38-.2.6-.28.22-.07.51-.11.89-.11h.4v.74h-.4c-.71,0-1.24.17-1.58.5s-.51.89-.51,1.66v3.22h-.79V2.35h.79Z" style="fill: #1d1d1b; stroke: #1d1d1b; stroke-miterlimit: 10; stroke-width: .14px;"/>
    <path d="M22.37,8.06c-.27-.27-.41-.71-.41-1.31v-3.19c0-.17-.05-.3-.14-.4s-.23-.14-.4-.14h-.8v-.67h.8c.17,0,.3-.05.4-.14.1-.1.14-.23.14-.4V.44h.79v1.37c0,.17.05.3.14.4s.23.14.4.14h1.16v.67h-1.16c-.17,0-.3.05-.4.14-.1.1-.14.23-.14.4v3.19c0,.37.07.63.22.8s.39.25.71.25h.77v.67h-.77c-.61,0-1.05-.14-1.32-.41Z" style="fill: #1d1d1b; stroke: #1d1d1b; stroke-miterlimit: 10; stroke-width: .14px;"/>
    <path d="M25.8,5.43c.36-.33.85-.53,1.48-.61l1.66-.2c.14-.02.24-.07.32-.16.08-.09.12-.21.12-.34v-.08c0-.37-.14-.66-.41-.86-.27-.21-.65-.31-1.14-.31-.35,0-.64.05-.87.14-.23.1-.39.22-.5.38-.1.16-.16.33-.17.51h-.79c0-.3.08-.57.24-.83.16-.26.41-.47.76-.63.35-.16.79-.24,1.33-.24.74,0,1.31.16,1.72.48.41.32.62.77.62,1.34v4.46h-.79c0-.12-.03-.21-.08-.28-.06-.07-.14-.1-.24-.1-.06,0-.12.01-.19.04-.07.03-.13.06-.2.1-.19.1-.39.19-.59.25-.2.06-.46.1-.79.1-.63,0-1.13-.17-1.49-.5s-.54-.8-.54-1.39c0-.5.18-.92.53-1.25ZM26.43,7.58c.25.22.6.32,1.04.32.57,0,1.03-.17,1.38-.52s.53-.81.53-1.37v-.26c0-.18-.05-.31-.14-.39-.1-.08-.24-.11-.42-.09l-1.4.19c-.42.06-.76.19-1,.41-.24.22-.36.49-.36.82,0,.38.12.68.37.9Z" style="fill: #1d1d1b; stroke: #1d1d1b; stroke-miterlimit: 10; stroke-width: .14px;"/>
    <path d="M35.67.07v2.22c0,.15.03.26.08.34.06.07.14.11.24.11s.25-.06.43-.17c.19-.12.39-.21.59-.28.2-.07.47-.1.79-.1.5,0,.95.13,1.33.4.38.26.67.64.88,1.12.2.48.31,1.05.31,1.71s-.1,1.23-.31,1.71c-.2.48-.5.86-.88,1.12-.38.26-.82.4-1.33.4-.32,0-.58-.03-.79-.1-.2-.07-.4-.16-.59-.28-.18-.11-.33-.17-.43-.17s-.18.03-.24.1c-.06.07-.08.16-.08.28h-.79V.07h.79ZM36.18,7.28c.34.46.8.69,1.39.69s1.05-.23,1.39-.69c.34-.46.52-1.08.52-1.87s-.17-1.41-.52-1.87c-.34-.46-.81-.69-1.39-.69s-1.05.23-1.39.69-.51,1.08-.51,1.87.17,1.41.51,1.87Z" style="fill: #1d1d1b; stroke: #1d1d1b; stroke-miterlimit: 10; stroke-width: .14px;"/>
    <path d="M42.04,3.02c.49-.56,1.2-.83,2.12-.83.55,0,1.02.12,1.4.37.38.25.67.61.87,1.09.2.48.29,1.06.29,1.75v.13h-3.92c-.17,0-.3.05-.4.14-.1.1-.14.23-.14.4,0,.34.07.66.22.95.14.29.36.52.65.69.29.17.63.26,1.03.26.47,0,.83-.1,1.07-.29.24-.2.41-.42.5-.68.05-.12.08-.23.08-.34h.79c0,.3-.09.61-.26.91-.18.3-.45.56-.82.76-.37.2-.82.31-1.37.31-.92,0-1.63-.28-2.12-.84-.49-.56-.74-1.36-.74-2.4s.25-1.83.74-2.38ZM42.49,4.73c.1.09.23.13.4.13h2.33c.17,0,.3-.04.4-.13.1-.09.14-.21.14-.37,0-.24-.06-.48-.19-.71-.13-.23-.31-.42-.56-.57-.24-.15-.53-.22-.85-.22-.36,0-.68.07-.95.22-.28.15-.49.34-.64.57-.15.23-.22.47-.22.71,0,.16.05.28.14.37Z" style="fill: #1d1d1b; stroke: #1d1d1b; stroke-miterlimit: 10; stroke-width: .14px;"/>
    <path d="M48.93.07v8.4h-.79V.07h.79Z" style="fill: #1d1d1b; stroke: #1d1d1b; stroke-miterlimit: 10; stroke-width: .14px;"/>
    <path d="M51.49.07v8.4h-.79V.07h.79Z" style="fill: #1d1d1b; stroke: #1d1d1b; stroke-miterlimit: 10; stroke-width: .14px;"/>
    <path d="M53.64,7.8c-.51-.56-.76-1.36-.76-2.39s.25-1.83.76-2.39c.51-.56,1.23-.84,2.18-.84s1.67.28,2.19.85c.52.56.77,1.36.77,2.38s-.26,1.82-.77,2.38c-.52.56-1.25.85-2.19.85s-1.67-.28-2.18-.84ZM57.38,7.28c.38-.46.56-1.08.56-1.87s-.19-1.43-.56-1.88c-.38-.45-.9-.68-1.56-.68s-1.17.23-1.54.68c-.37.45-.56,1.08-.56,1.88s.19,1.42.56,1.87.89.68,1.54.68,1.18-.23,1.56-.68Z" style="fill: #1d1d1b; stroke: #1d1d1b; stroke-miterlimit: 10; stroke-width: .14px;"/>
    <path d="M.07,12.02h.79c0,.12.03.21.08.28.06.07.14.1.24.1s.25-.06.43-.17c.19-.12.39-.21.59-.28.2-.07.47-.1.79-.1.5,0,.95.13,1.33.4.38.26.67.64.88,1.12.2.48.31,1.05.31,1.71s-.1,1.23-.31,1.71c-.2.48-.5.86-.88,1.12-.38.26-.82.4-1.33.4-.32,0-.58-.03-.79-.1-.2-.07-.4-.16-.59-.28-.18-.11-.33-.17-.43-.17s-.18.04-.24.11c-.06.07-.08.18-.08.34v2.22H.07v-8.4ZM1.37,16.94c.34.46.8.69,1.39.69s1.05-.23,1.39-.69c.34-.46.52-1.08.52-1.87s-.17-1.41-.52-1.87c-.34-.46-.81-.69-1.39-.69s-1.05.23-1.39.69-.51,1.08-.51,1.87.17,1.41.51,1.87Z" style="fill: #1d1d1b; stroke: #1d1d1b; stroke-miterlimit: 10; stroke-width: .14px;"/>
    <path d="M7,15.1c.36-.33.85-.53,1.48-.61l1.66-.2c.14-.02.24-.07.32-.16.08-.09.12-.21.12-.34v-.08c0-.37-.14-.66-.41-.86-.27-.21-.65-.31-1.14-.31-.35,0-.64.05-.87.14-.23.1-.39.22-.5.38-.1.16-.16.33-.17.51h-.79c0-.3.08-.57.24-.83.16-.26.41-.47.76-.63.35-.16.79-.24,1.33-.24.74,0,1.31.16,1.72.48.41.32.62.77.62,1.34v4.46h-.79c0-.12-.03-.21-.08-.28-.06-.07-.14-.1-.24-.1-.06,0-.12.01-.19.04-.07.03-.13.06-.2.1-.19.1-.39.19-.59.25-.2.06-.46.1-.79.1-.63,0-1.13-.17-1.49-.5s-.54-.8-.54-1.39c0-.5.18-.92.53-1.25ZM7.63,17.25c.25.22.6.32,1.04.32.57,0,1.03-.17,1.38-.52s.53-.81.53-1.37v-.26c0-.18-.05-.31-.14-.39-.1-.08-.24-.11-.42-.09l-1.4.19c-.42.06-.76.19-1,.41-.24.22-.36.49-.36.82,0,.38.12.68.37.9Z" style="fill: #1d1d1b; stroke: #1d1d1b; stroke-miterlimit: 10; stroke-width: .14px;"/>
    <path d="M13.97,9.83v1.14h-.86v-1.14h.86ZM13.92,12.02v6.12h-.79v-6.12h.79Z" style="fill: #1d1d1b; stroke: #1d1d1b; stroke-miterlimit: 10; stroke-width: .14px;"/>
    <path d="M16.1,16.39c.02.22.08.43.2.62.12.19.3.34.54.46.24.12.55.17.93.17.51,0,.91-.09,1.21-.28.29-.19.44-.45.44-.77,0-.3-.11-.53-.32-.71-.22-.18-.55-.32-1.01-.43l-.98-.22c-.58-.13-1.01-.33-1.29-.6s-.41-.63-.41-1.08c0-.54.21-.95.63-1.25.42-.3,1-.44,1.75-.44.53,0,.96.08,1.3.24s.58.37.73.62c.15.26.22.54.22.84h-.79c-.02-.18-.07-.35-.17-.51-.1-.16-.26-.28-.47-.38-.21-.1-.48-.14-.81-.14-.5,0-.88.08-1.16.25-.28.17-.42.4-.42.71,0,.27.09.49.26.65.18.16.45.28.83.36l.98.2c.66.14,1.15.35,1.47.65s.47.69.47,1.18c0,.56-.21,1-.64,1.31-.43.32-1.03.47-1.79.47-.55,0-1.01-.1-1.39-.29-.37-.19-.64-.44-.82-.73-.17-.3-.26-.6-.26-.9h.79Z" style="fill: #1d1d1b; stroke: #1d1d1b; stroke-miterlimit: 10; stroke-width: .14px;"/>
    <path d="M51.18,18.74h-.79c0-.12-.03-.21-.08-.28-.06-.07-.14-.1-.24-.1s-.25.06-.43.17c-.19.12-.39.21-.59.28s-.47.1-.79.1c-.5,0-.95-.13-1.33-.4-.38-.26-.67-.64-.88-1.12-.2-.48-.31-1.05-.31-1.71s.1-1.23.31-1.71c.2-.48.5-.86.88-1.12.38-.26.82-.4,1.33-.4.32,0,.58.03.79.1s.4.16.59.28c.18.11.33.17.43.17s.18-.04.24-.11c.06-.07.08-.18.08-.34v-2.22h.79v8.4ZM49.88,13.81c-.34-.46-.8-.69-1.39-.69s-1.05.23-1.39.69c-.34.46-.52,1.08-.52,1.87s.17,1.41.52,1.87c.34.46.81.69,1.39.69s1.05-.23,1.39-.69c.34-.46.51-1.08.51-1.87s-.17-1.41-.51-1.87Z" style="fill: #1d1d1b; stroke: #1d1d1b; stroke-miterlimit: 10; stroke-width: .14px;"/>
    <path d="M53.31,13.28c.49-.56,1.2-.83,2.12-.83.55,0,1.02.12,1.4.37.38.25.67.61.87,1.09.2.48.29,1.06.29,1.75v.13h-3.92c-.17,0-.3.05-.4.14-.1.1-.14.23-.14.4,0,.34.07.66.22.95.14.29.36.52.65.69.29.17.63.26,1.03.26.47,0,.83-.1,1.07-.29.24-.2.41-.42.5-.68.05-.12.08-.23.08-.34h.79c0,.3-.09.61-.26.91-.18.3-.45.56-.82.76-.37.2-.82.31-1.37.31-.92,0-1.63-.28-2.12-.84-.49-.56-.74-1.36-.74-2.4s.25-1.83.74-2.38ZM53.76,14.99c.1.09.23.13.4.13h2.33c.17,0,.3-.04.4-.13.1-.09.14-.21.14-.37,0-.24-.06-.48-.19-.71-.13-.23-.31-.42-.56-.57-.24-.15-.53-.22-.85-.22-.36,0-.68.07-.95.22-.28.15-.49.34-.64.57-.15.23-.22.47-.22.71,0,.16.05.28.14.37Z" style="fill: #1d1d1b; stroke: #1d1d1b; stroke-miterlimit: 10; stroke-width: .14px;"/>
    <path d="M18.27,25.24c.36-.33.85-.53,1.48-.61l1.66-.2c.14-.02.24-.07.32-.16.08-.09.12-.21.12-.34v-.08c0-.37-.14-.66-.41-.86-.27-.21-.65-.31-1.14-.31-.35,0-.64.05-.87.14-.23.1-.39.22-.5.38-.1.16-.16.33-.17.51h-.79c0-.3.08-.57.24-.83.16-.26.41-.47.76-.63.35-.16.79-.24,1.33-.24.74,0,1.31.16,1.72.48.41.32.62.77.62,1.34v4.46h-.79c0-.12-.03-.21-.08-.28-.06-.07-.14-.1-.24-.1-.06,0-.12.01-.19.04-.07.03-.13.06-.2.1-.19.1-.39.19-.59.25-.2.06-.46.1-.79.1-.63,0-1.13-.17-1.49-.5s-.54-.8-.54-1.39c0-.5.18-.92.53-1.25ZM18.9,27.39c.25.22.6.32,1.04.32.57,0,1.03-.17,1.38-.52s.53-.81.53-1.37v-.26c0-.18-.05-.31-.14-.39-.1-.08-.24-.11-.42-.09l-1.4.19c-.42.06-.76.19-1,.41-.24.22-.36.49-.36.82,0,.38.12.68.37.9Z" style="fill: #1d1d1b; stroke: #1d1d1b; stroke-miterlimit: 10; stroke-width: .14px;"/>
    <path d="M25.19,19.88v8.4h-.79v-8.4h.79Z" style="fill: #1d1d1b; stroke: #1d1d1b; stroke-miterlimit: 10; stroke-width: .14px;"/>
    <path d="M27.78,22.16c0,.12.03.21.08.28.05.07.12.1.21.1.08,0,.2-.05.35-.14.18-.1.36-.18.53-.24.17-.06.39-.08.66-.08s.51.03.68.1c.18.07.35.16.52.28.13.07.22.12.29.16.06.03.14.05.23.05.08,0,.16-.02.23-.05.07-.03.16-.08.28-.14.21-.12.42-.22.63-.29.21-.07.49-.11.83-.11.65,0,1.16.21,1.54.62.38.41.56.97.56,1.69v3.9h-.79v-3.66c0-.58-.13-1.03-.38-1.37-.26-.34-.6-.5-1.04-.5-.49,0-.87.17-1.16.5-.28.34-.43.79-.43,1.37v3.66h-.79v-3.66c0-.58-.13-1.03-.38-1.37-.26-.34-.6-.5-1.04-.5-.49,0-.87.17-1.16.5-.28.34-.43.79-.43,1.37v3.66h-.79v-6.12h.79Z" style="fill: #1d1d1b; stroke: #1d1d1b; stroke-miterlimit: 10; stroke-width: .14px;"/>
    <path d="M37.48,22.82c.49-.56,1.2-.83,2.12-.83.55,0,1.02.12,1.4.37.38.25.67.61.87,1.09.2.48.29,1.06.29,1.75v.13h-3.92c-.17,0-.3.05-.4.14-.1.1-.14.23-.14.4,0,.34.07.66.22.95.14.29.36.52.65.69.29.17.63.26,1.03.26.47,0,.83-.1,1.07-.29.24-.2.41-.42.5-.68.05-.12.08-.23.08-.34h.79c0,.3-.09.61-.26.91-.18.3-.45.56-.82.76-.37.2-.82.31-1.37.31-.92,0-1.63-.28-2.12-.84-.49-.56-.74-1.36-.74-2.4s.25-1.83.74-2.38ZM37.93,24.53c.1.09.23.13.4.13h2.33c.17,0,.3-.04.4-.13.1-.09.14-.21.14-.37,0-.24-.06-.48-.19-.71-.13-.23-.31-.42-.56-.57-.24-.15-.53-.22-.85-.22-.36,0-.68.07-.95.22-.28.15-.49.34-.64.57-.15.23-.22.47-.22.71,0,.16.05.28.14.37Z" style="fill: #1d1d1b; stroke: #1d1d1b; stroke-miterlimit: 10; stroke-width: .14px;"/>
    <path d="M44.42,19.97v1.14h-.86v-1.14h.86ZM44.37,22.16v6.12h-.79v-6.12h.79Z" style="fill: #1d1d1b; stroke: #1d1d1b; stroke-miterlimit: 10; stroke-width: .14px;"/>
    <path d="M51.2,28.28h-.79c0-.12-.03-.21-.08-.28-.06-.07-.14-.1-.24-.1s-.25.06-.43.17c-.19.12-.39.21-.59.28s-.47.1-.79.1c-.5,0-.95-.13-1.33-.4-.38-.26-.67-.64-.88-1.12-.2-.48-.31-1.05-.31-1.71s.1-1.23.31-1.71c.2-.48.5-.86.88-1.12.38-.26.82-.4,1.33-.4.32,0,.58.03.79.1s.4.16.59.28c.18.11.33.17.43.17s.18-.04.24-.11c.06-.07.08-.18.08-.34v-2.22h.79v8.4ZM49.9,23.35c-.34-.46-.8-.69-1.39-.69s-1.05.23-1.39.69c-.34.46-.52,1.08-.52,1.87s.17,1.41.52,1.87c.34.46.81.69,1.39.69s1.05-.23,1.39-.69c.34-.46.51-1.08.51-1.87s-.17-1.41-.51-1.87Z" style="fill: #1d1d1b; stroke: #1d1d1b; stroke-miterlimit: 10; stroke-width: .14px;"/>
    <path d="M53.13,25.24c.36-.33.85-.53,1.48-.61l1.66-.2c.14-.02.24-.07.32-.16.08-.09.12-.21.12-.34v-.08c0-.37-.14-.66-.41-.86-.27-.21-.65-.31-1.14-.31-.35,0-.64.05-.87.14-.23.1-.39.22-.5.38-.1.16-.16.33-.17.51h-.79c0-.3.08-.57.24-.83.16-.26.41-.47.76-.63.35-.16.79-.24,1.33-.24.74,0,1.31.16,1.72.48.41.32.62.77.62,1.34v4.46h-.79c0-.12-.03-.21-.08-.28-.06-.07-.14-.1-.24-.1-.06,0-.12.01-.19.04-.07.03-.13.06-.2.1-.19.1-.39.19-.59.25-.2.06-.46.1-.79.1-.63,0-1.13-.17-1.49-.5s-.54-.8-.54-1.39c0-.5.18-.92.53-1.25ZM53.76,27.39c.25.22.6.32,1.04.32.57,0,1.03-.17,1.38-.52s.53-.81.53-1.37v-.26c0-.18-.05-.31-.14-.39-.1-.08-.24-.11-.42-.09l-1.4.19c-.42.06-.76.19-1,.41-.24.22-.36.49-.36.82,0,.38.12.68.37.9Z" style="fill: #1d1d1b; stroke: #1d1d1b; stroke-miterlimit: 10; stroke-width: .14px;"/>
    <line x1="22.35" y1="15.18" x2="43.53" y2="15.18" style="fill: #1d1d1b; stroke: #1d1d1b; stroke-miterlimit: 10; stroke-width: .71px;"/>
    <line x1=".2" y1="25.07" x2="15.31" y2="25.07" style="fill: #1d1d1b; stroke: #1d1d1b; stroke-miterlimit: 10; stroke-width: .71px;"/>
  </g>
</svg>