<svg width="1098" height="641" viewBox="0 0 1098 641" fill="none" xmlns="http://www.w3.org/2000/svg">
<rect width="1098" height="641" fill="white"/>
<path d="M329.376 381.44C312.768 381.44 303.072 369.536 303.072 354.176C303.072 337.472 314.304 327.584 329.088 327.584C343.008 327.584 352.416 336.128 353.376 348.8H342.24C341.184 341.792 336.192 337.28 328.992 337.28C320.352 337.28 314.592 343.808 314.592 354.176C314.592 365.312 320.928 371.744 329.376 371.744C336.288 371.744 341.088 367.328 342.24 360.032H353.376C352.032 373.184 342.912 381.44 329.376 381.44ZM373.526 380H362.198V329.12H371.318L372.662 339.104C375.926 332.192 381.878 328.544 390.326 328.544H392.246V339.584H390.326C379.766 339.584 373.526 345.248 373.526 354.848V380ZM417.938 381.44C405.842 381.44 398.834 373.856 398.834 362.816V329.12H410.162V362.336C410.162 368.096 414.194 371.456 420.242 371.456C428.018 371.456 432.626 366.368 432.722 359.84V329.12H444.05V380H434.93L434.066 372.608C431.09 378.08 425.042 381.44 417.938 381.44ZM471.004 365.792L460.06 399.104L451.324 396.416L461.884 363.008L471.004 365.792ZM522.157 381.44C508.429 381.44 498.541 370.304 498.541 354.272C498.541 338.528 508.237 327.584 521.773 327.584C528.973 327.584 534.925 330.56 538.477 335.36V308H549.805V380H540.685L539.629 370.976C536.749 377.408 530.413 381.44 522.157 381.44ZM524.269 371.84C532.621 371.84 538.477 364.544 538.477 354.176C538.477 344.096 532.717 337.088 524.461 337.088C516.013 337.088 510.157 344.192 510.157 354.368C510.157 364.64 515.917 371.84 524.269 371.84ZM585.03 381.44C569.478 381.44 558.822 370.304 558.822 354.752C558.822 337.952 569.862 327.584 584.07 327.584C598.47 327.584 608.07 337.664 608.358 354.176V356.864H570.15C570.918 365.792 576.486 371.84 585.126 371.84C590.982 371.84 595.398 368.96 597.126 363.872H608.166C605.574 374.816 597.03 381.44 585.03 381.44ZM570.63 348.896H596.646C595.206 341.6 590.694 337.184 584.07 337.184C577.35 337.184 572.358 341.6 570.63 348.896ZM649.432 380H638.104V329.12H647.224L648.568 339.104C651.832 332.192 657.784 328.544 666.232 328.544H668.152V339.584H666.232C655.672 339.584 649.432 345.248 649.432 354.848V380ZM691.56 381.056C679.848 381.056 672.168 375.392 672.264 365.888C672.36 353.984 684.168 351.488 694.056 350.336C701.736 349.472 707.4 349.184 707.496 345.152C707.4 340.16 703.56 336.896 697.032 336.896C690.312 336.896 685.512 340.544 684.84 345.824H673.416C674.472 335.072 684.072 327.584 697.224 327.584C710.952 327.584 718.536 335.072 718.536 345.92V368.96C718.536 370.4 719.304 371.168 721.032 371.168H723.816V380H718.44C713.256 380 710.088 377.888 709.224 374.048C709.032 373.568 708.84 372.896 708.744 372.32C705.768 377.792 700.2 381.056 691.56 381.056ZM693.864 372.128C701.64 372.128 707.496 367.712 707.496 360.896V353.792C705.576 356.768 700.68 357.44 695.304 358.112C688.968 358.88 683.688 359.744 683.688 365.12C683.688 369.536 687.24 372.128 693.864 372.128ZM762.587 302.528L735.515 324.608L729.371 317.696L756.347 295.712L762.587 302.528ZM742.619 380H731.291L731.387 329.12H742.715L742.619 380ZM792.66 380H752.34V369.632L779.604 339.104H753.204V329.12H792.276V339.488L764.916 369.92H792.66V380Z" fill="#A87872"/>
<path d="M454.932 274.545V250.545H459.705V253.477H459.92C460.133 253.008 460.439 252.53 460.841 252.045C461.25 251.553 461.78 251.144 462.432 250.818C463.091 250.485 463.909 250.318 464.886 250.318C466.159 250.318 467.333 250.652 468.409 251.318C469.485 251.977 470.345 252.973 470.989 254.307C471.633 255.633 471.955 257.295 471.955 259.295C471.955 261.242 471.64 262.886 471.011 264.227C470.39 265.561 469.542 266.572 468.466 267.261C467.398 267.943 466.201 268.284 464.875 268.284C463.936 268.284 463.136 268.129 462.477 267.818C461.826 267.508 461.292 267.117 460.875 266.648C460.458 266.17 460.14 265.689 459.92 265.205H459.773V274.545H454.932ZM459.67 259.273C459.67 260.311 459.814 261.216 460.102 261.989C460.39 262.761 460.807 263.364 461.352 263.795C461.898 264.22 462.561 264.432 463.341 264.432C464.129 264.432 464.795 264.216 465.341 263.784C465.886 263.345 466.299 262.739 466.58 261.966C466.867 261.186 467.011 260.288 467.011 259.273C467.011 258.265 466.871 257.379 466.591 256.614C466.311 255.848 465.898 255.25 465.352 254.818C464.807 254.386 464.136 254.17 463.341 254.17C462.553 254.17 461.886 254.379 461.341 254.795C460.803 255.212 460.39 255.803 460.102 256.568C459.814 257.333 459.67 258.235 459.67 259.273ZM480.159 268.33C479.045 268.33 478.053 268.136 477.182 267.75C476.311 267.356 475.621 266.777 475.114 266.011C474.614 265.239 474.364 264.277 474.364 263.125C474.364 262.155 474.542 261.341 474.898 260.682C475.254 260.023 475.739 259.492 476.352 259.091C476.966 258.689 477.663 258.386 478.443 258.182C479.231 257.977 480.057 257.833 480.92 257.75C481.936 257.644 482.754 257.545 483.375 257.455C483.996 257.356 484.447 257.212 484.727 257.023C485.008 256.833 485.148 256.553 485.148 256.182V256.114C485.148 255.394 484.92 254.837 484.466 254.443C484.019 254.049 483.383 253.852 482.557 253.852C481.686 253.852 480.992 254.045 480.477 254.432C479.962 254.811 479.621 255.288 479.455 255.864L474.977 255.5C475.205 254.439 475.652 253.523 476.318 252.75C476.985 251.97 477.845 251.371 478.898 250.955C479.958 250.53 481.186 250.318 482.58 250.318C483.549 250.318 484.477 250.432 485.364 250.659C486.258 250.886 487.049 251.239 487.739 251.716C488.436 252.193 488.985 252.807 489.386 253.557C489.788 254.299 489.989 255.189 489.989 256.227V268H485.398V265.58H485.261C484.981 266.125 484.606 266.606 484.136 267.023C483.667 267.432 483.102 267.754 482.443 267.989C481.784 268.216 481.023 268.33 480.159 268.33ZM481.545 264.989C482.258 264.989 482.886 264.848 483.432 264.568C483.977 264.28 484.405 263.894 484.716 263.409C485.027 262.924 485.182 262.375 485.182 261.761V259.909C485.03 260.008 484.822 260.098 484.557 260.182C484.299 260.258 484.008 260.33 483.682 260.398C483.356 260.458 483.03 260.515 482.705 260.568C482.379 260.614 482.083 260.655 481.818 260.693C481.25 260.777 480.754 260.909 480.33 261.091C479.905 261.273 479.576 261.519 479.341 261.83C479.106 262.133 478.989 262.511 478.989 262.966C478.989 263.625 479.227 264.129 479.705 264.477C480.189 264.818 480.803 264.989 481.545 264.989ZM501.699 268.341C499.903 268.341 498.358 267.977 497.062 267.25C495.775 266.515 494.782 265.477 494.085 264.136C493.388 262.788 493.04 261.193 493.04 259.352C493.04 257.557 493.388 255.981 494.085 254.625C494.782 253.269 495.763 252.212 497.028 251.455C498.301 250.697 499.794 250.318 501.506 250.318C502.657 250.318 503.729 250.504 504.722 250.875C505.722 251.239 506.593 251.788 507.335 252.523C508.085 253.258 508.669 254.182 509.085 255.295C509.502 256.402 509.71 257.697 509.71 259.182V260.511H494.972V257.511H505.153C505.153 256.814 505.002 256.197 504.699 255.659C504.396 255.121 503.975 254.701 503.438 254.398C502.907 254.087 502.29 253.932 501.585 253.932C500.85 253.932 500.199 254.102 499.631 254.443C499.07 254.777 498.631 255.227 498.312 255.795C497.994 256.356 497.831 256.981 497.824 257.67V260.523C497.824 261.386 497.983 262.133 498.301 262.761C498.627 263.39 499.085 263.875 499.676 264.216C500.267 264.557 500.968 264.727 501.778 264.727C502.316 264.727 502.809 264.652 503.256 264.5C503.703 264.348 504.085 264.121 504.403 263.818C504.722 263.515 504.964 263.144 505.131 262.705L509.608 263C509.381 264.076 508.915 265.015 508.21 265.818C507.513 266.614 506.612 267.235 505.506 267.682C504.407 268.121 503.138 268.341 501.699 268.341ZM512.778 268V265.114L521.324 254.534V254.409H513.074V250.545H527.153V253.693L519.131 264.011V264.136H527.449V268H512.778ZM542.602 250.545L545.807 256.648L549.091 250.545H554.057L549 259.273L554.193 268H549.25L545.807 261.966L542.42 268H537.42L542.602 259.273L537.602 250.545H542.602ZM573.724 250.545V254.182H562.952V250.545H573.724ZM565.418 268V249.284C565.418 248.019 565.664 246.97 566.156 246.136C566.656 245.303 567.338 244.678 568.202 244.261C569.065 243.845 570.046 243.636 571.145 243.636C571.887 243.636 572.565 243.693 573.179 243.807C573.8 243.92 574.262 244.023 574.565 244.114L573.702 247.75C573.512 247.689 573.277 247.633 572.997 247.58C572.724 247.527 572.444 247.5 572.156 247.5C571.444 247.5 570.948 247.667 570.668 248C570.387 248.326 570.247 248.784 570.247 249.375V268H565.418ZM576.773 268V244.727H581.614V253.477H581.761C581.973 253.008 582.28 252.53 582.682 252.045C583.091 251.553 583.621 251.144 584.273 250.818C584.932 250.485 585.75 250.318 586.727 250.318C588 250.318 589.174 250.652 590.25 251.318C591.326 251.977 592.186 252.973 592.83 254.307C593.473 255.633 593.795 257.295 593.795 259.295C593.795 261.242 593.481 262.886 592.852 264.227C592.231 265.561 591.383 266.572 590.307 267.261C589.239 267.943 588.042 268.284 586.716 268.284C585.777 268.284 584.977 268.129 584.318 267.818C583.667 267.508 583.133 267.117 582.716 266.648C582.299 266.17 581.981 265.689 581.761 265.205H581.545V268H576.773ZM581.511 259.273C581.511 260.311 581.655 261.216 581.943 261.989C582.231 262.761 582.648 263.364 583.193 263.795C583.739 264.22 584.402 264.432 585.182 264.432C585.97 264.432 586.636 264.216 587.182 263.784C587.727 263.345 588.14 262.739 588.42 261.966C588.708 261.186 588.852 260.288 588.852 259.273C588.852 258.265 588.712 257.379 588.432 256.614C588.152 255.848 587.739 255.25 587.193 254.818C586.648 254.386 585.977 254.17 585.182 254.17C584.394 254.17 583.727 254.379 583.182 254.795C582.644 255.212 582.231 255.803 581.943 256.568C581.655 257.333 581.511 258.235 581.511 259.273ZM602.003 268.33C600.889 268.33 599.897 268.136 599.026 267.75C598.154 267.356 597.465 266.777 596.957 266.011C596.457 265.239 596.207 264.277 596.207 263.125C596.207 262.155 596.385 261.341 596.741 260.682C597.098 260.023 597.582 259.492 598.196 259.091C598.81 258.689 599.507 258.386 600.287 258.182C601.075 257.977 601.901 257.833 602.764 257.75C603.779 257.644 604.598 257.545 605.219 257.455C605.84 257.356 606.291 257.212 606.571 257.023C606.851 256.833 606.991 256.553 606.991 256.182V256.114C606.991 255.394 606.764 254.837 606.31 254.443C605.863 254.049 605.226 253.852 604.401 253.852C603.529 253.852 602.836 254.045 602.321 254.432C601.806 254.811 601.465 255.288 601.298 255.864L596.821 255.5C597.048 254.439 597.495 253.523 598.162 252.75C598.829 251.97 599.688 251.371 600.741 250.955C601.802 250.53 603.029 250.318 604.423 250.318C605.393 250.318 606.321 250.432 607.207 250.659C608.101 250.886 608.893 251.239 609.582 251.716C610.279 252.193 610.829 252.807 611.23 253.557C611.632 254.299 611.832 255.189 611.832 256.227V268H607.241V265.58H607.105C606.825 266.125 606.45 266.606 605.98 267.023C605.51 267.432 604.946 267.754 604.287 267.989C603.628 268.216 602.866 268.33 602.003 268.33ZM603.389 264.989C604.101 264.989 604.73 264.848 605.276 264.568C605.821 264.28 606.249 263.894 606.56 263.409C606.87 262.924 607.026 262.375 607.026 261.761V259.909C606.874 260.008 606.666 260.098 606.401 260.182C606.143 260.258 605.851 260.33 605.526 260.398C605.2 260.458 604.874 260.515 604.548 260.568C604.223 260.614 603.927 260.655 603.662 260.693C603.094 260.777 602.598 260.909 602.173 261.091C601.749 261.273 601.42 261.519 601.185 261.83C600.95 262.133 600.832 262.511 600.832 262.966C600.832 263.625 601.071 264.129 601.548 264.477C602.033 264.818 602.647 264.989 603.389 264.989ZM626.781 260.568V250.545H631.622V268H626.974V264.83H626.793C626.399 265.852 625.743 266.674 624.827 267.295C623.918 267.917 622.808 268.227 621.497 268.227C620.33 268.227 619.304 267.962 618.418 267.432C617.531 266.902 616.838 266.148 616.338 265.17C615.846 264.193 615.596 263.023 615.588 261.659V250.545H620.429V260.795C620.437 261.826 620.713 262.64 621.259 263.239C621.804 263.837 622.535 264.136 623.452 264.136C624.035 264.136 624.58 264.004 625.088 263.739C625.596 263.466 626.005 263.064 626.315 262.534C626.634 262.004 626.789 261.348 626.781 260.568ZM640.335 244.727V268H635.494V244.727H640.335Z" fill="#6B7C89"/>
</svg>
