<?xml version="1.0" encoding="UTF-8"?>
<svg id="Camada_2" xmlns="http://www.w3.org/2000/svg" xmlns:xlink="http://www.w3.org/1999/xlink" version="1.1" viewBox="0 0 566.9 566.9">
  <!-- Generator: Adobe Illustrator 29.5.1, SVG Export Plug-In . SVG Version: 2.1.0 Build 141)  -->
  <defs>
    <style>
      .st0 {
        fill: none;
      }

      .st1 {
        fill: #9b7c77;
      }

      .st2 {
        fill: #eceade;
      }

      .st3 {
        stroke-width: .7px;
      }

      .st3, .st4 {
        fill: #1d1d1b;
        opacity: .2;
        stroke: #1d1d1b;
        stroke-miterlimit: 10;
      }

      .st4 {
        stroke-width: .1px;
      }

      .st5 {
        fill: #b5b8a9;
      }

      .st6 {
        clip-path: url(#clippath);
      }
    </style>
    <clipPath id="clippath">
      <rect class="st0" y="0" width="566.9" height="566.9"/>
    </clipPath>
  </defs>
  <g id="Camada_1-2">
    <g class="st6">
      <g>
        <rect class="st2" y="0" width="566.9" height="566.9"/>
        <path class="st1" d="M39.6,52.9c-1.9.2-6.2.8-10.4,3.7-3.4,2.4-5.3,5.2-6.1,6.8-2.4,2.9-4.9,6.5-7.2,10.8-3.1,5.6-5.1,10.7-6.4,15.1-.4,2-.8,4.6-.8,7.5,0,3.1.4,5.8.8,8,.5,2.1,1.6,5.3,4.1,8.7,2.5,3.5,5.4,5.7,7.3,6.9,4.8,5.6,9.5,11.3,14.3,16.9l13.9,9.2c2.9,1.2,8.1,2.9,14.6,2.7,3.3-.1,6-.7,8.2-1.3,3.1-1.6,6.8-3.8,10.7-7.1,4.8-4.1,8-8.2,10.1-11.4,2.6-2.1,5.7-5.1,8.7-9.1,2.7-3.6,4.4-7,5.6-9.8.6-2.1,1.2-5,1.2-8.4,0-3.8-.8-7-1.5-9.2-.6-1.3-1.4-2.8-2.4-4.3-2.4-3.5-5.1-6-7.3-7.6-1.7-1.1-3.4-2.2-5.1-3.5-3.9-2.8-7.3-5.7-10.3-8.4-6.1-4.3-12.3-8.6-18.4-12.9-1.4-1-4.2-2.9-8.4-3.6-2.8-.5-5.2-.2-6.8,0-2.7.2-5.5.3-8.2.5h0Z"/>
        <path class="st1" d="M100.4-2.2c-1.8.6-5.8,2.2-9.1,6-2.7,3.1-3.8,6.3-4.2,8-1.5,3.4-3,7.4-4.2,12.1-1.6,6.1-2.2,11.6-2.3,16.1,0,2.1.4,4.6,1.1,7.5.8,3,1.9,5.6,2.9,7.5,1,1.9,2.9,4.8,6.2,7.5,3.4,2.8,6.7,4.3,8.9,5,6.1,4.4,12.1,8.8,18.2,13.1l15.9,5.7c3.2.5,8.6,1,14.9-.7,3.1-.9,5.7-2.1,7.6-3.2,2.6-2.2,5.7-5.3,8.6-9.3,3.6-5,5.7-9.8,6.9-13.4,1.9-2.6,4.2-6.2,6.1-10.8,1.6-4.1,2.5-7.8,2.9-10.8,0-2.2-.1-5.1-1.1-8.4-1-3.7-2.6-6.6-3.9-8.6-.9-1.1-2.1-2.4-3.4-3.6-3.2-2.9-6.5-4.6-9.1-5.7-1.9-.7-3.9-1.4-5.9-2.2-4.5-1.8-8.6-3.8-12.2-5.8-7.1-2.8-14.1-5.6-21.2-8.3-1.6-.7-4.9-1.9-9.1-1.6-2.9.2-5.1,1-6.6,1.6-2.6.8-5.2,1.6-7.9,2.3h0Z"/>
        <path class="st1" d="M487,141c-.4-1.8-1.4-5.7-4.9-9.4-2.8-3-6-4.5-7.8-5.1-3.3-1.9-7.4-4-12-5.8-6.2-2.4-11.8-3.8-16.5-4.7-2.2-.2-4.9-.3-8,0-3.3.3-6.1.9-8.4,1.5-2.1.7-5.5,2-8.8,4.6-3.5,2.7-5.5,5.6-6.7,7.5l-16.6,14.9-8.4,13.9c-1,2.9-2.4,7.9-1.5,13.9.4,3,1.3,5.6,2.1,7.6,1.9,2.7,4.7,6.1,8.5,9.4,4.7,4.1,9.4,6.8,13,8.4,2.4,2.2,5.9,4.9,10.4,7.3,4,2.2,7.8,3.5,10.9,4.3,2.3.4,5.4.6,9,.3,4.1-.4,7.3-1.4,9.6-2.3,1.4-.7,2.8-1.5,4.3-2.6,3.5-2.5,5.9-5.4,7.4-7.6,1-1.7,2-3.4,3.2-5.1,2.6-3.9,5.3-7.4,8-10.4,4-6.1,8-12.3,12-18.4,1-1.4,2.7-4.2,3.1-8.2.2-2.7-.2-4.9-.7-6.4-.4-2.6-.8-5.1-1.2-7.7h0Z"/>
        <path class="st1" d="M390.2,366.6c1.9.5,6.1,1.3,11.1,0,4.1-1.1,6.9-3.2,8.2-4.4,3.3-2,7-4.5,10.8-7.7,5-4.2,8.8-8.4,11.6-12,1.2-1.8,2.5-4,3.5-6.8,1.2-2.9,1.8-5.6,2.2-7.8.3-2.1.5-5.5-.6-9.5-1.1-4.1-3-7.1-4.3-8.9-2.4-6.8-4.8-13.7-7.1-20.5l-9.7-13.1c-2.3-2.1-6.5-5.4-12.7-7.3-3.1-1-5.9-1.3-8.2-1.4-3.5.5-7.8,1.3-12.7,3.1-6,2.2-10.6,5.1-13.7,7.4-3.2,1.1-7.2,2.9-11.5,5.7-3.8,2.5-6.7,5.1-8.8,7.3-1.3,1.8-2.9,4.3-4.2,7.5-1.4,3.6-1.8,6.8-2,9.1,0,1.4.3,3.1.7,4.8.9,4.1,2.6,7.3,4,9.5,1.2,1.5,2.4,3.2,3.5,4.9,2.6,3.9,4.8,7.7,6.6,11.2,4.2,6,8.3,12.1,12.5,18.1.9,1.4,2.9,4.1,6.5,6.1,2.5,1.4,4.8,1.9,6.4,2.2l7.9,2.2h0Z"/>
        <path class="st5" d="M401.6,285c0,.2,0,.6.1,1.2,0,.2-.1.6,0,.8.6.6,1.9,0,2.2,1,0,.2.1,1.9,0,2.1-.1.3-.7.6-1,1-1,1.5.3,1.5.7,2.5.1.4,0,.8,0,1.1.3.6,1,.6.5,1.7-.7,1.3-2.9-.5-4-.7-.5.9,0,1.8,0,2.6,0,.4.1,2.7,0,2.8-.2.6-.7.6-1.2.6l.2.5c-2.5-1.3-2.2-3.9-3-6.1-.8.5-3.6,4.5-4.4,4.1l-1.6-1.8c.4-.6-.1-1.2-.1-1.7,0-.6.7-1.3.9-2-1.5-.6-3.6.1-4.9-1-.9-.8-1-2.6-.2-3.3,0,0,1.8,0,2.2-.2,2.6-1.5-.4-2.5-.6-3.5,0-.4.3-1.1.2-1.7l1.9-.8c.7.4,3.1,1.9,3.8,1.9.2,0,1-1,1.6-1.2.7-.4,2.2-.3,3,0,.3-1.1.7-.7,1.1-.8.3-.1.4-.4.8-.4.8,0,1.5.7,1.7,1.4h0Z"/>
        <path class="st1" d="M527.2,311.3c-1-1.1-3.5-3.5-8.2-4.9-3.8-1.1-7.2-.9-9.1-.7-3.8-.1-8.3,0-13.3.4-6.6.6-12.3,1.7-16.9,2.9-2.1.7-4.6,1.6-7.3,3-2.9,1.4-5.2,2.9-7,4.2-1.7,1.3-4.2,3.5-6.2,6.6-2.1,3.2-2.8,6.1-3.1,7.9-3.1,5.6-6.1,11.3-9.2,16.9l-2.2,13.1c.2,2.4,1,6.5,4.1,10.5,1.6,2,3.4,3.5,5,4.6,2.8,1.2,6.7,2.6,11.4,3.5,6,1.2,11.3,1.3,15.2,1.1,3.1.7,7.3,1.3,12.4,1.3,4.5,0,8.5-.5,11.6-1,2.2-.6,5.2-1.6,8.3-3.2,3.5-1.8,6.1-3.8,7.8-5.2,1-1,2-2.2,2.9-3.5,2.2-3.1,3.2-6,3.7-8.2.2-1.6.5-3.2.9-4.9.8-3.8,1.9-7.3,3.1-10.4,1.2-5.9,2.4-11.8,3.6-17.7.3-1.4.8-4-.4-7-.8-2-2.2-3.4-3.1-4.3-1.4-1.7-2.8-3.3-4.2-5h0Z"/>
        <path class="st1" d="M329.6,179.1c-1.8.6-5.8,2.2-9.1,6-2.7,3.1-3.8,6.3-4.2,8-1.5,3.4-3,7.4-4.2,12.1-1.6,6.1-2.2,11.6-2.4,16.1,0,2.1.4,4.6,1.1,7.5.8,3,1.9,5.6,2.9,7.5,1,1.9,2.9,4.8,6.2,7.5,3.4,2.8,6.7,4.3,8.9,5,6.1,4.4,12.1,8.8,18.2,13.1l15.9,5.7c3.2.5,8.6,1,14.9-.7,3.1-.9,5.7-2.1,7.6-3.2,2.6-2.2,5.7-5.3,8.6-9.3,3.6-5,5.7-9.8,6.9-13.4,2-2.6,4.2-6.2,6.1-10.8,1.6-4.1,2.5-7.8,2.9-10.8,0-2.2-.1-5.1-1.1-8.4-1-3.7-2.6-6.6-3.9-8.6-.9-1.1-2.1-2.4-3.4-3.6-3.2-2.9-6.5-4.6-9.1-5.7-1.9-.7-3.9-1.4-5.9-2.2-4.5-1.8-8.6-3.8-12.2-5.8-7.1-2.8-14.1-5.6-21.2-8.3-1.6-.7-4.9-1.9-9.1-1.6-2.9.2-5.1,1-6.6,1.6l-7.9,2.3h0Z"/>
        <path class="st5" d="M356.8,226.9c-.2-.2-.4-.5-.9-.9-.2-.2-.2-.6-.5-.6-.8-.2-1.6,1-2.4.3-.2-.1-1.2-1.5-1.3-1.7,0-.4.2-.9.2-1.4,0-1.8-1.1-1.1-2.1-1.7-.3-.2-.4-.7-.7-.8-.6-.4-1.2,0-1.4-1.1-.2-1.4,2.7-1.1,3.7-1.5-.1-1-1-1.5-1.5-2.1-.2-.3-1.7-2.1-1.7-2.3-.2-.6.2-.8.6-1.2l-.4-.3c2.8-.2,4.2,2,6.1,3.5.3-.9.3-5.6,1.2-5.7l2.4.7c0,.7.8.9,1.1,1.3.3.6.2,1.5.5,2.1,1.6-.3,2.9-2,4.6-1.8,1.2.1,2.4,1.6,2.1,2.7,0,.1-1.5.9-1.7,1.3-1.2,2.6,1.8,1.9,2.6,2.6.3.3.4,1.1.8,1.5l-1.1,1.7c-.8,0-3.7.1-4.3.5-.2.1-.3,1.3-.5,1.9-.4.7-1.7,1.4-2.5,1.6.4,1.1-.1.9-.5,1.3-.2.2,0,.5-.4.7-.6.4-1.7.2-2.2-.3h0Z"/>
        <path class="st5" d="M445.5,200.8c-.2-.2-.4-.5-.9-.9-.2-.2-.2-.6-.5-.6-.8-.2-1.6,1-2.4.3-.2-.1-1.2-1.5-1.3-1.7,0-.4.2-.9.2-1.4,0-1.8-1.1-1.1-2.1-1.7-.3-.2-.4-.7-.7-.8-.6-.4-1.2,0-1.4-1.1-.2-1.4,2.7-1.1,3.7-1.5-.1-1-1-1.5-1.5-2.1-.2-.3-1.7-2.1-1.7-2.3-.2-.6.2-.8.6-1.2l-.4-.3c2.8-.2,4.2,2,6.1,3.5.3-.9.3-5.6,1.2-5.7l2.4.7c0,.7.8.9,1.1,1.3.3.6.2,1.5.5,2.1,1.6-.3,2.9-2,4.6-1.8,1.2.1,2.4,1.6,2.1,2.7,0,.1-1.5.9-1.7,1.3-1.2,2.6,1.8,1.9,2.6,2.6.3.3.4,1.1.8,1.5l-1.1,1.7c-.8,0-3.7.1-4.3.5-.2.1-.3,1.3-.5,1.9-.4.7-1.7,1.4-2.5,1.6.4,1.1-.1.9-.5,1.3-.2.2,0,.5-.4.7-.6.4-1.7.2-2.2-.3h0Z"/>
        <g>
          <path class="st1" d="M520.2,195.8c1.4-1.3,4.7-3.9,9.7-5,4.2-.9,7.6-.4,9.5,0,3.9.2,8.4.8,13.4,1.8,6.5,1.4,12,3.3,16.3,5.2,1.9,1,4.2,2.4,6.6,4.3,2.5,2,4.5,4.1,5.9,5.8,1.3,1.7,3.2,4.6,4.4,8.6,1.2,4.1,1.1,7.6.8,9.7,1.5,7.1,2.9,14.1,4.4,21.2l-1.7,15.9c-.9,2.9-2.9,7.7-7.3,12.2-2.2,2.2-4.5,3.9-6.4,5-3.2,1.2-7.5,2.4-12.7,3-6.4.8-11.9.4-15.8-.2-3.3.5-7.8.8-13,.3-4.6-.4-8.5-1.4-11.5-2.4-2.1-.9-4.8-2.4-7.5-4.7-3.1-2.5-5.1-5.1-6.4-7.1-.7-1.3-1.4-2.8-1.9-4.5-1.3-4-1.5-7.6-1.4-10.2.2-1.9.4-3.9.5-5.9.3-4.6.2-8.9,0-12.8.5-7.2,1-14.4,1.5-21.6,0-1.7.4-4.9,2.5-8.4,1.5-2.3,3.2-3.9,4.4-4.8,1.9-1.9,3.8-3.7,5.7-5.6h0Z"/>
          <path class="st5" d="M517.3,267.2c.3,0,.6-.2,1.3-.3.3,0,.6-.4.8-.3.8.3.7,1.7,1.8,1.6.2,0,2-.5,2.1-.7.3-.2.4-.8.7-1.2,1.2-1.4,1.6-.3,2.8-.3.4,0,.8-.3,1.1-.3.7,0,1,.7,1.8-.1,1-1-1.5-2.4-2.1-3.3.7-.7,1.8-.7,2.6-.9.4-.1,2.7-.8,2.8-.9.5-.4.3-.8.2-1.3h.5c-2.2-1.7-4.6-.7-7.1-.5.3-.9,3.3-4.8,2.5-5.3l-2.4-.8c-.5.6-1.2.3-1.7.5-.6.3-1.1,1.1-1.7,1.4-1.1-1.1-1.2-3.2-2.6-4-1-.5-3,0-3.4,1,0,.1.7,1.6.6,2-.6,2.8-2.6.5-3.7.7-.4,0-1,.7-1.6.7l-.2,2c.6.5,3,2.1,3.2,2.7,0,.2-.6,1.2-.7,1.8-.1.8.5,2.1,1,2.6-1,.7-.4.8-.4,1.3,0,.3-.2.5-.1.8.2.7,1.2,1.1,2,1h0Z"/>
        </g>
        <path class="st1" d="M-46.1,195.8c1.4-1.3,4.7-3.9,9.7-5,4.2-.9,7.6-.4,9.5,0,3.9.2,8.4.8,13.4,1.8,6.5,1.4,12,3.3,16.3,5.2,1.9,1,4.2,2.4,6.6,4.3,2.5,2,4.5,4.1,5.9,5.8,1.3,1.7,3.2,4.6,4.4,8.6,1.2,4.1,1.1,7.6.8,9.7,1.5,7.1,2.9,14.1,4.4,21.2l-1.7,15.9c-.9,2.9-2.9,7.7-7.3,12.2-2.2,2.2-4.5,3.9-6.4,5-3.2,1.2-7.5,2.4-12.7,3-6.4.8-11.9.4-15.8-.2-3.4.5-7.8.8-13,.3-4.6-.4-8.5-1.4-11.5-2.4-2.1-.9-4.8-2.4-7.5-4.7-3.1-2.5-5.1-5.1-6.4-7.1-.7-1.3-1.3-2.8-1.9-4.5-1.3-4-1.5-7.6-1.4-10.2.2-1.9.4-3.9.5-5.9.3-4.6.2-8.9,0-12.8.5-7.2,1-14.4,1.5-21.6,0-1.7.4-4.9,2.5-8.4,1.5-2.3,3.2-3.9,4.5-4.8,1.9-1.9,3.8-3.7,5.7-5.6h0Z"/>
        <path class="st1" d="M93.7,346.8c1.8.5,6,1.5,11.1.4,4.2-1,7-2.9,8.4-4,3.4-1.9,7.2-4.2,11.1-7.3,5.2-4,9.1-8,12.1-11.5,1.2-1.7,2.6-3.9,3.9-6.6,1.3-2.9,2.1-5.5,2.5-7.7.4-2.1.7-5.5-.2-9.5-.9-4.2-2.7-7.2-3.9-9-2.1-6.9-4.1-13.9-6.2-20.8l-9.1-13.5c-2.2-2.2-6.2-5.6-12.3-7.8-3.1-1.1-5.8-1.6-8.1-1.8-3.5.3-7.9,1-12.8,2.6-6.1,2-10.8,4.7-14,6.9-3.2,1-7.4,2.6-11.8,5.2-3.9,2.4-7,4.9-9.2,7-1.4,1.7-3.1,4.2-4.5,7.4-1.5,3.5-2.1,6.7-2.4,9,0,1.4.1,3.1.4,4.8.7,4.1,2.3,7.4,3.6,9.7,1.1,1.6,2.2,3.3,3.3,5.1,2.4,4,4.4,7.9,6,11.5,3.9,6.2,7.8,12.4,11.7,18.6.8,1.5,2.7,4.2,6.2,6.4,2.4,1.5,4.7,2.1,6.3,2.4,2.6.9,5.2,1.7,7.8,2.6h0Z"/>
        <path class="st5" d="M101.5,292.1c0,.2.1.6.4,1.2.1.2,0,.6.2.8.7.5,1.9-.3,2.4.6.1.2.5,1.9.5,2,0,.4-.6.7-.7,1.2-.7,1.7.6,1.5,1.2,2.4.2.3.1.8.3,1,.4.6,1.1.5.8,1.5-.4,1.4-3,0-4.1,0-.3.9.3,1.8.5,2.5,0,.4.7,2.6.6,2.7,0,.6-.5.7-1.1.9l.3.4c-2.7-.8-3-3.4-4.2-5.4-.7.7-2.6,5.1-3.5,4.9l-2-1.5c.2-.7-.4-1.1-.5-1.6,0-.6.4-1.5.4-2.1-1.6-.3-3.5.8-5,0-1-.6-1.6-2.4-.9-3.2,0,0,1.8-.3,2.1-.6,2.2-1.9-.9-2.4-1.3-3.4-.2-.4,0-1.2-.2-1.7l1.7-1.1c.8.2,3.4,1.3,4.1,1.1.2,0,.8-1.1,1.3-1.5.6-.5,2.1-.7,2.9-.6,0-1.2.5-.8.9-1,.2-.1.3-.4.7-.5.8-.2,1.6.4,1.9,1h0Z"/>
        <path class="st1" d="M134.4,191.7c-1.8.6-5.8,2.2-9.1,6-2.7,3.1-3.8,6.3-4.2,8-1.5,3.4-3,7.4-4.2,12.1-1.6,6.1-2.2,11.6-2.3,16.1,0,2.1.4,4.6,1.1,7.5.8,3,1.9,5.6,2.9,7.5,1,1.9,2.9,4.8,6.2,7.5,3.4,2.8,6.7,4.3,8.9,5,6.1,4.4,12.1,8.8,18.2,13.1l15.9,5.7c3.2.5,8.6,1,14.9-.7,3.1-.9,5.7-2.1,7.6-3.2,2.6-2.2,5.7-5.3,8.6-9.3,3.6-5,5.7-9.8,6.9-13.4,1.9-2.6,4.2-6.2,6.1-10.8,1.6-4.1,2.5-7.8,2.9-10.8,0-2.2-.1-5.1-1.1-8.4-1-3.7-2.6-6.6-3.9-8.6-.9-1.1-2.1-2.4-3.4-3.6-3.2-2.9-6.5-4.6-9.1-5.7-1.9-.7-3.9-1.4-5.9-2.2-4.5-1.8-8.6-3.8-12.2-5.8-7.1-2.8-14.1-5.6-21.2-8.3-1.6-.7-4.9-1.9-9.1-1.6-2.9.2-5.1,1-6.6,1.6-2.6.8-5.2,1.6-7.9,2.3h0Z"/>
        <path class="st5" d="M161.6,239.4c-.2-.2-.4-.5-.9-.9-.2-.2-.2-.6-.5-.6-.8-.2-1.6,1-2.4.3-.2-.1-1.2-1.5-1.3-1.7,0-.4.2-.9.2-1.4,0-1.8-1.1-1.1-2.1-1.7-.3-.2-.4-.7-.7-.8-.6-.4-1.2,0-1.4-1.1-.2-1.4,2.7-1.1,3.7-1.5-.1-1-1-1.5-1.5-2.1-.2-.3-1.7-2.1-1.7-2.3-.2-.6.2-.8.6-1.2l-.4-.3c2.8-.2,4.2,2,6.1,3.5.3-.9.3-5.6,1.2-5.7l2.4.7c0,.7.8.9,1.1,1.3.3.6.2,1.5.5,2.1,1.6-.3,2.9-2,4.6-1.8,1.2.1,2.4,1.6,2.1,2.7,0,.1-1.5.9-1.7,1.3-1.2,2.6,1.8,1.9,2.6,2.6.3.3.4,1.1.8,1.5l-1.1,1.7c-.8,0-3.7.1-4.3.5-.2.1-.3,1.3-.5,1.9-.4.7-1.7,1.4-2.4,1.6.4,1.1-.1.9-.4,1.3-.2.2,0,.5-.4.7-.6.4-1.7.2-2.2-.3h0Z"/>
        <path class="st1" d="M131.8,99.4c2.8-2,8.7-5.8,17.3-7.2,8.4-1.4,15.2.2,18.5,1.2,4.1,1.5,10.2,4.3,16.3,9.5,7.5,6.4,11.2,13.2,13,17.1.5,1.5,1.1,3.5,1.2,6,0,2.1-.2,3.8-.5,5.2.2,7.7.4,15.4.6,23.1-.7,1.9-1.8,4.3-3.7,6.8-2.9,3.9-6.3,6.4-8.7,7.8-2.7,1.4-6.4,3.1-11,4.3-4.9,1.3-9.2,1.8-12.6,1.9-2.6.6-5.2,1.2-7.8,1.8-2.5.6-5.1,1.2-7.6,1.8-1.6.3-7.2,1.2-12.8-1.7-2.8-1.4-4.6-3.3-5.5-4.5-2-.8-4.8-2.2-7.6-4.5-4.9-4.2-6.7-8.9-7.3-11.2-.9-4.3-1.2-20.8,0-25.1,1.3-4.9,2.6-9.6,4.6-14,1.9-4.4,5.8-11.1,13.7-18h0Z"/>
        <path class="st5" d="M154.4,142.9c-.2-.2-.4-.5-.8-.8-.2-.1-.2-.5-.4-.6-.7-.1-1.4.9-2.2.3-.2-.1-1.1-1.3-1.1-1.5,0-.3.2-.8.2-1.2,0-1.6-1-1-1.9-1.5-.3-.2-.4-.6-.6-.8-.5-.3-1.1,0-1.2-1-.2-1.3,2.4-1,3.3-1.4-.1-.9-.9-1.3-1.4-1.9-.2-.3-1.5-1.9-1.5-2-.1-.5.2-.8.6-1.1l-.4-.3c2.5-.2,3.7,1.8,5.4,3.1.3-.8.2-5,1.1-5.1l2.2.6c0,.6.8.8,1,1.2.3.5.2,1.3.4,1.9,1.4-.3,2.6-1.8,4.1-1.6,1.1.1,2.1,1.4,1.9,2.4,0,.1-1.4.8-1.5,1.2-1.1,2.3,1.6,1.6,2.3,2.3.3.2.4,1,.8,1.3l-1,1.5c-.7,0-3.3,0-3.8.4-.2.1-.2,1.2-.5,1.6-.3.6-1.5,1.3-2.2,1.4.4,1-.1.8-.4,1.2-.1.2,0,.5-.4.7-.6.4-1.5.2-2-.2h0Z"/>
        <path class="st1" d="M408,28.5c2.9-2.1,9.2-6.2,18.4-7.7,8.9-1.5,16.1.2,19.6,1.2,4.3,1.6,10.9,4.6,17.3,10.1,8,6.8,11.9,14,13.8,18.2.6,1.6,1.1,3.7,1.2,6.4,0,2.2-.2,4.1-.6,5.5.2,8.2.4,16.3.6,24.5-.7,2-1.9,4.6-3.9,7.3-3.1,4.2-6.7,6.8-9.2,8.3-2.9,1.5-6.8,3.3-11.7,4.6-5.2,1.4-9.8,1.9-13.3,2-2.8.7-5.5,1.3-8.3,1.9-2.7.6-5.4,1.3-8.1,1.9-1.7.3-7.6,1.2-13.6-1.8-3-1.5-4.8-3.5-5.9-4.8-2.2-.8-5.1-2.3-8.1-4.8-5.2-4.4-7.1-9.5-7.8-11.9-1-4.6-1.2-22.1,0-26.7,1.4-5.2,2.8-10.2,4.8-14.9,2.1-4.7,6.1-11.8,14.6-19.2h0Z"/>
        <path class="st1" d="M318.5,88c2.8-2,8.7-5.8,17.3-7.2,8.4-1.4,15.2.2,18.5,1.2,4.1,1.5,10.2,4.3,16.3,9.5,7.5,6.4,11.2,13.2,13,17.1.5,1.5,1.1,3.5,1.2,6,0,2.1-.2,3.8-.5,5.2.2,7.7.4,15.4.5,23.1-.7,1.9-1.8,4.3-3.7,6.8-2.9,3.9-6.3,6.4-8.7,7.8-2.7,1.4-6.4,3.1-11,4.3-4.9,1.3-9.2,1.8-12.5,1.9-2.6.6-5.2,1.2-7.8,1.8-2.5.6-5.1,1.2-7.6,1.8-1.6.3-7.2,1.2-12.8-1.7-2.8-1.4-4.5-3.3-5.5-4.5-2-.8-4.8-2.2-7.6-4.5-4.9-4.2-6.7-8.9-7.3-11.2-.9-4.3-1.2-20.8,0-25.1,1.3-4.9,2.6-9.6,4.5-14,2-4.4,5.8-11.1,13.7-18Z"/>
        <path class="st5" d="M341.1,131.5c-.2-.2-.4-.5-.8-.8-.2-.1-.2-.5-.4-.6-.7-.1-1.4.9-2.2.3-.2-.1-1.1-1.3-1.1-1.5,0-.3.2-.8.2-1.2,0-1.6-1-1-1.9-1.5-.3-.2-.4-.6-.6-.8-.5-.3-1.1,0-1.2-1-.2-1.3,2.4-1,3.3-1.4-.1-.9-.9-1.3-1.4-1.9-.2-.3-1.5-1.9-1.5-2-.1-.5.2-.8.5-1.1l-.4-.3c2.5-.2,3.7,1.8,5.4,3.1.3-.8.2-5,1.1-5.1l2.2.6c0,.7.8.8,1,1.2.3.5.2,1.3.4,1.9,1.4-.3,2.6-1.8,4.1-1.6,1,.1,2.1,1.4,1.9,2.4,0,0-1.4.8-1.5,1.2-1.1,2.3,1.6,1.7,2.3,2.3.3.2.4,1,.8,1.3l-1,1.5c-.7,0-3.3,0-3.8.4-.2.1-.2,1.2-.5,1.6-.3.6-1.5,1.3-2.2,1.4.4,1-.1.8-.4,1.2-.1.2,0,.5-.4.7-.6.4-1.5.2-2-.2h0Z"/>
        <g>
          <path class="st1" d="M511,104.2c2.8-2,8.7-5.8,17.3-7.2,8.4-1.4,15.2.2,18.5,1.2,4.1,1.5,10.2,4.3,16.3,9.5,7.5,6.4,11.2,13.2,13,17.1.5,1.5,1.1,3.5,1.2,6,0,2.1-.2,3.8-.5,5.2.2,7.7.4,15.4.5,23.1-.7,1.9-1.8,4.3-3.7,6.8-2.9,3.9-6.3,6.4-8.7,7.8-2.7,1.4-6.4,3.1-11,4.3-4.9,1.3-9.2,1.8-12.5,1.9-2.6.6-5.2,1.2-7.8,1.8-2.5.6-5.1,1.2-7.6,1.8-1.6.3-7.2,1.2-12.8-1.7-2.8-1.4-4.5-3.3-5.5-4.5-2-.8-4.8-2.2-7.6-4.5-4.9-4.2-6.7-8.9-7.3-11.2-.9-4.3-1.2-20.8,0-25.1,1.3-4.9,2.6-9.6,4.5-14,2-4.4,5.8-11.1,13.7-18h0Z"/>
          <path class="st5" d="M519.4,131.5c-.2-.2-.3-.5-.8-.8-.2-.1-.2-.5-.4-.6-.7-.1-1.4.9-2.2.3-.2-.1-1.1-1.3-1.2-1.5,0-.3.2-.8.2-1.2,0-1.6-1-1-1.9-1.5-.3-.2-.4-.6-.6-.8-.5-.3-1.1,0-1.2-1-.2-1.3,2.4-1,3.3-1.4,0-.9-.9-1.3-1.4-1.9-.2-.3-1.5-1.9-1.5-2-.1-.5.2-.8.6-1.1l-.4-.3c2.5-.2,3.7,1.8,5.4,3.1.3-.8.2-5,1.1-5.1l2.2.6c0,.7.8.8,1,1.2.3.5.2,1.3.4,1.9,1.4-.3,2.6-1.8,4.1-1.6,1,.1,2.2,1.4,1.9,2.4,0,0-1.3.8-1.5,1.2-1.1,2.3,1.6,1.7,2.3,2.3.3.2.3,1,.8,1.3l-1,1.5c-.7,0-3.3,0-3.8.4-.2.1-.2,1.2-.5,1.6-.3.6-1.5,1.3-2.2,1.4.4,1-.1.8-.4,1.2-.1.2,0,.5-.4.7-.6.4-1.5.2-2-.2h0Z"/>
        </g>
        <path class="st1" d="M-56.1,104.2c2.8-2,8.7-5.8,17.3-7.2,8.4-1.4,15.2.2,18.5,1.2,4.1,1.5,10.2,4.3,16.3,9.5,7.5,6.4,11.2,13.2,13,17.1.5,1.5,1.1,3.5,1.2,6,0,2.1-.2,3.8-.5,5.2.2,7.7.4,15.4.6,23.1-.7,1.9-1.8,4.3-3.7,6.8-2.9,3.9-6.3,6.4-8.7,7.8-2.7,1.4-6.4,3.1-11,4.3-4.9,1.3-9.2,1.8-12.5,1.9-2.6.6-5.2,1.2-7.8,1.8-2.5.6-5.1,1.2-7.6,1.8-1.6.3-7.2,1.2-12.8-1.7-2.8-1.4-4.5-3.3-5.5-4.5-2-.8-4.8-2.2-7.6-4.5-4.9-4.2-6.7-8.9-7.3-11.2-.9-4.3-1.2-20.8,0-25.1,1.3-4.9,2.6-9.6,4.6-14,1.9-4.4,5.8-11.1,13.7-18h0Z"/>
        <g>
          <path class="st1" d="M-24.6-23.5c3.5-.2,10.7-.3,18.7,3.1,7.8,3.3,12.5,8.1,14.6,10.7,2.5,3.4,5.9,9,7.9,16.4,2.5,9.2,1.5,16.8.6,21-.4,1.5-1.2,3.5-2.6,5.6-1.2,1.8-2.4,3.1-3.5,4-4.4,6.5-8.8,12.9-13.2,19.4-1.7,1.2-4.1,2.6-7.1,3.7-4.7,1.7-9,2-11.8,1.9-3.1-.2-7.1-.8-11.7-2.2-4.8-1.5-8.7-3.4-11.5-5-2.5-.9-5-1.7-7.5-2.6-2.5-.8-4.9-1.7-7.4-2.5-1.5-.6-6.7-2.8-9.6-8.1-1.5-2.7-1.8-5.1-1.9-6.7-1.2-1.7-2.7-4.4-3.6-7.8-1.6-6-.2-10.9.6-13.1,1.8-4.1,11.4-17.9,14.9-20.8,4-3.4,7.9-6.6,12.1-9.2,4.2-2.6,11.4-6.2,22.1-7.8h0Z"/>
          <path class="st5" d="M-10.6,41.3c0-.2,0-.6-.1-1.1,0-.2.1-.6,0-.7-.5-.5-1.7,0-2-.9,0-.2-.1-1.7,0-1.8.1-.3.6-.5.9-.9.9-1.4-.2-1.4-.6-2.3-.1-.3,0-.7,0-.9-.2-.6-.9-.6-.4-1.5.6-1.1,2.6.4,3.6.6.4-.8,0-1.6,0-2.3,0-.4-.1-2.4,0-2.5.2-.5.6-.5,1.1-.6l-.2-.4c2.2,1.2,2,3.4,2.7,5.4.7-.5,3.2-4.1,3.9-3.7l1.5,1.6c-.3.6.1,1.1.1,1.5,0,.6-.6,1.2-.8,1.8,1.4.5,3.2-.1,4.4.8.8.7.9,2.3.2,3,0,0-1.6,0-2,.2-2.3,1.3.3,2.2.5,3.1,0,.4-.3,1-.1,1.5l-1.7.8c-.6-.3-2.8-1.7-3.4-1.6-.2,0-.9.9-1.4,1.1-.6.3-2,.3-2.7,0-.3,1-.6.6-1,.8-.2,0-.3.3-.7.3-.7,0-1.4-.6-1.5-1.2h0Z"/>
        </g>
        <g>
          <path class="st1" d="M543.1-25.6c3.5-.2,10.7-.3,18.7,3.1,7.8,3.3,12.5,8.1,14.7,10.7,2.5,3.4,5.9,9,7.9,16.4,2.5,9.2,1.5,16.8.6,21-.4,1.5-1.2,3.5-2.6,5.6-1.2,1.8-2.4,3.1-3.5,4-4.4,6.5-8.8,12.9-13.2,19.4-1.7,1.2-4.1,2.6-7.1,3.7-4.7,1.7-9,2-11.8,1.9-3.1-.2-7.1-.8-11.7-2.2-4.8-1.5-8.7-3.4-11.5-5-2.5-.9-5-1.7-7.5-2.6-2.5-.8-4.9-1.7-7.4-2.5-1.5-.6-6.7-2.8-9.6-8.1-1.5-2.7-1.8-5.1-1.9-6.7-1.2-1.7-2.7-4.4-3.6-7.8-1.6-6-.2-10.9.5-13.1,1.8-4.1,11.4-17.9,14.9-20.8,4-3.4,7.9-6.6,12.1-9.2,4.2-2.6,11.4-6.2,22.1-7.8h0Z"/>
          <path class="st5" d="M557.1,39.2c0-.2,0-.6-.1-1.1,0-.2.1-.6,0-.7-.5-.5-1.7,0-2-.9,0-.2-.1-1.7,0-1.8.1-.3.6-.5.9-.9.9-1.4-.2-1.4-.6-2.3-.1-.3,0-.7,0-.9-.2-.6-.9-.6-.4-1.5.6-1.1,2.6.4,3.5.6.4-.8,0-1.6,0-2.3,0-.4-.1-2.4,0-2.5.2-.5.6-.5,1.1-.6l-.2-.4c2.2,1.2,2,3.4,2.7,5.4.7-.5,3.2-4.1,3.9-3.7l1.5,1.6c-.3.6.1,1.1.1,1.5,0,.6-.6,1.2-.8,1.8,1.3.5,3.2-.1,4.4.8.8.7.9,2.3.2,3,0,0-1.6,0-2,.2-2.3,1.3.3,2.2.5,3.1,0,.4-.3,1-.2,1.5l-1.7.7c-.6-.3-2.8-1.7-3.4-1.6-.2,0-.9.9-1.4,1.1-.6.3-2,.3-2.7,0-.3,1-.6.6-1,.8-.2,0-.3.3-.7.3-.7,0-1.4-.6-1.5-1.2h0Z"/>
        </g>
        <path class="st1" d="M-26.8,542.7c3.5-.4,10.6-.7,18.8,2.4,7.9,3,12.8,7.6,15.1,10.1,2.6,3.3,6.3,8.7,8.6,16.1,2.8,9.1,2.2,16.8,1.5,21-.4,1.5-1,3.5-2.4,5.7-1.1,1.8-2.3,3.2-3.3,4.1-4.1,6.6-8.3,13.3-12.4,19.9-1.7,1.3-3.9,2.8-6.9,4-4.7,1.9-8.9,2.3-11.7,2.3-3.1-.1-7.1-.5-11.8-1.7-4.9-1.3-8.9-3.1-11.7-4.6-2.5-.8-5.1-1.5-7.7-2.3-2.5-.8-5-1.5-7.5-2.2-1.5-.5-6.8-2.6-9.9-7.8-1.6-2.6-2-5-2.2-6.6-1.3-1.7-2.9-4.2-3.9-7.6-1.8-6-.7-10.9,0-13.2,1.6-4.1,10.6-18.3,14-21.4,3.8-3.5,7.6-6.9,11.7-9.7,4.1-2.8,11.1-6.6,21.7-8.6h0Z"/>
        <path class="st1" d="M542.1,542.9c3.5-.2,10.7-.3,18.7,3.1,7.8,3.3,12.5,8.1,14.7,10.7,2.5,3.4,5.9,9,7.9,16.4,2.5,9.2,1.5,16.8.6,21-.4,1.5-1.2,3.5-2.6,5.6-1.2,1.8-2.4,3.1-3.5,4-4.4,6.5-8.8,12.9-13.2,19.4-1.7,1.2-4.1,2.6-7.1,3.7-4.7,1.7-9,2-11.8,1.9-3.1-.2-7.1-.8-11.7-2.2-4.8-1.5-8.7-3.4-11.5-5-2.5-.9-5-1.7-7.5-2.6-2.5-.8-4.9-1.7-7.4-2.5-1.5-.6-6.7-2.8-9.6-8.2-1.5-2.7-1.8-5.1-1.9-6.7-1.2-1.7-2.7-4.4-3.6-7.8-1.6-6-.2-10.9.5-13.2,1.8-4.1,11.4-17.9,14.9-20.8,4-3.4,7.9-6.6,12.1-9.2,4.2-2.6,11.4-6.2,22.1-7.8h0Z"/>
        <path class="st1" d="M225.1,305.8c2.9,1.9,8.4,6.1,12.4,13.5,3.8,7.2,4.2,13.7,4.2,17-.4,4.1-1.4,10.5-4.9,17.4-4.3,8.6-10.1,13.9-13.6,16.6-1.3.9-3.3,2-5.8,2.8-2.1.7-3.9.9-5.4,1-7.8,2.4-15.5,4.8-23.3,7.2-2.1,0-4.9-.4-8-1.3-4.8-1.5-8.3-3.9-10.4-5.5-2.2-2-5-4.9-7.6-8.6-2.8-4-4.5-7.8-5.6-10.8-1.4-2.2-2.8-4.3-4.1-6.5-1.3-2.1-2.7-4.2-4-6.3-.8-1.3-3.3-6.1-2-12,.6-2.9,2-5,3-6.3.2-2.1.8-5,2.4-8.1,2.8-5.6,7.1-8.6,9.2-9.9,4.1-2.1,20.8-7.1,25.5-7.3,5.4-.2,10.6-.5,15.6,0s12.9,2,22.3,7.1h0Z"/>
        <path class="st5" d="M187.4,338.7c.1-.2.4-.5.6-.9.1-.2.5-.4.5-.5,0-.7-1.3-1-.9-1.9,0-.2,1-1.4,1.2-1.5.3-.1.9,0,1.3-.2,1.6-.5.7-1.2,1-2.1.1-.3.5-.5.6-.8.2-.6-.3-1,.6-1.4,1.2-.5,1.7,1.9,2.4,2.6.8-.3,1.1-1.2,1.6-1.8.2-.3,1.5-1.9,1.6-2,.5-.3.8,0,1.2.2l.2-.4c.9,2.2-.7,3.9-1.6,5.8.9,0,5.2-1.2,5.5-.5v2.1c-.6.2-.6.9-.9,1.2s-1.3.5-1.8.9c.7,1.2,2.6,1.8,2.8,3.2.2,1-.8,2.4-1.9,2.4-.1,0-1.2-1-1.6-1-2.7-.3-1.2,1.9-1.7,2.8-.2.3-.9.6-1.1,1l-1.8-.4c-.3-.6-1-2.9-1.6-3.3-.2-.1-1.3.1-1.8,0-.7-.1-1.7-1-2.1-1.5-.9.6-.9.1-1.3,0-.2,0-.5,0-.8-.1-.6-.4-.6-1.3-.3-1.8h0Z"/>
        <path class="st1" d="M355.7,408.1c2.9,1.9,8.5,6.1,12.4,13.5,3.8,7.2,4.2,13.7,4.2,17-.4,4.1-1.5,10.5-4.9,17.4-4.3,8.6-10.1,13.9-13.6,16.6-1.3.9-3.3,2-5.8,2.8-2.1.7-4,.9-5.4,1-7.8,2.4-15.5,4.8-23.3,7.2-2.1,0-4.9-.4-8-1.3-4.8-1.5-8.3-3.9-10.4-5.5-2.2-2-5-4.9-7.6-8.6-2.8-4-4.5-7.8-5.6-10.8-1.4-2.2-2.8-4.3-4.1-6.5-1.3-2.1-2.7-4.2-4-6.3-.8-1.3-3.3-6.1-2-12,.6-2.9,2-5,3-6.3.2-2.1.8-5,2.4-8.1,2.8-5.6,7.1-8.6,9.2-9.9,4.1-2.1,20.8-7.1,25.5-7.3,5.4-.2,10.5-.5,15.6,0,5,.5,13,2,22.3,7.1h0Z"/>
        <path class="st5" d="M309.9,468.1c.1-.2.4-.5.6-.9.1-.2.5-.4.5-.5,0-.7-1.3-1-.9-1.9,0-.2,1-1.4,1.2-1.5.3-.1.9,0,1.3-.2,1.6-.5.7-1.2,1-2.1.1-.3.5-.5.6-.8.2-.6-.3-1,.6-1.4,1.2-.5,1.7,1.9,2.4,2.6.8-.3,1.1-1.2,1.5-1.8.2-.3,1.5-1.9,1.6-2,.5-.3.8,0,1.2.2l.2-.4c.9,2.2-.7,3.9-1.6,5.8.9,0,5.2-1.2,5.5-.5v2.1c-.6.2-.6.9-.9,1.2s-1.3.5-1.8.9c.7,1.2,2.6,1.8,2.8,3.2.2,1-.8,2.4-1.9,2.4-.1,0-1.2-1-1.6-1-2.7-.3-1.2,1.9-1.7,2.8-.2.3-.9.6-1.1,1l-1.8-.4c-.3-.6-1-2.9-1.5-3.3-.2-.1-1.3.1-1.8,0-.7-.1-1.7-1-2.1-1.5-.9.6-.9.1-1.3,0-.2,0-.5,0-.8-.1-.6-.4-.6-1.3-.3-1.8h0Z"/>
        <path class="st1" d="M154.7,362.4c2.9,1.9,8.4,6.1,12.4,13.5,3.8,7.2,4.2,13.7,4.2,17-.4,4.1-1.4,10.5-4.9,17.4-4.3,8.6-10.1,13.9-13.6,16.6-1.3.9-3.3,2-5.8,2.8-2.1.7-3.9.9-5.4,1-7.8,2.4-15.5,4.8-23.3,7.2-2.1,0-4.9-.4-8-1.3-4.8-1.5-8.3-3.9-10.4-5.5-2.2-2-5-4.9-7.6-8.6-2.8-4-4.5-7.8-5.6-10.8-1.4-2.2-2.8-4.3-4.1-6.5-1.3-2.1-2.7-4.2-4-6.3-.8-1.3-3.3-6.1-2-12,.7-2.9,2-5,3-6.3.2-2.1.8-5,2.4-8.1,2.8-5.6,7.2-8.6,9.2-9.9,4.1-2.1,20.8-7.1,25.5-7.3,5.3-.2,10.6-.5,15.6,0,5,.5,12.9,2,22.3,7.1h0Z"/>
        <path class="st5" d="M110.7,379.6c.1-.2.4-.5.6-.9,0-.2.5-.4.5-.5,0-.7-1.3-1-.9-1.9,0-.2,1-1.4,1.2-1.5.3-.1.8,0,1.3-.2,1.6-.5.7-1.2,1-2.1.1-.3.5-.5.6-.8.2-.6-.3-1,.7-1.4,1.2-.5,1.7,1.9,2.3,2.6.8-.3,1.1-1.2,1.6-1.8.2-.3,1.5-1.9,1.6-2,.5-.3.8,0,1.2.2l.2-.4c.9,2.2-.7,3.9-1.6,5.8.9,0,5.2-1.2,5.5-.5v2.1c-.6.2-.6.9-.9,1.2-.4.4-1.3.5-1.8.9.7,1.2,2.6,1.8,2.8,3.2.2,1-.8,2.4-1.9,2.4-.1,0-1.2-1-1.7-1-2.7-.3-1.2,1.9-1.7,2.8-.2.3-.9.6-1.1,1l-1.8-.4c-.3-.6-1-2.9-1.6-3.3-.2-.1-1.3.1-1.8,0-.7-.1-1.7-1-2.1-1.5-.9.6-.8.1-1.3,0-.2,0-.5,0-.8-.1-.6-.4-.7-1.3-.3-1.8h0Z"/>
        <path class="st1" d="M313.8,394c-3.3,1.2-10.1,3.2-18.8,2.1-8.5-1-14.4-4.4-17.3-6.2-3.4-2.6-8.4-7-12.6-13.5-5.2-8.1-6.6-15.7-7.1-19.9,0-1.5,0-3.7.8-6,.6-2,1.4-3.6,2.1-4.8,2.2-7.4,4.5-14.8,6.7-22.2,1.3-1.6,3.1-3.6,5.6-5.5,4-2.9,8-4.3,10.7-5,3-.6,7.1-1.2,11.8-1.1,5.1,0,9.4.9,12.6,1.7,2.7.1,5.4.3,8,.4,2.6.1,5.2.3,7.8.4,1.6.1,7.2.9,11.7,5.2,2.2,2.1,3.3,4.4,3.9,5.9,1.7,1.3,4,3.4,5.8,6.4,3.4,5.3,3.6,10.4,3.5,12.7-.5,4.4-5.4,20.2-7.9,24-2.8,4.3-5.5,8.5-8.7,12.1-3.2,3.6-9,9-18.7,13.4h0Z"/>
        <path class="st5" d="M325,355.8c.1.2.2.5.5,1,.1.2,0,.6.2.7.6.3,1.6-.4,2.2.3.1.2.6,1.6.6,1.7,0,.3-.4.7-.5,1.1-.4,1.6.7,1.2,1.3,2,.2.3.2.7.4.9.4.5,1,.3.9,1.3-.2,1.3-2.6.3-3.6.4-.2.9.5,1.5.7,2.2.1.3.8,2.2.8,2.4,0,.5-.4.7-.9.9l.3.4c-2.5-.5-3-2.7-4.2-4.5-.5.6-1.8,4.8-2.6,4.6l-1.9-1.2c.1-.6-.5-1-.6-1.4-.1-.6.2-1.3.2-1.9-1.5-.1-3.1,1-4.4.4-1-.4-1.6-2-1.1-2.8,0,0,1.5-.4,1.8-.7,1.8-1.9-1-2-1.5-2.9-.2-.3,0-1-.3-1.5l1.4-1.2c.7.2,3.2.8,3.8.6.2,0,.6-1.1,1-1.4.5-.5,1.8-.8,2.5-.8,0-1,.4-.7.7-1,.2-.1.2-.4.5-.5.7-.2,1.5.2,1.8.8h0Z"/>
        <path class="st1" d="M283.2,152.9c2.8,2,8.2,6.4,11.9,13.9,3.6,7.3,3.7,13.8,3.5,17.1-.5,4.1-1.8,10.4-5.6,17.2-4.6,8.4-10.7,13.6-14.2,16.2-1.4.9-3.3,1.9-5.9,2.6-2.1.6-4,.8-5.5.9-7.9,2.1-15.7,4.3-23.5,6.4-2.1-.1-4.9-.6-8-1.6-4.8-1.6-8.1-4.1-10.2-5.9-2.2-2.1-4.8-5-7.2-8.9-2.6-4.1-4.2-7.9-5.2-10.9-1.3-2.2-2.6-4.4-3.9-6.6-1.3-2.1-2.5-4.3-3.8-6.5-.7-1.4-3-6.2-1.5-12.1.8-2.9,2.2-5,3.2-6.2.3-2.1,1-5,2.7-8.1,3-5.5,7.5-8.4,9.6-9.5,4.2-1.9,21.1-6.4,25.8-6.4,5.4,0,10.6-.1,15.6.6s12.9,2.4,22,7.9h0Z"/>
        <path class="st5" d="M244.3,184.6c.1-.2.4-.4.7-.9.1-.2.5-.3.5-.5,0-.7-1.3-1.1-.9-1.9,0-.2,1.1-1.4,1.2-1.4.3-.1.9,0,1.3-.2,1.6-.5.8-1.2,1.1-2.1.1-.3.5-.5.6-.8.2-.6-.3-1,.7-1.4,1.3-.5,1.6,1.9,2.3,2.6.9-.3,1.1-1.2,1.6-1.7.2-.3,1.6-1.9,1.7-1.9.5-.3.8,0,1.2.2l.2-.4c.9,2.2-.9,3.8-1.8,5.7.9,0,5.2-1.1,5.5-.3v2.1c-.7.2-.7.9-1,1.2-.4.4-1.3.5-1.8.9.6,1.2,2.5,1.9,2.7,3.3.1,1-.9,2.3-2,2.3-.1,0-1.2-1-1.6-1.1-2.6-.4-1.3,1.9-1.8,2.7-.2.3-.9.6-1.1,1l-1.8-.5c-.2-.6-.9-3-1.4-3.4-.2-.1-1.3,0-1.8,0-.7-.1-1.7-1-2-1.6-.9.6-.9,0-1.3,0-.2,0-.5,0-.8-.2-.6-.4-.6-1.3-.3-1.9h0Z"/>
        <path class="st1" d="M225.2,474.2c3.5.4,10.5,1.6,17.7,6.4,7,4.6,10.6,10.2,12.3,13.1,1.7,3.8,4,9.9,4.5,17.5.6,9.5-1.9,16.8-3.6,20.7-.7,1.4-1.9,3.2-3.6,5-1.5,1.5-3,2.6-4.2,3.3-5.6,5.6-11.2,11.2-16.9,16.7-1.9.9-4.5,1.9-7.7,2.4-5,.8-9.2.3-12-.2-3-.8-6.8-2-11-4.2-4.5-2.3-7.9-4.9-10.3-7-2.3-1.3-4.6-2.6-6.9-3.9-2.2-1.3-4.5-2.5-6.7-3.8-1.3-.8-6-3.9-7.8-9.7-.9-2.9-.8-5.3-.6-6.9-.8-1.9-1.8-4.8-2-8.2-.3-6.2,1.9-10.8,3.2-12.8,2.6-3.7,14.8-15.5,18.8-17.8,4.6-2.6,9.1-5.1,13.7-6.9,4.7-1.8,12.4-4,23.2-3.7h0Z"/>
        <path class="st5" d="M205.6,517c.1-.2.4-.4.8-.8.1-.2.5-.3.5-.5,0-.7-1.1-1.2-.6-2,.1-.2,1.2-1.2,1.4-1.3.3-.1.9,0,1.3,0,1.7-.3.9-1.1,1.3-2,.1-.3.6-.4.7-.7.3-.6-.2-1,.9-1.3,1.3-.4,1.4,2.1,1.9,2.9.9-.2,1.3-1,1.8-1.5.3-.2,1.8-1.7,1.9-1.7.5-.2.8,0,1.2.4l.2-.4c.6,2.3-1.3,3.7-2.4,5.5.9.2,5.3-.5,5.5.2l-.3,2.1c-.7.2-.7.8-1.1,1.1-.5.3-1.4.4-1.9.7.5,1.3,2.3,2.2,2.3,3.6,0,1-1.2,2.2-2.2,2.1-.1,0-1-1.1-1.5-1.2-2.6-.7-1.5,1.7-2.1,2.5-.2.3-1,.5-1.3.9l-1.7-.7c-.1-.7-.6-3-1-3.5-.1-.1-1.3,0-1.8-.2-.7-.2-1.5-1.2-1.8-1.8-1,.5-.9,0-1.3-.2-.2,0-.5,0-.7-.2-.5-.5-.4-1.3,0-1.9h0Z"/>
        <path class="st1" d="M90.4,460.7c-1,3.1-3.6,9.5-9.9,15.2-6.1,5.6-12.6,8-15.9,9-4.2.9-11,1.9-19.1.9-10-1.2-17.2-4.8-21-7.1-1.3-.9-3-2.3-4.6-4.3-1.3-1.7-2.1-3.3-2.7-4.5-4.8-6.2-9.6-12.5-14.4-18.7-.6-1.9-1.1-4.5-1.1-7.6,0-4.8,1.4-8.6,2.4-11,1.4-2.6,3.4-6,6.4-9.4,3.2-3.7,6.5-6.4,9.2-8.3,1.8-1.9,3.5-3.8,5.3-5.7,1.7-1.8,3.5-3.7,5.2-5.5,1.1-1.1,5.2-4.8,11.6-5.4,3.2-.3,5.7.3,7.3.8,2.2-.4,5.3-.8,9-.3,6.5.8,10.9,3.8,12.8,5.3,3.4,3.1,13.5,16.5,15.2,20.7,1.9,4.7,3.7,9.3,4.7,14,1,4.6,1.9,12.2-.4,22.2h0Z"/>
        <path class="st5" d="M45.6,437c.2,0,.6.2,1.1.3.2,0,.5.3.7.2.7-.3.7-1.5,1.6-1.4.2,0,1.7.5,1.8.6.2.2.3.7.6,1.1,1,1.3,1.5.3,2.5.3.4,0,.7.3,1,.3.7,0,.9-.6,1.6.2.9,1-1.4,2.1-1.9,2.9.6.6,1.6.6,2.3.9.4.1,2.4.8,2.5.9.4.3.3.7.2,1.2h.5c-2,1.5-4.1.5-6.3.4.2.8,2.8,4.3,2.2,4.8l-2.1.7c-.4-.5-1.1-.3-1.5-.5-.5-.2-1-1-1.5-1.3-1,1-1.1,2.9-2.4,3.5-.9.5-2.6,0-3-.9,0,0,.6-1.4.5-1.8-.5-2.5-2.3-.5-3.3-.7-.4,0-.9-.6-1.4-.7v-1.7c.5-.4,2.5-1.8,2.7-2.4s-.5-1.1-.6-1.6c-.1-.7.5-1.8.9-2.3-.9-.6-.4-.7-.4-1.2s-.2-.4,0-.7c.2-.6,1.1-1,1.8-.9h0Z"/>
        <path class="st1" d="M352.8,4c2.8,2,8.2,6.4,11.9,13.9,3.6,7.3,3.7,13.8,3.5,17.1-.5,4.1-1.8,10.4-5.6,17.2-4.6,8.5-10.7,13.6-14.2,16.2-1.4.9-3.3,1.9-5.9,2.6-2.1.6-4,.8-5.5.8-7.9,2.1-15.7,4.3-23.5,6.4-2.1-.1-4.9-.6-8-1.6-4.8-1.6-8.1-4.1-10.2-5.9-2.2-2.1-4.8-5-7.2-8.9-2.6-4.1-4.2-8-5.2-10.9-1.3-2.2-2.6-4.4-3.9-6.6-1.3-2.2-2.5-4.3-3.8-6.5-.7-1.4-3-6.2-1.5-12.1.8-2.9,2.2-5,3.2-6.2.3-2,1-5,2.7-8.1,3-5.5,7.5-8.4,9.6-9.5,4.2-1.9,21.1-6.4,25.8-6.4,5.4,0,10.6-.1,15.6.5s12.9,2.4,22,7.9h0Z"/>
        <path class="st1" d="M352.8,570.9c2.8,2,8.2,6.4,11.9,13.9,3.6,7.3,3.7,13.8,3.5,17.1-.5,4.1-1.8,10.4-5.6,17.2-4.6,8.5-10.7,13.6-14.2,16.2-1.4.9-3.3,1.9-5.9,2.6-2.1.6-4,.8-5.5.8-7.9,2.1-15.7,4.3-23.5,6.4-2.1-.1-4.9-.5-8-1.6-4.8-1.6-8.1-4.1-10.2-5.9-2.2-2.1-4.8-5-7.2-8.9-2.6-4.1-4.2-8-5.2-10.9-1.3-2.2-2.6-4.4-3.9-6.6-1.3-2.2-2.5-4.3-3.8-6.5-.7-1.4-3-6.2-1.5-12.1.8-2.9,2.2-5,3.2-6.2.3-2,1-5,2.7-8.1,3-5.5,7.5-8.3,9.6-9.5,4.2-1.9,21.1-6.4,25.8-6.4,5.4,0,10.6-.1,15.6.5s12.9,2.4,22,7.9h0Z"/>
        <path class="st1" d="M272.4,66.3c2.2.2,6.1.7,10.4,2.9,3.7,1.9,6.1,4.3,7.4,5.9,1.5,1.5,3.4,3.8,5,6.9,1.7,3.3,2.3,6.4,2.6,8.5.7,3.1,1.6,9.1-.6,16.3-1.8,6.1-5,10.4-7.1,12.7-1.5,2.6-4,6.3-8.2,9.8-4.3,3.7-8.6,5.8-11.6,7-3.3,1.2-7.6,2.4-12.6,3.1-6.2.9-11.5.7-15.5.2-2.9.4-7.2.6-12.3-.4-7.1-1.4-12-4.6-14.6-6.5-2.6-2-6.8-5.7-9.9-11.8-2.7-5.2-3.5-9.9-3.7-12.8-.5-2.2-.9-5-.9-8.2,0-4,.7-7.3,1.4-9.8.1-1.8.7-7.2,5.1-11.9,2.9-3.1,6.2-4.6,8.1-5.2,1.8-.8,3.7-1.7,5.6-2.4,18.8-7.3,37.4-6.7,51.5-4.3h0Z"/>
        <path class="st5" d="M248.1,96c.2,0,.5.2.9.2.2,0,.4.3.5.2.6-.2.5-1.2,1.3-1.1.2,0,1.4.4,1.5.5.2.2.3.6.5.9.8,1,1.2.2,2,.2.3,0,.5.2.8.2.5,0,.7-.5,1.3.1.7.8-1.1,1.7-1.5,2.3.5.5,1.2.5,1.8.7.3,0,1.9.6,2,.7.4.3.2.6.1.9h.4c-1.6,1.2-3.3.4-5.1.3.2.6,2.3,3.4,1.8,3.8l-1.7.5c-.4-.4-.9-.2-1.2-.4-.4-.2-.8-.8-1.2-1.1-.8.8-.9,2.3-1.9,2.8-.8.4-2.1,0-2.4-.8,0,0,.5-1.1.4-1.4-.4-2-1.8-.4-2.6-.5-.3,0-.7-.5-1.1-.5v-1.4c.4-.3,2-1.5,2.2-1.9,0-.2-.4-.9-.5-1.3,0-.5.4-1.5.8-1.9-.7-.5-.3-.6-.3-.9s-.2-.3,0-.6c.2-.5.9-.8,1.4-.7h0Z"/>
        <path class="st1" d="M242.3,4.5c1.7.1,4.7.5,8,2.2,2.8,1.5,4.6,3.3,5.7,4.5,1.1,1.1,2.6,2.9,3.8,5.3,1.3,2.6,1.8,4.9,2,6.5.5,2.4,1.2,7-.4,12.5-1.4,4.7-3.9,8-5.4,9.8-1.1,2-3.1,4.8-6.3,7.5-3.3,2.8-6.6,4.5-8.9,5.3-2.5.9-5.8,1.9-9.7,2.4-4.7.7-8.8.5-11.9.2-2.2.3-5.6.5-9.4-.3-5.4-1.1-9.2-3.5-11.2-5-2-1.5-5.2-4.4-7.6-9-2.1-4-2.7-7.6-2.8-9.9-.4-1.7-.7-3.8-.7-6.3s.5-5.6,1.1-7.5c0-1.4.5-5.5,3.9-9.1,2.2-2.4,4.8-3.5,6.2-4,1.4-.6,2.8-1.3,4.3-1.9,14.4-5.6,28.7-5.1,39.6-3.3h0Z"/>
        <path class="st5" d="M223.7,27.2c.1,0,.4.1.7.2.1,0,.3.2.4.2.4-.2.4-.9,1-.9.1,0,1.1.3,1.1.4.1.1.2.5.4.7.6.8.9.2,1.5.2.2,0,.4.2.6.2.4,0,.6-.4,1,.1.6.6-.9,1.3-1.2,1.8.4.4,1,.4,1.4.5.2,0,1.5.5,1.5.5.3.2.2.4.1.7h.3c-1.2.9-2.5.3-3.9.2.1.5,1.7,2.6,1.3,2.9l-1.3.4c-.3-.3-.7-.2-.9-.3-.3-.2-.6-.6-.9-.8-.6.6-.7,1.8-1.5,2.2-.6.3-1.6,0-1.8-.6,0,0,.4-.8.3-1.1-.3-1.5-1.4-.3-2-.4-.2,0-.6-.4-.9-.4v-1.1c.3-.3,1.6-1.1,1.7-1.5,0-.1-.3-.7-.4-1,0-.4.3-1.1.6-1.4-.5-.4-.2-.5-.2-.7s-.1-.3,0-.5c.1-.4.7-.6,1.1-.5h0Z"/>
        <path class="st1" d="M423.6,449.9c1.7.1,4.7.5,8,2.2,2.8,1.5,4.6,3.3,5.7,4.5,1.1,1.1,2.6,2.9,3.8,5.3,1.3,2.6,1.8,4.9,2,6.5.5,2.4,1.2,7-.4,12.5-1.4,4.7-3.9,8-5.5,9.8-1.1,2-3.1,4.8-6.3,7.5-3.3,2.9-6.6,4.5-8.9,5.4-2.5.9-5.8,1.9-9.7,2.4-4.7.7-8.8.5-11.9.2-2.2.3-5.6.5-9.5-.3-5.4-1.1-9.2-3.5-11.2-5-2-1.5-5.2-4.4-7.6-9-2.1-4-2.7-7.6-2.8-9.9-.4-1.7-.7-3.8-.7-6.3s.5-5.6,1.1-7.5c0-1.4.5-5.5,3.9-9.1,2.2-2.4,4.8-3.5,6.2-4,1.4-.6,2.8-1.3,4.3-1.9,14.5-5.6,28.7-5.1,39.5-3.3h0Z"/>
        <path class="st5" d="M405,472.7c.1,0,.4.1.7.2.1,0,.3.2.4.2.4-.2.4-.9,1-.9.1,0,1.1.3,1.1.4.1.1.2.5.4.7.6.8.9.2,1.5.2.2,0,.4.2.6.2.4,0,.6-.4,1,.1.6.6-.9,1.3-1.2,1.8.4.4,1,.4,1.4.5.2,0,1.5.5,1.5.5.3.2.2.4.1.7h.3c-1.2.9-2.5.3-3.9.2.1.5,1.7,2.6,1.3,2.9l-1.3.4c-.3-.3-.7-.2-.9-.3-.3-.1-.6-.6-.9-.8-.6.6-.7,1.8-1.5,2.2-.6.3-1.6,0-1.8-.6,0,0,.4-.8.3-1.1-.3-1.5-1.4-.3-2-.4-.2,0-.5-.4-.9-.4v-1.1c.3-.3,1.6-1.1,1.7-1.5,0-.1-.3-.7-.4-1,0-.4.3-1.1.6-1.4-.5-.4-.2-.5-.2-.7s-.1-.3,0-.5c.1-.4.7-.6,1.1-.5h0Z"/>
        <path class="st1" d="M113.2,448.9c1.4-1.6,4.2-4.2,8.7-6.1,3.8-1.6,7.3-2,9.4-2.1,2.1-.2,5.2-.3,8.9.4,3.9.7,6.8,2,8.8,3.1,3,1.3,8.7,4.2,13.6,10.1,4.1,5,5.9,10,6.6,12.9,1.3,2.7,2.9,6.8,3.5,12,.6,5.5-.2,10-.9,12.9-.9,3.2-2.4,7.2-4.8,11.4-2.9,5.2-6.3,9.1-9,11.9-1.4,2.4-3.8,5.8-7.7,9.1-5.4,4.5-11.1,6.4-14.3,7.2-3.2.8-8.9,1.7-15.9.5-6-1-10.5-3.2-13.2-4.8-2.2-.9-4.8-2.2-7.6-4.2-3.4-2.4-5.8-4.8-7.6-6.9-1.5-1.1-5.7-4.8-7.1-10.9-.9-4.1-.2-7.5.3-9.2.3-1.9.8-3.8,1.3-5.7,5-18.6,16.5-32.3,26.9-41.6h0Z"/>
        <path class="st5" d="M129,473.6c.2,0,.5.2.9.2.2,0,.4.3.5.2.6-.2.5-1.2,1.3-1.1.2,0,1.4.4,1.5.5.2.2.3.6.5.9.8,1,1.2.2,2,.2.3,0,.5.2.8.2.5,0,.7-.5,1.3.1.7.8-1.1,1.7-1.5,2.3.5.5,1.2.5,1.8.7.3.1,1.9.6,2,.7.4.3.2.6.1.9h.4c-1.6,1.2-3.3.4-5.1.3.2.6,2.3,3.4,1.8,3.8l-1.7.5c-.4-.4-.9-.2-1.2-.4-.4-.2-.8-.8-1.2-1.1-.8.8-.9,2.3-1.9,2.8-.8.4-2.1,0-2.4-.8,0,0,.5-1.1.4-1.4-.4-2-1.8-.4-2.6-.5-.3,0-.7-.5-1.1-.5v-1.4c.4-.3,2-1.5,2.2-1.9,0-.1-.4-.9-.5-1.3,0-.5.4-1.5.8-1.9-.7-.5-.3-.6-.3-.9s-.2-.3,0-.6c.2-.5.9-.8,1.4-.7h0Z"/>
        <path class="st5" d="M123.1,34.6c.2,0,.5.2.9.2.2,0,.4.3.5.2.6-.2.5-1.2,1.3-1.1.2,0,1.4.4,1.5.5.2.2.3.6.5.9.8,1,1.2.2,2,.2.3,0,.5.2.8.2.5,0,.7-.5,1.3.1.7.8-1.1,1.7-1.5,2.3.5.5,1.2.5,1.8.7.3,0,1.9.6,2,.7.4.3.2.6.1.9h.4c-1.6,1.2-3.3.4-5.1.3.2.6,2.3,3.4,1.8,3.8l-1.7.5c-.4-.4-.9-.2-1.2-.4-.4-.2-.8-.8-1.2-1.1-.8.8-.9,2.3-1.9,2.8-.8.4-2.1,0-2.4-.8,0,0,.5-1.1.4-1.4-.4-2-1.8-.4-2.6-.5-.3,0-.7-.5-1.1-.5v-1.4c.4-.3,2-1.5,2.2-1.9,0-.2-.4-.9-.5-1.3,0-.5.4-1.5.8-1.9-.7-.5-.3-.6-.3-.9s-.2-.3,0-.6c.2-.5.9-.8,1.4-.7h0Z"/>
        <path class="st1" d="M100.4,564.8c-1.8.6-5.8,2.2-9.1,6-2.7,3.1-3.8,6.3-4.2,8-1.5,3.4-3,7.4-4.2,12.1-1.6,6.1-2.2,11.6-2.3,16.1,0,2.1.4,4.6,1.1,7.5.8,3,1.9,5.6,2.9,7.5,1,1.9,2.9,4.8,6.2,7.5,3.4,2.8,6.7,4.3,8.9,5,6.1,4.4,12.1,8.8,18.2,13.1l15.9,5.7c3.2.5,8.6,1,14.9-.7,3.1-.9,5.7-2.1,7.6-3.2,2.6-2.2,5.7-5.3,8.6-9.3,3.6-5,5.7-9.8,6.9-13.4,1.9-2.6,4.2-6.2,6.1-10.8,1.6-4.1,2.5-7.8,2.9-10.8,0-2.2-.1-5.1-1.1-8.4-1-3.7-2.6-6.6-3.9-8.6-.9-1.2-2.1-2.4-3.4-3.6-3.2-2.9-6.5-4.6-9.1-5.7-1.9-.7-3.9-1.4-5.9-2.2-4.5-1.8-8.6-3.8-12.2-5.8-7.1-2.8-14.1-5.5-21.2-8.3-1.6-.7-4.9-1.9-9.1-1.6-2.9.2-5.1,1-6.6,1.6-2.6.8-5.2,1.6-7.9,2.3h0Z"/>
        <g>
          <path class="st1" d="M461.3,408.9c.6-1.6,1.7-5.2.8-9.7-.8-3.7-2.6-6.2-3.7-7.5-1.7-3-3.9-6.5-6.8-10-3.8-4.7-7.6-8.3-11-11.1-1.6-1.2-3.8-2.5-6.4-3.6-2.8-1.2-5.4-2-7.5-2.5-2.1-.4-5.4-.8-9.4-.2-4.1.6-7.2,2.1-9.1,3.1-6.9,1.5-13.9,3.1-20.8,4.6l-13.7,7.4c-2.3,1.9-5.8,5.3-8.2,10.5-1.2,2.6-1.8,5.1-2,7,.2,3,.7,7,2.1,11.3,1.7,5.4,4.2,9.6,6.2,12.6.9,2.9,2.3,6.6,4.7,10.5,2.2,3.5,4.5,6.3,6.6,8.3,1.6,1.3,4,2.9,7.1,4.2,3.5,1.5,6.6,2.1,8.8,2.4,1.4,0,3,0,4.8-.2,4.1-.5,7.4-1.7,9.7-2.8,1.6-.9,3.3-1.8,5.1-2.7,4.1-2,8-3.6,11.6-4.9,6.3-3.2,12.6-6.3,18.9-9.5,1.5-.7,4.3-2.2,6.6-5.2,1.5-2.1,2.3-4.1,2.6-5.4.9-2.2,1.9-4.5,2.8-6.7h0Z"/>
          <path class="st5" d="M422.2,409.3c-.1.1-.3.3-.6.6-.1.1-.4.2-.4.3,0,.5.8.9.4,1.5,0,.1-1,.9-1.1.9-.2,0-.6,0-1,0-1.3.2-.7.8-1,1.5-.1.2-.4.3-.5.5-.2.4.1.8-.7,1-1,.2-1-1.6-1.4-2.2-.7.1-1,.8-1.4,1.1-.2.2-1.4,1.2-1.5,1.3-.4.2-.6,0-.9-.3l-.2.3c-.4-1.7,1-2.8,1.9-4.1-.6-.1-4,.3-4.1-.2l.2-1.6c.5-.1.6-.6.8-.8.4-.3,1-.3,1.4-.5-.4-1-1.7-1.6-1.7-2.7s.9-1.6,1.7-1.6c0,0,.8.9,1.1,1,1.9.5,1.1-1.3,1.6-1.8.2-.2.8-.3,1-.6l1.3.5c.1.5.4,2.3.7,2.6.1.1,1,0,1.3.2.5.2,1.1.9,1.3,1.4.7-.4.6,0,1,.2.2,0,.4,0,.5.2.4.4.3,1,0,1.4h0Z"/>
        </g>
        <g>
          <path class="st1" d="M277.1,486c-1.5.7-4.7,2.4-7.1,5.9-2,2.8-2.5,5.5-2.6,7-.9,2.9-1.7,6.4-2.1,10.4-.6,5.2-.4,9.7,0,13.4.3,1.7.9,3.8,1.9,6,1.1,2.4,2.3,4.4,3.4,5.9,1.1,1.4,3.1,3.6,6.3,5.5,3.2,2,6.4,2.8,8.3,3.2,5.8,2.9,11.6,5.9,17.4,8.8l14.4,3c2.8,0,7.5,0,12.7-2.2,2.6-1,4.6-2.3,6.2-3.4,2-2.1,4.2-4.9,6.2-8.5,2.5-4.5,3.7-8.7,4.2-11.7,1.4-2.3,2.9-5.5,3.9-9.5.9-3.5,1.1-6.7,1.1-9.1-.2-1.8-.8-4.2-2-6.8-1.4-2.9-3.1-5.1-4.4-6.6-.9-.8-2.1-1.7-3.4-2.6-3.1-2-6.2-3.1-8.5-3.7-1.7-.3-3.5-.7-5.4-1.2-4.1-1-7.9-2.2-11.2-3.5-6.5-1.5-12.9-3-19.3-4.6-1.5-.4-4.4-1-8-.4-2.5.5-4.3,1.3-5.5,2-2.2.9-4.3,1.8-6.5,2.8h0Z"/>
          <path class="st5" d="M304.1,508c.2,0,.4,0,.8,0,.2,0,.4,0,.5,0,.4-.3,0-1.1.7-1.2.1,0,1.3,0,1.4,0,.2,0,.4.4.7.5,1,.6,1-.1,1.7-.4.2,0,.5,0,.7,0,.4-.1.4-.6,1.1-.2.8.4-.4,1.6-.5,2.2.6.3,1.2,0,1.7,0s1.8,0,1.9,0c.4.1.4.4.4.7h.3c-.9,1.3-2.6,1.1-4.1,1.5.3.5,2.9,2,2.6,2.5l-1.2.9c-.4-.2-.8,0-1.1,0-.4,0-.9-.4-1.3-.5-.4.8,0,2-.7,2.7-.5.5-1.7.5-2.2,0,0,0,0-1,0-1.2-.9-1.5-1.6.2-2.3.3-.3,0-.8-.2-1.1-.1l-.5-1.1c.3-.4,1.3-1.7,1.3-2.1s-.6-.6-.8-.9c-.2-.4-.2-1.2,0-1.6-.7-.2-.4-.4-.5-.6,0-.1-.2-.2-.2-.4,0-.4.5-.8.9-.9h0Z"/>
        </g>
        <path class="st1" d="M253.1,380c1.8.6,5.8,2.2,9.1,6,2.7,3.1,3.8,6.3,4.2,8,1.5,3.4,3,7.4,4.2,12.1,1.6,6.1,2.2,11.6,2.4,16.1,0,2.1-.4,4.6-1.1,7.5-.8,3-1.9,5.6-2.9,7.5-1,1.9-2.9,4.8-6.2,7.5-3.4,2.8-6.7,4.3-8.9,5-6.1,4.4-12.1,8.8-18.2,13.1l-15.9,5.7c-3.2.5-8.6,1-14.9-.7-3.1-.9-5.7-2.1-7.6-3.2-2.6-2.2-5.7-5.3-8.6-9.3-3.6-5-5.7-9.8-6.9-13.4-1.9-2.6-4.2-6.2-6.1-10.8-1.6-4.1-2.5-7.8-2.9-10.8,0-2.2.1-5.1,1.1-8.4,1-3.7,2.6-6.6,3.9-8.6.9-1.1,2.1-2.4,3.4-3.6,3.2-2.9,6.5-4.6,9.1-5.7,1.9-.7,3.9-1.4,5.9-2.2,4.5-1.8,8.6-3.8,12.2-5.8,7.1-2.8,14.1-5.5,21.2-8.3,1.6-.7,4.9-1.9,9.1-1.6,2.9.2,5.1,1,6.6,1.6,2.6.8,5.2,1.6,7.9,2.3h0Z"/>
        <path class="st5" d="M215.3,441.5c-.2,0-.5.2-.9.2-.2,0-.4.3-.5.2-.6-.2-.5-1.2-1.3-1.1-.2,0-1.4.4-1.5.5-.2.2-.3.6-.5.9-.8,1-1.2.2-2,.2-.3,0-.5.2-.8.2-.5,0-.7-.5-1.3.1-.7.8,1.1,1.7,1.5,2.3-.5.5-1.2.5-1.8.7-.3.1-1.9.6-2,.7-.4.3-.2.6-.1.9h-.4c1.6,1.2,3.3.4,5.1.3-.2.6-2.3,3.4-1.8,3.8l1.7.5c.4-.4.9-.2,1.2-.4.4-.2.8-.8,1.2-1.1.8.8.9,2.3,1.9,2.8.8.4,2.1,0,2.4-.8,0,0-.5-1.1-.4-1.4.4-2,1.8-.4,2.6-.5.3,0,.7-.5,1.1-.5v-1.4c-.4-.3-2-1.5-2.2-1.9,0-.1.4-.9.5-1.3,0-.5-.4-1.5-.8-1.9.7-.5.3-.6.3-.9s.2-.3,0-.6c-.2-.5-.9-.8-1.4-.7h0Z"/>
        <path class="st5" d="M34.1,89.6c.2,0,.5.2.9.2.2,0,.4.3.5.2.5-.2.5-1.2,1.3-1.1.2,0,1.4.4,1.5.5.2.2.3.6.5.9.8,1,1.2.2,2,.2.3,0,.5.2.8.2.5,0,.7-.5,1.3.1.7.8-1.1,1.7-1.5,2.3.5.5,1.2.5,1.8.7.3,0,1.9.6,2,.7.3.3.2.6.1.9h.4c-1.6,1.2-3.3.4-5.1.3.2.6,2.3,3.4,1.8,3.8l-1.7.5c-.3-.4-.9-.2-1.2-.4-.4-.2-.8-.8-1.2-1.1-.8.8-.9,2.3-1.9,2.8-.8.4-2.1,0-2.4-.8,0,0,.5-1.1.4-1.4-.4-2-1.8-.4-2.6-.5-.3,0-.7-.5-1.1-.5v-1.4c.4-.3,2-1.5,2.2-1.9,0-.2-.4-.9-.5-1.3,0-.5.4-1.5.8-1.9-.7-.5-.3-.6-.3-.9s-.2-.3,0-.6c.2-.5.9-.8,1.4-.7h0Z"/>
        <path class="st1" d="M285.8,235.7c2.2.1,6.1.7,10.4,2.9,3.7,1.9,6.1,4.3,7.4,5.9,1.5,1.5,3.4,3.8,5,6.9,1.7,3.4,2.3,6.4,2.6,8.5.7,3.1,1.6,9.1-.6,16.3-1.8,6.1-5,10.4-7.1,12.7-1.5,2.6-4,6.3-8.2,9.8-4.3,3.7-8.6,5.8-11.6,7-3.3,1.2-7.6,2.4-12.6,3.1-6.2.9-11.5.7-15.5.2-2.9.4-7.2.6-12.3-.4-7.1-1.4-12-4.6-14.6-6.5-2.6-2-6.8-5.7-9.9-11.8-2.7-5.2-3.5-9.9-3.7-12.8-.5-2.2-.9-5-.9-8.2,0-4,.7-7.3,1.4-9.8.1-1.8.7-7.2,5.1-11.9,2.9-3.1,6.2-4.6,8.1-5.2,1.8-.9,3.7-1.7,5.6-2.4,18.8-7.3,37.4-6.7,51.5-4.3h0Z"/>
        <path class="st5" d="M261.6,265.3c.2,0,.5.2.9.2.2,0,.4.3.5.2.5-.2.5-1.2,1.3-1.1.2,0,1.4.4,1.5.5.2.2.3.6.5.9.8,1,1.2.2,2,.2.3,0,.5.2.8.2.5,0,.7-.5,1.3.1.7.8-1.1,1.7-1.5,2.3.5.5,1.2.5,1.8.7.3.1,1.9.6,2,.7.4.3.2.6.1.9h.4c-1.6,1.2-3.3.4-5.1.3.2.6,2.3,3.4,1.8,3.8l-1.7.5c-.4-.4-.9-.2-1.2-.4-.4-.2-.8-.8-1.2-1.1-.8.8-.9,2.3-1.9,2.8-.8.4-2.1,0-2.4-.8,0,0,.5-1.1.4-1.4-.4-2-1.8-.4-2.6-.5-.3,0-.7-.5-1.1-.5v-1.4c.4-.3,2-1.5,2.2-1.9,0-.1-.4-.9-.5-1.3,0-.5.4-1.5.8-1.9-.7-.5-.3-.6-.3-.9s-.2-.3,0-.6c.2-.5.9-.8,1.4-.7h0Z"/>
        <path class="st1" d="M501,272.5c.1,2.1,0,5.8-1.8,10.1-1.6,3.7-3.8,6.2-5.3,7.6-1.4,1.5-3.6,3.6-6.7,5.5-3.3,2-6.4,2.9-8.6,3.5-3.1,1-9.4,2.6-17.3,1.5-6.7-.9-11.6-3.4-14.3-5-2.9-1.1-7.1-3-11.4-6.4-4.5-3.6-7.2-7.3-8.8-9.9-1.7-2.9-3.5-6.8-4.9-11.4-1.7-5.6-2.1-10.6-2.2-14.4-.8-2.7-1.5-6.7-1.1-11.5.6-6.8,3.3-11.8,5-14.5,1.8-2.6,5.2-7.1,11.1-10.7,5.1-3.2,10-4.5,13.1-5.1,2.2-.8,5.1-1.5,8.5-1.9,4.2-.5,7.8-.3,10.5,0,1.9-.1,7.6-.3,13.2,3.3,3.6,2.4,5.6,5.3,6.5,6.9,1.1,1.6,2.2,3.2,3.2,5,10,16.7,11.7,34.1,10.9,47.6h0Z"/>
        <g>
          <path class="st1" d="M77.8,160.1c2.1-.8,5.8-2,10.7-1.8,4.2.2,7.5,1.3,9.4,2.2,2,.7,4.8,2,7.7,4.1,3.1,2.3,5.1,4.8,6.3,6.5,2.1,2.5,5.7,7.5,7.2,14.9,1.3,6.2.4,11.4-.4,14.4-.1,2.9-.7,7.3-2.7,12.2-2.1,5.1-5,8.8-7.1,11.1-2.4,2.5-5.6,5.3-9.8,8.1-5.1,3.4-10,5.4-13.8,6.7-2.4,1.6-6.2,3.6-11.2,4.8-7,1.7-13,.9-16.2.3-3.2-.7-8.8-2.3-14.5-6.4-4.9-3.5-7.8-7.4-9.4-9.9-1.5-1.8-3.2-4.1-4.7-6.9-1.9-3.6-2.9-6.8-3.4-9.4-.8-1.6-2.8-6.7-1-12.8,1.2-4,3.5-6.7,4.8-8.1,1.2-1.5,2.5-3,3.9-4.5,13.4-14.4,30.4-21.6,44.1-25.4h0Z"/>
          <path class="st5" d="M91.8,177.9c.2,0,.5.2.9.2.2,0,.4.3.5.2.6-.2.5-1.2,1.3-1.1.2,0,1.4.4,1.5.5.2.2.3.6.5.9.8,1,1.2.2,2,.2.3,0,.5.2.8.2.5,0,.7-.5,1.3.1.7.8-1.1,1.7-1.5,2.3.5.5,1.2.5,1.8.7.3.1,1.9.6,2,.7.3.3.2.6.1.9h.4c-1.6,1.2-3.3.4-5.1.3.2.6,2.3,3.4,1.8,3.8l-1.7.5c-.3-.4-.9-.2-1.2-.4-.4-.2-.8-.8-1.2-1.1-.8.8-.9,2.3-1.9,2.8-.8.4-2.1,0-2.4-.8,0,0,.5-1.1.4-1.4-.4-2-1.8-.4-2.6-.5-.3,0-.7-.5-1.1-.5v-1.4c.4-.3,2-1.5,2.2-1.9,0-.1-.4-.9-.5-1.3,0-.5.4-1.5.8-1.9-.7-.5-.3-.6-.3-.9s-.2-.3,0-.6c.2-.5.9-.8,1.4-.7h0Z"/>
        </g>
        <g>
          <path class="st1" d="M530.2,483.9c1.9,1.1,5.2,3.2,7.9,7,2.4,3.3,3.3,6.4,3.8,8.4.6,2,1.2,4.8,1.1,8.3-.1,3.7-1,6.7-1.8,8.6-.9,3-3,8.8-8.3,14.3-4.6,4.7-9.5,7.1-12.4,8.3-2.6,1.7-6.6,3.9-12,5.3-5.6,1.5-10.5,1.5-13.7,1.3-3.5-.3-7.9-1-12.8-2.6-5.9-1.8-10.6-4.3-13.9-6.4-2.8-.9-6.7-2.5-10.8-5.6-5.6-4.3-8.5-9.2-10-12-1.3-2.8-3.3-8-3.2-14.7,0-5.8,1.6-10.3,2.9-13,.6-2.2,1.5-4.8,3.1-7.7,1.9-3.5,4.1-6.2,5.9-8.2,1-1.5,4-6.1,10.3-8.5,4.1-1.5,7.8-1.4,9.7-1.2,2,0,4.1,0,6.2.2,20.3,1.5,36.6,9.9,48,18h0Z"/>
          <path class="st5" d="M476.2,481.6c0,.2.1.4.4.8,0,.2,0,.5.1.5.5.3,1.3-.3,1.7.3,0,.1.5,1.3.5,1.4,0,.2-.4.5-.5.9-.4,1.2.5,1,1,1.6.2.2.1.5.3.7.3.4.8.3.7,1-.2,1-2.1.2-2.9.2-.2.7.3,1.2.5,1.8,0,.3.6,1.8.6,1.9,0,.4-.4.5-.7.7l.2.3c-2-.5-2.3-2.2-3.3-3.6-.4.5-1.5,3.8-2.2,3.6l-1.5-1c.1-.5-.4-.8-.4-1.1,0-.5.2-1,.2-1.5-1.2-.1-2.5.7-3.5.2-.8-.4-1.2-1.6-.8-2.3,0,0,1.2-.3,1.5-.5,1.5-1.5-.8-1.6-1.1-2.3-.1-.3,0-.8-.2-1.2l1.1-.9c.6.1,2.5.7,3,.6.2,0,.5-.8.8-1.1.4-.4,1.5-.6,2-.5,0-.8.3-.6.6-.8.2-.1.2-.3.5-.4.5-.2,1.2.2,1.4.6h0Z"/>
        </g>
        <path class="st5" d="M301.5,52.3c.2,0,.5.2.9.2.2,0,.4.3.5.2.5-.2.5-1.2,1.3-1.1.2,0,1.4.4,1.5.5.2.2.3.6.5.9.8,1,1.2.2,2,.2.3,0,.5.2.8.2.5,0,.7-.5,1.3.1.7.8-1.1,1.7-1.5,2.3.5.5,1.2.5,1.8.7.3,0,1.9.6,2,.7.4.3.2.6.1.9h.4c-1.6,1.2-3.3.4-5.1.3.2.6,2.3,3.4,1.8,3.8l-1.7.5c-.4-.4-.9-.2-1.2-.4-.4-.2-.8-.8-1.2-1.1-.8.8-.9,2.3-1.9,2.8-.8.4-2.1,0-2.4-.8,0,0,.5-1.1.4-1.4-.4-2-1.8-.4-2.6-.5-.3,0-.7-.5-1.1-.5v-1.4c.4-.3,2-1.5,2.2-1.9,0-.2-.4-.9-.5-1.3,0-.5.4-1.5.8-1.9-.7-.5-.3-.6-.3-.9s-.2-.3,0-.6c.2-.5.9-.8,1.4-.7h0Z"/>
        <g>
          <path class="st1" d="M625.2,350.3c-.9,3.2-3.3,9.5-9.4,15.5-5.9,5.8-12.3,8.3-15.6,9.4-4.2,1-11,2.2-19.1,1.5-10-.9-17.3-4.4-21.2-6.5-1.3-.9-3.1-2.2-4.7-4.2-1.4-1.6-2.2-3.2-2.8-4.5-5-6.1-10-12.2-15-18.2-.6-1.9-1.2-4.5-1.3-7.6-.1-4.8,1.1-8.6,2.1-11.1,1.3-2.7,3.2-6,6.1-9.6,3.1-3.8,6.3-6.6,8.9-8.5,1.7-1.9,3.4-3.9,5.1-5.8,1.7-1.9,3.3-3.8,5-5.7,1.1-1.1,5-5,11.4-5.8,3.2-.4,5.7.1,7.3.5,2.1-.5,5.3-.9,9-.6,6.5.6,11,3.5,13,4.9,3.5,3,14,16.1,15.8,20.2,2,4.7,4,9.2,5.2,13.8,1.2,4.6,2.3,12.1.3,22.2h0Z"/>
          <path class="st5" d="M558.6,323.2c0,.2,0,.5.1.9,0,.2,0,.5,0,.5.4.4,1.4,0,1.6.7,0,.2,0,1.4,0,1.5,0,.2-.5.4-.7.8-.7,1.1.2,1.1.5,1.8.1.2,0,.5,0,.8.2.5.7.5.3,1.2-.5.9-2.1-.3-2.8-.5-.3.6,0,1.3,0,1.8,0,.3,0,1.9,0,2-.1.4-.5.4-.9.5v.3c-1.6-.9-1.5-2.8-2-4.3-.6.4-2.5,3.2-3.1,2.9l-1.2-1.3c.3-.5-.1-.9,0-1.2,0-.5.5-1,.6-1.4-1.1-.4-2.6,0-3.5-.7-.6-.5-.8-1.9-.1-2.4,0,0,1.3,0,1.6-.1,1.8-1.1-.3-1.8-.4-2.5,0-.3.2-.8.1-1.2l1.3-.6c.5.3,2.2,1.3,2.7,1.3.2,0,.7-.7,1.1-.9.5-.3,1.6-.2,2.1,0,.2-.8.5-.5.8-.6.2,0,.3-.3.5-.3.6,0,1.1.5,1.2,1h0Z"/>
        </g>
        <path class="st1" d="M60.5,347.6c-.7,3.2-2.7,9.7-8.3,16-5.5,6.1-11.7,9-15,10.3-4.1,1.3-10.8,2.9-18.9,2.6-10.1-.3-17.6-3.3-21.6-5.2-1.4-.8-3.2-2-5-3.9-1.5-1.5-2.5-3.1-3.1-4.3-5.4-5.8-10.8-11.5-16.2-17.3-.8-1.9-1.5-4.4-1.8-7.5-.5-4.8.5-8.7,1.3-11.2,1.1-2.7,2.8-6.2,5.4-10,2.8-4,5.9-7,8.3-9,1.6-2,3.2-4.1,4.7-6.1,1.5-2,3.1-4,4.6-6,1-1.2,4.7-5.2,11-6.4,3.1-.6,5.7-.2,7.3.1,2.1-.6,5.2-1.3,8.9-1.1,6.6.2,11.2,2.8,13.3,4.1,3.7,2.8,15.1,15.2,17.1,19.2,2.3,4.5,4.6,9,6.1,13.5,1.5,4.5,3.2,12,1.8,22.1h0Z"/>
        <path class="st1" d="M430.7-49.1c2.8,2,8.2,6.4,11.9,13.9,3.6,7.3,3.7,13.8,3.5,17.1-.5,4.1-1.8,10.4-5.6,17.2-4.6,8.4-10.7,13.6-14.2,16.2-1.4.9-3.3,1.9-5.9,2.6-2.1.6-4,.8-5.5.9-7.9,2.1-15.7,4.3-23.5,6.4-2.1-.1-4.9-.5-8-1.6-4.8-1.6-8.1-4.1-10.2-5.9-2.2-2.1-4.8-5-7.2-8.9-2.6-4.1-4.2-7.9-5.2-10.9-1.3-2.2-2.6-4.4-3.9-6.6-1.3-2.1-2.5-4.3-3.8-6.5-.7-1.4-3-6.2-1.5-12.1.8-2.9,2.2-5,3.2-6.2.3-2,1-5,2.7-8.1,3-5.5,7.5-8.4,9.6-9.5,4.2-1.9,21.1-6.4,25.8-6.4,5.4,0,10.6-.1,15.6.5s12.9,2.4,22,7.9h0Z"/>
        <path class="st1" d="M430.6,518.3c2.8,2,8.2,6.4,11.9,13.9,3.6,7.3,3.7,13.8,3.5,17.1-.5,4.1-1.8,10.4-5.6,17.2-4.6,8.5-10.7,13.6-14.2,16.2-1.4.9-3.3,1.9-5.9,2.6-2.1.6-4,.8-5.5.8-7.9,2.1-15.7,4.3-23.5,6.4-2.1-.1-4.9-.5-8-1.6-4.8-1.6-8.1-4.1-10.2-5.9-2.2-2.1-4.8-5-7.2-8.9-2.6-4.1-4.2-8-5.2-10.9-1.3-2.2-2.6-4.4-3.9-6.6-1.3-2.2-2.5-4.3-3.8-6.5-.7-1.4-3-6.2-1.5-12.1.8-2.9,2.2-5,3.2-6.2.3-2,1-5,2.7-8.1,3-5.5,7.5-8.3,9.6-9.5,4.2-1.9,21.1-6.4,25.8-6.4,5.4,0,10.6-.1,15.6.5,5,.7,12.9,2.4,22,7.9h0Z"/>
        <path class="st5" d="M447.1,60.2c-.2-.2-.4-.5-.9-.9-.2-.2-.2-.6-.5-.6-.8-.2-1.6,1-2.4.3-.2-.2-1.2-1.5-1.3-1.7,0-.3.2-.9.2-1.4,0-1.8-1.1-1.1-2.1-1.7-.3-.2-.4-.7-.7-.8-.6-.4-1.2,0-1.4-1.1-.2-1.4,2.7-1.1,3.7-1.5-.1-1-1-1.5-1.5-2.2-.2-.3-1.7-2.2-1.7-2.3-.2-.6.2-.8.6-1.2l-.4-.3c2.8-.2,4.2,2,6.1,3.5.3-.9.3-5.7,1.2-5.7l2.4.7c0,.7.8.9,1.1,1.3.3.5.2,1.5.5,2.1,1.6-.3,2.9-2,4.6-1.8,1.2.2,2.4,1.6,2.1,2.7,0,.1-1.5.9-1.7,1.3-1.2,2.6,1.8,1.8,2.6,2.6.3.3.4,1.1.8,1.5l-1.1,1.7c-.8,0-3.7,0-4.3.5-.2.1-.3,1.3-.5,1.8-.4.7-1.7,1.4-2.5,1.6.4,1.1-.1.9-.5,1.3-.2.2,0,.5-.4.7-.6.4-1.7.2-2.2-.3h0Z"/>
        <path class="st5" d="M480.6,252c-.2-.2-.4-.5-.9-.9-.2-.2-.2-.6-.5-.6-.8-.2-1.6,1-2.4.3-.2-.1-1.2-1.5-1.3-1.7,0-.4.2-.9.2-1.4,0-1.8-1.1-1.1-2.1-1.7-.3-.2-.4-.7-.7-.8-.6-.4-1.2,0-1.4-1.1-.2-1.4,2.7-1.1,3.7-1.5-.1-1-1-1.5-1.5-2.1-.2-.3-1.7-2.1-1.7-2.3-.2-.6.2-.8.6-1.2l-.4-.3c2.8-.2,4.2,2,6.1,3.5.3-.9.3-5.6,1.2-5.7l2.4.7c0,.7.8.9,1.1,1.3.3.6.2,1.5.5,2.1,1.6-.3,2.9-2,4.6-1.8,1.2.1,2.4,1.6,2.1,2.7,0,.1-1.5.9-1.7,1.3-1.2,2.6,1.8,1.9,2.6,2.6.3.3.4,1.1.8,1.5l-1.1,1.7c-.8,0-3.7.1-4.3.5-.2.1-.3,1.3-.5,1.9-.4.7-1.7,1.4-2.5,1.6.4,1.1-.1.9-.5,1.3-.2.2,0,.5-.4.7-.6.4-1.7.2-2.2-.3h0Z"/>
        <path class="st5" d="M488.9,350c-.3,0-.6-.3-1.2-.4-.3,0-.5-.4-.7-.3-.8.3-.9,1.6-1.9,1.5-.2,0-1.9-.7-2-.8-.3-.3-.3-.9-.6-1.3-1.1-1.5-1.6-.4-2.7-.5-.4,0-.7-.4-1-.4-.7,0-1,.6-1.8-.3-1-1.1,1.7-2.3,2.3-3.1-.6-.8-1.7-.8-2.5-1.1-.4-.2-2.6-1-2.7-1.1-.5-.4-.3-.8-.1-1.3h-.5c2.3-1.6,4.7-.4,7.1,0-.2-.9-2.9-5-2.1-5.5l2.5-.6c.5.6,1.2.4,1.7.6.6.3,1,1.2,1.6,1.6,1.2-1,1.4-3.2,3-3.8,1.1-.5,3,.2,3.3,1.3,0,.1-.8,1.5-.8,2,.4,2.8,2.5.7,3.6,1,.4,0,1,.8,1.5.9v2c-.7.4-3.1,1.9-3.4,2.5,0,.2.5,1.3.5,1.9,0,.8-.6,2-1.2,2.5,1,.7.4.8.3,1.3,0,.3.2.5,0,.8-.3.7-1.3,1-2,.9h0Z"/>
        <path class="st1" d="M495,390.6c-9.2,4.7-29.7,15.2-31,34.7-1.2,17.5,13.9,29.5,15.7,31,15.1,11.7,36.5,10.9,51.8,2,14.1-8.2,26.1-25,24-43.8-.2-2.1-2.7-21.4-18.6-29.6-15.5-7.9-32.1.6-41.9,5.6h0Z"/>
        <path class="st5" d="M494.2,438.5c-.2,0-.4.3-.8.5-.2,0-.3.4-.5.3-.6,0-.9-1-1.6-.7-.2,0-1.2.8-1.2.9-.1.2,0,.6-.2,1-.5,1.2-1,.5-1.8.8-.3,0-.4.4-.7.4-.5.1-.8-.2-1.2.5-.5.9,1.6,1.3,2.2,1.8-.3.6-1,.8-1.5,1.2-.2.2-1.6,1.1-1.7,1.2-.2.4,0,.6.1.9h-.4c1.9.9,3.3-.4,4.9-1,0,.6-1.1,3.9-.5,4.1h1.8c.2-.4.8-.4,1-.6.4-.3.5-1,.8-1.3,1,.5,1.5,2,2.7,2.2.8.1,2-.6,2.1-1.4,0,0-.8-.9-.9-1.2-.3-2,1.6-.9,2.4-1.2.3-.1.5-.7.9-.8l-.4-1.4c-.5-.2-2.5-.8-2.8-1.2-.1-.1.1-1,0-1.4,0-.5-.8-1.3-1.3-1.6.5-.7.1-.6,0-1,0-.2,0-.4-.1-.6-.3-.4-1.1-.5-1.6-.3h0Z"/>
        <path class="st5" d="M386,3.5c.2,0,.5.2.9.2.2,0,.4.3.5.2.5-.2.5-1.2,1.3-1.1.2,0,1.4.4,1.5.5.2.2.3.6.5.9.8,1,1.2.2,2,.2.3,0,.5.2.8.2.5,0,.7-.5,1.3.1.7.8-1.1,1.7-1.5,2.3.5.5,1.2.5,1.8.7.3,0,1.9.6,2,.7.4.3.2.6.1.9h.4c-1.6,1.2-3.3.4-5.1.3.2.6,2.3,3.4,1.8,3.8l-1.7.5c-.4-.4-.9-.2-1.2-.4-.4-.2-.8-.8-1.2-1.1-.8.8-.9,2.3-1.9,2.8-.8.4-2.1,0-2.4-.8,0,0,.5-1.1.4-1.4-.4-2-1.8-.4-2.6-.5-.3,0-.7-.5-1.1-.5v-1.4c.4-.3,2-1.5,2.2-1.9,0-.1-.4-.9-.5-1.3,0-.5.4-1.5.8-1.9-.7-.5-.3-.6-.3-.9s-.2-.3,0-.6c.2-.5.9-.8,1.4-.7h0Z"/>
        <g>
          <path class="st1" d="M66.5,503.8c6.6,5.1,21.2,16.3,18.9,31.3-2,13.5-16.1,20.3-17.9,21.1-14.1,6.5-31,2.5-41.8-6.7-9.9-8.5-16.6-23.2-11.7-37.1.5-1.5,5.8-15.9,19.9-19.5,13.7-3.6,25.6,5.5,32.6,10.9h0Z"/>
          <path class="st5" d="M67.1,529.6c.1,0,.2.3.5.5.1,0,.2.3.3.3.4,0,.9-.6,1.3-.2.1,0,.7.8.8.9,0,.2,0,.5,0,.8.1,1,.7.6,1.2.9.2.1.2.4.4.4.3.2.7,0,.8.6.2.8-1.4.7-2,1,0,.5.6.8.9,1.2.2.2,1,1.1,1,1.2.1.3,0,.5-.3.7l.2.2c-1.6.2-2.4-1-3.5-1.7-.2.5,0,3.1-.5,3.2l-1.4-.3c0-.4-.5-.5-.7-.7-.2-.3-.2-.8-.3-1.2-.9.2-1.5,1.2-2.5,1.1-.7,0-1.4-.8-1.3-1.4,0,0,.8-.5.9-.8.6-1.5-1-1-1.5-1.4-.2-.2-.2-.6-.5-.8l.5-1c.5,0,2-.2,2.3-.4,0,0,.1-.8.2-1,.2-.4.9-.8,1.3-1-.3-.6,0-.5.2-.7,0-.1,0-.3.2-.4.3-.3.9-.2,1.2,0h0Z"/>
        </g>
      </g>
    </g>
  </g>
  <g>
    <path class="st4" d="M98.4,329.2c0,.8.2,1.4.5,1.8.3.4.8.7,1.4.7s1.3-.3,2.3-.9c1.2-.7,2.4-1.2,3.5-1.6,1.1-.4,2.5-.6,4.3-.6s3.3.2,4.5.7c1.2.4,2.3,1.1,3.4,1.8.8.5,1.5.8,1.9,1,.4.2.9.3,1.5.3s1-.1,1.5-.3c.5-.2,1.1-.5,1.8-.9,1.4-.8,2.7-1.4,4.1-1.9,1.4-.5,3.2-.7,5.5-.7,4.2,0,7.6,1.3,10.1,4,2.5,2.7,3.7,6.4,3.7,11v25.5h-5.2v-24c0-3.8-.8-6.8-2.5-9-1.7-2.2-4-3.3-6.8-3.3s-5.7,1.1-7.6,3.3c-1.9,2.2-2.8,5.2-2.8,9v24h-5.2v-24c0-3.8-.8-6.8-2.5-9-1.7-2.2-4-3.3-6.8-3.3s-5.7,1.1-7.6,3.3c-1.9,2.2-2.8,5.2-2.8,9v24h-5.2v-40.1h5.2Z"/>
    <path class="st4" d="M160.6,349.4c2.3-2.1,5.6-3.5,9.7-4l10.8-1.3c.9-.1,1.6-.5,2.1-1.1.5-.6.8-1.3.8-2.2v-.6c0-2.4-.9-4.3-2.7-5.7-1.8-1.4-4.3-2-7.5-2s-4.2.3-5.7.9c-1.5.6-2.6,1.5-3.3,2.5-.7,1-1,2.1-1.1,3.3h-5.2c0-1.9.5-3.8,1.6-5.5,1-1.7,2.7-3.1,5-4.1,2.3-1,5.2-1.6,8.7-1.6s8.6,1,11.3,3.1c2.7,2.1,4,5,4,8.8v29.2h-5.2c0-.8-.2-1.4-.6-1.8-.4-.4-.9-.7-1.6-.7s-.8,0-1.2.3c-.4.2-.9.4-1.3.7-1.3.7-2.5,1.2-3.9,1.7-1.3.4-3,.6-5.2.6-4.1,0-7.4-1.1-9.7-3.3s-3.5-5.2-3.5-9.1,1.2-6,3.5-8.2ZM164.7,363.4c1.6,1.4,3.9,2.1,6.8,2.1s6.7-1.1,9-3.4,3.5-5.3,3.5-9v-1.7c0-1.2-.3-2-.9-2.6-.6-.6-1.5-.7-2.8-.6l-9.2,1.3c-2.8.4-5,1.3-6.5,2.7-1.6,1.4-2.4,3.2-2.4,5.3s.8,4.5,2.4,5.9Z"/>
    <path class="st4" d="M206.2,329.2v.8c0,.8.2,1.5.5,1.9.3.4.8.7,1.3.7s.6,0,1-.3c.3-.2.7-.4,1.1-.6,1.2-.7,2.5-1.3,3.9-1.8,1.4-.5,3.4-.7,5.8-.7h2.6v4.9h-2.6c-4.7,0-8.1,1.1-10.3,3.3s-3.3,5.8-3.3,10.8v21.1h-5.2v-40.1h5.2Z"/>
    <path class="st4" d="M237.2,366.6c-1.8-1.8-2.7-4.6-2.7-8.6v-20.9c0-1.1-.3-2-.9-2.6s-1.5-.9-2.6-.9h-5.3v-4.4h5.3c1.1,0,2-.3,2.6-.9.6-.6.9-1.5.9-2.6v-9h5.2v9c0,1.1.3,2,.9,2.6s1.5.9,2.6.9h7.6v4.4h-7.6c-1.1,0-2,.3-2.6.9-.6.6-.9,1.5-.9,2.6v20.9c0,2.4.5,4.2,1.5,5.2s2.5,1.6,4.7,1.6h5v4.4h-5c-4,0-6.9-.9-8.6-2.7Z"/>
    <path class="st4" d="M259.7,349.4c2.3-2.1,5.6-3.5,9.7-4l10.8-1.3c.9-.1,1.6-.5,2.1-1.1.5-.6.8-1.3.8-2.2v-.6c0-2.4-.9-4.3-2.7-5.7-1.8-1.4-4.3-2-7.5-2s-4.2.3-5.7.9c-1.5.6-2.6,1.5-3.3,2.5-.7,1-1,2.1-1.1,3.3h-5.2c0-1.9.5-3.8,1.6-5.5,1-1.7,2.7-3.1,5-4.1,2.3-1,5.2-1.6,8.7-1.6s8.6,1,11.3,3.1c2.7,2.1,4,5,4,8.8v29.2h-5.2c0-.8-.2-1.4-.6-1.8-.4-.4-.9-.7-1.6-.7s-.8,0-1.2.3c-.4.2-.9.4-1.3.7-1.3.7-2.5,1.2-3.9,1.7-1.3.4-3,.6-5.2.6-4.1,0-7.4-1.1-9.7-3.3s-3.5-5.2-3.5-9.1,1.2-6,3.5-8.2ZM263.9,363.4c1.6,1.4,3.9,2.1,6.8,2.1s6.7-1.1,9-3.4,3.5-5.3,3.5-9v-1.7c0-1.2-.3-2-.9-2.6-.6-.6-1.5-.7-2.8-.6l-9.2,1.3c-2.8.4-5,1.3-6.5,2.7-1.6,1.4-2.4,3.2-2.4,5.3s.8,4.5,2.4,5.9Z"/>
    <path class="st4" d="M324.4,314.2v14.5c0,1,.2,1.7.6,2.2.4.5.9.7,1.6.7s1.6-.4,2.8-1.1c1.3-.8,2.6-1.4,3.9-1.8,1.3-.4,3.1-.7,5.1-.7,3.3,0,6.2.9,8.7,2.6,2.5,1.7,4.4,4.2,5.7,7.3,1.3,3.2,2,6.9,2,11.2s-.7,8-2,11.2c-1.3,3.2-3.2,5.6-5.7,7.3-2.5,1.7-5.4,2.6-8.7,2.6s-3.8-.2-5.1-.7c-1.3-.4-2.6-1.1-3.9-1.8-1.2-.7-2.1-1.1-2.8-1.1s-1.2.2-1.6.7c-.4.4-.6,1.1-.6,1.8h-5.2v-55h5.2ZM327.7,361.4c2.2,3,5.3,4.5,9.1,4.5s6.9-1.5,9.1-4.5c2.3-3,3.4-7.1,3.4-12.2s-1.1-9.2-3.4-12.2c-2.3-3-5.3-4.5-9.1-4.5s-6.9,1.5-9.1,4.5-3.3,7.1-3.3,12.2,1.1,9.2,3.3,12.2Z"/>
    <path class="st4" d="M366.1,333.5c3.2-3.6,7.8-5.5,13.9-5.5s6.7.8,9.2,2.4c2.5,1.6,4.4,4,5.7,7.2,1.3,3.1,1.9,7,1.9,11.5v.9h-25.7c-1.1,0-2,.3-2.6.9-.6.6-.9,1.5-.9,2.6,0,2.3.5,4.3,1.4,6.2.9,1.9,2.4,3.4,4.2,4.5,1.9,1.1,4.1,1.7,6.8,1.7s5.4-.6,7-1.9c1.6-1.3,2.7-2.8,3.3-4.4.3-.8.5-1.5.6-2.2h5.2c0,2-.6,4-1.7,6-1.2,2-2.9,3.7-5.3,5-2.4,1.3-5.4,2-9,2-6,0-10.7-1.8-13.9-5.5-3.2-3.7-4.8-8.9-4.8-15.7s1.6-12,4.8-15.6ZM369,344.7c.6.6,1.5.9,2.6.9h15.2c1.1,0,2-.3,2.6-.9.6-.6.9-1.4.9-2.4,0-1.6-.4-3.1-1.3-4.6-.8-1.5-2.1-2.8-3.7-3.7-1.6-1-3.4-1.5-5.5-1.5s-4.4.5-6.2,1.5c-1.8,1-3.2,2.2-4.2,3.7-1,1.5-1.5,3.1-1.5,4.6s.3,1.9.9,2.4Z"/>
    <path class="st4" d="M411.2,314.2v55h-5.2v-55h5.2Z"/>
    <path class="st4" d="M428,314.2v55h-5.2v-55h5.2Z"/>
    <path class="st4" d="M442.1,364.8c-3.3-3.7-5-8.9-5-15.6s1.7-12,5-15.6c3.3-3.7,8.1-5.5,14.3-5.5s11,1.8,14.3,5.5c3.4,3.7,5.1,8.9,5.1,15.6s-1.7,11.9-5.1,15.6c-3.4,3.7-8.2,5.5-14.3,5.5s-10.9-1.8-14.3-5.5ZM466.6,361.5c2.5-3,3.7-7.1,3.7-12.3s-1.2-9.3-3.7-12.3c-2.5-3-5.9-4.4-10.2-4.4s-7.7,1.5-10.1,4.4c-2.4,3-3.7,7.1-3.7,12.3s1.2,9.3,3.7,12.3,5.8,4.5,10.1,4.5,7.8-1.5,10.2-4.5Z"/>
    <path class="st4" d="M91.2,392.5h5.2c0,.8.2,1.4.6,1.8.4.4.9.7,1.6.7s1.6-.4,2.8-1.1c1.3-.8,2.6-1.4,3.9-1.8,1.3-.4,3.1-.7,5.1-.7,3.3,0,6.2.9,8.7,2.6,2.5,1.7,4.4,4.2,5.7,7.3,1.3,3.2,2,6.9,2,11.2s-.7,8-2,11.2c-1.3,3.2-3.2,5.6-5.7,7.3-2.5,1.7-5.4,2.6-8.7,2.6s-3.8-.2-5.1-.7c-1.3-.4-2.6-1.1-3.9-1.8-1.2-.7-2.1-1.1-2.8-1.1s-1.2.2-1.6.7c-.4.5-.6,1.2-.6,2.2v14.5h-5.2v-55ZM99.7,424.7c2.2,3,5.3,4.5,9.1,4.5s6.9-1.5,9.1-4.5c2.3-3,3.4-7.1,3.4-12.2s-1.1-9.2-3.4-12.2c-2.3-3-5.3-4.5-9.1-4.5s-6.9,1.5-9.1,4.5c-2.2,3-3.3,7.1-3.3,12.2s1.1,9.2,3.3,12.2Z"/>
    <path class="st4" d="M136.6,412.7c2.3-2.1,5.6-3.5,9.7-4l10.8-1.3c.9-.1,1.6-.5,2.1-1.1.5-.6.8-1.3.8-2.2v-.6c0-2.4-.9-4.3-2.7-5.7-1.8-1.4-4.3-2-7.5-2s-4.2.3-5.7.9c-1.5.6-2.6,1.5-3.3,2.5-.7,1-1,2.1-1.1,3.3h-5.2c0-1.9.5-3.8,1.6-5.5,1-1.7,2.7-3.1,5-4.1,2.3-1,5.2-1.6,8.7-1.6s8.6,1,11.3,3.1c2.7,2.1,4,5,4,8.8v29.2h-5.2c0-.8-.2-1.4-.6-1.8-.4-.4-.9-.7-1.6-.7s-.8,0-1.2.3c-.4.2-.9.4-1.3.7-1.3.7-2.5,1.2-3.9,1.7-1.3.4-3,.6-5.2.6-4.1,0-7.4-1.1-9.7-3.3s-3.5-5.2-3.5-9.1,1.2-6,3.5-8.2ZM140.7,426.7c1.6,1.4,3.9,2.1,6.8,2.1s6.7-1.1,9-3.4,3.5-5.3,3.5-9v-1.7c0-1.2-.3-2-.9-2.6-.6-.6-1.5-.7-2.8-.6l-9.2,1.3c-2.8.4-5,1.3-6.5,2.7-1.6,1.4-2.4,3.2-2.4,5.3s.8,4.5,2.4,5.9Z"/>
    <path class="st4" d="M182.2,378.2v7.5h-5.7v-7.5h5.7ZM181.9,392.5v40.1h-5.2v-40.1h5.2Z"/>
    <path class="st4" d="M196.2,421.1c.1,1.5.5,2.8,1.3,4,.8,1.2,1.9,2.2,3.5,3,1.6.8,3.6,1.1,6.1,1.1s6-.6,7.9-1.8c1.9-1.2,2.9-2.9,2.9-5.1s-.7-3.5-2.1-4.7c-1.4-1.2-3.6-2.1-6.6-2.8l-6.4-1.4c-3.8-.8-6.6-2.1-8.4-3.9s-2.7-4.1-2.7-7.1,1.4-6.2,4.1-8.2c2.8-1.9,6.6-2.9,11.4-2.9s6.3.5,8.5,1.6,3.8,2.4,4.8,4.1c1,1.7,1.5,3.5,1.5,5.5h-5.2c-.1-1.2-.5-2.3-1.1-3.3-.7-1-1.7-1.8-3.1-2.5-1.4-.6-3.2-.9-5.3-.9-3.2,0-5.8.6-7.6,1.7-1.8,1.1-2.8,2.6-2.8,4.6s.6,3.2,1.7,4.2c1.2,1,3,1.8,5.4,2.4l6.4,1.3c4.3.9,7.6,2.3,9.6,4.2s3.1,4.5,3.1,7.7-1.4,6.5-4.2,8.6c-2.8,2.1-6.7,3.1-11.8,3.1s-6.6-.6-9.1-1.9c-2.4-1.3-4.2-2.9-5.3-4.8-1.1-1.9-1.7-3.9-1.7-5.9h5.2Z"/>
    <path class="st4" d="M425.9,436.5h-5.2c0-.8-.2-1.4-.6-1.8-.4-.4-.9-.7-1.6-.7s-1.6.4-2.8,1.1c-1.3.8-2.6,1.4-3.9,1.8s-3.1.7-5.1.7c-3.3,0-6.2-.9-8.7-2.6-2.5-1.7-4.4-4.2-5.7-7.3-1.3-3.2-2-6.9-2-11.2s.7-8,2-11.2c1.3-3.2,3.2-5.6,5.7-7.3,2.5-1.7,5.4-2.6,8.7-2.6s3.8.2,5.1.7,2.6,1.1,3.9,1.8c1.2.7,2.1,1.1,2.8,1.1s1.2-.2,1.6-.7c.4-.5.6-1.2.6-2.2v-14.5h5.2v55ZM417.4,404.2c-2.2-3-5.3-4.5-9.1-4.5s-6.9,1.5-9.1,4.5c-2.3,3-3.4,7.1-3.4,12.2s1.1,9.2,3.4,12.2c2.3,3,5.3,4.5,9.1,4.5s6.9-1.5,9.1-4.5c2.2-3,3.3-7.1,3.3-12.2s-1.1-9.2-3.3-12.2Z"/>
    <path class="st4" d="M439.9,400.8c3.2-3.6,7.8-5.5,13.9-5.5s6.7.8,9.2,2.4c2.5,1.6,4.4,4,5.7,7.2,1.3,3.1,1.9,7,1.9,11.5v.9h-25.7c-1.1,0-2,.3-2.6.9-.6.6-.9,1.5-.9,2.6,0,2.3.5,4.3,1.4,6.2.9,1.9,2.4,3.4,4.2,4.5,1.9,1.1,4.1,1.7,6.8,1.7s5.4-.6,7-1.9c1.6-1.3,2.7-2.8,3.3-4.4.3-.8.5-1.5.6-2.2h5.2c0,2-.6,4-1.7,6-1.2,2-2.9,3.7-5.3,5-2.4,1.3-5.4,2-9,2-6,0-10.7-1.8-13.9-5.5-3.2-3.7-4.8-8.9-4.8-15.7s1.6-12,4.8-15.6ZM442.8,412c.6.6,1.5.9,2.6.9h15.2c1.1,0,2-.3,2.6-.9.6-.6.9-1.4.9-2.4,0-1.6-.4-3.1-1.3-4.6-.8-1.5-2.1-2.8-3.7-3.7-1.6-1-3.4-1.5-5.5-1.5s-4.4.5-6.2,1.5c-1.8,1-3.2,2.2-4.2,3.7-1,1.5-1.5,3.1-1.5,4.6s.3,1.9.9,2.4Z"/>
    <path class="st4" d="M210.4,479.1c2.3-2.1,5.6-3.5,9.7-4l10.8-1.3c.9-.1,1.6-.5,2.1-1.1.5-.6.8-1.3.8-2.2v-.6c0-2.4-.9-4.3-2.7-5.7-1.8-1.4-4.3-2-7.5-2s-4.2.3-5.7.9c-1.5.6-2.6,1.5-3.3,2.5-.7,1-1,2.1-1.1,3.3h-5.2c0-1.9.5-3.8,1.6-5.5,1-1.7,2.7-3.1,5-4.1,2.3-1,5.2-1.6,8.7-1.6s8.6,1,11.3,3.1c2.7,2.1,4,5,4,8.8v29.2h-5.2c0-.8-.2-1.4-.6-1.8-.4-.4-.9-.7-1.6-.7s-.8,0-1.2.3c-.4.2-.9.4-1.3.7-1.3.7-2.5,1.2-3.9,1.7-1.3.4-3,.6-5.2.6-4.1,0-7.4-1.1-9.7-3.3s-3.5-5.2-3.5-9.1,1.2-6,3.5-8.2ZM214.5,493.2c1.6,1.4,3.9,2.1,6.8,2.1s6.7-1.1,9-3.4,3.5-5.3,3.5-9v-1.7c0-1.2-.3-2-.9-2.6-.6-.6-1.5-.7-2.8-.6l-9.2,1.3c-2.8.4-5,1.3-6.5,2.7-1.6,1.4-2.4,3.2-2.4,5.3s.8,4.5,2.4,5.9Z"/>
    <path class="st4" d="M255.7,444v55h-5.2v-55h5.2Z"/>
    <path class="st4" d="M272.7,458.9c0,.8.2,1.4.5,1.8.3.4.8.7,1.4.7s1.3-.3,2.3-.9c1.2-.7,2.4-1.2,3.5-1.6,1.1-.4,2.5-.6,4.3-.6s3.3.2,4.5.7c1.2.4,2.3,1.1,3.4,1.8.8.5,1.5.8,1.9,1,.4.2.9.3,1.5.3s1-.1,1.5-.3c.5-.2,1.1-.5,1.8-.9,1.4-.8,2.7-1.4,4.1-1.9,1.4-.5,3.2-.7,5.5-.7,4.2,0,7.6,1.3,10.1,4,2.5,2.7,3.7,6.4,3.7,11v25.5h-5.2v-24c0-3.8-.8-6.8-2.5-9-1.7-2.2-4-3.3-6.8-3.3s-5.7,1.1-7.6,3.3c-1.9,2.2-2.8,5.2-2.8,9v24h-5.2v-24c0-3.8-.8-6.8-2.5-9-1.7-2.2-4-3.3-6.8-3.3s-5.7,1.1-7.6,3.3c-1.9,2.2-2.8,5.2-2.8,9v24h-5.2v-40.1h5.2Z"/>
    <path class="st4" d="M336.2,463.3c3.2-3.6,7.8-5.5,13.9-5.5s6.7.8,9.2,2.4c2.5,1.6,4.4,4,5.7,7.2,1.3,3.1,1.9,7,1.9,11.5v.9h-25.7c-1.1,0-2,.3-2.6.9-.6.6-.9,1.5-.9,2.6,0,2.3.5,4.3,1.4,6.2.9,1.9,2.4,3.4,4.2,4.5,1.9,1.1,4.1,1.7,6.8,1.7s5.4-.6,7-1.9c1.6-1.3,2.7-2.8,3.3-4.4.3-.8.5-1.5.6-2.2h5.2c0,2-.6,4-1.7,6-1.2,2-2.9,3.7-5.3,5-2.4,1.3-5.4,2-9,2-6,0-10.7-1.8-13.9-5.5-3.2-3.7-4.8-8.9-4.8-15.7s1.6-12,4.8-15.6ZM339.2,474.5c.6.6,1.5.9,2.6.9h15.2c1.1,0,2-.3,2.6-.9.6-.6.9-1.4.9-2.4,0-1.6-.4-3.1-1.3-4.6-.8-1.5-2.1-2.8-3.7-3.7-1.6-1-3.4-1.5-5.5-1.5s-4.4.5-6.2,1.5c-1.8,1-3.2,2.2-4.2,3.7-1,1.5-1.5,3.1-1.5,4.6s.3,1.9.9,2.4Z"/>
    <path class="st4" d="M381.7,444.6v7.5h-5.7v-7.5h5.7ZM381.4,458.9v40.1h-5.2v-40.1h5.2Z"/>
    <path class="st4" d="M426.1,499h-5.2c0-.8-.2-1.4-.6-1.8-.4-.4-.9-.7-1.6-.7s-1.6.4-2.8,1.1c-1.3.8-2.6,1.4-3.9,1.8s-3.1.7-5.1.7c-3.3,0-6.2-.9-8.7-2.6-2.5-1.7-4.4-4.2-5.7-7.3-1.3-3.2-2-6.9-2-11.2s.7-8,2-11.2c1.3-3.2,3.2-5.6,5.7-7.3,2.5-1.7,5.4-2.6,8.7-2.6s3.8.2,5.1.7,2.6,1.1,3.9,1.8c1.2.7,2.1,1.1,2.8,1.1s1.2-.2,1.6-.7c.4-.5.6-1.2.6-2.2v-14.5h5.2v55ZM417.6,466.7c-2.2-3-5.3-4.5-9.1-4.5s-6.9,1.5-9.1,4.5c-2.3,3-3.4,7.1-3.4,12.2s1.1,9.2,3.4,12.2c2.3,3,5.3,4.5,9.1,4.5s6.9-1.5,9.1-4.5c2.2-3,3.3-7.1,3.3-12.2s-1.1-9.2-3.3-12.2Z"/>
    <path class="st4" d="M438.7,479.1c2.3-2.1,5.6-3.5,9.7-4l10.8-1.3c.9-.1,1.6-.5,2.1-1.1.5-.6.8-1.3.8-2.2v-.6c0-2.4-.9-4.3-2.7-5.7-1.8-1.4-4.3-2-7.5-2s-4.2.3-5.7.9c-1.5.6-2.6,1.5-3.3,2.5-.7,1-1,2.1-1.1,3.3h-5.2c0-1.9.5-3.8,1.6-5.5,1-1.7,2.7-3.1,5-4.1,2.3-1,5.2-1.6,8.7-1.6s8.6,1,11.3,3.1c2.7,2.1,4,5,4,8.8v29.2h-5.2c0-.8-.2-1.4-.6-1.8-.4-.4-.9-.7-1.6-.7s-.8,0-1.2.3c-.4.2-.9.4-1.3.7-1.3.7-2.5,1.2-3.9,1.7-1.3.4-3,.6-5.2.6-4.1,0-7.4-1.1-9.7-3.3s-3.5-5.2-3.5-9.1,1.2-6,3.5-8.2ZM442.8,493.2c1.6,1.4,3.9,2.1,6.8,2.1s6.7-1.1,9-3.4,3.5-5.3,3.5-9v-1.7c0-1.2-.3-2-.9-2.6-.6-.6-1.5-.7-2.8-.6l-9.2,1.3c-2.8.4-5,1.3-6.5,2.7-1.6,1.4-2.4,3.2-2.4,5.3s.8,4.5,2.4,5.9Z"/>
    <line class="st3" x1="237.1" y1="413.2" x2="375.8" y2="413.2"/>
    <line class="st3" x1="92" y1="477.9" x2="191" y2="477.9"/>
  </g>
</svg>