<?xml version="1.0" encoding="UTF-8"?>
<svg id="Camada_2" data-name="Camada 2" xmlns="http://www.w3.org/2000/svg" xmlns:xlink="http://www.w3.org/1999/xlink" viewBox="0 0 566.93 566.93">
  <defs>
    <style>
      .cls-1 {
        fill: none;
      }

      .cls-2 {
        fill: #9b7c77;
      }

      .cls-3 {
        fill: #eceade;
      }

      .cls-4 {
        fill: #b5b8a9;
      }

      .cls-5 {
        clip-path: url(#clippath);
      }
    </style>
    <clipPath id="clippath">
      <rect class="cls-1" width="566.93" height="566.93"/>
    </clipPath>
  </defs>
  <g id="Camada_1-2" data-name="Camada 1">
    <g class="cls-5">
      <rect class="cls-3" width="566.93" height="566.93"/>
      <path class="cls-2" d="M39.59,52.87c-1.91.17-6.17.79-10.37,3.71-3.44,2.39-5.26,5.23-6.12,6.81-2.35,2.95-4.87,6.53-7.23,10.76-3.1,5.56-5.11,10.74-6.43,15.07-.44,2.04-.81,4.57-.83,7.5-.02,3.13.37,5.84.84,7.97.52,2.07,1.61,5.3,4.05,8.69,2.53,3.51,5.43,5.7,7.32,6.92,4.76,5.63,9.51,11.27,14.27,16.9l13.92,9.16c2.94,1.24,8.09,2.93,14.59,2.69,3.26-.12,6.03-.7,8.19-1.33,3.07-1.55,6.85-3.82,10.71-7.08,4.81-4.06,8.03-8.24,10.12-11.43,2.57-2.09,5.73-5.07,8.71-9.11,2.66-3.6,4.41-7.02,5.58-9.78.6-2.09,1.18-4.98,1.15-8.43-.03-3.84-.8-7-1.53-9.19-.6-1.33-1.38-2.79-2.4-4.3-2.37-3.53-5.13-5.99-7.32-7.62-1.68-1.07-3.39-2.23-5.13-3.48-3.9-2.81-7.32-5.65-10.3-8.39-6.14-4.31-12.27-8.61-18.41-12.92-1.37-1.05-4.23-2.94-8.37-3.64-2.84-.48-5.23-.23-6.78.05-2.74.16-5.48.32-8.23.48Z"/>
      <path class="cls-2" d="M100.43-2.22c-1.81.6-5.78,2.18-9.1,5.97-2.72,3.11-3.76,6.27-4.18,8-1.52,3.4-3.04,7.44-4.24,12.09-1.58,6.1-2.18,11.59-2.35,16.09.09,2.08.39,4.62,1.12,7.46.79,3.04,1.87,5.58,2.87,7.54,1.04,1.89,2.93,4.77,6.17,7.5,3.36,2.83,6.73,4.29,8.88,5.04,6.07,4.38,12.13,8.76,18.2,13.14l15.86,5.71c3.17.53,8.6,1,14.85-.73,3.13-.86,5.67-2.06,7.6-3.16,2.58-2.21,5.66-5.27,8.57-9.31,3.62-5.04,5.67-9.83,6.87-13.4,1.95-2.61,4.25-6.23,6.11-10.83,1.65-4.1,2.47-7.82,2.89-10.76.04-2.17-.14-5.1-1.06-8.44-1.02-3.72-2.58-6.6-3.86-8.57-.92-1.15-2.06-2.39-3.43-3.63-3.21-2.88-6.52-4.64-9.07-5.72-1.9-.66-3.86-1.39-5.87-2.2-4.51-1.83-8.56-3.81-12.16-5.79-7.06-2.78-14.13-5.55-21.19-8.33-1.6-.7-4.86-1.88-9.06-1.62-2.88.18-5.14.97-6.56,1.6-2.62.78-5.24,1.56-7.86,2.34Z"/>
      <path class="cls-2" d="M487.04,140.96c-.35-1.77-1.39-5.71-4.86-9.38-2.84-3.01-6.01-4.46-7.75-5.12-3.33-1.94-7.35-3.97-12.04-5.81-6.16-2.41-11.83-3.81-16.52-4.66-2.2-.23-4.91-.35-8.01-.1-3.32.27-6.14.88-8.36,1.51-2.14.67-5.46,1.99-8.83,4.59-3.48,2.69-5.54,5.6-6.66,7.48-5.53,4.97-11.06,9.94-16.59,14.91l-8.43,13.88c-1.04,2.87-2.37,7.85-1.52,13.92.42,3.04,1.29,5.59,2.15,7.55,1.92,2.74,4.66,6.08,8.46,9.4,4.74,4.14,9.44,6.79,13.01,8.45,2.44,2.22,5.88,4.92,10.43,7.34,4.05,2.16,7.82,3.5,10.85,4.34,2.27.37,5.38.65,9.03.31,4.06-.38,7.33-1.39,9.58-2.27,1.35-.68,2.82-1.54,4.33-2.64,3.52-2.54,5.87-5.35,7.39-7.55.98-1.67,2.05-3.38,3.22-5.12,2.62-3.91,5.31-7.37,7.95-10.42,4-6.14,8-12.28,12-18.43.98-1.38,2.73-4.23,3.09-8.18.25-2.7-.23-4.93-.67-6.35-.42-2.56-.83-5.11-1.25-7.67Z"/>
      <path class="cls-2" d="M390.16,366.62c1.85.47,6.08,1.28,11.09-.08,4.11-1.12,6.87-3.18,8.25-4.38,3.29-1.99,6.98-4.53,10.76-7.72,4.96-4.19,8.76-8.4,11.59-12.02,1.17-1.77,2.45-4.02,3.55-6.75,1.18-2.93,1.81-5.59,2.16-7.75.28-2.11.45-5.5-.59-9.47-1.07-4.12-2.98-7.12-4.3-8.88-2.38-6.84-4.76-13.68-7.13-20.52l-9.67-13.15c-2.3-2.12-6.5-5.4-12.69-7.3-3.1-.95-5.92-1.32-8.17-1.43-3.45.45-7.84,1.34-12.66,3.13-6.01,2.24-10.58,5.09-13.71,7.41-3.18,1.11-7.25,2.87-11.53,5.69-3.82,2.51-6.73,5.14-8.84,7.34-1.33,1.77-2.94,4.28-4.19,7.53-1.39,3.61-1.83,6.82-1.96,9.12.07,1.44.26,3.06.66,4.82.92,4.09,2.6,7.3,4.05,9.54,1.18,1.55,2.36,3.2,3.52,4.94,2.62,3.91,4.78,7.69,6.56,11.24,4.16,6.05,8.32,12.09,12.49,18.14.9,1.43,2.88,4.14,6.5,6.15,2.48,1.38,4.82,1.93,6.37,2.17,2.63.75,5.26,1.5,7.89,2.25Z"/>
      <path class="cls-4" d="M401.64,284.99c.05.25,0,.64.14,1.22.06.24-.15.63,0,.77.58.57,1.92.06,2.21,1.03.07.22.13,1.91.06,2.07-.15.33-.7.62-.98,1.04-1.02,1.55.26,1.54.69,2.54.15.35-.06.77.07,1.06.27.64,1.02.65.47,1.66-.69,1.28-2.91-.5-3.98-.7-.49.86-.05,1.79-.03,2.58.01.41.1,2.67.05,2.8-.2.56-.68.59-1.22.65l.18.48c-2.48-1.32-2.25-3.87-2.96-6.1-.79.53-3.6,4.53-4.43,4.1l-1.62-1.84c.38-.64-.15-1.19-.11-1.68.05-.64.72-1.34.87-2-1.51-.59-3.64.11-4.89-.95-.88-.75-1.03-2.61-.16-3.34.09-.08,1.79.07,2.22-.18,2.58-1.48-.36-2.47-.59-3.52-.09-.4.34-1.14.19-1.66l1.9-.81c.7.39,3.11,1.88,3.82,1.87.24,0,1.04-.96,1.56-1.24.71-.38,2.22-.28,2.97,0,.32-1.12.66-.66,1.15-.84.26-.1.39-.38.78-.39.79-.02,1.53.68,1.66,1.39Z"/>
      <path class="cls-2" d="M527.17,311.3c-1.02-1.13-3.54-3.55-8.15-4.86-3.79-1.07-7.25-.91-9.1-.73-3.81-.13-8.27-.06-13.28.4-6.57.61-12.29,1.74-16.91,2.91-2.09.66-4.62,1.6-7.34,2.95-2.92,1.44-5.25,2.94-7.02,4.23-1.69,1.29-4.19,3.48-6.23,6.6-2.11,3.23-2.83,6.08-3.1,7.85-3.07,5.63-6.14,11.26-9.21,16.89l-2.18,13.07c.19,2.44.96,6.49,4.14,10.5,1.59,2.01,3.39,3.5,4.95,4.58,2.84,1.23,6.66,2.58,11.44,3.51,5.96,1.17,11.3,1.28,15.21,1.12,3.1.66,7.31,1.29,12.42,1.3,4.55.02,8.52-.46,11.61-.99,2.21-.59,5.16-1.56,8.35-3.18,3.55-1.8,6.13-3.75,7.84-5.23.96-1,1.96-2.17,2.9-3.51,2.2-3.14,3.23-6.03,3.74-8.17.23-1.56.53-3.18.9-4.87.83-3.77,1.92-7.26,3.11-10.42,1.21-5.89,2.42-11.77,3.63-17.66.35-1.35.81-4.04-.42-7-.84-2.02-2.16-3.43-3.13-4.27-1.39-1.67-2.79-3.33-4.18-5Z"/>
      <path class="cls-2" d="M329.63,179.14c-1.81.6-5.78,2.18-9.1,5.97-2.72,3.11-3.76,6.27-4.18,8-1.52,3.4-3.04,7.44-4.24,12.09-1.58,6.1-2.18,11.59-2.35,16.09.09,2.08.39,4.62,1.12,7.46.79,3.04,1.87,5.58,2.87,7.54,1.04,1.89,2.93,4.77,6.17,7.5,3.36,2.83,6.73,4.29,8.88,5.04,6.07,4.38,12.13,8.76,18.2,13.14l15.86,5.71c3.17.53,8.6,1,14.85-.73,3.13-.86,5.67-2.06,7.6-3.16,2.58-2.21,5.66-5.27,8.57-9.31,3.62-5.04,5.67-9.83,6.87-13.4,1.95-2.61,4.25-6.23,6.11-10.83,1.65-4.1,2.47-7.82,2.89-10.76.04-2.17-.14-5.1-1.06-8.44-1.02-3.72-2.58-6.6-3.86-8.57-.92-1.15-2.06-2.39-3.43-3.63-3.21-2.88-6.52-4.64-9.07-5.72-1.9-.66-3.86-1.39-5.87-2.2-4.51-1.83-8.56-3.81-12.16-5.79-7.06-2.78-14.13-5.55-21.19-8.33-1.6-.7-4.86-1.88-9.06-1.62-2.88.18-5.14.97-6.56,1.6-2.62.78-5.24,1.56-7.86,2.34Z"/>
      <path class="cls-4" d="M356.83,226.85c-.19-.18-.39-.53-.85-.93-.19-.17-.25-.6-.46-.64-.82-.16-1.62.97-2.44.32-.19-.15-1.25-1.51-1.29-1.67-.08-.35.2-.88.18-1.38-.09-1.82-1.14-1.13-2.09-1.73-.34-.21-.42-.67-.69-.84-.61-.39-1.23,0-1.39-1.12-.19-1.42,2.7-1.14,3.7-1.54-.11-.97-1.03-1.5-1.52-2.15-.25-.33-1.68-2.15-1.72-2.29-.17-.57.21-.84.62-1.19l-.43-.3c2.83-.23,4.18,2,6.1,3.46.33-.86.26-5.65,1.2-5.74l2.44.66c.07.73.84.9,1.1,1.32.34.55.21,1.49.49,2.11,1.6-.32,2.93-2.03,4.61-1.82,1.18.15,2.42,1.61,2.14,2.68-.03.11-1.51.89-1.73,1.33-1.24,2.59,1.78,1.85,2.6,2.59.31.28.4,1.12.84,1.47l-1.08,1.68c-.82.05-3.7.1-4.27.49-.2.13-.28,1.34-.54,1.85-.35.69-1.66,1.41-2.45,1.59.41,1.09-.15.9-.45,1.31-.16.22-.09.52-.41.74-.64.44-1.67.25-2.2-.26Z"/>
      <path class="cls-4" d="M445.46,200.76c-.19-.18-.39-.53-.85-.93-.19-.17-.25-.6-.46-.64-.82-.16-1.62.97-2.44.32-.19-.15-1.25-1.51-1.29-1.67-.08-.35.2-.88.18-1.38-.09-1.82-1.14-1.13-2.09-1.73-.34-.21-.42-.67-.69-.84-.61-.39-1.23,0-1.39-1.12-.19-1.42,2.7-1.14,3.7-1.54-.11-.97-1.03-1.5-1.52-2.15-.25-.33-1.68-2.15-1.72-2.29-.17-.57.21-.84.62-1.19l-.43-.3c2.83-.23,4.18,2,6.1,3.46.33-.86.26-5.65,1.2-5.74l2.44.66c.07.73.84.9,1.1,1.32.34.55.21,1.49.49,2.11,1.6-.32,2.93-2.03,4.61-1.82,1.18.15,2.42,1.61,2.14,2.68-.03.11-1.51.89-1.73,1.33-1.24,2.59,1.78,1.85,2.6,2.59.31.28.4,1.12.84,1.47l-1.08,1.68c-.82.05-3.7.1-4.27.49-.2.13-.28,1.34-.54,1.85-.35.69-1.66,1.41-2.45,1.59.41,1.09-.15.9-.45,1.31-.16.22-.09.52-.41.74-.64.44-1.67.25-2.2-.26Z"/>
      <g>
        <path class="cls-2" d="M520.23,195.75c1.38-1.26,4.65-3.9,9.74-5,4.17-.91,7.64-.36,9.47.05,3.91.24,8.43.76,13.38,1.83,6.5,1.4,11.99,3.34,16.34,5.21,1.93,1.01,4.22,2.39,6.59,4.28,2.54,2.02,4.47,4.06,5.89,5.79,1.33,1.72,3.23,4.6,4.37,8.55,1.19,4.09,1.07,7.59.82,9.73,1.45,7.07,2.91,14.13,4.36,21.2l-1.66,15.91c-.92,2.91-2.9,7.69-7.32,12.18-2.22,2.25-4.49,3.86-6.4,4.99-3.25,1.19-7.54,2.42-12.68,3.05-6.41.79-11.87.39-15.81-.2-3.35.48-7.82.8-13.02.3-4.63-.44-8.53-1.41-11.52-2.37-2.08-.93-4.78-2.4-7.55-4.67-3.08-2.52-5.12-5.13-6.42-7.07-.68-1.29-1.35-2.8-1.91-4.51-1.3-3.99-1.5-7.57-1.38-10.19.23-1.9.41-3.87.53-5.93.27-4.61.2-8.91-.07-12.82.52-7.19,1.03-14.38,1.55-21.56.04-1.66.38-4.93,2.51-8.35,1.46-2.34,3.22-3.89,4.45-4.81,1.91-1.86,3.82-3.71,5.74-5.57Z"/>
        <path class="cls-4" d="M517.35,267.17c.27-.04.64-.22,1.27-.3.26-.03.58-.35.77-.27.77.31.73,1.67,1.79,1.59.24-.02,1.95-.55,2.08-.66.28-.24.37-.83.7-1.22,1.19-1.44,1.63-.3,2.77-.27.41.01.75-.32,1.08-.31.73.02,1,.67,1.82-.15,1.03-1.05-1.5-2.4-2.07-3.28.69-.72,1.77-.66,2.56-.92.41-.13,2.69-.84,2.81-.92.49-.37.35-.8.23-1.3h.54c-2.17-1.74-4.64-.66-7.1-.51.26-.89,3.27-4.75,2.55-5.33l-2.39-.79c-.51.56-1.24.28-1.71.48-.62.27-1.09,1.1-1.69,1.45-1.11-1.13-1.15-3.25-2.64-3.99-1.05-.52-2.96,0-3.39,1.02-.04.11.68,1.55.59,2.03-.58,2.79-2.59.54-3.72.7-.43.06-1.01.7-1.59.74l-.16,1.96c.63.49,2.95,2.1,3.18,2.73.08.22-.59,1.25-.7,1.8-.14.76.49,2.06,1.02,2.63-1.01.67-.43.82-.44,1.31,0,.27-.24.47-.12.82.25.71,1.21,1.11,1.96.99Z"/>
      </g>
      <path class="cls-2" d="M-46.09,195.75c1.38-1.26,4.65-3.9,9.74-5,4.17-.91,7.64-.36,9.47.05,3.91.24,8.43.76,13.38,1.83,6.5,1.4,11.99,3.34,16.34,5.21,1.93,1.01,4.22,2.39,6.59,4.28,2.54,2.02,4.47,4.06,5.89,5.79,1.33,1.72,3.23,4.6,4.37,8.55,1.19,4.09,1.07,7.59.82,9.73,1.45,7.07,2.91,14.13,4.36,21.2l-1.66,15.91c-.92,2.91-2.9,7.69-7.32,12.18-2.22,2.25-4.49,3.86-6.4,4.99-3.25,1.19-7.54,2.42-12.68,3.05-6.41.79-11.87.39-15.81-.2-3.35.48-7.82.8-13.02.3-4.63-.44-8.53-1.41-11.52-2.37-2.08-.93-4.78-2.4-7.55-4.67-3.08-2.52-5.12-5.13-6.42-7.07-.68-1.29-1.35-2.8-1.91-4.51-1.3-3.99-1.5-7.57-1.38-10.19.23-1.9.41-3.87.53-5.93.27-4.61.2-8.91-.07-12.82.52-7.19,1.03-14.38,1.55-21.56.04-1.66.38-4.93,2.51-8.35,1.46-2.34,3.22-3.89,4.45-4.81,1.91-1.86,3.82-3.71,5.74-5.57Z"/>
      <path class="cls-2" d="M93.7,346.8c1.83.54,6.01,1.52,11.09.36,4.16-.95,7.01-2.9,8.44-4.04,3.38-1.86,7.18-4.24,11.1-7.28,5.15-3.99,9.13-8.04,12.13-11.55,1.25-1.72,2.63-3.92,3.85-6.61,1.31-2.88,2.06-5.52,2.51-7.66.37-2.1.7-5.47-.16-9.49-.89-4.16-2.66-7.23-3.9-9.04-2.07-6.93-4.13-13.86-6.2-20.79l-9.06-13.52c-2.2-2.21-6.25-5.65-12.35-7.8-3.05-1.08-5.85-1.55-8.09-1.76-3.47.31-7.89,1.02-12.79,2.62-6.11,1.99-10.8,4.67-14.03,6.85-3.22.99-7.37,2.58-11.78,5.22-3.93,2.35-6.95,4.86-9.17,6.98-1.41,1.71-3.13,4.16-4.53,7.36-1.55,3.55-2.14,6.74-2.37,9.03,0,1.44.12,3.07.44,4.84.74,4.12,2.27,7.4,3.62,9.69,1.11,1.6,2.21,3.29,3.3,5.08,2.44,4.01,4.42,7.88,6.04,11.49,3.89,6.21,7.77,12.41,11.66,18.62.83,1.47,2.69,4.25,6.22,6.41,2.42,1.48,4.73,2.12,6.27,2.42,2.59.85,5.19,1.71,7.78,2.56Z"/>
      <path class="cls-4" d="M101.51,292.07c.1.24.14.63.4,1.17.11.23-.01.64.16.76.69.45,1.9-.3,2.38.6.11.21.53,1.85.49,2.01-.08.35-.55.74-.74,1.2-.67,1.71.58,1.46,1.21,2.36.22.32.11.77.29,1.02.4.58,1.14.45.81,1.54-.41,1.38-2.96.05-4.05.06-.3.93.33,1.76.51,2.54.1.4.66,2.6.64,2.74-.08.59-.54.7-1.06.87l.27.44c-2.71-.83-3.02-3.38-4.18-5.43-.67.67-2.58,5.11-3.49,4.85l-1.97-1.5c.24-.7-.4-1.14-.46-1.62-.08-.63.42-1.45.43-2.12-1.61-.3-3.54.79-5-.02-1.02-.57-1.56-2.37-.86-3.25.07-.09,1.76-.27,2.14-.59,2.22-1.93-.87-2.36-1.32-3.35-.17-.38.1-1.18-.17-1.66l1.69-1.15c.77.25,3.45,1.27,4.14,1.12.24-.05.81-1.13,1.27-1.5.61-.51,2.12-.69,2.91-.56.08-1.16.51-.78.95-1.04.24-.14.3-.44.68-.53.77-.17,1.64.39,1.92,1.05Z"/>
      <path class="cls-2" d="M134.38,191.73c-1.81.6-5.78,2.18-9.1,5.97-2.72,3.11-3.76,6.27-4.18,8-1.52,3.4-3.04,7.44-4.24,12.09-1.58,6.1-2.18,11.59-2.35,16.09.09,2.08.39,4.62,1.12,7.46.79,3.04,1.87,5.58,2.87,7.54,1.04,1.89,2.93,4.77,6.17,7.5,3.36,2.83,6.73,4.29,8.88,5.04,6.07,4.38,12.13,8.76,18.2,13.14l15.86,5.71c3.17.53,8.6,1,14.85-.73,3.13-.86,5.67-2.06,7.6-3.16,2.58-2.21,5.66-5.27,8.57-9.31,3.62-5.04,5.67-9.83,6.87-13.4,1.95-2.61,4.25-6.23,6.11-10.83,1.65-4.1,2.47-7.82,2.89-10.76.04-2.17-.14-5.1-1.06-8.44-1.02-3.72-2.58-6.6-3.86-8.57-.92-1.15-2.06-2.39-3.43-3.63-3.21-2.88-6.52-4.64-9.07-5.72-1.9-.66-3.86-1.39-5.87-2.2-4.51-1.83-8.56-3.81-12.16-5.79-7.06-2.78-14.13-5.55-21.19-8.33-1.6-.7-4.86-1.88-9.06-1.62-2.88.18-5.14.97-6.56,1.6-2.62.78-5.24,1.56-7.86,2.34Z"/>
      <path class="cls-4" d="M161.58,239.44c-.19-.18-.39-.53-.85-.93-.19-.17-.25-.6-.46-.64-.82-.16-1.62.97-2.44.32-.19-.15-1.25-1.51-1.29-1.67-.08-.35.2-.88.18-1.38-.09-1.82-1.14-1.13-2.09-1.73-.34-.21-.42-.67-.69-.84-.61-.39-1.23,0-1.39-1.12-.19-1.42,2.7-1.14,3.7-1.54-.11-.97-1.03-1.5-1.52-2.15-.25-.33-1.68-2.15-1.72-2.29-.17-.57.21-.84.62-1.19l-.43-.3c2.83-.23,4.18,2,6.1,3.46.33-.86.26-5.65,1.2-5.74l2.44.66c.07.73.84.9,1.1,1.32.34.55.21,1.49.49,2.11,1.6-.32,2.93-2.03,4.61-1.82,1.18.15,2.42,1.61,2.14,2.68-.03.11-1.51.89-1.73,1.33-1.24,2.59,1.78,1.85,2.6,2.59.31.28.4,1.12.84,1.47l-1.08,1.68c-.82.05-3.7.1-4.27.49-.2.13-.28,1.34-.54,1.85-.35.69-1.66,1.41-2.45,1.59.41,1.09-.15.9-.45,1.31-.16.22-.09.52-.41.74-.64.44-1.67.25-2.2-.26Z"/>
      <path class="cls-2" d="M131.78,99.38c2.76-2.03,8.69-5.83,17.34-7.25,8.39-1.38,15.16.17,18.49,1.15,4.06,1.52,10.22,4.34,16.28,9.47,7.5,6.36,11.22,13.18,12.97,17.1.53,1.47,1.07,3.52,1.16,5.98.07,2.07-.2,3.83-.52,5.17.18,7.68.37,15.37.55,23.05-.69,1.91-1.82,4.31-3.68,6.83-2.9,3.91-6.32,6.37-8.67,7.78-2.71,1.44-6.39,3.08-10.97,4.33-4.88,1.32-9.24,1.78-12.55,1.9-2.6.61-5.2,1.22-7.8,1.83-2.53.59-5.07,1.19-7.6,1.78-1.58.3-7.19,1.17-12.79-1.72-2.79-1.44-4.55-3.28-5.54-4.52-2.03-.8-4.84-2.18-7.59-4.53-4.87-4.17-6.67-8.93-7.34-11.19-.91-4.33-1.16-20.8.01-25.11,1.32-4.88,2.59-9.63,4.55-14.02,1.95-4.38,5.78-11.09,13.7-18.03Z"/>
      <path class="cls-4" d="M154.35,142.89c-.17-.16-.35-.47-.76-.83-.17-.15-.23-.53-.41-.57-.73-.14-1.44.86-2.17.29-.17-.13-1.11-1.34-1.15-1.49-.07-.31.18-.78.16-1.23-.08-1.62-1.02-1.01-1.86-1.54-.3-.19-.37-.59-.61-.75-.54-.34-1.1,0-1.23-.99-.17-1.27,2.4-1.01,3.3-1.38-.1-.86-.92-1.34-1.36-1.91-.23-.29-1.5-1.92-1.53-2.04-.15-.51.18-.75.55-1.06l-.39-.27c2.52-.2,3.72,1.78,5.43,3.08.3-.77.23-5.03,1.07-5.11l2.17.58c.06.65.75.8.98,1.18.3.49.19,1.32.43,1.88,1.43-.28,2.61-1.8,4.1-1.62,1.05.13,2.15,1.43,1.9,2.38-.03.1-1.35.8-1.54,1.19-1.11,2.31,1.58,1.65,2.32,2.31.28.25.35,1,.75,1.3l-.96,1.5c-.73.04-3.29.09-3.8.44-.17.12-.25,1.19-.48,1.65-.32.62-1.48,1.26-2.18,1.41.36.97-.13.8-.4,1.17-.14.2-.08.46-.36.66-.57.39-1.49.22-1.96-.23Z"/>
      <path class="cls-2" d="M407.95,28.49c2.93-2.15,9.24-6.2,18.43-7.71,8.92-1.47,16.12.18,19.65,1.23,4.31,1.61,10.86,4.61,17.3,10.06,7.98,6.75,11.92,14,13.78,18.17.56,1.56,1.14,3.74,1.23,6.36.08,2.2-.21,4.07-.56,5.5.2,8.17.39,16.33.59,24.5-.74,2.03-1.93,4.58-3.91,7.26-3.08,4.15-6.71,6.76-9.21,8.27-2.88,1.53-6.79,3.28-11.66,4.6-5.19,1.41-9.82,1.89-13.33,2.02-2.76.65-5.53,1.3-8.29,1.94-2.69.63-5.38,1.26-8.08,1.89-1.68.32-7.64,1.25-13.59-1.82-2.96-1.53-4.84-3.49-5.89-4.81-2.16-.85-5.14-2.32-8.06-4.82-5.18-4.43-7.09-9.49-7.8-11.9-.97-4.6-1.23-22.11.01-26.69,1.41-5.19,2.75-10.24,4.83-14.9,2.07-4.65,6.14-11.78,14.56-19.16Z"/>
      <path class="cls-2" d="M318.5,87.96c2.76-2.03,8.69-5.83,17.34-7.25,8.39-1.38,15.16.17,18.49,1.15,4.06,1.52,10.22,4.34,16.28,9.47,7.5,6.36,11.22,13.18,12.97,17.1.53,1.47,1.07,3.52,1.16,5.98.07,2.07-.2,3.83-.52,5.17.18,7.68.37,15.37.55,23.05-.69,1.91-1.82,4.31-3.68,6.83-2.9,3.91-6.32,6.37-8.67,7.78-2.71,1.44-6.39,3.08-10.97,4.33-4.88,1.32-9.24,1.78-12.55,1.9-2.6.61-5.2,1.22-7.8,1.83-2.53.59-5.07,1.19-7.6,1.78-1.58.3-7.19,1.17-12.79-1.72-2.79-1.44-4.55-3.28-5.54-4.52-2.03-.8-4.84-2.18-7.59-4.53-4.87-4.17-6.67-8.93-7.34-11.19-.91-4.33-1.16-20.8.01-25.11,1.32-4.88,2.59-9.63,4.55-14.02,1.95-4.38,5.78-11.09,13.7-18.03Z"/>
      <path class="cls-4" d="M341.07,131.47c-.17-.16-.35-.47-.76-.83-.17-.15-.23-.53-.41-.57-.73-.14-1.44.86-2.17.29-.17-.13-1.11-1.34-1.15-1.49-.07-.31.18-.78.16-1.23-.08-1.62-1.02-1.01-1.86-1.54-.3-.19-.37-.59-.61-.75-.54-.34-1.1,0-1.23-.99-.17-1.27,2.4-1.01,3.3-1.38-.1-.86-.92-1.34-1.36-1.91-.23-.29-1.5-1.92-1.53-2.04-.15-.51.18-.75.55-1.06l-.39-.27c2.52-.2,3.72,1.78,5.43,3.08.3-.77.23-5.03,1.07-5.11l2.17.58c.06.65.75.8.98,1.18.3.49.19,1.32.43,1.88,1.43-.28,2.61-1.8,4.1-1.62,1.05.13,2.15,1.43,1.9,2.38-.03.1-1.35.8-1.54,1.19-1.11,2.31,1.58,1.65,2.32,2.31.28.25.35,1,.75,1.3l-.96,1.5c-.73.04-3.29.09-3.8.44-.17.12-.25,1.19-.48,1.65-.32.62-1.48,1.26-2.18,1.41.36.97-.13.8-.4,1.17-.14.2-.08.46-.36.66-.57.39-1.49.22-1.96-.23Z"/>
      <g>
        <path class="cls-2" d="M511.03,104.22c2.76-2.03,8.69-5.83,17.34-7.25,8.39-1.38,15.16.17,18.49,1.15,4.06,1.52,10.22,4.34,16.28,9.47,7.5,6.36,11.22,13.18,12.97,17.1.53,1.47,1.07,3.52,1.16,5.98.07,2.07-.2,3.83-.52,5.17.18,7.68.37,15.37.55,23.05-.69,1.91-1.82,4.31-3.68,6.83-2.9,3.91-6.32,6.37-8.67,7.78-2.71,1.44-6.39,3.08-10.97,4.33-4.88,1.32-9.24,1.78-12.55,1.9-2.6.61-5.2,1.22-7.8,1.83-2.53.59-5.07,1.19-7.6,1.78-1.58.3-7.19,1.17-12.79-1.72-2.79-1.44-4.55-3.28-5.54-4.52-2.03-.8-4.84-2.18-7.59-4.53-4.87-4.17-6.67-8.93-7.34-11.19-.91-4.33-1.16-20.8.01-25.11,1.32-4.88,2.59-9.63,4.55-14.02,1.95-4.38,5.78-11.09,13.7-18.03Z"/>
        <path class="cls-4" d="M519.38,131.47c-.17-.16-.35-.47-.76-.83-.17-.15-.23-.53-.41-.57-.73-.14-1.44.86-2.17.29-.17-.13-1.11-1.34-1.15-1.49-.07-.31.18-.78.16-1.23-.08-1.62-1.02-1.01-1.86-1.54-.3-.19-.37-.59-.61-.75-.54-.34-1.1,0-1.23-.99-.17-1.27,2.4-1.01,3.3-1.38-.1-.86-.92-1.34-1.36-1.91-.23-.29-1.5-1.92-1.53-2.04-.15-.51.18-.75.55-1.06l-.39-.27c2.52-.2,3.72,1.78,5.43,3.08.3-.77.23-5.03,1.07-5.11l2.17.58c.06.65.75.8.98,1.18.3.49.19,1.32.43,1.88,1.43-.28,2.61-1.8,4.1-1.62,1.05.13,2.15,1.43,1.9,2.38-.03.1-1.35.8-1.54,1.19-1.11,2.31,1.58,1.65,2.32,2.31.28.25.35,1,.75,1.3l-.96,1.5c-.73.04-3.29.09-3.8.44-.17.12-.25,1.19-.48,1.65-.32.62-1.48,1.26-2.18,1.41.36.97-.13.8-.4,1.17-.14.2-.08.46-.36.66-.57.39-1.49.22-1.96-.23Z"/>
      </g>
      <path class="cls-2" d="M-56.11,104.22c2.76-2.03,8.69-5.83,17.34-7.25,8.39-1.38,15.16.17,18.49,1.15,4.06,1.52,10.22,4.34,16.28,9.47,7.5,6.36,11.22,13.18,12.97,17.1.53,1.47,1.07,3.52,1.16,5.98.07,2.07-.2,3.83-.52,5.17.18,7.68.37,15.37.55,23.05-.69,1.91-1.82,4.31-3.68,6.83-2.9,3.91-6.32,6.37-8.67,7.78-2.71,1.44-6.39,3.08-10.97,4.33-4.88,1.32-9.24,1.78-12.55,1.9-2.6.61-5.2,1.22-7.8,1.83-2.53.59-5.07,1.19-7.6,1.78-1.58.3-7.19,1.17-12.79-1.72-2.79-1.44-4.55-3.28-5.54-4.52-2.03-.8-4.84-2.18-7.59-4.53-4.87-4.17-6.67-8.93-7.34-11.19-.91-4.33-1.16-20.8.01-25.11,1.32-4.88,2.59-9.63,4.55-14.02,1.95-4.38,5.78-11.09,13.7-18.03Z"/>
      <g>
        <path class="cls-2" d="M-24.64-23.51c3.49-.23,10.67-.26,18.69,3.1,7.78,3.27,12.48,8.11,14.65,10.68,2.47,3.39,5.9,8.97,7.88,16.41,2.45,9.22,1.48,16.83.61,21-.43,1.5-1.2,3.48-2.59,5.57-1.17,1.76-2.44,3.07-3.5,4.02-4.41,6.47-8.82,12.94-13.22,19.41-1.71,1.22-4.07,2.62-7.11,3.73-4.72,1.72-9.02,1.96-11.8,1.89-3.1-.23-7.13-.8-11.67-2.18-4.83-1.47-8.71-3.38-11.53-5.02-2.52-.86-5.04-1.72-7.55-2.58-2.45-.84-4.91-1.68-7.36-2.52-1.49-.58-6.66-2.81-9.59-8.15-1.46-2.66-1.83-5.12-1.91-6.67-1.21-1.73-2.72-4.36-3.6-7.75-1.57-6.02-.23-10.91.55-13.15,1.81-4.07,11.39-17.86,14.91-20.82,4-3.36,7.86-6.63,12.09-9.24,4.22-2.61,11.37-6.16,22.06-7.75Z"/>
        <path class="cls-4" d="M-10.65,41.26c-.05-.22-.01-.57-.13-1.09-.05-.22.13-.56,0-.69-.52-.5-1.71-.04-1.97-.91-.06-.2-.13-1.7-.07-1.84.13-.29.62-.55.86-.93.9-1.39-.24-1.37-.63-2.26-.14-.31.04-.69-.07-.94-.25-.57-.91-.57-.43-1.47.61-1.14,2.59.42,3.55.59.43-.77.03-1.59,0-2.3-.01-.36-.11-2.38-.06-2.49.17-.5.6-.53,1.08-.59l-.16-.43c2.21,1.16,2.03,3.43,2.67,5.41.7-.48,3.18-4.06,3.92-3.68l1.45,1.63c-.33.57.14,1.06.11,1.49-.04.57-.63,1.2-.76,1.78,1.35.52,3.24-.12,4.36.82.79.66.94,2.32.17,2.98-.08.07-1.59-.05-1.98.18-2.29,1.33.34,2.2.55,3.13.08.36-.3,1.01-.15,1.48L0,41.88c-.63-.35-2.78-1.66-3.41-1.64-.22,0-.92.86-1.38,1.11-.63.35-1.97.26-2.65.03-.28,1-.59.6-1.02.76-.23.09-.34.34-.69.35-.71.02-1.36-.6-1.49-1.22Z"/>
      </g>
      <g>
        <path class="cls-2" d="M543.09-25.56c3.49-.23,10.67-.26,18.69,3.1,7.78,3.27,12.48,8.11,14.65,10.68,2.47,3.39,5.9,8.97,7.88,16.41,2.45,9.22,1.48,16.83.61,21-.43,1.5-1.2,3.48-2.59,5.57-1.17,1.76-2.44,3.07-3.5,4.02-4.41,6.47-8.82,12.94-13.22,19.41-1.71,1.22-4.07,2.62-7.11,3.73-4.72,1.72-9.02,1.96-11.8,1.89-3.1-.23-7.13-.8-11.67-2.18-4.83-1.47-8.71-3.38-11.53-5.02-2.52-.86-5.04-1.72-7.55-2.58-2.45-.84-4.91-1.68-7.36-2.52-1.49-.58-6.66-2.81-9.59-8.15-1.46-2.66-1.83-5.12-1.91-6.67-1.21-1.73-2.72-4.36-3.6-7.75-1.57-6.02-.23-10.91.55-13.15,1.81-4.07,11.39-17.86,14.91-20.82,4-3.36,7.86-6.63,12.09-9.24,4.22-2.61,11.37-6.16,22.06-7.75Z"/>
        <path class="cls-4" d="M557.08,39.22c-.05-.22-.01-.57-.13-1.09-.05-.22.13-.56,0-.69-.52-.5-1.71-.04-1.97-.91-.06-.2-.13-1.7-.07-1.84.13-.29.62-.55.86-.93.9-1.39-.24-1.37-.63-2.26-.14-.31.04-.69-.07-.94-.25-.57-.91-.57-.43-1.47.61-1.14,2.59.42,3.55.59.43-.77.03-1.59,0-2.3-.01-.36-.11-2.38-.06-2.49.17-.5.6-.53,1.08-.59l-.16-.43c2.21,1.16,2.03,3.43,2.67,5.41.7-.48,3.18-4.06,3.92-3.68l1.45,1.63c-.33.57.14,1.06.11,1.49-.04.57-.63,1.2-.76,1.78,1.35.52,3.24-.12,4.36.82.79.66.94,2.32.17,2.98-.08.07-1.59-.05-1.98.18-2.29,1.33.34,2.2.55,3.13.08.36-.3,1.01-.15,1.48l-1.68.74c-.63-.35-2.78-1.66-3.41-1.64-.22,0-.92.86-1.38,1.11-.63.35-1.97.26-2.65.03-.28,1-.59.6-1.02.76-.23.09-.34.34-.69.35-.71.02-1.36-.6-1.49-1.22Z"/>
      </g>
      <path class="cls-2" d="M-26.8,542.7c3.48-.36,10.65-.66,18.81,2.41,7.91,2.98,12.81,7.64,15.09,10.13,2.61,3.3,6.27,8.74,8.57,16.11,2.84,9.12,2.19,16.76,1.49,20.96-.37,1.51-1.05,3.52-2.35,5.66-1.09,1.8-2.31,3.16-3.33,4.14-4.13,6.63-8.27,13.26-12.4,19.89-1.65,1.28-3.95,2.77-6.95,3.99-4.65,1.89-8.93,2.29-11.71,2.33-3.11-.11-7.15-.53-11.75-1.74-4.89-1.29-8.85-3.06-11.74-4.59-2.55-.77-5.1-1.53-7.66-2.3-2.49-.75-4.97-1.5-7.46-2.24-1.51-.53-6.77-2.56-9.92-7.78-1.57-2.6-2.04-5.04-2.19-6.59-1.28-1.69-2.9-4.25-3.92-7.61-1.82-5.95-.69-10.9,0-13.16,1.64-4.13,10.63-18.27,14.03-21.36,3.85-3.5,7.58-6.92,11.69-9.68,4.11-2.76,11.11-6.57,21.72-8.56Z"/>
      <path class="cls-2" d="M542.07,542.94c3.49-.23,10.67-.26,18.69,3.1,7.78,3.27,12.48,8.11,14.65,10.68,2.47,3.39,5.9,8.97,7.88,16.41,2.45,9.22,1.48,16.83.61,21-.43,1.5-1.2,3.48-2.59,5.57-1.17,1.76-2.44,3.07-3.5,4.02-4.41,6.47-8.82,12.94-13.22,19.41-1.71,1.22-4.07,2.62-7.11,3.73-4.72,1.72-9.02,1.96-11.8,1.89-3.1-.23-7.13-.8-11.67-2.18-4.83-1.47-8.71-3.38-11.53-5.02-2.52-.86-5.04-1.72-7.55-2.58-2.45-.84-4.91-1.68-7.36-2.52-1.49-.58-6.66-2.81-9.59-8.15-1.46-2.66-1.83-5.12-1.91-6.67-1.21-1.73-2.72-4.36-3.6-7.75-1.57-6.02-.23-10.91.55-13.15,1.81-4.07,11.39-17.86,14.91-20.82,4-3.36,7.86-6.63,12.09-9.24,4.22-2.61,11.37-6.16,22.06-7.75Z"/>
      <path class="cls-2" d="M225.12,305.75c2.86,1.9,8.45,6.14,12.4,13.52,3.84,7.16,4.22,13.71,4.18,16.99-.37,4.1-1.45,10.46-4.91,17.41-4.29,8.6-10.15,13.92-13.63,16.64-1.34.9-3.26,1.99-5.75,2.78-2.08.67-3.95.93-5.41,1.03-7.76,2.39-15.52,4.79-23.28,7.18-2.14-.07-4.91-.39-8.01-1.34-4.81-1.48-8.3-3.85-10.42-5.55-2.25-2.02-4.99-4.86-7.58-8.63-2.76-4.01-4.48-7.81-5.57-10.75-1.37-2.17-2.75-4.33-4.12-6.5-1.34-2.11-2.68-4.22-4.01-6.33-.76-1.34-3.28-6.14-1.96-12.02.65-2.93,2.02-5.05,2.99-6.31.23-2.06.82-4.99,2.41-8.15,2.82-5.6,7.15-8.6,9.25-9.86,4.14-2.08,20.82-7.07,25.53-7.27,5.35-.22,10.55-.46,15.57.03,5.02.49,12.95,1.99,22.3,7.12Z"/>
      <path class="cls-4" d="M187.42,338.69c.11-.2.37-.45.63-.92.1-.2.48-.36.46-.53-.06-.7-1.3-1.05-.92-1.88.09-.19,1.04-1.39,1.18-1.46.3-.15.85-.06,1.29-.21,1.62-.54.73-1.21,1.03-2.13.11-.32.5-.51.58-.77.19-.59-.32-.99.65-1.4,1.24-.52,1.73,1.87,2.35,2.57.84-.34,1.1-1.21,1.55-1.78.23-.29,1.51-1.9,1.62-1.97.47-.29.82-.05,1.23.19l.16-.43c.94,2.21-.73,3.87-1.56,5.78.87.05,5.18-1.25,5.51-.52l.03,2.12c-.64.25-.6.91-.91,1.22-.41.41-1.29.55-1.78.93.7,1.2,2.59,1.83,2.83,3.23.17.98-.83,2.35-1.87,2.41-.11,0-1.2-.98-1.65-1.04-2.67-.33-1.21,1.9-1.68,2.76-.18.32-.91.61-1.11,1.05l-1.8-.43c-.26-.64-1.04-2.94-1.55-3.3-.17-.12-1.29.12-1.81.04-.72-.11-1.71-.97-2.07-1.55-.88.61-.85.11-1.3-.02-.24-.07-.49.06-.77-.14-.56-.4-.65-1.28-.33-1.84Z"/>
      <path class="cls-2" d="M355.66,408.14c2.86,1.9,8.45,6.14,12.4,13.52,3.84,7.16,4.22,13.71,4.18,16.99-.37,4.1-1.45,10.46-4.91,17.41-4.29,8.6-10.15,13.92-13.63,16.64-1.34.9-3.26,1.99-5.75,2.78-2.08.67-3.95.93-5.41,1.03-7.76,2.39-15.52,4.79-23.28,7.18-2.14-.07-4.91-.39-8.01-1.34-4.81-1.48-8.3-3.85-10.42-5.55-2.25-2.02-4.99-4.86-7.58-8.63-2.76-4.01-4.48-7.81-5.57-10.75-1.37-2.17-2.75-4.33-4.12-6.5-1.34-2.11-2.68-4.22-4.01-6.33-.76-1.34-3.28-6.14-1.96-12.02.65-2.93,2.02-5.05,2.99-6.31.23-2.06.82-4.99,2.41-8.15,2.82-5.6,7.15-8.6,9.25-9.86,4.14-2.08,20.82-7.07,25.53-7.27,5.35-.22,10.55-.46,15.57.03,5.02.49,12.95,1.99,22.3,7.12Z"/>
      <path class="cls-4" d="M309.93,468.1c.11-.2.37-.45.63-.92.1-.2.48-.36.46-.53-.06-.7-1.3-1.05-.92-1.88.09-.19,1.04-1.39,1.18-1.46.3-.15.85-.06,1.29-.21,1.62-.54.73-1.21,1.03-2.13.11-.32.5-.51.58-.77.19-.59-.32-.99.65-1.4,1.24-.52,1.73,1.87,2.35,2.57.84-.34,1.1-1.21,1.55-1.78.23-.29,1.51-1.9,1.62-1.97.47-.29.82-.05,1.23.19l.16-.43c.94,2.21-.73,3.87-1.56,5.78.87.05,5.18-1.25,5.51-.52l.03,2.12c-.64.25-.6.91-.91,1.22-.41.41-1.29.55-1.78.93.7,1.2,2.59,1.83,2.83,3.23.17.98-.83,2.35-1.87,2.41-.11,0-1.2-.98-1.65-1.04-2.67-.33-1.21,1.9-1.68,2.76-.18.32-.91.61-1.11,1.05l-1.8-.43c-.26-.64-1.04-2.94-1.55-3.3-.17-.12-1.29.12-1.81.04-.72-.11-1.71-.97-2.07-1.55-.88.61-.85.11-1.3-.02-.24-.07-.49.06-.77-.14-.56-.4-.65-1.28-.33-1.84Z"/>
      <path class="cls-2" d="M154.68,362.39c2.86,1.9,8.45,6.14,12.4,13.52,3.84,7.16,4.22,13.71,4.18,16.99-.37,4.1-1.45,10.46-4.91,17.41-4.29,8.6-10.15,13.92-13.63,16.64-1.34.9-3.26,1.99-5.75,2.78-2.08.67-3.95.93-5.41,1.03-7.76,2.39-15.52,4.79-23.28,7.18-2.14-.07-4.91-.39-8.01-1.34-4.81-1.48-8.3-3.85-10.42-5.55-2.25-2.02-4.99-4.86-7.58-8.63-2.76-4.01-4.48-7.81-5.57-10.75-1.37-2.17-2.75-4.33-4.12-6.5-1.34-2.11-2.68-4.22-4.01-6.33-.76-1.34-3.28-6.14-1.96-12.02.65-2.93,2.02-5.05,2.99-6.31.23-2.06.82-4.99,2.41-8.15,2.82-5.6,7.15-8.6,9.25-9.86,4.14-2.08,20.82-7.07,25.53-7.27,5.35-.22,10.55-.46,15.57.03,5.02.49,12.95,1.99,22.3,7.12Z"/>
      <path class="cls-4" d="M110.71,379.62c.11-.2.37-.45.63-.92.1-.2.48-.36.46-.53-.06-.7-1.3-1.05-.92-1.88.09-.19,1.04-1.39,1.18-1.46.3-.15.85-.06,1.29-.21,1.62-.54.73-1.21,1.03-2.13.11-.32.5-.51.58-.77.19-.59-.32-.99.65-1.4,1.24-.52,1.73,1.87,2.35,2.57.84-.34,1.1-1.21,1.55-1.78.23-.29,1.51-1.9,1.62-1.97.47-.29.82-.05,1.23.19l.16-.43c.94,2.21-.73,3.87-1.56,5.78.87.05,5.18-1.25,5.51-.52l.03,2.12c-.64.25-.6.91-.91,1.22-.41.41-1.29.55-1.78.93.7,1.2,2.59,1.83,2.83,3.23.17.98-.83,2.35-1.87,2.41-.11,0-1.2-.98-1.65-1.04-2.67-.33-1.21,1.9-1.68,2.76-.18.32-.91.61-1.11,1.05l-1.8-.43c-.26-.64-1.04-2.94-1.55-3.3-.17-.12-1.29.12-1.81.04-.72-.11-1.71-.97-2.07-1.55-.88.61-.85.11-1.3-.02-.24-.07-.49.06-.77-.14-.56-.4-.65-1.28-.33-1.84Z"/>
      <path class="cls-2" d="M313.8,394.03c-3.27,1.17-10.13,3.17-18.84,2.14-8.45-1-14.44-4.36-17.31-6.22-3.41-2.57-8.41-6.97-12.6-13.55-5.19-8.15-6.61-15.7-7.06-19.93-.05-1.55.07-3.66.76-6.04.58-2,1.39-3.61,2.11-4.8,2.22-7.4,4.45-14.79,6.67-22.19,1.26-1.63,3.08-3.62,5.65-5.51,3.99-2.93,8.03-4.34,10.71-5.04,3.04-.63,7.07-1.18,11.84-1.1,5.08.08,9.38.86,12.59,1.66,2.68.14,5.35.27,8.03.41,2.61.13,5.21.27,7.82.4,1.6.15,7.24.87,11.69,5.18,2.21,2.15,3.33,4.4,3.89,5.86,1.69,1.33,3.95,3.43,5.84,6.43,3.36,5.33,3.59,10.38,3.52,12.73-.48,4.39-5.39,20.2-7.85,24-2.79,4.3-5.48,8.49-8.72,12.14-3.23,3.65-8.98,9-18.72,13.44Z"/>
      <path class="cls-4" d="M325.02,355.8c.11.2.19.54.46,1,.12.19.05.57.21.66.65.34,1.65-.43,2.17.33.12.17.65,1.59.63,1.74-.03.31-.42.7-.54,1.13-.43,1.57.66,1.25,1.3,1.99.23.26.17.67.35.88.41.48,1.05.3.87,1.29-.23,1.26-2.61.3-3.58.4-.17.85.46,1.53.7,2.2.12.34.83,2.24.83,2.37-.01.53-.41.67-.86.86l.29.36c-2.48-.5-3-2.73-4.23-4.45-.52.65-1.79,4.75-2.62,4.59l-1.89-1.16c.14-.64-.46-.97-.57-1.4-.13-.56.23-1.32.17-1.91-1.45-.12-3.06,1-4.43.41-.96-.42-1.61-1.96-1.08-2.8.05-.09,1.54-.39,1.84-.71,1.78-1.9-1-2.01-1.49-2.85-.19-.32-.03-1.05-.31-1.45l1.38-1.16c.71.16,3.17.83,3.77.63.2-.07.61-1.07.97-1.44.49-.5,1.81-.79,2.52-.75-.04-1.03.38-.73.74-1,.2-.15.22-.42.55-.53.67-.21,1.49.2,1.8.76Z"/>
      <path class="cls-2" d="M283.19,152.94c2.79,1.99,8.21,6.42,11.88,13.93,3.56,7.29,3.7,13.84,3.54,17.12-.52,4.08-1.84,10.41-5.56,17.23-4.61,8.45-10.67,13.58-14.24,16.17-1.37.86-3.34,1.88-5.85,2.59-2.11.6-3.99.8-5.45.85-7.85,2.13-15.69,4.26-23.54,6.4-2.14-.14-4.89-.55-7.96-1.61-4.76-1.64-8.15-4.12-10.2-5.9-2.17-2.1-4.8-5.02-7.25-8.88-2.61-4.1-4.18-7.95-5.16-10.93-1.29-2.21-2.58-4.42-3.87-6.63-1.26-2.15-2.51-4.31-3.77-6.46-.71-1.36-3.04-6.24-1.51-12.08.76-2.9,2.21-4.98,3.23-6.2.31-2.05,1.01-4.96,2.72-8.06,3.03-5.5,7.47-8.35,9.62-9.54,4.21-1.94,21.07-6.37,25.79-6.41,5.35-.04,10.56-.11,15.56.55,5,.66,12.86,2.43,22.01,7.86Z"/>
      <path class="cls-4" d="M244.27,184.59c.12-.2.39-.44.66-.9.11-.19.49-.34.48-.52-.04-.7-1.26-1.09-.85-1.91.09-.19,1.09-1.36,1.24-1.42.3-.14.85-.03,1.3-.17,1.64-.49.78-1.18,1.11-2.09.12-.32.51-.49.61-.75.21-.58-.28-1,.7-1.38,1.26-.48,1.65,1.93,2.26,2.65.86-.31,1.14-1.18,1.62-1.72.24-.28,1.58-1.85,1.7-1.92.48-.27.82-.02,1.23.23l.18-.42c.86,2.24-.88,3.84-1.78,5.73.87.07,5.23-1.08,5.52-.34l-.05,2.12c-.65.22-.63.88-.96,1.19-.43.4-1.31.51-1.82.87.65,1.23,2.52,1.92,2.71,3.32.13.99-.92,2.32-1.96,2.34-.11,0-1.16-1.02-1.61-1.09-2.65-.42-1.29,1.86-1.78,2.7-.19.32-.93.58-1.15,1.01l-1.78-.49c-.23-.65-.93-2.97-1.42-3.35-.17-.13-1.29.08-1.81-.02-.71-.13-1.67-1.03-2.01-1.62-.91.58-.86.08-1.3-.06-.24-.08-.5.04-.77-.16-.55-.42-.61-1.3-.27-1.85Z"/>
      <path class="cls-2" d="M225.23,474.17c3.47.39,10.54,1.63,17.74,6.35,6.99,4.58,10.64,10.17,12.26,13.08,1.75,3.77,4.01,9.85,4.47,17.51.57,9.49-1.9,16.79-3.59,20.73-.72,1.39-1.87,3.21-3.65,5.02-1.5,1.52-3.01,2.59-4.24,3.33-5.62,5.58-11.24,11.15-16.86,16.73-1.92.89-4.52,1.86-7.73,2.41-4.98.85-9.25.33-11.97-.23-3-.77-6.84-2.04-11.03-4.2-4.46-2.3-7.88-4.86-10.33-6.97-2.3-1.29-4.6-2.58-6.9-3.87-2.24-1.26-4.48-2.52-6.73-3.77-1.34-.84-5.98-3.93-7.79-9.7-.9-2.87-.77-5.35-.55-6.89-.84-1.91-1.8-4.76-1.99-8.25-.34-6.19,1.95-10.76,3.16-12.81,2.59-3.68,14.75-15.53,18.8-17.82,4.59-2.59,9.05-5.12,13.72-6.94,4.66-1.81,12.4-4.04,23.21-3.71Z"/>
      <path class="cls-4" d="M205.62,516.96c.14-.18.44-.39.76-.83.13-.18.53-.29.54-.46.04-.7-1.12-1.21-.62-1.98.11-.18,1.24-1.24,1.39-1.29.32-.11.85.05,1.31-.03,1.69-.32.91-1.1,1.34-1.97.15-.31.57-.43.69-.68.28-.56-.17-1.02.86-1.3,1.3-.35,1.42,2.09,1.94,2.86.89-.22,1.27-1.05,1.81-1.55.28-.25,1.79-1.68,1.91-1.73.51-.22.82.06,1.19.35l.23-.4c.59,2.32-1.31,3.73-2.42,5.51.85.16,5.32-.54,5.53.23l-.29,2.11c-.68.16-.73.82-1.09,1.09-.47.35-1.36.37-1.91.68.51,1.29,2.28,2.16,2.31,3.58.02,1-1.18,2.22-2.22,2.13-.11,0-1.04-1.14-1.48-1.25-2.59-.68-1.49,1.72-2.08,2.5-.22.3-1,.48-1.26.89l-1.71-.67c-.15-.67-.59-3.05-1.03-3.47-.15-.14-1.29-.06-1.8-.2-.7-.2-1.54-1.19-1.81-1.82-.97.48-.86,0-1.28-.2-.23-.1-.5,0-.74-.24-.5-.47-.45-1.35-.05-1.86Z"/>
      <path class="cls-2" d="M90.45,460.68c-1.04,3.14-3.63,9.45-9.89,15.25-6.07,5.63-12.58,7.98-15.91,8.95-4.25.92-11.03,1.9-19.11.92-10.01-1.21-17.19-4.84-20.99-7.12-1.32-.93-3.01-2.32-4.57-4.3-1.31-1.66-2.15-3.26-2.69-4.53-4.79-6.22-9.59-12.45-14.38-18.67-.58-1.94-1.11-4.52-1.1-7.59.02-4.77,1.35-8.62,2.43-11.04,1.36-2.64,3.39-5.95,6.41-9.43,3.22-3.7,6.53-6.4,9.18-8.28,1.77-1.89,3.54-3.79,5.31-5.68,1.72-1.84,3.45-3.69,5.17-5.53,1.12-1.09,5.2-4.81,11.56-5.43,3.16-.31,5.73.26,7.29.75,2.15-.42,5.3-.79,8.98-.33,6.52.82,10.88,3.78,12.8,5.28,3.36,3.07,13.52,16.5,15.16,20.66,1.86,4.73,3.69,9.31,4.73,13.97,1.04,4.65,1.94,12.21-.38,22.16Z"/>
      <path class="cls-4" d="M45.61,436.96c.24.04.57.2,1.12.28.23.03.51.32.68.25.69-.27.67-1.48,1.62-1.4.22.02,1.73.51,1.84.61.24.22.32.74.61,1.09,1.04,1.29,1.45.29,2.47.27.36,0,.66.29.95.29.65,0,.9-.59,1.61.16.91.95-1.37,2.12-1.88,2.9.6.65,1.56.61,2.27.85.36.12,2.39.77,2.49.85.43.34.3.72.19,1.16h.48c-1.95,1.53-4.14.54-6.33.39.22.79,2.85,4.26,2.21,4.78l-2.14.68c-.44-.5-1.1-.26-1.52-.45-.55-.24-.95-.99-1.49-1.31-1,1-1.06,2.88-2.4,3.53-.94.45-2.63-.03-3-.94-.04-.09.63-1.38.55-1.8-.48-2.49-2.3-.51-3.3-.66-.38-.06-.89-.63-1.4-.67l-.12-1.74c.57-.43,2.65-1.83,2.86-2.4.07-.19-.51-1.12-.6-1.61-.11-.68.46-1.83.94-2.33-.89-.61-.38-.73-.38-1.17,0-.24-.21-.43-.1-.73.23-.63,1.09-.98,1.75-.86Z"/>
      <path class="cls-2" d="M352.76,3.95c2.79,1.99,8.21,6.42,11.88,13.93,3.56,7.29,3.7,13.84,3.54,17.12-.52,4.08-1.84,10.41-5.56,17.23-4.61,8.45-10.67,13.58-14.24,16.17-1.37.86-3.34,1.88-5.85,2.59-2.11.6-3.99.8-5.45.85-7.85,2.13-15.69,4.26-23.54,6.4-2.14-.14-4.89-.55-7.96-1.61-4.76-1.64-8.15-4.12-10.2-5.9-2.17-2.1-4.8-5.02-7.25-8.88-2.61-4.1-4.18-7.95-5.16-10.93-1.29-2.21-2.58-4.42-3.87-6.63-1.26-2.15-2.51-4.31-3.77-6.46-.71-1.36-3.04-6.24-1.51-12.08.76-2.9,2.21-4.98,3.23-6.2.31-2.05,1.01-4.96,2.72-8.06,3.03-5.5,7.47-8.35,9.62-9.54,4.21-1.94,21.07-6.37,25.79-6.41,5.35-.04,10.56-.11,15.56.55,5,.66,12.86,2.43,22.01,7.86Z"/>
      <path class="cls-2" d="M352.76,570.94c2.79,1.99,8.21,6.42,11.88,13.93,3.56,7.29,3.7,13.84,3.54,17.12-.52,4.08-1.84,10.41-5.56,17.23-4.61,8.45-10.67,13.58-14.24,16.17-1.37.86-3.34,1.88-5.85,2.59-2.11.6-3.99.8-5.45.85-7.85,2.13-15.69,4.26-23.54,6.4-2.14-.14-4.89-.55-7.96-1.61-4.76-1.64-8.15-4.12-10.2-5.9-2.17-2.1-4.8-5.02-7.25-8.88-2.61-4.1-4.18-7.95-5.16-10.93-1.29-2.21-2.58-4.42-3.87-6.63-1.26-2.15-2.51-4.31-3.77-6.46-.71-1.36-3.04-6.24-1.51-12.08.76-2.9,2.21-4.98,3.23-6.2.31-2.05,1.01-4.96,2.72-8.06,3.03-5.5,7.47-8.35,9.62-9.54,4.21-1.94,21.07-6.37,25.79-6.41,5.35-.04,10.56-.11,15.56.55,5,.66,12.86,2.43,22.01,7.86Z"/>
      <path class="cls-2" d="M272.35,66.34c2.21.15,6.15.68,10.38,2.9,3.68,1.93,6.06,4.32,7.38,5.88,1.46,1.5,3.38,3.8,4.95,6.95,1.67,3.35,2.3,6.38,2.57,8.46.68,3.07,1.56,9.13-.57,16.31-1.82,6.12-5.05,10.38-7.1,12.7-1.49,2.57-4.04,6.26-8.18,9.81-4.31,3.71-8.63,5.81-11.56,6.97-3.31,1.2-7.57,2.42-12.63,3.13-6.16.86-11.49.66-15.48.23-2.9.37-7.24.59-12.3-.43-7.08-1.43-12.04-4.58-14.64-6.51-2.56-1.96-6.8-5.74-9.93-11.75-2.7-5.17-3.47-9.89-3.7-12.83-.51-2.19-.94-4.97-.93-8.18,0-3.97.67-7.32,1.38-9.8.1-1.78.67-7.17,5.12-11.9,2.93-3.11,6.25-4.56,8.09-5.22,1.8-.85,3.68-1.66,5.64-2.42,18.82-7.27,37.41-6.66,51.51-4.3Z"/>
      <path class="cls-4" d="M248.14,95.99c.19.03.46.16.9.23.19.03.41.26.54.2.55-.21.54-1.19,1.3-1.11.17.02,1.38.41,1.47.5.19.18.26.6.48.88.83,1.04,1.16.23,1.97.22.29,0,.53.23.76.23.52,0,.72-.47,1.29.13.72.76-1.1,1.69-1.52,2.31.48.52,1.25.49,1.82.69.29.1,1.91.63,1.99.69.35.27.24.57.14.93h.38c-1.57,1.22-3.31.42-5.07.29.17.63,2.27,3.42,1.75,3.83l-1.71.54c-.35-.4-.88-.21-1.21-.36-.44-.2-.76-.79-1.19-1.06-.81.79-.86,2.3-1.93,2.81-.76.36-2.11-.03-2.4-.76-.03-.08.51-1.1.44-1.44-.38-2-1.84-.41-2.64-.54-.31-.05-.71-.51-1.12-.54l-.09-1.4c.46-.34,2.13-1.46,2.3-1.91.06-.15-.41-.89-.47-1.29-.09-.54.37-1.46.76-1.86-.71-.49-.3-.59-.3-.94,0-.19-.17-.34-.07-.59.19-.5.88-.78,1.41-.68Z"/>
      <path class="cls-2" d="M242.32,4.47c1.7.11,4.72.53,7.97,2.23,2.83,1.48,4.65,3.32,5.67,4.52,1.12,1.15,2.6,2.92,3.8,5.33,1.28,2.57,1.77,4.9,1.97,6.5.52,2.35,1.2,7.01-.44,12.52-1.4,4.7-3.87,7.97-5.45,9.75-1.15,1.98-3.1,4.8-6.28,7.54-3.31,2.85-6.63,4.46-8.88,5.35-2.54.92-5.81,1.86-9.7,2.4-4.73.66-8.82.51-11.88.18-2.23.29-5.56.46-9.45-.33-5.43-1.1-9.24-3.52-11.24-5-1.96-1.51-5.22-4.41-7.63-9.02-2.07-3.97-2.66-7.59-2.84-9.85-.39-1.68-.72-3.82-.72-6.28,0-3.05.52-5.62,1.06-7.53.08-1.37.51-5.51,3.93-9.14,2.25-2.39,4.8-3.5,6.22-4.01,1.38-.65,2.83-1.28,4.33-1.86,14.45-5.58,28.72-5.12,39.55-3.3Z"/>
      <path class="cls-4" d="M223.74,27.24c.15.03.35.12.69.17.14.02.31.2.42.16.42-.16.41-.91,1-.86.13.01,1.06.32,1.13.38.15.14.2.46.37.67.64.8.89.18,1.52.17.22,0,.41.18.59.18.4,0,.56-.36.99.1.56.59-.85,1.3-1.17,1.78.37.4.96.38,1.39.53.22.08,1.47.48,1.53.53.27.21.18.44.11.72h.3c-1.2.94-2.54.32-3.89.22.13.49,1.74,2.63,1.34,2.94l-1.32.41c-.27-.31-.67-.16-.93-.28-.33-.15-.58-.61-.91-.81-.62.61-.66,1.77-1.48,2.16-.58.28-1.62-.02-1.84-.59-.02-.06.39-.84.34-1.1-.29-1.53-1.41-.32-2.03-.41-.23-.04-.55-.39-.86-.42l-.07-1.07c.35-.26,1.64-1.12,1.77-1.47.04-.12-.31-.69-.36-.99-.07-.42.29-1.12.58-1.43-.54-.37-.23-.45-.23-.72,0-.15-.13-.26-.06-.45.15-.38.67-.6,1.08-.52Z"/>
      <path class="cls-2" d="M423.63,449.9c1.7.11,4.72.53,7.97,2.23,2.83,1.48,4.65,3.32,5.67,4.52,1.12,1.15,2.6,2.92,3.8,5.33,1.28,2.57,1.77,4.9,1.97,6.5.52,2.35,1.2,7.01-.44,12.52-1.4,4.7-3.87,7.97-5.45,9.75-1.15,1.98-3.1,4.8-6.28,7.54-3.31,2.85-6.63,4.46-8.88,5.35-2.54.92-5.81,1.86-9.7,2.4-4.73.66-8.82.51-11.88.18-2.23.29-5.56.46-9.45-.33-5.43-1.1-9.24-3.52-11.24-5-1.96-1.51-5.22-4.41-7.63-9.02-2.07-3.97-2.66-7.59-2.84-9.85-.39-1.68-.72-3.82-.72-6.28,0-3.05.52-5.62,1.06-7.53.08-1.37.51-5.51,3.93-9.14,2.25-2.39,4.8-3.5,6.22-4.01,1.38-.65,2.83-1.28,4.33-1.86,14.45-5.58,28.72-5.12,39.55-3.3Z"/>
      <path class="cls-4" d="M405.04,472.66c.15.03.35.12.69.17.14.02.31.2.42.16.42-.16.41-.91,1-.86.13.01,1.06.32,1.13.38.15.14.2.46.37.67.64.8.89.18,1.52.17.22,0,.41.18.59.18.4,0,.56-.36.99.1.56.59-.85,1.3-1.17,1.78.37.4.96.38,1.39.53.22.08,1.47.48,1.53.53.27.21.18.44.11.72h.3c-1.2.94-2.54.32-3.89.22.13.49,1.74,2.63,1.34,2.94l-1.32.41c-.27-.31-.67-.16-.93-.28-.33-.15-.58-.61-.91-.81-.62.61-.66,1.77-1.48,2.16-.58.28-1.62-.02-1.84-.59-.02-.06.39-.84.34-1.1-.29-1.53-1.41-.32-2.03-.41-.23-.04-.55-.39-.86-.42l-.07-1.07c.35-.26,1.64-1.12,1.77-1.47.04-.12-.31-.69-.36-.99-.07-.42.29-1.12.58-1.43-.54-.37-.23-.45-.23-.72,0-.15-.13-.26-.06-.45.15-.38.67-.6,1.08-.52Z"/>
      <path class="cls-2" d="M113.25,448.92c1.44-1.59,4.24-4.25,8.65-6.14,3.83-1.64,7.29-2.02,9.41-2.09,2.15-.22,5.25-.3,8.88.38,3.85.73,6.82,2.05,8.76,3.09,3.02,1.31,8.73,4.24,13.6,10.12,4.15,5.01,5.87,9.99,6.64,12.92,1.31,2.66,2.94,6.78,3.53,12.02.61,5.47-.16,9.99-.91,12.89-.94,3.21-2.43,7.17-4.83,11.42-2.93,5.17-6.26,9.09-9,11.86-1.4,2.42-3.79,5.83-7.68,9.06-5.43,4.51-11.06,6.4-14.26,7.22-3.19.77-8.95,1.74-15.94.54-6.02-1.03-10.51-3.25-13.16-4.82-2.18-.92-4.8-2.24-7.55-4.16-3.39-2.36-5.85-4.85-7.56-6.86-1.46-1.14-5.73-4.76-7.13-10.94-.92-4.06-.18-7.45.35-9.23.34-1.87.77-3.78,1.28-5.71,4.97-18.57,16.53-32.28,26.93-41.56Z"/>
      <path class="cls-4" d="M128.99,473.64c.19.03.46.16.9.23.19.03.41.26.54.2.55-.21.54-1.19,1.3-1.11.17.02,1.38.41,1.47.5.19.18.26.6.48.88.83,1.04,1.16.23,1.97.22.29,0,.53.23.76.23.52,0,.72-.47,1.29.13.72.76-1.1,1.69-1.52,2.31.48.52,1.25.49,1.82.69.29.1,1.91.63,1.99.69.35.27.24.57.14.93h.38c-1.57,1.22-3.31.42-5.07.29.17.63,2.27,3.42,1.75,3.83l-1.71.54c-.35-.4-.88-.21-1.21-.36-.44-.2-.76-.79-1.19-1.06-.81.79-.86,2.3-1.93,2.81-.76.36-2.11-.03-2.4-.76-.03-.08.51-1.1.44-1.44-.38-2-1.84-.41-2.64-.54-.31-.05-.71-.51-1.12-.54l-.09-1.4c.46-.34,2.13-1.46,2.3-1.91.06-.15-.41-.89-.47-1.29-.09-.54.37-1.46.76-1.86-.71-.49-.3-.59-.3-.94,0-.19-.17-.34-.07-.59.19-.5.88-.78,1.41-.68Z"/>
      <path class="cls-4" d="M123.05,34.6c.19.03.46.16.9.23.19.03.41.26.54.2.55-.21.54-1.19,1.3-1.11.17.02,1.38.41,1.47.5.19.18.26.6.48.88.83,1.04,1.16.23,1.97.22.29,0,.53.23.76.23.52,0,.72-.47,1.29.13.72.76-1.1,1.69-1.52,2.31.48.52,1.25.49,1.82.69.29.1,1.91.63,1.99.69.35.27.24.57.14.93h.38c-1.57,1.22-3.31.42-5.07.29.17.63,2.27,3.42,1.75,3.83l-1.71.54c-.35-.4-.88-.21-1.21-.36-.44-.2-.76-.79-1.19-1.06-.81.79-.86,2.3-1.93,2.81-.76.36-2.11-.03-2.4-.76-.03-.08.51-1.1.44-1.44-.38-2-1.84-.41-2.64-.54-.31-.05-.71-.51-1.12-.54l-.09-1.4c.46-.34,2.13-1.46,2.3-1.91.06-.15-.41-.89-.47-1.29-.09-.54.37-1.46.76-1.86-.71-.49-.3-.59-.3-.94,0-.19-.17-.34-.07-.59.19-.5.88-.78,1.41-.68Z"/>
      <path class="cls-2" d="M100.43,564.75c-1.81.6-5.78,2.18-9.1,5.97-2.72,3.11-3.76,6.27-4.18,8-1.52,3.4-3.04,7.44-4.24,12.09-1.58,6.1-2.18,11.59-2.35,16.09.09,2.08.39,4.62,1.12,7.46.79,3.04,1.87,5.58,2.87,7.54,1.04,1.89,2.93,4.77,6.17,7.5,3.36,2.83,6.73,4.29,8.88,5.04,6.07,4.38,12.13,8.76,18.2,13.14l15.86,5.71c3.17.53,8.6,1,14.85-.73,3.13-.86,5.67-2.06,7.6-3.16,2.58-2.21,5.66-5.27,8.57-9.31,3.62-5.04,5.67-9.83,6.87-13.4,1.95-2.61,4.25-6.23,6.11-10.83,1.65-4.1,2.47-7.82,2.89-10.76.04-2.17-.14-5.1-1.06-8.44-1.02-3.72-2.58-6.6-3.86-8.57-.92-1.15-2.06-2.39-3.43-3.63-3.21-2.88-6.52-4.64-9.07-5.72-1.9-.66-3.86-1.39-5.87-2.2-4.51-1.83-8.56-3.81-12.16-5.79-7.06-2.78-14.13-5.55-21.19-8.33-1.6-.7-4.86-1.88-9.06-1.62-2.88.18-5.14.97-6.56,1.6-2.62.78-5.24,1.56-7.86,2.34Z"/>
      <g>
        <path class="cls-2" d="M461.32,408.94c.6-1.58,1.73-5.21.77-9.7-.78-3.68-2.61-6.25-3.68-7.55-1.71-3.03-3.93-6.45-6.78-10-3.75-4.66-7.61-8.3-10.97-11.06-1.65-1.16-3.78-2.46-6.39-3.62-2.8-1.25-5.38-2.01-7.48-2.48-2.06-.41-5.39-.81-9.39-.22-4.14.62-7.25,2.06-9.09,3.08-6.93,1.55-13.86,3.1-20.79,4.65l-13.71,7.44c-2.27,1.85-5.83,5.27-8.18,10.53-1.18,2.64-1.76,5.07-2.04,7.03.18,3.05.71,6.95,2.11,11.31,1.74,5.43,4.21,9.64,6.25,12.56.85,2.86,2.28,6.56,4.72,10.52,2.18,3.53,4.55,6.28,6.56,8.29,1.64,1.3,4,2.9,7.11,4.24,3.45,1.49,6.59,2.13,8.84,2.41,1.43.05,3.04,0,4.8-.2,4.1-.49,7.4-1.71,9.72-2.8,1.62-.91,3.34-1.81,5.15-2.7,4.06-1.99,7.96-3.58,11.59-4.87,6.29-3.17,12.57-6.34,18.86-9.52,1.48-.67,4.3-2.19,6.57-5.21,1.55-2.06,2.27-4.07,2.63-5.4.94-2.24,1.88-4.48,2.82-6.72Z"/>
        <path class="cls-4" d="M422.18,409.32c-.11.13-.33.29-.58.61-.1.13-.4.21-.41.34-.04.52.82.92.44,1.49-.09.13-.95.91-1.06.94-.24.08-.63-.05-.98,0-1.27.21-.69.81-1.03,1.45-.12.23-.43.32-.53.5-.22.41.11.76-.66.96-.98.24-1.03-1.57-1.4-2.16-.67.15-.96.77-1.37,1.13-.21.19-1.36,1.23-1.45,1.27-.38.16-.61-.06-.88-.28l-.17.3c-.41-1.74,1.04-2.76,1.89-4.08-.63-.13-3.98.33-4.12-.25l.25-1.57c.51-.11.56-.6.83-.8.36-.26,1.02-.26,1.43-.48-.36-.97-1.67-1.64-1.67-2.7,0-.74.91-1.64,1.69-1.56.08,0,.76.86,1.08.95,1.92.55,1.14-1.26,1.59-1.84.17-.22.75-.34.95-.65l1.27.52c.11.5.39,2.28.71,2.61.11.11.96.06,1.34.18.52.16,1.13.91,1.32,1.38.73-.35.64.01.95.16.17.08.37.01.55.19.36.36.32,1.01,0,1.39Z"/>
      </g>
      <g>
        <path class="cls-2" d="M277.07,485.95c-1.49.68-4.72,2.39-7.11,5.85-1.96,2.83-2.45,5.54-2.6,6.99-.89,2.94-1.69,6.42-2.14,10.35-.59,5.16-.42,9.72,0,13.42.34,1.69.92,3.75,1.91,5.99,1.06,2.41,2.31,4.37,3.43,5.87,1.13,1.44,3.13,3.6,6.27,5.49,3.25,1.96,6.35,2.8,8.3,3.19,5.79,2.94,11.58,5.89,17.37,8.83l14.41,2.99c2.81.1,7.55-.1,12.72-2.17,2.59-1.04,4.64-2.29,6.16-3.39,1.95-2.08,4.22-4.92,6.22-8.54,2.49-4.51,3.66-8.65,4.24-11.7,1.36-2.34,2.89-5.55,3.9-9.51.91-3.53,1.15-6.66,1.14-9.12-.24-1.78-.77-4.16-1.98-6.8-1.35-2.94-3.06-5.13-4.41-6.61-.94-.84-2.08-1.74-3.42-2.61-3.14-2.02-6.22-3.11-8.55-3.72-1.73-.34-3.51-.73-5.35-1.18-4.12-1.02-7.87-2.21-11.22-3.45-6.45-1.52-12.89-3.05-19.34-4.57-1.47-.41-4.43-1.03-8.02-.37-2.46.45-4.31,1.34-5.46,2.01-2.16.92-4.32,1.83-6.49,2.75Z"/>
        <path class="cls-4" d="M304.07,508.01c.17-.02.42,0,.81-.06.16-.03.41.09.51.01.38-.31.06-1.06.71-1.21.15-.03,1.26-.05,1.36,0,.21.09.4.39.67.55,1.01.58,1.02-.13,1.69-.35.24-.08.51.04.7-.02.43-.14.44-.56,1.1-.24.83.4-.36,1.61-.51,2.2.56.28,1.18.05,1.7.05.27,0,1.76-.02,1.85,0,.37.12.38.38.41.69l.32-.09c-.9,1.36-2.58,1.2-4.06,1.57.34.45,2.94,2.05,2.65,2.51l-1.23.88c-.42-.22-.79.07-1.11.04-.42-.04-.87-.41-1.31-.5-.41.83.03,2.02-.69,2.7-.5.48-1.73.54-2.21.05-.05-.05.07-.99-.09-1.24-.94-1.45-1.64.17-2.33.29-.27.04-.75-.2-1.09-.12l-.51-1.06c.27-.39,1.28-1.7,1.28-2.1,0-.13-.62-.59-.8-.88-.24-.4-.16-1.23.03-1.65-.73-.19-.43-.38-.54-.65-.06-.15-.25-.22-.25-.44,0-.44.47-.84.93-.91Z"/>
      </g>
      <path class="cls-2" d="M253.1,380c1.81.6,5.78,2.18,9.1,5.97,2.72,3.11,3.76,6.27,4.18,8,1.52,3.4,3.04,7.44,4.24,12.09,1.58,6.1,2.18,11.59,2.35,16.09-.09,2.08-.39,4.62-1.12,7.46-.79,3.04-1.87,5.58-2.87,7.54-1.04,1.89-2.93,4.77-6.17,7.5-3.36,2.83-6.73,4.29-8.88,5.04-6.07,4.38-12.13,8.76-18.2,13.14l-15.86,5.71c-3.17.53-8.6,1-14.85-.73-3.13-.86-5.67-2.06-7.6-3.16-2.58-2.21-5.66-5.27-8.57-9.31-3.62-5.04-5.67-9.83-6.87-13.4-1.95-2.61-4.25-6.23-6.11-10.83-1.65-4.1-2.47-7.82-2.89-10.76-.04-2.17.14-5.1,1.06-8.44,1.02-3.72,2.58-6.6,3.86-8.57.92-1.15,2.06-2.39,3.43-3.63,3.21-2.88,6.52-4.64,9.07-5.72,1.9-.66,3.86-1.39,5.87-2.2,4.51-1.83,8.56-3.81,12.16-5.79,7.06-2.78,14.13-5.55,21.19-8.33,1.6-.7,4.86-1.88,9.06-1.62,2.88.18,5.14.97,6.56,1.6,2.62.78,5.24,1.56,7.86,2.34Z"/>
      <path class="cls-4" d="M215.31,441.47c-.19.03-.46.16-.9.23-.19.03-.41.26-.54.2-.55-.21-.54-1.19-1.3-1.11-.17.02-1.38.41-1.47.5-.19.18-.26.6-.48.88-.83,1.04-1.16.23-1.97.22-.29,0-.53.23-.76.23-.52,0-.72-.47-1.29.13-.72.76,1.1,1.69,1.52,2.31-.48.52-1.25.49-1.82.69-.29.1-1.91.63-1.99.69-.35.27-.24.57-.14.93h-.38c1.57,1.22,3.31.42,5.07.29-.17.63-2.27,3.42-1.75,3.83l1.71.54c.35-.4.88-.21,1.21-.36.44-.2.76-.79,1.19-1.06.81.79.86,2.3,1.93,2.81.76.36,2.11-.03,2.4-.76.03-.08-.51-1.1-.44-1.44.38-2,1.84-.41,2.64-.54.31-.05.71-.51,1.12-.54l.09-1.4c-.46-.34-2.13-1.46-2.3-1.91-.06-.15.41-.89.47-1.29.09-.54-.37-1.46-.76-1.86.71-.49.3-.59.3-.94,0-.19.17-.34.07-.59-.19-.5-.88-.78-1.41-.68Z"/>
      <path class="cls-4" d="M34.06,89.6c.19.03.46.16.9.23.19.03.41.26.54.2.55-.21.54-1.19,1.3-1.11.17.02,1.38.41,1.47.5.19.18.26.6.48.88.83,1.04,1.16.23,1.97.22.29,0,.53.23.76.23.52,0,.72-.47,1.29.13.72.76-1.1,1.69-1.52,2.31.48.52,1.25.49,1.82.69.29.1,1.91.63,1.99.69.35.27.24.57.14.93h.38c-1.57,1.22-3.31.42-5.07.29.17.63,2.27,3.42,1.75,3.83l-1.71.54c-.35-.4-.88-.21-1.21-.36-.44-.2-.76-.79-1.19-1.06-.81.79-.86,2.3-1.93,2.81-.76.36-2.11-.03-2.4-.76-.03-.08.51-1.1.44-1.44-.38-2-1.84-.41-2.64-.54-.31-.05-.71-.51-1.12-.54l-.09-1.4c.46-.34,2.13-1.46,2.3-1.91.06-.15-.41-.89-.47-1.29-.09-.54.37-1.46.76-1.86-.71-.49-.3-.59-.3-.94,0-.19-.17-.34-.07-.59.19-.5.88-.78,1.41-.68Z"/>
      <path class="cls-2" d="M285.79,235.67c2.21.15,6.15.68,10.38,2.9,3.68,1.93,6.06,4.32,7.38,5.88,1.46,1.5,3.38,3.8,4.95,6.95,1.67,3.35,2.3,6.38,2.57,8.46.68,3.07,1.56,9.13-.57,16.31-1.82,6.12-5.05,10.38-7.1,12.7-1.49,2.57-4.04,6.26-8.18,9.81-4.31,3.71-8.63,5.81-11.56,6.97-3.31,1.2-7.57,2.42-12.63,3.13-6.16.86-11.49.66-15.48.23-2.9.37-7.24.59-12.3-.43-7.08-1.43-12.04-4.58-14.64-6.51-2.56-1.96-6.8-5.74-9.93-11.75-2.7-5.17-3.47-9.89-3.7-12.83-.51-2.19-.94-4.97-.93-8.18,0-3.97.67-7.32,1.38-9.8.1-1.78.67-7.17,5.12-11.9,2.93-3.11,6.25-4.56,8.09-5.22,1.8-.85,3.68-1.66,5.64-2.42,18.82-7.27,37.41-6.66,51.51-4.3Z"/>
      <path class="cls-4" d="M261.58,265.32c.19.03.46.16.9.23.19.03.41.26.54.2.55-.21.54-1.19,1.3-1.11.17.02,1.38.41,1.47.5.19.18.26.6.48.88.83,1.04,1.16.23,1.97.22.29,0,.53.23.76.23.52,0,.72-.47,1.29.13.72.76-1.1,1.69-1.52,2.31.48.52,1.25.49,1.82.69.29.1,1.91.63,1.99.69.35.27.24.57.14.93h.38c-1.57,1.22-3.31.42-5.07.29.17.63,2.27,3.42,1.75,3.83l-1.71.54c-.35-.4-.88-.21-1.21-.36-.44-.2-.76-.79-1.19-1.06-.81.79-.86,2.3-1.93,2.81-.76.36-2.11-.03-2.4-.76-.03-.08.51-1.1.44-1.44-.38-2-1.84-.41-2.64-.54-.31-.05-.71-.51-1.12-.54l-.09-1.4c.46-.34,2.13-1.46,2.3-1.91.06-.15-.41-.89-.47-1.29-.09-.54.37-1.46.76-1.86-.71-.49-.3-.59-.3-.94,0-.19-.17-.34-.07-.59.19-.5.88-.78,1.41-.68Z"/>
      <path class="cls-2" d="M500.97,272.45c.12,2.08.04,5.83-1.77,10.06-1.57,3.68-3.81,6.19-5.29,7.62-1.4,1.55-3.58,3.63-6.71,5.49-3.32,1.97-6.44,2.94-8.6,3.45-3.15,1.01-9.43,2.59-17.26,1.49-6.67-.94-11.57-3.43-14.27-5.05-2.9-1.08-7.1-3-11.36-6.42-4.45-3.57-7.19-7.34-8.78-9.93-1.67-2.94-3.49-6.77-4.86-11.41-1.67-5.65-2.13-10.65-2.17-14.43-.75-2.66-1.52-6.69-1.07-11.54.63-6.79,3.33-11.81,5.05-14.48,1.75-2.63,5.21-7.07,11.15-10.73,5.12-3.16,9.99-4.46,13.07-5.05,2.25-.75,5.12-1.49,8.51-1.89,4.19-.49,7.8-.28,10.5.07,1.89-.12,7.64-.27,13.18,3.31,3.64,2.35,5.59,5.28,6.5,6.91,1.12,1.58,2.21,3.23,3.25,4.97,10,16.67,11.66,34.11,10.93,47.58Z"/>
      <g>
        <path class="cls-2" d="M77.79,160.08c2.05-.79,5.83-1.96,10.67-1.75,4.21.19,7.47,1.34,9.39,2.18,2.02.73,4.82,1.99,7.72,4.15,3.07,2.3,5.08,4.75,6.3,6.51,2.06,2.46,5.71,7.53,7.19,14.85,1.26,6.24.38,11.41-.36,14.35-.12,2.93-.67,7.3-2.69,12.21-2.11,5.13-4.99,8.82-7.06,11.08-2.4,2.46-5.63,5.34-9.84,8.09-5.11,3.35-9.98,5.4-13.75,6.68-2.42,1.55-6.2,3.56-11.22,4.76-7.01,1.68-12.95.94-16.19.29-3.22-.69-8.81-2.3-14.45-6.37-4.86-3.51-7.77-7.41-9.37-9.95-1.49-1.75-3.19-4.06-4.7-6.94-1.87-3.56-2.85-6.83-3.4-9.35-.75-1.64-2.79-6.7-1.03-12.8,1.16-4.01,3.45-6.71,4.79-8.06,1.21-1.52,2.51-3.03,3.91-4.53,13.42-14.39,30.36-21.62,44.11-25.41Z"/>
        <path class="cls-4" d="M91.83,177.9c.19.03.46.16.9.23.19.03.41.26.54.2.55-.21.54-1.19,1.3-1.11.17.02,1.38.41,1.47.5.19.18.26.6.48.88.83,1.04,1.16.23,1.97.22.29,0,.53.23.76.23.52,0,.72-.47,1.29.13.72.76-1.1,1.69-1.52,2.31.48.52,1.25.49,1.82.69.29.1,1.91.63,1.99.69.35.27.24.57.14.93h.38c-1.57,1.22-3.31.42-5.07.29.17.63,2.27,3.42,1.75,3.83l-1.71.54c-.35-.4-.88-.21-1.21-.36-.44-.2-.76-.79-1.19-1.06-.81.79-.86,2.3-1.93,2.81-.76.36-2.11-.03-2.4-.76-.03-.08.51-1.1.44-1.44-.38-2-1.84-.41-2.64-.54-.31-.05-.71-.51-1.12-.54l-.09-1.4c.46-.34,2.13-1.46,2.3-1.91.06-.15-.41-.89-.47-1.29-.09-.54.37-1.46.76-1.86-.71-.49-.3-.59-.3-.94,0-.19-.17-.34-.07-.59.19-.5.88-.78,1.41-.68Z"/>
      </g>
      <g>
        <path class="cls-2" d="M530.21,483.88c1.9,1.07,5.16,3.22,7.88,6.99,2.36,3.28,3.33,6.43,3.77,8.38.59,1.96,1.2,4.82,1.09,8.3-.12,3.7-1,6.67-1.76,8.64-.86,3.03-2.98,8.82-8.32,14.31-4.56,4.69-9.48,7.12-12.42,8.32-2.57,1.66-6.61,3.87-12,5.29-5.63,1.48-10.49,1.52-13.66,1.32-3.52-.34-7.91-1.05-12.77-2.57-5.91-1.85-10.57-4.28-13.92-6.36-2.77-.9-6.74-2.54-10.77-5.61-5.63-4.28-8.55-9.2-9.95-12.03-1.34-2.83-3.32-8.01-3.24-14.7.07-5.76,1.64-10.3,2.85-13.02.6-2.17,1.54-4.83,3.09-7.7,1.91-3.54,4.1-6.24,5.92-8.16.95-1.54,4.03-6.12,10.27-8.45,4.1-1.53,7.77-1.42,9.72-1.22,2.02,0,4.08.08,6.19.23,20.28,1.5,36.58,9.93,48.04,18.03Z"/>
        <path class="cls-4" d="M476.18,481.61c.09.16.14.44.35.81.09.16.03.46.15.53.51.29,1.33-.3,1.73.31.09.14.48,1.29.46,1.41-.03.25-.35.55-.46.89-.38,1.25.49,1.01.99,1.62.18.22.12.54.26.71.32.39.83.26.66,1.05-.22,1-2.1.18-2.88.24-.16.68.33,1.24.5,1.78.09.28.61,1.82.6,1.91-.02.42-.35.52-.71.67l.22.3c-1.97-.46-2.33-2.25-3.27-3.65-.44.51-1.55,3.76-2.21,3.62l-1.48-.97c.13-.51-.35-.79-.42-1.13-.09-.45.22-1.05.19-1.53-1.16-.13-2.47.73-3.55.23-.76-.35-1.24-1.61-.79-2.27.05-.07,1.24-.28,1.49-.53,1.47-1.48-.75-1.63-1.12-2.31-.14-.26,0-.84-.21-1.17l1.14-.9c.56.14,2.52.73,3,.59.16-.05.52-.84.82-1.13.41-.39,1.47-.59,2.04-.54,0-.83.32-.58.62-.79.16-.11.19-.33.46-.41.54-.16,1.19.19,1.42.65Z"/>
      </g>
      <path class="cls-4" d="M301.5,52.28c.19.03.46.16.9.23.19.03.41.26.54.2.55-.21.54-1.19,1.3-1.11.17.02,1.38.41,1.47.5.19.18.26.6.48.88.83,1.04,1.16.23,1.97.22.29,0,.53.23.76.23.52,0,.72-.47,1.29.13.72.76-1.1,1.69-1.52,2.31.48.52,1.25.49,1.82.69.29.1,1.91.63,1.99.69.35.27.24.57.14.93h.38c-1.57,1.22-3.31.42-5.07.29.17.63,2.27,3.42,1.75,3.83l-1.71.54c-.35-.4-.88-.21-1.21-.36-.44-.2-.76-.79-1.19-1.06-.81.79-.86,2.3-1.93,2.81-.76.36-2.11-.03-2.4-.76-.03-.08.51-1.1.44-1.44-.38-2-1.84-.41-2.64-.54-.31-.05-.71-.51-1.12-.54l-.09-1.4c.46-.34,2.13-1.46,2.3-1.91.06-.15-.41-.89-.47-1.29-.09-.54.37-1.46.76-1.86-.71-.49-.3-.59-.3-.94,0-.19-.17-.34-.07-.59.19-.5.88-.78,1.41-.68Z"/>
      <g>
        <path class="cls-2" d="M625.23,350.31c-.94,3.17-3.33,9.55-9.39,15.52-5.89,5.8-12.32,8.33-15.61,9.39-4.22,1.04-10.96,2.21-19.07,1.46-10.05-.93-17.33-4.35-21.21-6.53-1.35-.89-3.08-2.23-4.7-4.17-1.36-1.63-2.25-3.2-2.84-4.46-4.99-6.08-9.98-12.17-14.97-18.25-.64-1.92-1.25-4.49-1.34-7.56-.13-4.77,1.08-8.65,2.08-11.1,1.27-2.67,3.2-6.05,6.11-9.61,3.1-3.79,6.32-6.59,8.91-8.53,1.71-1.94,3.42-3.88,5.13-5.83,1.67-1.89,3.33-3.78,5-5.68,1.08-1.12,5.05-4.96,11.38-5.76,3.15-.4,5.73.1,7.31.55,2.14-.49,5.27-.94,8.96-.59,6.55.64,11,3.47,12.96,4.91,3.46,2.97,14.04,16.1,15.81,20.22,2.01,4.67,3.98,9.2,5.17,13.83,1.19,4.62,2.33,12.15.32,22.16Z"/>
        <path class="cls-4" d="M558.64,323.19c.04.18,0,.46.11.87.04.17-.1.45,0,.55.41.4,1.37.04,1.58.73.05.16.1,1.36.05,1.47-.1.23-.49.44-.69.75-.72,1.11.19,1.1.5,1.81.11.25-.04.55.05.75.2.46.73.46.35,1.18-.49.91-2.08-.34-2.84-.48-.34.61-.03,1.28-.01,1.84,0,.29.08,1.9.05,2-.14.4-.48.42-.87.47l.13.34c-1.77-.93-1.62-2.75-2.14-4.33-.56.38-2.55,3.24-3.14,2.94l-1.16-1.3c.27-.46-.11-.85-.09-1.19.04-.45.51-.96.61-1.43-1.08-.41-2.59.09-3.49-.66-.63-.53-.75-1.86-.13-2.38.06-.05,1.27.04,1.58-.14,1.83-1.06-.27-1.76-.44-2.51-.06-.29.24-.81.13-1.18l1.35-.59c.5.28,2.23,1.33,2.73,1.31.17,0,.73-.69,1.1-.89.5-.28,1.58-.21,2.12-.02.22-.8.47-.48.82-.61.19-.07.28-.27.55-.28.56-.02,1.09.48,1.19.98Z"/>
      </g>
      <path class="cls-2" d="M60.52,347.65c-.73,3.22-2.68,9.73-8.33,16.05-5.49,6.14-11.73,9.05-14.95,10.3-4.14,1.29-10.79,2.86-18.94,2.6-10.09-.33-17.59-3.3-21.61-5.25-1.41-.81-3.23-2.04-4.98-3.88-1.47-1.54-2.46-3.06-3.13-4.28-5.39-5.77-10.78-11.55-16.17-17.32-.77-1.88-1.55-4.4-1.84-7.46-.45-4.75.49-8.7,1.33-11.2,1.09-2.74,2.78-6.23,5.45-9.95,2.83-3.97,5.86-6.95,8.31-9.05,1.57-2.04,3.15-4.08,4.72-6.12,1.53-1.99,3.07-3.98,4.6-5.96,1.01-1.18,4.7-5.25,10.97-6.43,3.12-.58,5.73-.24,7.34.11,2.1-.61,5.2-1.26,8.91-1.12,6.58.24,11.21,2.8,13.27,4.13,3.65,2.76,15.09,15.23,17.14,19.24,2.32,4.54,4.6,8.95,6.09,13.49,1.5,4.54,3.15,11.99,1.82,22.1Z"/>
      <path class="cls-2" d="M430.66-49.11c2.79,1.99,8.21,6.42,11.88,13.93,3.56,7.29,3.7,13.84,3.54,17.12-.52,4.08-1.84,10.41-5.56,17.23-4.61,8.45-10.67,13.58-14.24,16.17-1.37.86-3.34,1.88-5.85,2.59-2.11.6-3.99.8-5.45.85-7.85,2.13-15.69,4.26-23.54,6.4-2.14-.14-4.89-.55-7.96-1.61-4.76-1.64-8.15-4.12-10.2-5.9-2.17-2.1-4.8-5.02-7.25-8.88-2.61-4.1-4.18-7.95-5.16-10.93-1.29-2.21-2.58-4.42-3.87-6.63-1.26-2.15-2.51-4.31-3.77-6.46-.71-1.36-3.04-6.24-1.51-12.08.76-2.9,2.21-4.98,3.23-6.2.31-2.05,1.01-4.96,2.72-8.06,3.03-5.5,7.47-8.35,9.62-9.54,4.21-1.94,21.07-6.37,25.79-6.41,5.35-.04,10.56-.11,15.56.55,5,.66,12.86,2.43,22.01,7.86Z"/>
      <path class="cls-2" d="M430.58,518.28c2.79,1.99,8.21,6.42,11.88,13.93,3.56,7.29,3.7,13.84,3.54,17.12-.52,4.08-1.84,10.41-5.56,17.23-4.61,8.45-10.67,13.58-14.24,16.17-1.37.86-3.34,1.88-5.85,2.59-2.11.6-3.99.8-5.45.85-7.85,2.13-15.69,4.26-23.54,6.4-2.14-.14-4.89-.55-7.96-1.61-4.76-1.64-8.15-4.12-10.2-5.9-2.17-2.1-4.8-5.02-7.25-8.88-2.61-4.1-4.18-7.95-5.16-10.93-1.29-2.21-2.58-4.42-3.87-6.63-1.26-2.15-2.51-4.31-3.77-6.46-.71-1.36-3.04-6.24-1.51-12.08.76-2.9,2.21-4.98,3.23-6.2.31-2.05,1.01-4.96,2.72-8.06,3.03-5.5,7.47-8.35,9.62-9.54,4.21-1.94,21.07-6.37,25.79-6.41,5.35-.04,10.56-.11,15.56.55,5,.66,12.86,2.43,22.01,7.86Z"/>
      <path class="cls-4" d="M447.15,60.21c-.19-.18-.39-.53-.85-.93-.19-.17-.25-.6-.46-.64-.82-.16-1.62.97-2.44.32-.19-.15-1.25-1.51-1.29-1.67-.08-.35.2-.88.18-1.38-.09-1.82-1.14-1.13-2.09-1.73-.34-.21-.42-.67-.69-.84-.61-.39-1.23,0-1.39-1.12-.19-1.42,2.7-1.14,3.7-1.54-.11-.97-1.03-1.5-1.52-2.15-.25-.33-1.68-2.15-1.72-2.29-.17-.57.21-.84.62-1.19l-.43-.3c2.83-.23,4.18,2,6.1,3.46.33-.86.26-5.65,1.2-5.74l2.44.66c.07.73.84.9,1.1,1.32.34.55.21,1.49.49,2.11,1.6-.32,2.93-2.03,4.61-1.82,1.18.15,2.42,1.61,2.14,2.68-.03.11-1.51.89-1.73,1.33-1.24,2.59,1.78,1.85,2.6,2.59.31.28.4,1.12.84,1.47l-1.08,1.68c-.82.05-3.7.1-4.27.49-.2.13-.28,1.34-.54,1.85-.35.69-1.66,1.41-2.45,1.59.41,1.09-.15.9-.45,1.31-.16.22-.09.52-.41.74-.64.44-1.67.25-2.2-.26Z"/>
      <path class="cls-4" d="M480.59,251.99c-.19-.18-.39-.53-.85-.93-.19-.17-.25-.6-.46-.64-.82-.16-1.62.97-2.44.32-.19-.15-1.25-1.51-1.29-1.67-.08-.35.2-.88.18-1.38-.09-1.82-1.14-1.13-2.09-1.73-.34-.21-.42-.67-.69-.84-.61-.39-1.23,0-1.39-1.12-.19-1.42,2.7-1.14,3.7-1.54-.11-.97-1.03-1.5-1.52-2.15-.25-.33-1.68-2.15-1.72-2.29-.17-.57.21-.84.62-1.19l-.43-.3c2.83-.23,4.18,2,6.1,3.46.33-.86.26-5.65,1.2-5.74l2.44.66c.07.73.84.9,1.1,1.32.34.55.21,1.49.49,2.11,1.6-.32,2.93-2.03,4.61-1.82,1.18.15,2.42,1.61,2.14,2.68-.03.11-1.51.89-1.73,1.33-1.24,2.59,1.78,1.85,2.6,2.59.31.28.4,1.12.84,1.47l-1.08,1.68c-.82.05-3.7.1-4.27.49-.2.13-.28,1.34-.54,1.85-.35.69-1.66,1.41-2.45,1.59.41,1.09-.15.9-.45,1.31-.16.22-.09.52-.41.74-.64.44-1.67.25-2.2-.26Z"/>
      <path class="cls-4" d="M488.87,350.04c-.26-.06-.62-.26-1.24-.39-.26-.05-.55-.39-.74-.33-.79.26-.86,1.62-1.92,1.46-.24-.04-1.9-.68-2.02-.81-.26-.26-.31-.85-.6-1.27-1.07-1.52-1.6-.42-2.74-.47-.4-.02-.72-.37-1.05-.38-.73-.03-1.05.6-1.8-.28-.95-1.12,1.69-2.28,2.33-3.12-.63-.77-1.71-.79-2.48-1.1-.4-.16-2.62-1.03-2.73-1.12-.46-.41-.28-.82-.12-1.32l-.54-.05c2.3-1.57,4.68-.31,7.12,0-.19-.9-2.88-4.97-2.12-5.5l2.45-.62c.46.59,1.21.36,1.66.6.59.31.99,1.17,1.57,1.57,1.2-1.05,1.41-3.16,2.96-3.79,1.09-.45,2.95.2,3.3,1.26.04.11-.81,1.5-.75,1.98.35,2.82,2.54.72,3.65.96.42.09.95.77,1.52.85v1.96c-.67.44-3.12,1.88-3.39,2.49-.09.21.49,1.28.55,1.85.08.77-.65,2.02-1.23,2.55.95.74.37.84.33,1.34-.02.27.2.49.05.83-.31.69-1.3,1.02-2.03.85Z"/>
      <path class="cls-2" d="M494.96,390.58c-9.24,4.74-29.7,15.22-31.04,34.67-1.2,17.45,13.86,29.55,15.74,31.01,15.08,11.73,36.49,10.92,51.82,2,14.11-8.21,26.06-25.03,23.98-43.76-.23-2.07-2.69-21.41-18.6-29.56-15.46-7.91-32.1.62-41.9,5.64Z"/>
      <path class="cls-4" d="M494.16,438.52c-.17.08-.39.28-.79.46-.17.08-.31.36-.46.34-.59-.05-.88-.99-1.59-.71-.16.06-1.19.77-1.25.88-.13.22-.06.64-.19.97-.47,1.22-1.03.54-1.82.76-.28.08-.44.37-.66.43-.5.14-.84-.25-1.19.48-.45.93,1.58,1.31,2.17,1.79-.3.63-1.04.82-1.52,1.16-.25.17-1.63,1.13-1.69,1.21-.25.35-.05.61.15.93l-.36.12c1.88.73,3.3-.52,4.93-1.13.03.65-1.11,3.9-.49,4.15l1.81.04c.21-.48.77-.44,1.05-.68.36-.31.48-.97.81-1.34,1.02.54,1.54,1.97,2.72,2.16.83.14,2.01-.61,2.06-1.39,0-.08-.83-.91-.87-1.25-.26-2.01,1.63-.9,2.36-1.24.28-.13.52-.68.9-.83l-.35-1.36c-.54-.2-2.49-.81-2.79-1.19-.1-.13.11-.97.05-1.37-.08-.54-.81-1.29-1.31-1.57.53-.66.1-.64,0-.98-.06-.18.05-.37-.11-.58-.34-.43-1.08-.5-1.56-.27Z"/>
      <path class="cls-4" d="M385.99,3.55c.19.03.46.16.9.23.19.03.41.26.54.2.55-.21.54-1.19,1.3-1.11.17.02,1.38.41,1.47.5.19.18.26.6.48.88.83,1.04,1.16.23,1.97.22.29,0,.53.23.76.23.52,0,.72-.47,1.29.13.72.76-1.1,1.69-1.52,2.31.48.52,1.25.49,1.82.69.29.1,1.91.63,1.99.69.35.27.24.57.14.93h.38c-1.57,1.22-3.31.42-5.07.29.17.63,2.27,3.42,1.75,3.83l-1.71.54c-.35-.4-.88-.21-1.21-.36-.44-.2-.76-.79-1.19-1.06-.81.79-.86,2.3-1.93,2.81-.76.36-2.11-.03-2.4-.76-.03-.08.51-1.1.44-1.44-.38-2-1.84-.41-2.64-.54-.31-.05-.71-.51-1.12-.54l-.09-1.4c.46-.34,2.13-1.46,2.3-1.91.06-.15-.41-.89-.47-1.29-.09-.54.37-1.46.76-1.86-.71-.49-.3-.59-.3-.94,0-.19-.17-.34-.07-.59.19-.5.88-.78,1.41-.68Z"/>
      <g>
        <path class="cls-2" d="M66.54,503.84c6.58,5.07,21.16,16.29,18.91,31.31-2.02,13.48-16.13,20.29-17.88,21.11-14.07,6.54-31.05,2.53-41.79-6.68-9.88-8.48-16.58-23.18-11.71-37.11.54-1.54,5.81-15.87,19.93-19.55,13.71-3.58,25.57,5.55,32.55,10.93Z"/>
        <path class="cls-4" d="M67.06,529.56c.11.09.23.28.5.49.11.09.16.32.27.34.45.07.86-.59,1.33-.25.11.08.73.8.76.89.05.19-.08.49-.05.77.11,1.01.66.59,1.21.9.19.11.25.36.4.44.35.2.68-.04.8.58.15.78-1.44.71-1.98.96.09.53.61.8.91,1.15.15.18.99,1.14,1.02,1.22.11.31-.09.47-.3.68l.25.15c-1.55.21-2.36-.98-3.46-1.74-.16.49.05,3.14-.47,3.22l-1.36-.29c-.06-.4-.49-.47-.65-.7-.2-.3-.16-.82-.34-1.15-.87.22-1.54,1.21-2.47,1.14-.65-.05-1.38-.82-1.26-1.42.01-.06.8-.54.9-.79.6-1.47-1.04-.97-1.51-1.36-.18-.15-.25-.61-.51-.79l.53-.96c.45-.05,2.02-.16,2.33-.4.1-.08.11-.75.24-1.04.17-.39.87-.83,1.29-.95-.26-.59.05-.5.2-.74.08-.13.03-.29.2-.42.34-.26.91-.19,1.22.08Z"/>
      </g>
    </g>
  </g>
</svg>