<?xml version="1.0" encoding="UTF-8"?>
<svg id="Camada_2" data-name="Camada 2" xmlns="http://www.w3.org/2000/svg" viewBox="0 0 804.1 84.9">
  <g id="Camada_1-2" data-name="Camada 1">
    <g>
      <path d="M777.8,59.7c13.6,0,24.6.5,24.6,1v1.4c0,.3-5.6.5-12.6.5H25c-13.6,0-24.6-.5-24.6-1v-.9c0-.6,11.1-1,24.6-1" style="fill: #4f669c; stroke-width: 0px;"/>
      <polyline points="0 62.7 3.3 62.7 3.3 84.9 0 84.9" style="fill: #4f669c; stroke-width: 0px;"/>
      <polyline points="800.9 61.2 804.1 61.2 804.1 83.4 800.9 83.4" style="fill: #4f669c; stroke-width: 0px;"/>
    </g>
    <g>
      <path d="M752.4,27.5l-.4-4c-.1-1.1-.9-1.9-1.9-1.9h-4.5c-1.1,0-2-1-2-2.3v-.9c0-1.2-.8-2.1-1.9-2.1h-21.3c-.7,0-1.4.5-1.7,1.2s-.2,1.6.3,2.2l2.8,3.9c1.3,1.8,1.9,4.1,1.7,6.4h0c-.2,1.8-.8,3.6-2,5.1-2.6,3.4-4,7.7-4,12.1s1.4,8.8,4,12.1c.4.5.8.7,1.4.7h19.7c.5,0,1.1-.3,1.4-.7,2.6-3.3,4-7.7,4-12.1,0-1.7-.2-3.3-.6-4.9-.2-.8,0-1.7.6-2.3,3.1-3.1,4.8-7.6,4.4-12.5ZM742.1,20.6l-.4,13.1c0,.2.1.4.1.5.5,1.4,3,8,4.3,11.4.3.9.2,1.9-.4,2.5-1.9,2.1-3.3,10.2-5.2,11.6-1.6,1.2-11-.7-12.8-.7-.8,0-3.2-3.7-4.7-5.3-.5-.6-3.7-2.1-2.6-8.4l3.6-9.4c0-.2,1-2.5,1.1-2.6.8-1.8.8-3.4.9-5.2.3-3.4-1.1-4.2-3-6.9l-.8-2.9h19.7l.2,2.3ZM745.4,37.1c-.2-.3-.4-.6-.6-1-.6-.9-1-2-1-3v-4.8c0-1.3.9-2.3,2-2.3h.9c1,0,1.9.9,2,2.1h0c.2,3.4-1,6.7-3.3,9Z" style="fill: #c1322d; stroke-width: 0px;"/>
      <path d="M29.9,58.9c0-.6-.4-1-1-1l-5.6.8.1-20.8c4.5-1.2,7.7-10,7.7-21.5,0-3.5-.3-12-.9-15.4-.1-.5-.5-.8-1-.8h-13.5c-.5,0-.9.3-1,.8-.6,3.4-.9,11.9-.9,15.4,0,11.5,3.2,20.3,7.7,21.5l.9,20.7-6.3-.7c-.6,0-1,.4-1,1s.4,1,1,1h12.8c.6,0,1-.5,1-1ZM29.2,2c1.9,12.1-3.5,33.9-6.7,33.9S15.6,13.6,15.5,2.4" style="fill: #c1322d; stroke-width: 0px;"/>
      <path d="M55.3,58.9c0-.6-.4-1-1-1l-5.6-.1.1-19.9c4.5-1.2,7.7-10,7.7-21.5,0-3.5-.3-12-.9-15.4-.1-.5-.5-.8-1-.8h-13.5c-.5,0-.9.3-1,.8-.6,3.4-.9,11.9-.9,15.4,0,11.5,3.2,20.3,7.7,21.5l.3,19.8-5.7.2c-.6,0-1,.4-1,1s.4,1,1,1h12.8c.6,0,1-.5,1-1ZM54.6,2.5c1.1,12.8-2.9,36.4-6.7,34.7-2.2-.9-5.7-9.1-6.7-20.3l-.4-14.4" style="fill: #c1322d; stroke-width: 0px;"/>
      <path d="M80.6,58.9c0-.6-.4-1-1-1l-5.6-.1.1-19.9c4.5-1.2,7.7-10,7.7-21.5,0-3.5-.3-12-.9-15.4-.1-.5-.5-.8-1-.8h-13.5c-.5,0-.9.3-1,.8-.6,3.4-.9,11.9-.9,15.4,0,11.5,3.2,20.3,7.7,21.5l.3,19.8-5.7.2c-.6,0-1,.4-1,1s.4,1,1,1h12.8c.6,0,1-.5,1-1ZM79.7,1c1.4,13-2.7,38-6.6,36.3-2.2-.9-3.9-9.1-5-20.3l-1.6-15.9" style="fill: #c1322d; stroke-width: 0px;"/>
      <path d="M129.5,13.4h-12.9c-.2,0-.4.1-.5.2-.1.2-.2.3-.2.5l4.8,34.2c.4,2.7,2.6,4.8,5.2,5.1v5.2h-6.1c-.4,0-.7.3-.7.7s.3.7.7.7h13.6c.4,0,.7-.3.7-.7s-.3-.7-.7-.7h-6.1v-5.2c2.7-.3,4.9-2.4,5.3-5.2l4.8-34.2c0-.2,0-.4-.2-.5-.1-.2-.3-.2-.5-.2h-7.7M118.2,15.3h16.2c.2,0,.3.2.3.3-1,10.5-2.1,20.9-3.1,31.4-.1,1.3-1.2,2.4-2.5,2.5l-6.1.5" style="fill: #c1322d; stroke-width: 0px;"/>
      <path d="M154.7,13.4h-12.9c-.2,0-.4.1-.5.2-.1.2-.2.3-.2.5l4.8,34.2c.4,2.7,2.6,4.8,5.2,5.1l-.9,5.2h-5.2c-.4,0-.7.3-.7.7s.3.7.7.7h13.6c.4,0,.7-.3.7-.7s-.3-.7-.7-.7h-5.2l-.9-5.2c2.7-.3,4.9-2.4,5.3-5.2l4.8-34.2c0-.2,0-.4-.2-.5-.1-.2-.3-.2-.5-.2h-7.7M141.9,14.3l17.9.3c.7,0,1.3.6,1.2,1.4-1,10.1-3.3,20.9-4.3,31v.3c-.6,2.9-3.4,5.4-6.2,4.5-.1,0-1.9-.4-2.5-1.5-.7-1.3-.7-2.3-.6-2.4" style="fill: #c1322d; stroke-width: 0px;"/>
      <path d="M180.1,13.4h-12.9c-.2,0-.4.1-.5.2-.1.2-.2.3-.2.5l4.8,34.2c.4,2.7,2.6,4.8,5.2,5.1l-.9,5.2h-5.2c-.4,0-.7.3-.7.7s.3.7.7.7h13.6c.4,0,.7-.3.7-.7s-.3-.7-.7-.7h-5.2l-.9-5.2c2.7-.3,4.9-2.4,5.3-5.2l4.8-34.2c0-.2,0-.4-.2-.5-.1-.2-.3-.2-.5-.2h-7.7M170.3,19.2l14-3.9c.7,0,.4.3.3,1.1-1,10.1-2.4,19.9-3.5,30,0,.1-.3,1.7-.7,2.2-1.9,2.3-1.4.9-3.9,1.9-.1,0-1.7.4-2.3-.8-.7-1.3-1.1-3.5-1.1-3.6" style="fill: #c1322d; stroke-width: 0px;"/>
      <polyline points="24.1 35.8 22 32 21.2 35.8 22.4 36.9" style="fill: #c1322d; stroke-width: 0px;"/>
      <path d="M481.1,58.3l-8.6-3.1c0-.1.1-.2.1-.4v-4.2c1.4-.2,2.8-.6,4.1-1.3.7-.4,1.3-.9,1.9-1.4.4-.4.8-.8,1.1-1.3,1-1.6,1.5-3.6,1.2-5.6l-2-14c-.1-.7-.7-1.3-1.5-1.3h-12.4c-.7,0-1.4.5-1.5,1.3l-2,14.1c-.3,2.1.1,4.1,1.2,5.7.2.2.3.4.5.6.5.6,1.2,1.1,1.8,1.6,1.4.9,3,1.4,4.6,1.6v4.2c0,.1,0,.3.1.4l-8.7,3.2c-.7.2-2.8,2.2-2.7,2.9.1.7,2.5,0,3.2,0h19.2c.8,0,3.2.8,3.2,0,0-.8-2.1-2.9-2.8-3ZM465.4,45.4c-.1-.1-.2-.3-.3-.4-.7-.9-.9-2.2-.7-3.6l.7-13.4h11.8l.9,13.3c.2,1.3-.1,2.6-.7,3.5-.2.3-.4.6-.7.8-.4.4-.8.7-1.2.9-2.6,1.5-3.6-1.6-6.2-3.2-.4-.1-3.2,2.5-3.6,2.1ZM462.9,59.5l8.2-3.1,9.1,3.1h-17.3Z" style="fill: #c1322d; stroke-width: 0px;"/>
      <path d="M511.3,58.5l-9.1-3.3c0-.1,0,.1,0,0l.6-4.3c1.4-.2,2.8-.6,4.1-1.3.7-.4,1.3-.9,1.9-1.4.4-.4.8-.8,1.1-1.3,1-1.6,1.5-3.6,1.2-5.6l-2-14c-.1-.7-.7-1.3-1.5-1.3h-12.4c-.7,0-1.4.5-1.5,1.3l-2,14.1c-.3,2.1.1,4.1,1.2,5.7.2.2.3.4.5.6.5.6,1.2,1.1,1.8,1.6,1.4.9,3,1.4,4.6,1.6l1.1,3.9c0,.1.1.3.1.4l-9.9,3.4c-.7.2-1.8.5-1.6,1.3.1.7,1.4,1.6,2.1,1.6h19.2c.8,0,1.4-.1,1.4-.9.1-.8-.3-1.9-.9-2.1ZM495.6,45.6c-.1-.1-.2-.3-.3-.4-.7-.9-2.4-2.2-2.2-3.6l3.3-12.8,11.5-1.9,2.2,14.7c.2,1.3-.7,2.4-1.9,3.6-.2.3-.7,1-.9,1.3-.4.4-1,.8-1.4,1.1-2.6,1.5-6,.9-8.5-.7-.6-.2-1.5-.9-1.8-1.3ZM493.1,59.8l8.2-3.1,9.1,3.1h-17.3Z" style="fill: #c1322d; stroke-width: 0px;"/>
      <path d="M537.9,58.3l-8.6-3.1c0-.1.1-.2.1-.4v-4.2c1.4-.2,2.8-.6,4.1-1.3.7-.4,1.3-.9,1.9-1.4.4-.4.8-.8,1.1-1.3,1-1.6,1.5-3.6,1.2-5.6l-2-14c-.1-.7-.7-1.3-1.5-1.3h-12.4c-.7,0-1.4.5-1.5,1.3l-2,14.1c-.3,2.1.1,4.1,1.2,5.7.2.2.3.4.5.6.5.6,1.2,1.1,1.8,1.6,1.4.9,3,1.4,4.6,1.6v4.2c0,.1,0,.3.1.4l-8.7,3.2c-.7.2-2.8,2.2-2.7,2.9.1.7,2.5,0,3.2,0h19.2c.8,0,3.2.8,3.2,0,0-.7-2.2-2.8-2.8-3ZM522.2,45.5c-.1-.1-.2-.3-.3-.4-.7-.9-.9-2.2-.7-3.6l.7-13.4h11.8l.9,13.3c.2,1.3-.1,2.6-.7,3.5-.2.3-.4.6-.7.8-.4.4-.8.7-1.2.9-2.6,1.5-3.6-1.6-6.2-3.2-.4-.2-3.3,2.5-3.6,2.1ZM519.7,59.6l8.2-3.1,9.1,3.1h-17.3Z" style="fill: #c1322d; stroke-width: 0px;"/>
      <path d="M568,58.6l-9.1-3.3c0-.1,0,.1,0,0l.6-4.3c1.4-.2,2.8-.6,4.1-1.3.7-.4,1.3-.9,1.9-1.4.4-.4.8-.8,1.1-1.3,1-1.6,1.5-3.6,1.2-5.6l-2-14c-.1-.7-.7-1.3-1.5-1.3h-12.4c-.7,0-1.4.5-1.5,1.3l-2,14.1c-.3,2.1.1,4.1,1.2,5.7.2.2.3.4.5.6.5.6,1.2,1.1,1.8,1.6,1.4.9,3,1.4,4.6,1.6l1.1,3.9c0,.1.1.3.1.4l-9.9,3.4c-.7.2-1.8.5-1.6,1.3.1.7,1.4,1.6,2.1,1.6h19.2c.8,0,1.4-.1,1.4-.9.2-.8-.2-2-.9-2.1ZM552.3,45.7c-.1-.1-.2-.3-.3-.4-.7-.9-2.4-2.2-2.2-3.6l3.3-12.8,11.5-1.9,2.2,14.7c.2,1.3-.7,2.4-1.9,3.6-.2.3-.7,1-.9,1.3-.4.4-1,.8-1.4,1.1-2.6,1.5-6,.9-8.5-.7-.5-.2-1.4-.9-1.8-1.3ZM549.8,59.8l8.2-3.1,9.1,3.1h-17.3Z" style="fill: #c1322d; stroke-width: 0px;"/>
      <g>
        <path d="M606.3,61.6h-18c-1.2,0-2.3-.6-2.9-1.7-9.4-16.2-5.2-36.1-5-37,.3-1.5,1.7-2.7,3.3-2.7h27.2c1.6,0,3,1.1,3.3,2.7.2.8,4.4,20.8-5,37-.5,1-1.7,1.7-2.9,1.7ZM587.6,55.5l16.7-.7c5.2-10.4,9-20.9,8.3-26.2l-29.1-5c-.7,5.4-1.1,21.5,4.1,31.9Z" style="fill: #c1322d; stroke-width: 0px;"/>
        <path d="M653.8,61.6h-18c-.3-3.4-1.5-4.5-2.1-5.5-7-7.3-9.1-26.1-5.8-33.2.3-1.5,1.7-2.7,3.3-2.7h27.2c1.6,0,3,1.1,3.3,2.7,2.7,17.3,3.1,20.2-5.7,34.4-.6,1-1,4.3-2.2,4.3ZM637.8,54.8h14c12.5-5.3,10.8-21.3,6-33.2h-26.7c-.7,5.3-8.6,22.2,6.7,33.2Z" style="fill: #c1322d; stroke-width: 0px;"/>
      </g>
      <g>
        <g>
          <path d="M357.6,47.2c-2.3,0-4.7-.7-6.8-2.1-6.6-4.5-9-14.4-6.3-26.5.3-1.5,1.6-2.5,3.2-2.5h19.9c1.5,0,2.8,1.1,3.2,2.5,2.6,12.1.3,22-6.3,26.5-2.2,1.4-4.6,2.1-6.9,2.1ZM350.3,22.5c-1.5,9.6-1.7,18.3,1.4,20.4,2,1.4,10,1.4,12,0,3.1-2.1,2.8-10.8,1.3-20.4h-14.7Z" style="fill: #c1322d; stroke-width: 0px;"/>
          <path d="M358.5,58.7c-1.8,0-3.2-1.4-3.2-3.2v-11.5c0-1.8.2-3,2-3s2.2,1.1,2.2,2.9l.3,11.5c0,1.8.5,3.3-1.3,3.3Z" style="fill: #c1322d; stroke-width: 0px;"/>
        </g>
        <g>
          <path d="M395.1,47.2c-2.3,0-4.7-.7-6.8-2.1-6.6-4.5-9-14.4-6.3-26.5.3-1.5,1.6-2.5,3.2-2.5h19.9c1.5,0,2.8,1.1,3.2,2.5,2.6,12.1.3,22-6.3,26.5-2.2,1.4-4.6,2.1-6.9,2.1ZM384.4,17.9c-1.5,9.6,4.5,19.8,7.6,21.9,2,1.4,4.3,1.4,6.3,0,3.1-2.1,8.9-12.3,7.3-21.9h-21.2Z" style="fill: #c1322d; stroke-width: 0px;"/>
          <path d="M393.9,58.7c.2-.8-.6-1-.6-2.8l-.2-12c0-1.8-1.1-3.1.7-3.1s3.2,1.4,3.2,3.2v11.5c.1,1.8-3.5,5-3.1,3.2Z" style="fill: #c1322d; stroke-width: 0px;"/>
        </g>
        <g>
          <path d="M432.6,47.2c-2.3,0-4.7-.7-6.8-2.1-6.6-4.5-9-14.4-6.3-26.5.3-1.5,1.6-2.5,3.2-2.5h19.9c1.5,0,2.8,1.1,3.2,2.5,2.6,12.1.3,22-6.3,26.5-2.2,1.4-4.6,2.1-6.9,2.1ZM421.7,18.8c-1.5,9.6,6.4,24.3,9.5,26.4,2,1.4,5.7-.9,7.7-2.3,3.1-2.1,2.6-10.8,1-20.4l-18.2-3.7Z" style="fill: #c1322d; stroke-width: 0px;"/>
          <path d="M432.4,58.7c-1.8,0-1.1-1.3-1.1-3.1v-9.7c0-1.8-.7.5,1.1.5s2.5-2.1,2.5-.3l-.3,9.4c0,1.8-.4,3.2-2.2,3.2Z" style="fill: #c1322d; stroke-width: 0px;"/>
        </g>
        <g>
          <g>
            <path d="M320.1,46.4c-2.3,0-4.7-.7-6.8-2.1-6.6-4.5-9-14.4-6.3-26.5.3-1.5,1.6-2.5,3.2-2.5h19.9c1.5,0,2.8,1.1,3.2,2.5,2.6,12.1.3,22-6.3,26.5-2.2,1.4-4.6,2.1-6.9,2.1ZM309.6,18.6c-1.5,9.6,4,22.5,7.1,24.6,2,1.4,8.2-1.1,10.2-2.5,3.1-2.1,5.2-12.6,3.7-22.1h-21Z" style="fill: #c1322d; stroke-width: 0px;"/>
            <path d="M319.9,57.9c-1.8,0-3.2-1.4-3.2-3.2v-11.5c-.9-.4,1.4,2.4,3.2,2.4s3.2-4.2,3.2-2.4v11.5c0,1.8-1.4,3.2-3.2,3.2Z" style="fill: #c1322d; stroke-width: 0px;"/>
          </g>
          <path d="M310,57.9c0-1.2,1.5-2.1,3.2-2.1h11.5c5.3.1,5,1.2,5,2.4s-3.2,1.8-5,1.8h-11.5c-1.8,0-3.2-.9-3.2-2.1Z" style="fill: #c1322d; stroke-width: 0px;"/>
        </g>
        <path d="M347.7,57.6c0-1.2,1.5-2.1,3.2-2.1h11.5c5.3.1,5,1.2,5,2.4s-3.2,1.8-5,1.8h-11.5c-1.7,0-3.2-1-3.2-2.1Z" style="fill: #c1322d; stroke-width: 0px;"/>
        <path d="M385.1,57.5c0-1.2,1.5-2.1,3.2-2.1h11.5c5.3.1,5,1.2,5,2.4s-3.2,1.8-5,1.8h-11.5c-1.7,0-3.2-.9-3.2-2.1Z" style="fill: #c1322d; stroke-width: 0px;"/>
        <path d="M423.2,58.7c0-1.2,1.5-2.1,3.2-2.1h11.5c5.3.1,5,1.2,5,2.4s-3.2,1.8-5,1.8h-11.5c-1.7,0-3.2-.9-3.2-2.1Z" style="fill: #c1322d; stroke-width: 0px;"/>
      </g>
      <path d="M103.4,58.7c0-.6-.4-1-1-1l-5.6.8.1-20.8c4.5-1.2,7.7-10,7.7-21.5,0-3.5-.3-12-.9-15.4-.1-.5-.5-.8-1-.8h-13.5c-.5,0-.9.3-1,.8-.6,3.4-.9,11.9-.9,15.4,0,11.5,3.2,20.3,7.7,21.5l.9,20.7-6.3-.7c-.6,0-1,.4-1,1s.4,1,1,1h12.8c.6,0,1-.5,1-1ZM102.7,1.9c1.9,12.1-3.5,33.9-6.7,33.9s-6.9-22.3-7-33.5" style="fill: #c1322d; stroke-width: 0px;"/>
      <path d="M226.5,30.8c.8-.9.9-2.2.4-3.3s-1.6-1.8-2.8-1.8h-24.4c-1.2,0-2.3.7-2.8,1.8s-.4,2.4.4,3.3l13.3,16.2.7,10.7-4.7.7c-.7,0-1,0-1,.7s.3,1.2,1.1,1.2h10.6c.7,0,.9-.2.9-.9s-.2-1-.9-1l-5.1-.7,1.1-10.6,13.2-16.3ZM211.9,46.1l-12.9-17c-.2-.2-.5-.7-.5-.8h0c0-.1.8-.1,1-.1l24.9-1.9c.2,0,1.6.4,1.9,2.3,0,.1-.2.6-.4.8l-4.6,5.6" style="fill: #c1322d; stroke-width: 0px;"/>
      <path d="M259.9,30.8c.8-.9.9-2.2.4-3.3s-1.6-1.8-2.8-1.8h-24.4c-1.2,0-2.3.7-2.8,1.8s-.4,2.4.4,3.3l13.3,16.2.7,10.7-4.7.7c-.7,0-1,0-1,.7s.3,1.2,1.1,1.2h10.6c.7,0,.9-.2.9-.9s-.2-1-.9-1l-5.1-.7,1.1-10.6,13.2-16.3ZM245.3,42.6l-14.1-14.8c-.2-.2.6-.5.7-.6h0c0-.1.7-.1.9-.1l25-.6c.2,0,1.6.4,1.9,2.3,0,.1-.2.6-.4.8l-4.6,5.6" style="fill: #c1322d; stroke-width: 0px;"/>
      <path d="M293.2,30.3c.8-.9.9-2.2.4-3.3s-1.6-1.8-2.8-1.8h-24.4c-1.2,0-2.3.7-2.8,1.8s-.4,2.4.4,3.3l13.3,16.2-.6,10.6-3.3,1.6c-.7,0,.8.2,0,0-.7-.2-.8,1-.1,1h10.6c.7,0,.5-.9-.2-.9-1.2.1.6,0-.1,0l-3.5-1.7-.2-10.6,13.3-16.2ZM278.6,46l-14.1-18.7c-.2-.2.3-1.1.4-1.2l.2-.1c0-.1.8-.2,1-.2l25.1-.1c.2,0,1.5.7,1.8,2.6,0,.1-.2.6-.4.8l-4.6,5.6" style="fill: #c1322d; stroke-width: 0px;"/>
      <path d="M788.5,45.4c0,1.6-.1,3-.4,4.4-.5,2.2-1.5,3.8-3.2,4.8-.3.2-.6.4-.9.5-.6.3-1.1.7-.9,1.6.1.5-.2.9-.5,1.2-.4.5-.9,1-1.5,1.1-1.4.4-2.6,1.1-4,1.3-3.4.4-6.8.4-10-1.2-.7-.3-1.4-.6-1.6-1.5-.2-1-.9-1.4-1.5-1.9-.5-.4-1-.7-1.6-1-1.2-.7-2.3-1.5-3-2.8-.7-.8-1.1-2.2-1.6-3-.7-1.5-.4-2.8-.1-4.6.6-3.1,1.9-5.7,3.4-8.3,1-1.7,1.8-3.5,1.6-5.7-.1-1.1-.3-2.1-.9-3-.5-.8-.8-1.9-1.7-2.3-.2-.1-.4-.4-.5-.4-1.1.1-1.3-1.1-1.7-1.8-.4-.5-.1-1.1.5-1.3,1.9-.8,3.7-1.5,5.7-1.5s3.7.4,5.6.9c2.2.6,4.1,1.9,6.1,3,1,.5,2,.8,3.2,1,1.8.2,3.3.2,4.6-1.8,1-1.5,2.6-2.4,4.1-3.2,2.4-1.3,4.9-1.5,7.3-.3.7.3,1.3.9,1.6,1.6.6,1.4,1.3,2.8,1.6,4.4.5,2.4.3,4.7-.6,6.8-.6,1.4-1.3,2.7-2,4-.3.5-.6.9-1,1.2-1.6,1.2-2.5,2.8-3.3,4.8-.2.5-.5.9-.6,1.3-.3,1.2-1,1.9-2.2,1.7ZM762.5,24.9c.3.7.6,1.2.9,1.7,1.2,2.4,1.6,4.9.6,7.6-.7,2-1.6,3.7-2.7,5.5-1.1,1.9-1.7,4-2,6.2-.1.6,0,1.1.2,1.6.5,1.1,1,2.1,1.5,3.1,1.2,2.4,3,3.7,5.3,4,.8.1,1.6.3,2.5.4,1.9.4,3.8.4,5.7.4,1.8-.1,3.7-.4,5.4-.9,1.9-.5,3.8-1.1,5.2-2.8.5-.6,1-1.2,1.1-2.1.3-2.2.7-4.4.3-6.7-.3-1.7-.8-2.9-1.9-4-.9-.9-1.6-2-1.8-3.5-.2-2.1-.8-4.1-1.5-6.1-.8.3-1.5.6-2.3.8-3.7.8-6.9-.7-10-2.8-1.9-1.3-4.1-2-6.2-2.6,0,.1-.1.1-.3.2ZM788.4,41.7c.5-2,1.6-3.4,2.4-5.2,1.1-2.3,1.8-4.7,2.5-7.1.3-1,.3-1.7-.4-2.4-.3-.3-.6-.7-.8-1.2-.3-.6-.8-.9-1.3-1.2-1.1-.7-2.1-.4-3.1.3-1.2.7-2.3,1.7-3.5,2.4-.6.4-.7.7-.7,1.3.2,2.5.6,4.9,1.4,7.1.3.9.7,1.6,1.3,2.1.7.7,1.3,1.6,1.5,2.7.2.5.2.9.7,1.2ZM763.8,22.5c2.7,1.1,5.4,2.2,7.8,3.9,2,1.4,4.3,1.7,6.5,1.7.9,0,1.8-.3,2.6-.9-.1-.1-.2-.2-.3-.2-2,.3-3.8-.3-5.5-1.4-1.8-1.2-3.7-2.1-5.7-2.7-1.7-.5-3.5-.7-5.4-.4ZM794.1,34.1c.8-.2,1.7-.4,1.9-1,.4-.9,1.2-1.9,1.5-2.7.3-.9.1-1.5-.3-3.3-.1-.7-.3-1.2-.4-1.7-.1-.7-.5-1.6-.7-2.3-.4-1.6-1.6-1.8-2.9-2.2-2.7-.8-4.9.7-7.1,2.4.5.3.8-.2,1.1-.4.8-.5,1.6-.7,2.5-.7.6.1,1.3.1,1.9.2,2.6.3,4.5,3.6,4.2,6-.1,2.1-.5,4-1.7,5.7ZM767.3,56.8c2.7,2.3,11.2,2.1,13.4-.3-2.3.3-4.5.8-6.8.8-2.1,0-4.4-.2-6.6-.5Z" style="fill: #c1322d; stroke-width: 0px;"/>
      <path d="M683.3,44.4v-.2c-.8-2.4-1.2-2.4-2,0v.2c.5,2.6.5,5.3,0,7.9v.2c.8,2.4,1.2,2.4,2,0v-.2c-.5-2.6-.5-5.3,0-7.9Z" style="fill: #c1322d; stroke-width: 0px;"/>
      <path d="M695.5,44.4v-.2c-.8-2.4-1.2-2.4-2,0v.2c.5,2.6.5,5.3,0,7.9v.2c.8,2.4,1.2,2.4,2,0v-.2c-.6-2.6-.6-5.3,0-7.9Z" style="fill: #c1322d; stroke-width: 0px;"/>
      <path d="M703,27.4c-.8.3-1.6.8-2.3,1.3.1-1.7.2-3.5.3-5.2.1-.8-.5-1.6-1.4-1.6h-22.4c-.8,0-1.5.7-1.5,1.5v.1c.8,11.6.8,23.3,0,35-.1.8.5,1.6,1.4,1.6h22.4c.8,0,1.5-.7,1.5-1.5v-.1c-.3-3.8-.4-7.6-.5-11.3.8.5,1.7.5,2.5,0,2.8-1.5,5.4-4.5,6.7-9.8,2.4-9-2.7-11.7-6.7-10ZM697.9,58h-19.6c-.8,0-.5-2.4-.5-3.2v-.1c.3-4.7.4-9.3.4-14,6.7-1.2,13.6-1.2,20.4,0,0,4.7.1,9.3.4,14,0,.8.5,3.2-.3,3.2-.1.1-.7.1-.8.1ZM698.6,38.7c-6.7,1.2-13.6,1.1-20.4,0,0-4.7-.2-9.4-.5-14.2,0-.4.2-.7.6-.7h20.1c.4,0,.7.3.7.7h0c-.3,4.7-.5,9.4-.5,14.2ZM707.2,37.3c-1,4.4-3,6.8-5,8-.5.3-1.2.4-1.7.1-.1-4.8,0-9.6.2-14.4.4-.4,1-.8,1.5-1.1,3-1.5,6.7.1,5,7.4Z" style="fill: #c1322d; stroke-width: 0px;"/>
      <path d="M689.4,44.4v-.2c-.8-2.4-1.2-2.4-2,0v.2c.5,2.6.5,5.3,0,7.9v.2c.8,2.4,1.2,2.4,2,0v-.2c-.5-2.6-.5-5.3,0-7.9Z" style="fill: #c1322d; stroke-width: 0px;"/>
    </g>
  </g>
</svg>