<?xml version="1.0" encoding="UTF-8"?>
<svg id="Camada_1" data-name="Camada 1" xmlns="http://www.w3.org/2000/svg" viewBox="0 0 100 125">
  <path d="M89.4,87.5l-19.9-19.9c12.2-13.2,11.9-33.7-.9-46.6-6.6-6.6-15.2-9.8-23.7-9.8s-17.2,3.3-23.7,9.8c-13.2,13.2-13.2,34.5-.1,47.6,6.6,6.6,15.2,9.8,23.7,9.8s16.4-3,22.8-8.9l19.9,19.9c.3.3.6.4.9.4s.7-.1.9-.4c.6-.5.6-1.4.1-1.9ZM44.8,75.8c-8.3,0-16.1-3.2-21.9-9.1-12.1-12.1-12.1-31.8,0-43.8,5.9-5.9,13.6-9.1,21.9-9.1s16.1,3.2,21.9,9.1c12.1,12.1,12.1,31.8,0,43.8-5.8,5.9-13.6,9.1-21.9,9.1Z"/>
</svg>